<svg width="525" height="117" viewBox="0 0 525 117" fill="none" xmlns="http://www.w3.org/2000/svg">
<path d="M300.206 0.199018C322.969 -0.239769 345.646 0.131346 368.416 0.49725C392.555 0.886258 416.292 3.08633 440.037 6.08759C450.879 7.46325 461.585 9.41533 472.003 11.9483C477.338 13.244 482.611 14.6934 487.792 16.2904C492.525 17.7448 497.666 19.1851 501.972 21.2464C508.156 24.2074 515.31 27.9562 519.975 32.4466C522.309 34.693 524.039 37.1429 524.7 39.7921C525.364 42.4521 524.943 45.2838 523.031 48.267C522.408 49.2411 521.514 50.1261 520.559 50.9607C520.08 51.3788 519.583 51.7875 519.093 52.1901C518.603 52.5936 518.12 52.991 517.666 53.3896L512.443 57.9735L512.442 57.9735C509.097 60.9021 503.961 63.1379 499.66 65.2656C491.041 69.528 481.873 73.2707 472.317 76.4326C452.166 83.1012 431.35 88.6445 409.931 93.022C390.139 97.0698 369.984 100.193 349.735 102.956C303.19 109.318 256.07 113.551 208.679 115.517C184.575 116.513 160.416 116.954 136.262 116.804C112.27 116.655 88.2284 115.866 64.4112 113.588C54.8973 112.675 45.3281 111.816 35.9263 110.399L34.0481 110.109C28.9097 109.286 23.8096 108.28 18.882 106.937C14.6969 105.796 9.95966 104.493 6.36846 102.502C4.8592 101.664 3.4309 100.578 2.30802 99.3577C1.18687 98.1388 0.357762 96.7717 0.071035 95.3707L0.0720207 95.3697C-0.124761 94.4322 0.107322 93.2973 0.458192 92.213C0.811366 91.1218 1.30176 90.0313 1.65373 89.1861L1.65472 89.1841C2.38938 87.4485 4.01024 85.8853 5.43082 84.4577L6.00844 83.8909C12.0379 78.0982 19.8974 74.2346 28.4273 70.4128C66.8554 53.1937 110.175 41.8206 153.332 31.7224C193.879 22.2379 235.582 14.6051 278.069 10.6445C301.341 8.47929 324.947 7.36558 348.45 7.59383C360.378 7.71313 372.366 8.184 384.198 9.36493C395.87 10.5304 407.341 12.4895 418.723 14.5866L418.632 15.0779C418.468 15.0477 418.271 15.0637 418.038 15.1143C417.807 15.1648 417.561 15.2446 417.299 15.33C417.042 15.4138 416.77 15.503 416.506 15.5599C416.242 15.6166 415.968 15.6464 415.705 15.5992L415.704 15.5992C404.96 13.6141 394.169 11.7631 383.193 10.585C360.413 8.13656 337.091 8.23986 314.156 9.12759L314.155 9.12758C291.738 9.99193 269.461 11.8979 247.418 14.7829C201.291 20.815 156.463 30.9217 112.764 42.679C92.345 48.1737 72.148 54.1614 52.9191 61.4427C42.941 65.2204 33.1907 69.373 23.811 73.8236C20.1909 75.542 16.8501 77.5825 13.8732 79.8251L13.283 80.2766C10.319 82.5761 6.87915 85.361 5.24808 88.2052C4.96842 88.6922 4.79048 89.2596 4.63878 89.8548C4.49071 90.4358 4.36206 91.0658 4.18858 91.6163L4.18955 91.6173C4.05646 92.0515 3.82595 92.5572 3.65003 93.0126C3.46619 93.4886 3.33179 93.9294 3.33703 94.3096L3.35171 94.5128C3.40847 94.9969 3.63175 95.5452 3.94223 96.1044C4.29394 96.7378 4.74077 97.3562 5.1278 97.8715L5.12682 97.8715C6.95596 100.293 9.93092 102.022 13.4653 103.243C22.4094 106.331 31.6269 108.397 41.3984 109.76C62.8592 112.752 84.9203 114.309 106.75 115.126C153.02 116.861 199.661 115.656 245.737 112.708C291.943 109.755 338.147 104.819 383.284 97.4061C406.706 93.5573 429.767 88.4681 451.912 81.9234C471.19 76.2294 489.587 69.6034 505.889 60.3846C510.185 57.9533 513.374 54.4485 516.867 51.385C519.697 48.8971 521.424 46.2497 521.611 43.0747C521.773 40.4353 520.728 37.9578 518.962 35.6745C517.194 33.3903 514.715 31.3169 512.042 29.4958C498.405 20.2081 479.758 15.1812 461.812 11.3211C452.739 9.36752 443.549 8.02044 434.258 6.7803L430.27 6.25348C418.738 4.74642 407.122 3.58258 395.452 2.78403C383.764 1.98539 372.1 1.74957 360.368 1.43522L360.367 1.43521C348.739 1.1219 337.111 0.90659 325.482 0.9096C278.692 0.912068 232.025 3.58608 185.49 6.63526L185.489 6.63623L185.488 6.63524L185.488 6.63622L185.454 6.13784C185.925 6.10544 186.388 5.99667 186.875 5.88264C187.355 5.77019 187.859 5.65215 188.382 5.61654L188.383 5.61655C200.123 4.84819 211.874 4.10082 223.624 3.41688C247.588 2.0182 271.602 0.873051 295.652 0.297765L300.206 0.199018ZM46.8333 63.2674C40.6608 65.6721 34.5874 68.2003 28.632 70.8689C20.0995 74.6919 12.3146 78.5259 6.35566 84.2506L5.78493 84.8107C4.33652 86.2662 2.80327 87.752 2.11484 89.3769L2.11581 89.3779C1.7562 90.2415 1.27924 91.3012 0.934304 92.3669C0.609108 93.3718 0.416888 94.3386 0.533411 95.1162L0.561273 95.2688L0.561255 95.2708C0.823845 96.5535 1.59276 97.8413 2.67646 99.0194C3.7585 100.196 5.14222 101.25 6.61087 102.064C10.1391 104.021 14.8135 105.309 19.0135 106.455C23.9184 107.792 28.9998 108.794 34.127 109.615L36.0013 109.906C45.3854 111.32 54.9393 112.177 64.4589 113.091C85.7777 115.13 107.279 115.973 128.771 116.233C121.418 116.101 114.07 115.901 106.732 115.625C85.5741 114.834 64.1921 113.346 43.3453 110.532L41.3293 110.256C31.5315 108.889 22.2815 106.816 13.3017 103.716C9.72285 102.48 6.64169 100.707 4.72749 98.1724L4.7275 98.1715C4.33815 97.6531 3.87366 97.0115 3.50439 96.3464C3.1384 95.6871 2.84854 94.9744 2.83791 94.3176L2.83791 94.3166C2.8312 93.8319 2.99848 93.3126 3.18393 92.8325C3.37733 92.3318 3.58452 91.8851 3.71141 91.4712L3.71143 91.4692C3.88036 90.9339 3.99577 90.3503 4.15359 89.7311C4.30795 89.1255 4.4994 88.5047 4.81387 87.957C6.50316 85.0111 10.0307 82.1662 12.9762 79.8811L12.9772 79.8811C16.1288 77.439 19.7025 75.2198 23.5965 73.3714C31.1282 69.7976 38.8986 66.4173 46.8333 63.2674ZM353.954 0.774235C356.096 0.82453 358.238 0.877594 360.38 0.935312C372.107 1.24954 383.785 1.48577 395.486 2.28531C407.166 3.08457 418.793 4.24961 430.335 5.75798C440.986 7.15184 451.525 8.59436 461.917 10.8318C479.863 14.6918 498.597 19.7341 512.323 29.0824C515.018 30.9186 517.544 33.0264 519.357 35.3686C521.17 37.7119 522.281 40.3066 522.109 43.1058C521.924 46.2554 520.303 48.8788 517.726 51.2827L517.198 51.7611C513.759 54.777 510.491 58.3545 506.134 60.8195C495.201 67.0029 483.332 72.0196 470.899 76.3694C471.319 76.2315 471.74 76.0963 472.159 75.9575L472.16 75.9575C481.695 72.8026 490.841 69.0686 499.437 64.8172C503.784 62.6672 508.831 60.47 512.112 57.5973C512.981 56.832 513.854 56.0686 514.725 55.3054C515.596 54.542 516.468 53.7783 517.336 53.0135L518.045 52.4078C518.286 52.2064 518.531 52.0055 518.776 51.8043C519.266 51.4009 519.758 50.9967 520.229 50.5845C521.175 49.7584 522.026 48.9114 522.61 47.9984L522.94 47.4605C524.501 44.7825 524.804 42.2692 524.216 39.9136C523.586 37.3903 521.927 35.0189 519.628 32.8066C515.028 28.379 507.944 24.6604 501.755 21.6975C497.492 19.6567 492.4 18.2297 487.645 16.7685L487.644 16.7685C482.473 15.1747 477.21 13.7269 471.885 12.4335L471.884 12.4335C461.485 9.90524 450.798 7.95748 439.974 6.58408C416.24 3.58416 392.522 1.38579 368.407 0.997191C363.585 0.919704 358.768 0.844447 353.954 0.774235ZM346.692 8.07926C358.934 8.20732 371.165 8.78891 383.246 10.0874C394.242 11.2676 405.047 13.1212 415.795 15.1069L415.794 15.1069C415.964 15.1375 416.166 15.1221 416.401 15.0716C416.635 15.0211 416.882 14.9403 417.143 14.8549C417.175 14.8445 417.208 14.8341 417.24 14.8236C406.319 12.8246 395.324 10.9784 384.149 9.86253C372.336 8.68356 360.363 8.21302 348.445 8.09381C347.861 8.08813 347.276 8.08328 346.692 8.07926Z" fill="#9810FA"/>
</svg>
