<svg width="247" height="148" viewBox="160 0 247 148" fill="none" xmlns="http://www.w3.org/2000/svg">
<g filter="url(#filter0_dd_51_1097)">
<path d="M183.32 97.1283C183.06 94.4358 183.133 91.5315 181.867 89.0612C181.27 87.8933 180.331 86.8029 179.018 86.4411C177.887 86.1311 176.777 86.4566 175.682 86.7512C172.943 87.4954 170.966 89.2473 169.233 91.4333C167.293 93.8829 165.643 96.5753 164.304 99.397C162.084 104.079 160.698 109.273 160.32 114.446C160.019 118.596 160.584 123.35 164.154 126.048C166.779 128.027 170.302 128.58 173.514 128.466C176.985 128.342 180.373 127.5 183.755 126.792C184.212 126.694 184.845 126.477 185.203 126.399C179.402 127.614 173.016 129.34 167.35 126.663C163.339 124.766 161.85 120.637 161.757 116.451C161.71 114.322 161.959 112.193 162.338 110.094C162.774 107.645 163.365 105.221 164.201 102.875C165.202 100.053 166.515 97.3453 168.097 94.8027C169.576 92.4203 171.272 89.9398 173.488 88.1724C174.079 87.6969 174.723 87.2835 175.407 86.9579C175.594 86.8701 175.786 86.7925 175.978 86.715C176.097 86.6737 176.212 86.6323 176.331 86.591C175.324 86.8339 175.138 86.8907 175.776 86.7615C176.097 86.7098 176.424 86.6943 176.751 86.715C178.209 86.808 179.335 87.7538 180.077 88.9527C181.639 91.4901 181.54 94.6632 181.81 97.521C181.81 97.4539 183.33 97.2213 183.32 97.1283Z" fill="url(#paint0_linear_51_1097)"/>
<path d="M197.691 97.4435C196.669 97.1645 195.906 97.3712 194.91 97.6657C193.893 97.9655 193.245 98.875 192.716 99.7484C191.336 102.033 190.246 104.632 189.457 107.175C188.793 109.319 188.264 111.676 188.492 113.934C188.674 115.764 189.696 117.733 191.813 117.691C192.669 117.676 193.592 117.366 194.391 117.097C195.419 116.751 196.316 116.074 197.115 115.355C198.916 113.738 200.342 111.764 201.323 109.552C202.324 107.288 202.916 104.766 203.02 102.296C203.118 99.9861 202.708 97.3608 200.955 95.6968C199.279 94.1102 196.986 93.7795 194.812 94.3428C193.675 94.6374 192.555 94.9319 191.553 95.5727C190.49 96.2549 189.644 97.2058 188.85 98.167C188.939 98.0585 189.463 98.012 189.603 97.9758C189.763 97.9345 190.241 97.8983 190.355 97.7691C190.962 97.0352 191.59 96.3169 192.327 95.7123C192.659 95.4436 193.006 95.1955 193.375 94.9836C193.567 94.8751 193.758 94.7769 193.961 94.6839C194.08 94.6322 194.2 94.5805 194.319 94.534C194.407 94.4978 194.495 94.4668 194.589 94.4358C194.947 94.317 194.822 94.348 194.22 94.5392C194.63 94.5547 195.056 94.441 195.471 94.4565C195.912 94.472 196.353 94.534 196.783 94.6425C197.634 94.8596 198.438 95.2523 199.123 95.8105C202.413 98.4874 201.749 103.748 200.758 107.35C200.192 109.402 199.279 111.371 198.028 113.097C196.929 114.622 195.502 116.141 193.847 117.071C193.65 117.18 193.447 117.262 193.25 117.366C192.897 117.552 193.006 117.2 193.691 117.262C193.608 117.252 193.504 117.283 193.421 117.283C192.934 117.304 192.456 117.205 192.015 116.999C191.341 116.678 190.832 116.131 190.511 115.464C189.836 114.069 189.893 112.384 190.075 110.88C190.381 108.317 191.19 105.836 192.207 103.469C192.726 102.27 193.281 101.071 193.904 99.9241C194.423 98.9629 195.123 97.7226 196.213 97.3247C195.746 97.4487 195.279 97.5779 194.812 97.7019C195.273 97.5831 195.756 97.7226 196.207 97.8414C196.379 97.8879 196.788 97.6916 196.96 97.6502C197.115 97.6089 197.52 97.397 197.691 97.4435Z" fill="url(#paint1_linear_51_1097)"/>
<path d="M209.189 109.531C209.604 107.485 210.226 105.49 210.787 103.474C211.347 101.459 211.762 99.4021 212.099 97.3402C212.442 95.2213 212.727 93.0973 213.147 90.994C213.344 90.0173 213.583 89.0561 213.78 88.0793C213.926 87.361 214.066 86.622 214.652 86.1207C214.149 86.2551 213.651 86.3895 213.147 86.5238C213.718 87.3145 213.417 88.5238 213.277 89.4075C213.059 90.7976 213.007 92.224 212.903 93.6296C212.789 95.1852 212.639 96.7407 212.53 98.3014C212.488 98.9319 212.478 99.5675 212.431 100.198C212.39 100.725 212.307 101.319 212.494 101.831C212.68 102.337 212.862 102.291 213.308 102.177C213.739 102.064 214.211 101.986 214.616 101.8C215.482 101.407 216.037 100.394 216.499 99.614C217.957 97.18 219.295 94.6891 220.676 92.2085C221.48 90.7666 222.211 89.2886 223.036 87.852C223.41 87.2008 223.82 86.5755 224.219 85.945C224.499 85.5006 224.805 84.9528 225.319 84.7409C224.816 84.8753 224.318 85.0096 223.814 85.144C224.805 84.9683 223.545 88.87 223.41 89.3351C222.808 91.3454 222.284 93.4333 221.858 95.4901C221.506 97.1955 221.075 99.2936 221.677 100.994C222.242 102.596 223.923 102.921 225.454 102.921C227.379 102.921 229.475 102.337 231.234 101.573C230.767 101.774 230.201 101.769 229.729 101.976C229.392 102.12 229.049 102.244 228.707 102.374C228.583 102.42 228.173 102.529 228.78 102.369C229.459 102.188 228.759 102.358 228.536 102.394C227.939 102.493 227.337 102.539 226.73 102.524C225.812 102.503 224.785 102.389 224.032 101.81C222.595 100.71 222.865 98.4151 223.062 96.8544C223.373 94.441 224.126 92.1103 224.696 89.7486C224.909 88.8752 225.22 88.0328 225.454 87.1698C225.563 86.7667 225.656 86.3533 225.693 85.9347C225.713 85.6711 225.776 84.8494 225.485 84.7306C225.283 84.6427 224.743 84.8908 224.562 84.9373C224.245 85.02 223.866 85.0716 223.586 85.2577C222.953 85.6763 222.523 86.622 222.128 87.2473C220.826 89.3196 219.742 91.5366 218.574 93.6865C217.448 95.7588 216.297 97.8104 215.093 99.8414C214.699 100.503 214.299 101.195 213.739 101.738C213.593 101.878 213.438 101.981 213.282 102.105C213.142 102.219 212.556 102.389 213.687 101.986C214.621 101.65 214.175 101.976 214.086 101.624C213.972 101.185 213.874 100.844 213.894 100.374C213.998 97.7381 214.268 95.1076 214.465 92.472C214.553 91.2679 214.616 90.0483 214.808 88.8545C214.942 88.007 215.202 86.8701 214.652 86.1156C214.616 86.0639 213.246 86.436 213.147 86.5186C212.561 87.0148 212.421 87.7589 212.276 88.4773C212.078 89.454 211.84 90.4152 211.643 91.3919C211.222 93.4953 210.937 95.6193 210.595 97.7381C210.257 99.8052 209.847 101.857 209.282 103.872C208.722 105.883 208.099 107.877 207.684 109.929C207.731 109.717 209.142 109.769 209.189 109.531Z" fill="url(#paint2_linear_51_1097)"/>
<path d="M236.111 84.1673C235.945 87.0975 235.421 89.9915 234.803 92.8596C234.508 94.2446 234.191 95.6244 233.89 97.0094C233.729 97.7433 233.574 98.4771 233.408 99.2058C233.288 99.7174 232.915 100.431 233.195 100.927C233.221 100.973 234.585 100.596 234.7 100.524C234.819 100.451 234.938 100.379 235.058 100.312C234.632 100.565 233.984 100.456 233.553 100.715C233.434 100.787 233.314 100.859 233.195 100.927C233.698 100.792 234.196 100.658 234.7 100.524C234.43 100.053 234.772 99.4177 234.886 98.9267C235.052 98.198 235.213 97.4642 235.369 96.7304C235.675 95.304 236.002 93.8829 236.308 92.4617C236.925 89.5935 237.449 86.7047 237.615 83.7693C237.605 83.914 236.121 83.9916 236.111 84.1673Z" fill="url(#paint3_linear_51_1097)"/>
<path d="M236.339 71.3561C236.593 70.5448 236.764 69.6662 237.242 68.9479C237.346 68.7929 237.486 68.6017 237.672 68.5448C237.366 68.6275 237.055 68.7153 236.749 68.798C236.235 68.9066 236.069 68.9531 236.261 68.9272C236.272 68.9272 236.282 68.9272 236.292 68.9272C236.313 68.9272 236.339 68.9221 236.36 68.9324C236.412 68.9531 236.401 68.9841 236.412 69.0409C236.422 69.1081 236.432 69.1805 236.438 69.2477C236.469 69.5215 236.479 69.7954 236.479 70.0745C236.479 70.6378 236.438 71.1959 236.438 71.7592C236.438 71.7386 237.133 71.5835 237.19 71.568C237.366 71.5215 237.543 71.475 237.719 71.4233C237.745 71.4181 237.937 71.3716 237.937 71.3613C237.937 70.6275 238.01 69.8988 237.968 69.165C237.958 68.9892 237.942 68.8135 237.916 68.6378C237.906 68.5603 237.916 68.5448 237.849 68.5241C237.818 68.5138 237.781 68.5241 237.75 68.5241C237.48 68.5603 237.211 68.6585 236.946 68.7257C236.707 68.7877 236.458 68.8497 236.225 68.9221C236.189 68.9324 236.152 68.9479 236.121 68.9634C235.841 69.1029 235.67 69.4389 235.54 69.7076C235.364 70.0745 235.229 70.4569 235.109 70.8445C235.016 71.1442 234.938 71.4543 234.845 71.7541C234.845 71.7489 235.094 71.692 235.068 71.7024C235.244 71.6559 235.421 71.6094 235.602 71.5628C235.779 71.5163 235.955 71.4698 236.132 71.4181C236.147 71.413 236.329 71.382 236.339 71.3561Z" fill="url(#paint4_linear_51_1097)"/>
<path d="M246.653 83.8469C246.705 86.56 246.29 89.2473 245.74 91.8984C245.476 93.1749 245.185 94.4513 244.9 95.7226C244.749 96.3996 244.599 97.0818 244.428 97.7536C244.267 98.3892 244.018 98.9939 243.94 99.645C243.961 99.49 245.284 99.3918 245.445 99.2419C247.229 97.5675 247.976 94.9578 248.884 92.7614C249.953 90.1672 250.991 87.5574 251.997 84.9321C252.911 82.5497 253.741 80.126 255.245 78.0382C255.795 77.2733 256.423 76.5033 257.191 75.94C257.336 75.8367 257.492 75.7591 257.637 75.6558C258.011 75.4026 256.745 75.9297 256.682 75.878C256.714 75.9038 256.838 75.8625 256.885 75.8883C257.274 76.1002 257.424 76.3018 257.513 76.7669C257.746 77.9607 257.315 79.2371 257.077 80.3947C256.791 81.759 256.491 83.1182 256.169 84.4722C255.546 87.0819 254.472 89.5832 254.052 92.2395C253.881 93.3351 253.839 94.6787 254.986 95.2523C255.966 95.7433 257.232 95.5417 258.26 95.335C259.832 95.0146 261.393 94.5495 262.898 94.0017C264.05 93.5831 265.171 93.0612 266.333 92.6788C265.98 92.7976 265.331 92.9113 264.88 93.0612C263.967 93.3661 263.08 93.764 262.182 94.1102C261.502 94.3738 260.812 94.6219 260.117 94.8389C259.987 94.8803 259.718 95.0146 259.588 94.9991C259.546 94.994 260.444 94.8079 260.003 94.8803C259.946 94.8906 259.884 94.9061 259.827 94.9216C259.474 94.9991 259.121 95.0611 258.763 95.0973C257.819 95.2007 256.599 95.2058 255.925 94.4152C254.903 93.2214 255.666 91.0509 256.008 89.7641C256.356 88.4618 256.797 87.1801 257.181 85.8882C257.564 84.5962 257.855 83.2836 258.151 81.9709C258.436 80.6945 258.753 79.4077 258.971 78.1157C259.079 77.4542 259.354 75.7695 258.436 75.4956C258.187 75.4232 257.912 75.5266 257.673 75.5886C257.248 75.6971 256.797 75.7902 256.382 75.9452C255.717 76.1932 255.178 76.7255 254.711 77.2372C253.045 79.0511 252.018 81.2888 251.162 83.5626C250.067 86.467 248.931 89.3558 247.759 92.224C247.193 93.609 246.622 94.994 246.031 96.3686C245.512 97.5779 244.91 98.7252 243.94 99.6347C244.443 99.5003 244.941 99.366 245.445 99.2316C245.517 98.6166 245.745 98.0482 245.901 97.459C246.078 96.7872 246.223 96.105 246.373 95.428C246.669 94.1154 246.965 92.8028 247.24 91.485C247.79 88.8339 248.205 86.1466 248.153 83.4334C248.158 83.5575 246.648 83.7125 246.653 83.8469Z" fill="url(#paint5_linear_51_1097)"/>
<path d="M280.092 77.7229C280.99 76.6842 281.81 75.4904 282.328 74.2139C282.785 73.0873 283.013 71.3251 281.42 71.015C280.715 70.8807 279.812 71.2424 279.153 71.4595C278.37 71.7179 277.757 72.307 277.228 72.922C275.796 74.5757 274.613 76.493 273.622 78.4309C272.528 80.5704 271.412 82.8546 271.35 85.299C271.314 86.7667 271.35 88.4049 272.014 89.7537C272.844 91.4488 274.603 91.4074 276.222 90.9888C278.219 90.4721 279.968 89.6865 281.56 88.3481C283.48 86.7409 284.808 84.5652 285.727 82.2655C286.204 81.0717 286.609 79.8366 286.873 78.5756C287.013 77.9141 287.081 77.2475 287.143 76.5757C287.185 76.1312 287.304 75.5834 286.993 75.2062C286.92 75.1183 285.633 75.5421 285.488 75.6093C284.565 76.0072 284.367 77.1596 284.16 78.033C283.833 79.3922 283.413 80.7255 283.138 82.1001C282.526 85.1543 282.276 88.2706 282.059 91.3713C281.618 97.7174 281.275 104.033 280.232 110.317C279.252 116.234 278.115 122.316 275.682 127.841C274.546 130.42 273.114 132.869 271.443 135.143C269.84 137.329 268.04 139.453 265.871 141.112C261.077 144.776 255.152 145.83 249.398 147.081C248.941 147.179 248.309 147.396 247.951 147.474C252.968 146.388 258.177 145.484 262.888 143.36C265.305 142.27 267.542 140.807 269.415 138.931C271.516 136.823 273.347 134.394 274.888 131.851C278.152 126.471 279.724 120.451 280.928 114.337C282.23 107.728 282.935 101.097 283.345 94.3738C283.568 90.7046 283.76 87.0096 284.341 83.3714C284.622 81.6092 285.037 79.8831 285.524 78.1622C285.805 77.1648 285.898 75.6765 286.993 75.2062C286.489 75.3405 285.991 75.4749 285.488 75.6093C285.945 76.1571 285.613 77.4439 285.524 78.0795C285.374 79.1493 285.083 80.1932 284.746 81.2216C284.118 83.1233 283.283 84.9735 282.084 86.591C280.912 88.1672 279.381 89.4747 277.638 90.379C277.425 90.4876 277.213 90.5909 276.99 90.6891C276.829 90.7563 275.827 91.1025 276.512 90.8855C277.083 90.7098 276.383 90.8545 276.191 90.8648C275.936 90.8752 275.682 90.8648 275.433 90.8286C274.717 90.7253 274.146 90.3739 273.747 89.7744C272.984 88.6323 272.875 87.0923 272.849 85.759C272.813 83.7487 273.316 81.9192 274.136 80.095C275.075 77.9968 276.18 75.9659 277.529 74.1003C277.981 73.4801 278.427 72.8496 278.951 72.2863C279.21 72.0073 279.49 71.7385 279.796 71.5163C279.942 71.4078 280.097 71.3251 280.253 71.2321C280.315 71.1959 280.393 71.1752 280.455 71.1391C279.179 71.8987 279.236 71.3303 279.703 71.4026C283.174 71.9608 279.703 76.8392 278.582 78.1312C278.676 78.0227 279.189 77.9761 279.335 77.94C279.506 77.8831 279.978 77.8573 280.092 77.7229Z" fill="url(#paint6_linear_51_1097)"/>
<path d="M327.679 63.7232C325.822 62.8963 323.944 62.3744 321.9 62.4054C320.431 62.426 319.005 62.7051 317.614 63.1702C316.924 63.4028 316.234 63.8059 315.886 64.4725C315.466 65.2684 315.814 66.2244 316.224 66.9531C317.215 68.7308 319.16 69.8316 320.561 71.2579C323.051 73.785 325.48 77.7901 323.472 81.3198C322.59 82.8753 321.101 83.9761 319.529 84.7822C318.854 85.1285 318.154 85.4282 317.438 85.6918C317.137 85.8003 316.836 85.8985 316.535 85.9915C316.426 86.0225 316.312 86.0484 316.208 86.0897C316.198 86.0949 316.929 85.914 316.551 85.9967C316.338 86.0432 316.13 86.0949 315.918 86.1362C313.152 86.6995 309.168 86.9579 307.564 84.0846C307.497 83.9657 306.117 84.5859 306.06 84.4877C307.476 87.0354 310.817 87.0923 313.365 86.7254C316.052 86.3326 318.885 85.5419 321.287 84.2551C322.896 83.3921 324.411 82.1776 325.194 80.4929C325.978 78.803 325.734 76.8341 325.07 75.1493C324.333 73.2786 323.01 71.7592 321.573 70.3794C320.136 69.0047 318.2 67.8885 317.438 65.9609C317.059 64.9996 317.158 64.0539 317.988 63.3769C318.159 63.2374 318.351 63.1185 318.548 63.0152C318.626 62.979 318.698 62.9428 318.776 62.9067C319.7 62.5087 318.429 63.0152 318.206 63.0203C318.699 63.0048 319.202 62.8653 319.7 62.8343C322.003 62.7103 324.094 63.1961 326.185 64.1314C326.315 64.1883 326.803 63.9764 326.938 63.9402C327.067 63.8937 327.545 63.6663 327.679 63.7232Z" fill="url(#paint7_linear_51_1097)"/>
<path d="M332.883 64.4415C331.047 66.2296 329.687 68.3898 328.764 70.7721C328.406 71.7024 328.037 72.6843 327.887 73.6713C327.788 74.3225 327.794 75.1287 328.463 75.4749C329.298 75.909 330.429 75.5214 331.27 75.2992C332.38 75.0046 333.433 74.6739 334.45 74.1261C336.266 73.139 337.958 71.8109 339.514 70.4569C340.879 69.2683 342.321 67.873 342.985 66.1521C343.654 64.4157 342.918 62.4519 341.003 61.9609C339.462 61.563 337.522 61.8214 335.981 62.178C335.203 62.3589 334.378 62.5294 333.641 62.8395C333.418 62.9325 333.049 63.0927 332.951 63.3408C332.868 63.5578 332.883 63.5113 333.091 63.5836C333.407 63.6922 333.885 63.656 334.212 63.6457C335.415 63.6043 336.609 63.2426 337.755 62.9015C339.068 62.5139 340.297 61.8938 341.47 61.2013C342.72 60.4623 343.955 59.6612 345.138 58.8189C345.688 58.4261 346.243 57.992 346.669 57.4649C347.011 57.036 347.297 56.5192 347.826 56.2918C347.333 56.4262 346.84 56.5553 346.347 56.6897C346.741 56.5967 346.518 56.7879 346.43 56.9946C346.352 57.1755 346.269 57.3564 346.186 57.5372C346.036 57.8628 345.875 58.1832 345.714 58.5036C345.366 59.2116 345.024 59.9196 344.733 60.6535C344.168 62.0798 343.711 63.5578 343.353 65.0513C343.13 65.997 342.658 67.2942 342.912 68.2812C343.156 69.2373 344.381 69.3096 345.19 69.1753C349.491 68.4724 354.166 64.9997 354.13 60.3176C354.119 59.191 353.668 58.2969 352.599 57.8525C351.634 57.4546 350.487 57.3719 349.465 57.5734C349.014 57.6613 348.573 57.7956 348.132 57.9145C347.94 57.9662 347.748 58.0127 347.561 58.0799C347.291 58.1729 347.234 58.1832 347.52 58.2814C348.267 58.5295 349.325 58.0695 350.026 57.8732C351.701 57.3977 353.107 56.3073 354.482 55.2892C356.361 53.8991 358.234 52.4934 360.112 51.1084C360.475 50.8397 360.859 50.6381 361.238 50.4004C359.546 51.465 359.774 50.4159 360.278 50.8552C360.387 50.9482 360.444 51.0981 360.49 51.2324C360.781 52.0386 360.651 53.0515 360.568 53.8836C360.314 56.4933 359.007 58.9326 359.043 61.5682C359.043 61.4183 360.49 61.3511 360.548 61.1651C361.284 58.6483 362.727 56.3486 364.081 54.1213C364.724 53.0619 365.419 52.018 366.249 51.0877C366.893 50.3694 367.63 49.4547 368.553 49.1033C368.372 49.155 368.185 49.2066 368.003 49.2583C368.05 49.2428 368.102 49.2325 368.148 49.217C367.832 49.2997 367.51 49.3824 367.194 49.465C367.308 49.4495 367.438 49.4185 367.552 49.4547C367.806 49.5322 367.707 49.4599 367.827 49.7389C367.962 50.0438 367.977 50.4676 368.019 50.7932C368.117 51.5839 368.128 52.3797 368.221 53.1704C368.351 54.2505 368.641 55.3306 369.487 56.0799C370.909 57.3357 373.108 57.2323 374.867 57.0101C377.295 56.7052 379.692 56.1161 382.048 55.4753C384.741 54.7414 387.376 53.8112 389.825 52.4572C392.715 50.8552 395.076 48.4935 397.945 46.8708C397.509 47.1188 396.881 47.0258 396.44 47.2738C394.796 48.2041 393.327 49.3875 391.828 50.5296C390.271 51.7079 388.647 52.757 386.883 53.6045C383.49 55.2324 379.739 56.2608 375.993 56.6587C373.56 56.9171 370.623 56.607 369.907 53.8319C369.658 52.8655 369.653 51.8629 369.57 50.8759C369.528 50.4004 369.471 49.925 369.357 49.465C369.259 49.0516 369.077 49.0051 368.667 49.0774C368.112 49.1705 367.5 49.3307 366.976 49.5374C366.327 49.7958 365.845 50.3487 365.373 50.8397C363.956 52.3074 362.882 53.9817 361.86 55.7388C360.776 57.6096 359.655 59.4804 359.043 61.5733C359.546 61.439 360.044 61.3046 360.548 61.1703C360.516 58.8602 361.601 56.7672 361.943 54.514C362.047 53.8422 362.12 53.1652 362.14 52.4882C362.156 51.9198 362.223 51.1032 361.891 50.602C361.544 50.0748 360.729 50.5193 360.262 50.6485C359.608 50.8293 359.095 51.1601 358.55 51.5632C356.822 52.8397 355.121 54.1471 353.377 55.4081C352.101 56.328 350.856 57.346 349.398 57.9765C349.31 58.0127 349.216 58.0489 349.128 58.085C348.334 58.4158 349.948 57.8887 349.953 57.8887C349.74 57.899 349.548 57.9558 349.33 57.9455C349.206 57.9352 349.024 57.93 348.915 57.8628C348.884 57.8473 348.708 57.7181 348.837 57.775C349.154 57.6458 348.91 57.7078 348.101 57.961C348.153 57.9507 348.204 57.9455 348.256 57.9352C349.216 57.868 350.176 57.8887 351.079 58.2659C353.092 59.1031 352.801 61.7387 352.148 63.4286C351.406 65.3511 349.636 66.8808 347.94 67.9815C347.478 68.2812 347.001 68.5551 346.498 68.7722C346.357 68.8342 346.212 68.8859 346.067 68.9427C345.341 69.2425 347.416 68.705 346.664 68.7825C346.383 68.8135 346.119 68.8497 345.833 68.8239C345.024 68.7515 344.401 68.3949 344.355 67.5371C344.303 66.519 344.656 65.4079 344.894 64.4312C345.216 63.1289 345.61 61.8421 346.093 60.5863C346.575 59.3305 347.214 58.1522 347.769 56.9274C347.826 56.7982 347.924 56.6329 347.961 56.4933C348.07 56.0954 348.106 56.3331 347.924 56.2763C347.836 56.2453 347.587 56.3538 347.504 56.3796C347.11 56.483 346.674 56.5502 346.3 56.7052C345.896 56.8758 345.631 57.2375 345.372 57.5786C345.055 57.992 344.723 58.3538 344.324 58.6897C343.385 59.4752 342.316 60.116 341.288 60.7775C340.272 61.4338 339.234 62.0695 338.134 62.5811C337.875 62.7051 337.61 62.8188 337.34 62.9273C337.205 62.979 337.076 63.0307 336.941 63.0824C335.773 63.5061 337.537 63.041 336.806 63.1289C336.194 63.2012 335.602 63.2891 334.985 63.2374C334.813 63.2219 334.419 63.2322 334.388 63.0875C334.367 62.9945 334.518 62.8446 334.57 62.793C334.808 62.5397 335.151 62.4726 335.457 62.333C334.455 62.793 334.429 62.5811 334.793 62.5191C334.922 62.4984 335.047 62.4726 335.177 62.4467C335.374 62.4157 335.576 62.3847 335.773 62.3589C336.079 62.3227 336.38 62.2917 336.686 62.2658C338.471 62.1315 340.567 62.1315 341.465 63.9816C342.181 65.4596 341.382 67.072 340.484 68.2709C339.462 69.6404 338.15 70.7928 336.811 71.8522C336.1 72.4155 335.374 72.9685 334.627 73.4853C334.108 73.8419 333.579 74.1829 333.029 74.4878C332.769 74.6325 332.505 74.7669 332.24 74.8909C331.939 75.0305 331.389 75.1235 331.145 75.325C331.498 75.0356 331.742 75.1907 331.368 75.2217C331.239 75.232 331.114 75.2527 330.99 75.2579C330.761 75.2682 330.528 75.263 330.3 75.2062C329.993 75.1338 329.713 74.984 329.542 74.7152C329.184 74.1571 329.345 73.3664 329.49 72.767C329.993 70.6533 330.917 68.5603 332.126 66.7515C332.78 65.7748 333.537 64.8808 334.378 64.0591C334.258 64.1728 333.786 64.209 333.625 64.2503C333.449 64.2865 333.023 64.3071 332.883 64.4415Z" fill="url(#paint8_linear_51_1097)"/>
<path d="M400.176 12.5096C400.959 10.3546 401.675 8.16859 402.583 6.0601C403.024 5.02652 403.548 4.03946 404.041 3.03173C404.275 2.55628 404.503 2.07567 404.695 1.57956C404.845 1.1868 404.934 0.788878 405.24 0.478806C404.736 0.61317 404.238 0.747534 403.735 0.881899C403.86 1.99299 403.19 3.21261 402.775 4.21001C402.194 5.6105 401.8 7.09884 401.385 8.55618C400.368 12.1375 399.553 15.7705 398.806 19.419C397.281 26.8969 395.745 34.3748 394.536 41.9096C394.22 43.8889 393.841 45.8682 393.67 47.8682C393.628 48.3643 393.483 49.0309 393.582 49.5219C393.618 49.7079 393.504 49.7182 393.706 49.8216C393.815 49.8785 393.924 49.8216 394.033 49.8009C394.562 49.7131 395.439 49.6097 395.693 49.0981C395.652 49.1808 395.039 49.2635 394.941 49.2893C394.822 49.3203 394.246 49.3824 394.189 49.496C394.111 49.6459 394.069 49.7286 393.929 49.8216C394.432 49.6872 394.931 49.5529 395.434 49.4185C395.024 49.496 395.081 49.1808 395.091 48.8759C395.102 48.4418 395.128 48.0077 395.164 47.5736C395.231 46.7312 395.34 45.8889 395.465 45.0517C395.714 43.3773 396.005 41.7081 396.274 40.0337C396.84 36.4989 397.514 32.9847 398.215 29.4757C399.595 22.5456 400.835 15.5586 402.723 8.7474C403.17 7.14019 403.59 5.48646 404.223 3.9361C404.648 2.90253 405.364 1.62607 405.235 0.473633C405.245 0.545983 403.844 0.757865 403.73 0.876726C403.445 1.16613 403.351 1.53305 403.211 1.89997C403.029 2.38575 402.801 2.85603 402.578 3.32113C402.075 4.36504 401.525 5.38311 401.068 6.45286C400.166 8.56135 399.444 10.7474 398.661 12.9024C398.687 12.8352 399.33 12.7318 399.413 12.7111C399.527 12.6905 400.14 12.6078 400.176 12.5096Z" fill="url(#paint9_linear_51_1097)"/>
<path d="M394.111 61.4235C392.86 61.7594 391.657 62.1315 390.588 62.886C390.121 63.2167 389.618 63.5423 389.213 63.9454C389.037 64.1211 388.871 64.3227 388.788 64.5604C388.699 64.8084 388.762 64.8963 389.005 64.9583C389.426 65.0617 389.893 64.8963 390.292 64.7929C390.894 64.6379 391.506 64.488 392.087 64.2606C392.98 63.9092 393.846 63.4544 394.718 63.0514C395.356 62.7568 395.984 62.4312 396.565 62.0281C396.835 61.8421 397.094 61.6405 397.338 61.4183C397.452 61.3149 397.561 61.2064 397.67 61.0979C397.8 60.9635 397.883 60.917 397.784 60.7568C397.457 60.209 396.674 60.302 396.15 60.4209C395.128 60.6483 394.064 60.9067 393.156 61.439C392.617 61.7542 391.901 62.2297 391.719 62.8653C391.693 62.9532 391.646 63.134 391.703 63.2219C391.843 63.4441 392.451 63.5061 392.679 63.5216C393.39 63.5681 394.106 63.3252 394.785 63.1444C395.698 62.8963 396.726 62.6483 397.561 62.1832C397.888 62.0023 398.272 61.7129 398.21 61.2943C398.152 60.917 397.763 60.7207 397.431 60.6225C396.461 60.3279 395.553 60.5966 394.609 60.855C393.696 61.1031 392.886 61.6767 392.284 62.4054C391.952 62.8085 391.662 63.687 392.445 63.7645C392.881 63.811 393.374 63.6147 393.784 63.5061C394.272 63.3769 394.759 63.2581 395.221 63.0514C395.859 62.7671 396.591 62.3795 397.047 61.8369C397.25 61.594 397.416 61.1547 397.053 60.9842C396.58 60.762 395.797 61.1186 395.351 61.2374C394.479 61.4752 393.535 61.8369 392.912 62.5242C392.798 62.6534 392.684 62.8085 392.653 62.9842C392.617 63.2012 392.694 63.2581 392.892 63.3046C393.265 63.3976 393.67 63.3511 394.038 63.2736C394.676 63.1392 395.325 62.9738 395.937 62.762C396.326 62.6276 396.71 62.4415 397.001 62.147C397.26 61.8782 397.39 61.5527 397.317 61.1806C397.322 61.2013 395.807 61.5423 395.813 61.5837C395.953 62.2503 395.403 62.7258 394.853 62.9945C394.578 63.1289 393.805 63.3356 394.925 63.0359C396.036 62.7361 395.268 62.9377 394.951 62.9532C394.759 62.9583 394.272 62.979 394.163 62.7981C394.012 62.5501 394.381 62.1522 394.531 62.0075C394.806 61.7439 395.143 61.5372 395.475 61.3563C395.621 61.2788 395.771 61.2064 395.922 61.1393C395.984 61.1134 396.046 61.0876 396.108 61.0617C396.279 60.9842 396.741 60.8808 395.615 61.1909C394.536 61.4855 394.993 61.3201 395.2 61.3305C395.564 61.3511 395.854 61.4803 395.73 61.9041C395.589 62.3744 395.034 62.7051 394.645 62.9532C394.37 63.1289 394.085 63.2839 393.789 63.4234C393.633 63.4958 393.473 63.5526 393.312 63.6147C392.98 63.7438 394.515 63.3253 394.381 63.3356C394.339 63.3408 394.298 63.3511 394.256 63.3563C394.189 63.3614 394.126 63.3718 394.059 63.3718C393.566 63.3666 393.338 62.9893 393.478 62.5242C393.685 61.8421 394.51 61.2581 395.076 60.8912C395.211 60.8033 395.356 60.731 395.496 60.6483C395.527 60.6328 395.558 60.6225 395.589 60.607C395.377 60.6638 395.164 60.7155 394.951 60.7723C394.298 60.9274 394.1 60.979 394.355 60.9325C394.432 60.9222 394.51 60.9067 394.588 60.9015C394.925 60.8705 395.278 60.886 395.61 60.948C396.103 61.0359 396.933 61.3615 396.663 62.0178C396.404 62.6534 395.382 62.8963 394.806 63.0824C394.692 63.1185 394.583 63.1547 394.469 63.1909C394.251 63.2632 393.618 63.4441 394.578 63.1805C395.548 62.917 394.827 63.103 394.567 63.1185C394.23 63.1392 393.301 63.1237 393.192 62.7309C393.078 62.3072 393.639 61.7904 393.914 61.5578C394.422 61.1237 395.029 60.7878 395.662 60.5656C395.709 60.5501 395.75 60.5346 395.797 60.5191C395.994 60.4468 396.399 60.3537 395.289 60.6535C394.209 60.9429 394.671 60.8085 394.925 60.7672C395.065 60.7465 395.211 60.731 395.356 60.731C395.595 60.731 395.849 60.7723 396.046 60.9067C396.129 60.9635 396.202 61.0307 396.259 61.1134C396.399 61.315 396.29 61.3821 396.129 61.5475C395.745 61.9403 395.309 62.2814 394.848 62.5759C393.991 63.1237 393.058 63.4906 392.15 63.9351C391.849 64.0798 391.548 64.2348 391.247 64.3743C391.076 64.457 390.899 64.5345 390.723 64.6069C390.432 64.7257 389.529 64.9841 390.676 64.6792C391.771 64.3847 391.024 64.6017 390.712 64.5811C390.593 64.5759 390.406 64.5604 390.313 64.4777C390.054 64.2451 390.578 63.6818 390.759 63.5061C391.434 62.8601 392.316 62.2658 393.156 61.8576C393.582 61.6509 394.126 61.439 394.521 61.3356C394.671 61.2943 394.822 61.2581 394.967 61.2116C394.936 61.2219 395.133 61.1703 395.039 61.1858C394.728 61.2323 394.412 61.346 394.111 61.4235Z" fill="url(#paint10_linear_51_1097)"/>
<path d="M280.208 70.8633C280.615 70.7597 281.06 70.6921 281.467 70.7695C281.912 70.8562 282.25 71.0497 282.487 71.3242C282.722 71.5963 282.843 71.9299 282.891 72.2744C282.984 72.9556 282.796 73.7245 282.56 74.3076C282.028 75.6163 281.191 76.8323 280.282 77.8838L280.283 77.8848C280.21 77.9712 280.105 78.0158 280.033 78.041C279.953 78.0693 279.864 78.0896 279.783 78.1055C279.704 78.1212 279.617 78.1359 279.553 78.1475C279.481 78.1604 279.436 78.1691 279.413 78.1768L279.404 78.1807L279.396 78.1826C279.346 78.1949 279.274 78.2064 279.208 78.2168C279.137 78.2281 279.06 78.2399 278.985 78.2539C278.91 78.2681 278.844 78.2833 278.795 78.2988C278.771 78.3066 278.755 78.3127 278.748 78.3164C278.753 78.3133 278.76 78.3055 278.771 78.2939L278.393 77.9678L278.396 77.9639C278.948 77.3263 280.073 75.811 280.632 74.3994C280.914 73.6871 281.032 73.0477 280.908 72.5713C280.848 72.3408 280.731 72.147 280.541 71.9941C280.398 71.8793 280.207 71.7814 279.953 71.7119C279.951 71.7136 279.949 71.7151 279.946 71.7168L279.943 71.7188C279.655 71.9278 279.387 72.1834 279.134 72.4561C278.878 72.731 278.641 73.0233 278.411 73.3242L277.731 74.2471C276.562 75.8643 275.576 77.6094 274.723 79.418L274.364 80.1973C273.555 81.9986 273.064 83.7909 273.1 85.7539L273.114 86.2607C273.163 87.4531 273.327 88.6959 273.955 89.6357L274.097 89.8271C274.443 90.2491 274.902 90.4992 275.469 90.5811C275.7 90.6146 275.937 90.6248 276.177 90.6152L276.366 90.5918C276.446 90.5801 276.54 90.5659 276.607 90.5576C276.614 90.5568 276.621 90.5564 276.628 90.5557C276.743 90.5137 276.846 90.4768 276.89 90.459C277.107 90.3634 277.315 90.2631 277.524 90.1562C279.233 89.2695 280.734 87.9871 281.884 86.4414C282.028 86.2474 282.165 86.0493 282.299 85.8486C282.451 84.577 282.64 83.3087 282.893 82.0508C283.168 80.6752 283.597 79.306 283.917 77.9746C284.017 77.5519 284.124 77.0168 284.325 76.5449C284.504 76.1267 284.768 75.7277 285.195 75.4775L285.389 75.3799C285.489 75.3351 285.857 75.2109 286.196 75.1104C286.373 75.0581 286.553 75.009 286.695 74.9785C286.765 74.9636 286.835 74.9509 286.894 74.9463C286.922 74.9441 286.959 74.9425 286.997 74.9473C287.013 74.9493 287.071 74.9571 287.129 74.9961L287.186 75.0469L287.256 75.1426C287.405 75.3707 287.446 75.6272 287.45 75.8613C287.454 76.1189 287.41 76.4002 287.392 76.5986C287.329 77.27 287.262 77.9498 287.118 78.627C286.85 79.9056 286.44 81.155 285.959 82.3584C285.508 83.4879 284.956 84.5905 284.284 85.6152C283.934 88.5226 283.773 91.4579 283.595 94.3887C283.184 101.119 282.478 107.762 281.173 114.386C279.968 120.506 278.389 126.562 275.103 131.98C273.553 134.537 271.709 136.983 269.592 139.107C267.694 141.008 265.431 142.487 262.99 143.588C258.249 145.726 253.005 146.636 248.004 147.718L247.897 147.229C248.065 147.193 248.303 147.123 248.567 147.045C248.825 146.969 249.106 146.888 249.345 146.837L251.512 146.37C256.566 145.28 261.571 144.083 265.719 140.913C267.86 139.275 269.644 137.173 271.241 134.995C272.901 132.735 274.325 130.301 275.453 127.74C277.872 122.248 279.005 116.193 279.985 110.275C281.026 104.006 281.368 97.7055 281.81 91.3535C281.882 90.3223 281.958 89.2876 282.05 88.2529C281.942 88.3501 281.833 88.4465 281.721 88.54C280.093 89.9075 278.309 90.7067 276.284 91.2305C275.462 91.4432 274.574 91.5692 273.773 91.4092C272.958 91.246 272.241 90.7865 271.789 89.8633C271.095 88.4536 271.063 86.7585 271.1 85.293C271.164 82.7837 272.308 80.4507 273.399 78.3174C274.396 76.3683 275.59 74.4324 277.039 72.7588L277.245 72.5254C277.74 71.9837 278.33 71.4673 279.075 71.2217C279.393 71.1171 279.801 70.9669 280.208 70.8633ZM283.683 86.4688C283.349 86.9073 282.988 87.3251 282.601 87.7207C282.558 88.1678 282.519 88.6155 282.482 89.0635L282.308 91.3887C281.867 97.7288 281.524 104.059 280.479 110.357C279.498 116.274 278.359 122.385 275.911 127.941C274.91 130.213 273.681 132.385 272.264 134.425L271.645 135.291C270.036 137.485 268.219 139.631 266.022 141.311C265.864 141.432 265.705 141.55 265.544 141.665C266.88 140.836 268.125 139.869 269.237 138.755C271.322 136.663 273.143 134.25 274.675 131.722L274.974 131.219C278.012 126.006 279.518 120.205 280.683 114.289C281.982 107.694 282.686 101.075 283.096 94.3584C283.255 91.7388 283.4 89.0968 283.683 86.4688ZM175.674 86.4941C176.736 86.2075 177.897 85.8745 179.085 86.2002C180.494 86.5885 181.478 87.7496 182.09 88.9473C182.742 90.2191 183.045 91.5953 183.219 92.9805C183.391 94.3485 183.442 95.7833 183.568 97.1006L183.567 97.166C183.559 97.2263 183.53 97.2708 183.511 97.2949C183.485 97.3269 183.456 97.3471 183.44 97.3574C183.408 97.3787 183.372 97.3937 183.347 97.4033C183.292 97.4239 183.222 97.4435 183.149 97.4619C183.002 97.4995 182.807 97.5402 182.619 97.5791C182.428 97.6186 182.242 97.6566 182.104 97.6885C182.033 97.7046 181.981 97.7176 181.949 97.7275C181.943 97.7294 181.939 97.7305 181.937 97.7314C181.939 97.7302 181.955 97.7222 181.975 97.7061C181.982 97.7002 182.026 97.6637 182.048 97.5977L182.06 97.5215L181.561 97.5449C181.423 96.0901 181.384 94.6154 181.181 93.1514C180.991 91.7909 180.664 90.4845 180.001 89.3154L179.864 89.084C179.193 87.9988 178.216 87.1618 176.985 86.9902L176.735 86.9648C176.48 86.9487 176.224 86.9566 175.972 86.9873C175.814 87.0512 175.662 87.1149 175.514 87.1846L175.513 87.1836C174.848 87.4999 174.222 87.9032 173.645 88.3672L173.644 88.3682C171.465 90.1066 169.787 92.5542 168.31 94.9346C166.736 97.4622 165.432 100.155 164.437 102.959C163.711 104.998 163.169 107.097 162.754 109.225L162.584 110.139C162.207 112.227 161.961 114.339 162.007 116.445C162.099 120.587 163.569 124.598 167.457 126.437C170.236 127.75 173.201 127.988 176.205 127.741C179.215 127.494 182.24 126.764 185.151 126.154L185.256 126.644C185.088 126.68 184.852 126.75 184.587 126.827C184.329 126.903 184.046 126.985 183.808 127.036C180.438 127.741 177.021 128.591 173.522 128.716C170.284 128.83 166.694 128.276 164.003 126.247C160.324 123.467 159.768 118.591 160.07 114.428C160.451 109.224 161.845 104 164.078 99.29C165.424 96.4524 167.084 93.7435 169.037 91.2783C170.717 89.1587 172.647 87.4186 175.288 86.6074C175.304 86.5989 175.315 86.5936 175.317 86.5928C175.333 86.5862 175.351 86.581 175.363 86.5771C175.415 86.5614 175.519 86.5331 175.674 86.4941ZM173.177 88.1055C171.744 88.9806 170.54 90.1877 169.43 91.5889C167.502 94.0227 165.861 96.6984 164.53 99.5039C162.323 104.158 160.946 109.322 160.569 114.464C160.269 118.599 160.844 123.233 164.304 125.848C166.497 127.502 169.35 128.141 172.125 128.22C170.654 128.064 169.201 127.728 167.786 127.132L167.243 126.889C163.11 124.934 161.601 120.687 161.507 116.456C161.46 114.304 161.711 112.157 162.092 110.05C162.529 107.59 163.124 105.153 163.965 102.791C164.972 99.9522 166.293 97.2283 167.885 94.6709L168.451 93.7725C169.766 91.7255 171.28 89.6635 173.177 88.1055ZM194.749 94.1006C196.915 93.5394 199.224 93.8358 200.96 95.3633L201.127 95.5156L201.295 95.6816C202.877 97.3131 203.312 99.7133 203.282 101.865L203.27 102.307C203.164 104.808 202.566 107.361 201.552 109.653C200.557 111.897 199.109 113.9 197.282 115.541C196.475 116.266 195.548 116.971 194.472 117.334C193.681 117.6 192.719 117.925 191.817 117.941C190.668 117.964 189.811 117.435 189.228 116.665C188.722 115.998 188.42 115.151 188.289 114.315L188.243 113.959C188.01 111.649 188.552 109.254 189.219 107.101L189.53 106.14C190.291 103.893 191.283 101.636 192.502 99.6191C193.029 98.749 193.721 97.7556 194.84 97.4258C195.215 97.315 195.565 97.213 195.914 97.1455C195.992 97.1245 196.07 97.1038 196.148 97.083L196.156 97.1074C196.657 97.0351 197.168 97.0413 197.757 97.2021L197.626 97.6846C197.643 97.6892 197.634 97.6824 197.579 97.6943C197.532 97.7047 197.473 97.7235 197.406 97.748C197.339 97.7727 197.273 97.8001 197.208 97.8262C197.149 97.8497 197.08 97.8767 197.023 97.8916L197.019 97.8936C196.991 97.9001 196.947 97.9151 196.879 97.9395C196.817 97.9618 196.739 97.9902 196.663 98.0156C196.587 98.0411 196.501 98.0664 196.42 98.082C196.346 98.0962 196.241 98.1101 196.142 98.083C195.96 98.0351 195.786 97.9912 195.62 97.958C195.413 98.1297 195.221 98.3376 195.041 98.5674C194.68 99.0287 194.384 99.5618 194.124 100.043C193.661 100.897 193.234 101.781 192.832 102.674L192.437 103.568C191.425 105.922 190.626 108.378 190.323 110.909C190.142 112.408 190.095 114.03 190.735 115.355C191.035 115.977 191.506 116.479 192.122 116.772C192.473 116.937 192.847 117.025 193.231 117.034H193.232C193.286 117.023 193.344 117.015 193.408 117.01C193.419 117.005 193.43 116.999 193.441 116.994C193.541 116.947 193.636 116.903 193.727 116.853C195.337 115.947 196.738 114.459 197.826 112.95C199.058 111.25 199.958 109.309 200.517 107.284C201.009 105.496 201.415 103.31 201.296 101.248C201.177 99.1868 200.536 97.2816 198.966 96.0039C198.311 95.4702 197.539 95.0933 196.722 94.8848C196.309 94.7807 195.885 94.7209 195.462 94.7061C195.277 94.6991 195.086 94.7212 194.873 94.7461C194.711 94.7651 194.534 94.7852 194.356 94.7891C194.261 94.8273 194.164 94.8671 194.064 94.9102C193.869 95.0002 193.684 95.0962 193.498 95.2012L193.497 95.2002C193.144 95.4035 192.808 95.6426 192.484 95.9043L192.485 95.9053C191.768 96.4937 191.153 97.1967 190.548 97.9287L190.542 97.9346C190.469 98.0174 190.366 98.0612 190.295 98.0859C190.215 98.1139 190.126 98.1344 190.045 98.1504C189.963 98.1666 189.88 98.1804 189.813 98.1914L189.665 98.2178C189.616 98.2305 189.543 98.2426 189.478 98.2529C189.406 98.2643 189.329 98.276 189.253 98.29C189.176 98.3043 189.11 98.3194 189.061 98.335C189.036 98.3426 189.022 98.3483 189.016 98.3516C189.021 98.3483 189.03 98.3394 189.042 98.3252L188.656 98.0098L188.657 98.0078C189.452 97.045 190.32 96.0672 191.419 95.3623L191.615 95.2412C192.604 94.6586 193.689 94.3754 194.749 94.1006ZM194.874 97.9443L194.873 97.9414C194.129 98.2031 193.595 98.8379 193.133 99.5527L192.93 99.8779C191.562 102.141 190.48 104.721 189.696 107.249C189.035 109.385 188.518 111.702 188.741 113.909L188.783 114.241C188.904 115.014 189.182 115.778 189.626 116.363C190.128 117.025 190.841 117.46 191.808 117.441C191.985 117.438 192.166 117.419 192.349 117.393C192.199 117.347 192.052 117.293 191.909 117.226L191.908 117.225C191.176 116.877 190.628 116.284 190.285 115.572C189.577 114.107 189.644 112.358 189.826 110.85C190.136 108.255 190.955 105.75 191.978 103.37L192.376 102.468C192.782 101.567 193.213 100.672 193.684 99.8047C193.943 99.3247 194.257 98.7573 194.647 98.2588C194.735 98.1473 194.827 98.0382 194.924 97.9336C194.907 97.9371 194.891 97.9401 194.874 97.9443ZM196.582 94.3408L196.845 94.4004L197.174 94.4932C197.936 94.7304 198.656 95.1066 199.281 95.6162C201.001 97.0154 201.671 99.0799 201.795 101.219C201.918 103.357 201.498 105.603 200.999 107.417C200.426 109.495 199.501 111.491 198.231 113.243C197.406 114.388 196.39 115.538 195.226 116.445C195.841 116.101 196.413 115.651 196.948 115.17C198.722 113.576 200.128 111.63 201.095 109.45C202.083 107.215 202.667 104.725 202.77 102.286C202.867 99.9977 202.455 97.4655 200.782 95.8779C199.613 94.7717 198.124 94.3007 196.582 94.3408ZM225.246 84.4717C225.337 84.4588 225.464 84.4509 225.579 84.499L225.585 84.501C225.754 84.5721 225.836 84.7282 225.879 84.8486C225.924 84.977 225.945 85.1248 225.955 85.2607C225.975 85.5348 225.952 85.8231 225.941 85.9541V85.9561C225.903 86.3962 225.806 86.8266 225.695 87.2354C225.577 87.6726 225.439 88.1051 225.306 88.5303C225.239 88.744 225.173 88.9564 225.111 89.1689L224.939 89.8076C224.363 92.1941 223.62 94.4911 223.311 96.8867C223.212 97.6702 223.099 98.6065 223.184 99.4805C223.268 100.354 223.545 101.122 224.185 101.612L224.316 101.706C224.987 102.151 225.879 102.254 226.736 102.273C227.326 102.289 227.913 102.243 228.495 102.147C228.549 102.139 228.634 102.12 228.72 102.102C228.858 102.05 228.995 101.999 229.131 101.947L229.631 101.746C229.896 101.63 230.183 101.575 230.437 101.526C230.701 101.476 230.931 101.431 231.135 101.343L231.234 101.573L231.333 101.802C229.555 102.575 227.424 103.172 225.454 103.172C224.676 103.172 223.835 103.089 223.108 102.789C222.419 102.505 221.83 102.022 221.503 101.238L221.441 101.077C221.124 100.181 221.082 99.1915 221.16 98.2236C221.238 97.2556 221.437 96.2899 221.613 95.4395C221.987 93.6338 222.436 91.8042 222.947 90.0234L223.17 89.2637C223.236 89.036 223.535 88.0942 223.742 87.1631C223.575 87.4315 223.411 87.7017 223.253 87.9766C222.843 88.6908 222.456 89.4163 222.069 90.1455C221.876 90.5095 221.683 90.8746 221.488 91.2393L220.894 92.3301C219.516 94.8062 218.174 97.3038 216.714 99.7422L216.713 99.7412C216.486 100.125 216.224 100.59 215.908 101.004C215.592 101.419 215.206 101.806 214.719 102.026L214.72 102.027C214.289 102.225 213.769 102.314 213.372 102.419L213.37 102.42C213.263 102.447 213.153 102.475 213.056 102.489C212.957 102.504 212.845 102.511 212.731 102.477C212.485 102.402 212.356 102.181 212.259 101.918C212.049 101.342 212.143 100.676 212.182 100.179C212.205 99.8682 212.219 99.5556 212.232 99.2393C212.246 98.9238 212.259 98.6038 212.28 98.2852C212.302 97.9716 212.327 97.6555 212.352 97.3398C212.349 97.3532 212.348 97.3666 212.346 97.3799C212.008 99.4475 211.591 101.514 211.027 103.541C210.464 105.567 209.846 107.546 209.434 109.581L209.433 109.58C209.403 109.729 209.282 109.802 209.225 109.831C209.155 109.866 209.072 109.89 208.996 109.907C208.841 109.943 208.645 109.967 208.466 109.988C208.279 110.011 208.109 110.03 207.982 110.056C207.918 110.069 207.88 110.081 207.862 110.089C207.825 110.106 207.905 110.084 207.928 109.982L207.439 109.88C207.856 107.817 208.484 105.806 209.041 103.806C209.603 101.802 210.011 99.7597 210.348 97.6982C210.689 95.5883 210.976 93.452 211.397 91.3428L211.553 90.6084C211.606 90.3647 211.66 90.1219 211.715 89.8799C211.824 89.395 211.932 88.9129 212.03 88.4277L212.146 87.8848C212.262 87.3963 212.438 86.8925 212.815 86.4912L212.732 86.376L213.041 86.293C213.055 86.2851 213.066 86.2771 213.074 86.2734C213.097 86.2627 213.123 86.2522 213.149 86.2422C213.203 86.2218 213.269 86.1993 213.343 86.1758C213.49 86.1286 213.675 86.0745 213.857 86.0254C214.039 85.9763 214.222 85.9306 214.363 85.9004C214.433 85.8855 214.498 85.8739 214.549 85.8672C214.573 85.864 214.603 85.8601 214.632 85.8604C214.646 85.8605 214.67 85.862 214.698 85.8682C214.712 85.8713 214.798 85.8885 214.856 85.9717C215.177 86.413 215.25 86.9499 215.236 87.457C215.223 87.9628 215.12 88.4835 215.055 88.8936C214.865 90.0734 214.804 91.2784 214.715 92.4902C214.517 95.1353 214.248 97.7538 214.145 100.384C214.137 100.548 214.148 100.695 214.168 100.839C214.42 100.484 214.647 100.101 214.878 99.7139L215.77 98.1895C216.653 96.6607 217.511 95.1202 218.355 93.5674C219.515 91.4303 220.609 89.1954 221.917 87.1143L222.217 86.6064C222.322 86.4234 222.436 86.2291 222.558 86.04C222.798 85.6665 223.087 85.2879 223.448 85.0488C223.621 84.9344 223.815 84.8665 223.994 84.8174C224.084 84.7926 224.175 84.7713 224.259 84.752C224.345 84.7322 224.424 84.7148 224.498 84.6953H224.5C224.531 84.6873 224.586 84.6679 224.67 84.6377C224.748 84.6096 224.844 84.5752 224.941 84.5449C225.038 84.5149 225.145 84.4861 225.246 84.4717ZM213.091 86.9346C212.758 87.3514 212.646 87.9068 212.521 88.5264C212.421 89.0178 212.312 89.5053 212.203 89.9893C212.094 90.4742 211.986 90.9562 211.888 91.4414C211.678 92.4898 211.502 93.5418 211.336 94.5977L210.842 97.7783C210.504 99.8509 210.091 101.912 209.522 103.939C209 105.815 208.431 107.656 208.022 109.543C208.144 109.524 208.28 109.506 208.407 109.491C208.593 109.469 208.761 109.448 208.885 109.42C208.918 109.412 208.942 109.402 208.961 109.396C209.378 107.367 209.996 105.385 210.546 103.407C211.103 101.403 211.516 99.3558 211.853 97.2998C212.165 95.3694 212.432 93.417 212.798 91.4834C212.851 90.7758 212.921 90.0665 213.03 89.3682C213.103 88.909 213.208 88.4122 213.229 87.9199C213.244 87.5526 213.209 87.2178 213.091 86.9346ZM225.392 84.9824C225.199 85.0679 225.033 85.2179 224.877 85.4121C224.713 85.6167 224.576 85.8472 224.431 86.0781C224.429 86.0811 224.427 86.0849 224.425 86.0879C224.4 86.3855 224.347 86.7188 224.279 87.0498C224.069 88.0737 223.714 89.1803 223.649 89.4043V89.4072C223.05 91.4102 222.528 93.4911 222.104 95.541C221.927 96.3957 221.734 97.3315 221.659 98.2637C221.584 99.1961 221.628 100.107 221.912 100.91C222.167 101.632 222.67 102.067 223.299 102.327C223.937 102.591 224.702 102.672 225.454 102.672C225.48 102.672 225.507 102.67 225.533 102.67C225.01 102.581 224.488 102.421 224.037 102.121L223.88 102.009C223.083 101.398 222.776 100.468 222.686 99.5293C222.595 98.5911 222.716 97.5992 222.814 96.8223C223.128 94.3913 223.888 92.0263 224.453 89.6895L224.539 89.3574C224.629 89.027 224.729 88.7018 224.829 88.3809C224.963 87.9508 225.098 87.5301 225.213 87.1045C225.32 86.7072 225.409 86.3101 225.443 85.9131C225.454 85.7799 225.473 85.5269 225.456 85.2959C225.448 85.1791 225.431 85.0828 225.407 85.0156C225.402 85.0015 225.396 84.991 225.392 84.9824ZM214.6 86.5332C214.264 86.9531 214.151 87.5079 214.025 88.1289C213.926 88.6204 213.817 89.1078 213.708 89.5918C213.599 90.0767 213.491 90.5588 213.393 91.0439C213.359 91.2109 213.327 91.3778 213.295 91.5449C213.243 92.2416 213.204 92.9438 213.152 93.6484C213.037 95.2221 212.889 96.7479 212.779 98.3184C212.759 98.63 212.746 98.9434 212.732 99.2607C212.719 99.577 212.704 99.8973 212.681 100.217C212.637 100.773 212.566 101.297 212.729 101.744L212.789 101.887C212.843 101.992 212.876 101.997 212.876 101.997C212.884 101.999 212.9 102.001 212.931 101.999C212.953 101.99 212.987 101.976 213.037 101.957H213.035C213.056 101.947 213.077 101.939 213.094 101.93C213.116 101.918 213.125 101.911 213.125 101.911L213.126 101.909C213.304 101.767 213.43 101.687 213.565 101.558C213.632 101.493 213.696 101.425 213.759 101.355C213.683 101.048 213.628 100.742 213.645 100.362C213.749 97.7216 214.019 95.0788 214.216 92.4531C214.303 91.2571 214.366 90.0218 214.561 88.8145C214.63 88.3773 214.724 87.9061 214.736 87.4434C214.745 87.1058 214.709 86.7972 214.6 86.5332ZM223.869 85.3887C223.817 85.4118 223.768 85.4369 223.725 85.4658C223.453 85.6453 223.209 85.9503 222.978 86.3105C222.863 86.4883 222.755 86.6734 222.649 86.8564C222.545 87.0375 222.442 87.2194 222.34 87.3809L222.339 87.3799C221.042 89.4433 219.968 91.6432 218.794 93.8057C217.667 95.88 216.513 97.9345 215.308 99.9688C215.012 100.465 214.699 101.003 214.308 101.483L214.328 101.562L214.329 101.563L214.33 101.568C214.334 101.569 214.342 101.572 214.353 101.575C214.358 101.577 214.387 101.588 214.419 101.611C214.45 101.599 214.481 101.587 214.511 101.573L214.513 101.572C214.892 101.4 215.217 101.086 215.51 100.701C215.803 100.316 216.05 99.8828 216.284 99.4863C217.739 97.0568 219.075 94.5717 220.457 92.0869L221.047 91.0039C221.241 90.641 221.433 90.2765 221.627 89.9111C222.014 89.1818 222.405 88.4499 222.819 87.7275L223.108 87.2393C223.38 86.7925 223.662 86.3552 223.938 85.9219C223.942 85.8315 223.943 85.748 223.939 85.6729C223.93 85.5114 223.901 85.4266 223.879 85.3926C223.878 85.3905 223.875 85.3877 223.875 85.3877C223.875 85.3877 223.871 85.3885 223.869 85.3887ZM237.447 83.5957C237.439 83.6019 237.374 83.6511 237.366 83.751L237.865 83.7832C237.698 86.7379 237.171 89.6423 236.553 92.5146C236.4 93.2261 236.24 93.9375 236.082 94.6484C235.924 95.3597 235.766 96.0711 235.613 96.7832C235.458 97.5178 235.296 98.2527 235.13 98.9824C235.099 99.1175 235.052 99.2614 235.009 99.3945C234.965 99.5317 234.923 99.6629 234.893 99.791C234.862 99.9207 234.846 100.034 234.849 100.134C234.876 100.122 234.905 100.112 234.93 100.097L234.935 100.094L235.186 100.526L235.18 100.528L235.181 100.529C235.065 100.594 234.949 100.665 234.829 100.737L234.828 100.736C234.786 100.762 234.726 100.785 234.687 100.799C234.634 100.818 234.568 100.839 234.494 100.862C234.346 100.908 234.161 100.961 233.98 101.011C233.799 101.06 233.618 101.107 233.48 101.138C233.411 101.153 233.349 101.165 233.3 101.173C233.277 101.176 233.248 101.18 233.22 101.181C233.207 101.181 233.182 101.18 233.153 101.175C233.139 101.172 233.114 101.166 233.086 101.152C233.058 101.139 233.01 101.109 232.977 101.049C232.788 100.714 232.832 100.33 232.908 100.014C232.947 99.8508 233 99.6892 233.047 99.5439C233.095 99.3945 233.137 99.2649 233.164 99.1494C233.33 98.4224 233.484 97.6918 233.646 96.9561L234.105 94.8799C234.258 94.19 234.411 93.5007 234.559 92.8076C235.175 89.9438 235.696 87.0631 235.861 84.1523C235.868 84.0494 235.926 83.982 235.963 83.9492C236.001 83.9156 236.042 83.8934 236.073 83.8789C236.137 83.8493 236.216 83.8267 236.29 83.8086C236.442 83.7716 236.64 83.7393 236.824 83.71C237.015 83.6797 237.192 83.6515 237.324 83.623C237.392 83.6085 237.435 83.5966 237.457 83.5879C237.469 83.5832 237.462 83.5848 237.447 83.5957ZM236.902 84.2031C236.714 84.2332 236.537 84.2626 236.408 84.2939C236.387 84.2992 236.368 84.3059 236.352 84.3105C236.199 86.8472 235.783 89.3538 235.274 91.833L235.048 92.9121C234.753 94.2954 234.434 95.6835 234.135 97.0625C233.974 97.7941 233.818 98.5318 233.651 99.2617C233.619 99.4018 233.569 99.5539 233.522 99.6973C233.475 99.8451 233.429 99.9895 233.395 100.131C233.356 100.29 233.339 100.428 233.345 100.547C233.37 100.531 233.397 100.517 233.423 100.501L233.424 100.5C233.691 100.34 234.016 100.299 234.273 100.264C234.302 100.26 234.329 100.255 234.356 100.251C234.334 100.051 234.363 99.8518 234.405 99.6748C234.441 99.5241 234.49 99.3748 234.533 99.2402C234.578 99.1015 234.617 98.9805 234.643 98.8701C234.808 98.1431 234.969 97.4101 235.124 96.6777C235.277 95.9636 235.437 95.2511 235.595 94.54C235.753 93.8287 235.911 93.1187 236.064 92.4092C236.654 89.667 237.155 86.9155 237.342 84.127C237.208 84.1525 237.051 84.1794 236.902 84.2031ZM258.005 75.2461C258.152 75.2182 258.328 75.2041 258.506 75.2559H258.508C258.818 75.3483 259.021 75.562 259.147 75.8174C259.269 76.0662 259.321 76.3604 259.338 76.6455C259.372 77.2157 259.271 77.8288 259.217 78.1562C258.997 79.4569 258.678 80.756 258.395 82.0254C258.099 83.3355 257.807 84.6576 257.42 85.959C257.031 87.2668 256.597 88.5281 256.25 89.8281C256.074 90.4884 255.806 91.3251 255.703 92.1553C255.606 92.9366 255.666 93.6442 256.036 94.1533L256.115 94.2529L256.229 94.3711C256.505 94.6308 256.871 94.7758 257.284 94.8447C257.758 94.9237 258.272 94.8994 258.735 94.8486H258.738C258.911 94.8312 259.083 94.8072 259.255 94.7783L259.772 94.6777C259.825 94.6637 259.884 94.6479 259.941 94.6367C259.975 94.6235 260.01 94.6105 260.041 94.6006H260.043C260.732 94.3856 261.416 94.139 262.092 93.877L263.432 93.3379C263.884 93.1554 264.342 92.9776 264.801 92.8242L265.186 92.7129C265.319 92.6783 265.456 92.646 265.586 92.6152C265.854 92.5519 266.09 92.4962 266.253 92.4414H266.255L266.317 92.6318L266.412 92.916L266.406 92.917C265.835 93.1051 265.273 93.3287 264.705 93.5586C264.138 93.7881 263.565 94.0251 262.983 94.2363C261.47 94.7875 259.896 95.2568 258.31 95.5801C257.794 95.6838 257.202 95.7902 256.612 95.8057C256.096 95.8192 255.566 95.7635 255.08 95.5684L254.874 95.4756C254.217 95.1467 253.903 94.5928 253.78 93.9922C253.659 93.4023 253.718 92.7557 253.805 92.2012C254.018 90.8542 254.397 89.5496 254.796 88.2646C255.197 86.9747 255.617 85.7083 255.926 84.4141C256.247 83.0627 256.547 81.706 256.832 80.3438C256.957 79.7358 257.117 79.1668 257.226 78.5508C257.332 77.9508 257.376 77.3677 257.268 76.8145L257.267 76.8135C257.226 76.5983 257.176 76.472 257.108 76.3789C257.1 76.3667 257.089 76.3556 257.079 76.3438C256.546 76.786 256.081 77.3324 255.656 77.9004L255.448 78.1846C253.967 80.2395 253.149 82.6251 252.231 85.0215C251.223 87.6486 250.185 90.2603 249.115 92.8564C248.671 93.9321 248.245 95.1631 247.721 96.3018C247.204 97.4236 246.572 98.5014 245.681 99.3604L245.673 99.4297L245.574 99.4551C245.518 99.4941 245.456 99.5191 245.414 99.5332C245.35 99.5546 245.276 99.5737 245.199 99.5908C245.071 99.6194 244.918 99.6447 244.77 99.6709C244.765 99.672 244.761 99.6737 244.757 99.6748C244.507 99.7419 244.256 99.8088 244.005 99.876L243.872 99.6377L243.691 99.6152C243.733 99.2687 243.82 98.9389 243.913 98.623C244.008 98.3005 244.107 98.0032 244.186 97.6914C244.356 97.0242 244.505 96.3458 244.655 95.668C244.941 94.3956 245.231 93.1215 245.495 91.8477L245.694 90.8555C246.14 88.5369 246.448 86.2017 246.403 83.8516C246.401 83.7237 246.486 83.6481 246.514 83.626C246.55 83.5969 246.591 83.5774 246.619 83.5654C246.678 83.5403 246.752 83.5193 246.825 83.501C246.975 83.4634 247.171 83.4257 247.356 83.3906C247.547 83.3546 247.728 83.3203 247.861 83.2881C247.929 83.2717 247.973 83.2584 247.996 83.249C248.009 83.2437 248.003 83.2452 247.988 83.2559C247.988 83.2559 247.901 83.3167 247.903 83.4375L248.402 83.4229V83.4287L248.407 83.9424C248.402 86.5078 248.001 89.0443 247.484 91.5361C247.382 92.0253 247.275 92.5131 247.168 93.001C247.287 92.7104 247.409 92.4207 247.527 92.1299C248.699 89.264 249.834 86.3765 250.928 83.4746C251.787 81.1932 252.828 78.9186 254.526 77.0684L254.897 76.6787C255.29 76.2885 255.75 75.9143 256.294 75.7109C256.685 75.5649 257.112 75.4701 257.493 75.376C257.536 75.3635 257.575 75.3519 257.606 75.3457C257.61 75.3451 257.613 75.3444 257.617 75.3438C257.717 75.3175 257.868 75.272 258.005 75.2461ZM245.449 98.1035C245.232 98.4739 244.991 98.8314 244.715 99.168C244.883 99.1228 245.052 99.0774 245.221 99.0322C245.264 98.7662 245.33 98.511 245.401 98.2656C245.417 98.2108 245.433 98.1566 245.449 98.1035ZM247.449 83.8818C247.259 83.9178 247.079 83.9522 246.947 83.9854C246.932 83.9893 246.917 83.9945 246.904 83.998C246.938 86.6854 246.526 89.3416 245.985 91.9492C245.853 92.5886 245.714 93.2279 245.572 93.8662L245.144 95.7773C244.993 96.4531 244.842 97.1393 244.67 97.8154C244.588 98.1391 244.482 98.4634 244.393 98.7646C244.391 98.7689 244.39 98.7731 244.389 98.7773C244.98 98.0357 245.411 97.1791 245.801 96.2695C245.893 96.0554 245.981 95.8396 246.072 95.625C246.091 95.5412 246.11 95.4569 246.129 95.373C246.425 94.0601 246.721 92.7491 246.995 91.4336C247.52 88.9048 247.917 86.3559 247.905 83.7891C247.769 83.8195 247.606 83.8523 247.449 83.8818ZM256.469 76.1797C255.867 76.4047 255.362 76.8941 254.896 77.4053C253.264 79.1827 252.25 81.3843 251.397 83.6504C250.301 86.5569 249.164 89.4482 247.99 92.3184C247.518 93.4743 247.039 94.6299 246.55 95.7812C246.422 96.3589 246.294 96.9447 246.143 97.5225C246.064 97.8185 245.964 98.1236 245.883 98.4023C246.438 97.7205 246.881 96.9306 247.267 96.0928C247.789 94.9593 248.19 93.7864 248.653 92.666L249.448 90.7188C250.238 88.7688 251.009 86.8102 251.764 84.8428C252.671 82.4744 253.515 80.0123 255.043 77.8916C255.474 77.2918 255.962 76.6773 256.534 76.1572C256.513 76.1649 256.49 76.1717 256.469 76.1797ZM192.196 95.4961C192.087 95.5522 191.977 95.6088 191.87 95.6719L191.689 95.7832C190.875 96.3047 190.19 96.9922 189.547 97.7314C189.6 97.7184 189.67 97.7074 189.732 97.6973C189.803 97.6858 189.877 97.6743 189.948 97.6602C190.021 97.6459 190.082 97.6306 190.129 97.6143C190.154 97.6056 190.167 97.5979 190.173 97.5947C190.778 96.8638 191.416 96.1355 192.168 95.5186L192.169 95.5176C192.178 95.5103 192.187 95.5034 192.196 95.4961ZM196.347 97.585C196.318 97.5882 196.29 97.5928 196.262 97.5967L196.272 97.5996L196.272 97.6006C196.259 97.5969 196.27 97.6025 196.326 97.5918C196.333 97.5905 196.339 97.5866 196.347 97.585ZM178.952 86.6826C178.481 86.5535 178.013 86.542 177.539 86.5957C178.728 86.9219 179.653 87.7939 180.289 88.8213C181.096 90.1315 181.469 91.5978 181.676 93.082C181.866 94.447 181.921 95.8722 182.033 97.1914C182.173 97.1601 182.348 97.1248 182.518 97.0898C182.708 97.0506 182.892 97.0118 183.026 96.9775C183.036 96.975 183.046 96.9712 183.055 96.9688C182.935 95.6569 182.888 94.3551 182.723 93.043C182.552 91.6853 182.259 90.3732 181.645 89.1748C181.1 88.1079 180.279 87.1454 179.177 86.7529L178.952 86.6826ZM258.098 75.7373C258.016 75.7528 257.942 75.7755 257.859 75.7988C257.858 75.8002 257.856 75.8037 257.856 75.8037C257.833 75.8236 257.807 75.8411 257.781 75.8584L257.782 75.8594C257.701 75.9175 257.617 75.9673 257.543 76.0117C257.522 76.0242 257.502 76.0369 257.482 76.0488C257.493 76.0617 257.505 76.0735 257.515 76.0869C257.642 76.2634 257.711 76.4697 257.758 76.7188C257.883 77.3592 257.828 78.0117 257.718 78.6377C257.61 79.2476 257.435 79.8959 257.321 80.4453C257.036 81.8114 256.734 83.1739 256.412 84.5303C256.098 85.8456 255.67 87.1351 255.273 88.4121C254.925 89.5339 254.599 90.6505 254.384 91.7891L254.299 92.2783C254.214 92.8192 254.167 93.3926 254.27 93.8916C254.37 94.3798 254.609 94.7836 255.098 95.0283C255.538 95.2486 256.054 95.3199 256.599 95.3057C256.714 95.3026 256.83 95.293 256.946 95.2832C256.494 95.1715 256.061 94.9605 255.734 94.5771C255.154 93.8977 255.099 92.9651 255.207 92.0938C255.316 91.2187 255.6 90.3267 255.767 89.7002C256.115 88.3961 256.561 87.0931 256.94 85.8174C257.322 84.5351 257.611 83.2309 257.907 81.916L258.342 79.9951C258.483 79.3555 258.615 78.7158 258.724 78.0742C258.779 77.7402 258.869 77.1812 258.839 76.6758C258.824 76.423 258.779 76.2029 258.698 76.0381C258.621 75.8799 258.514 75.7799 258.364 75.7354C258.294 75.7155 258.208 75.7164 258.098 75.7373ZM279.157 71.7236C278.476 71.9718 277.923 72.4981 277.418 73.085L277.417 73.0859C276.002 74.7196 274.83 76.6184 273.845 78.5449C272.747 80.6904 271.66 82.9264 271.6 85.3057C271.566 86.6831 271.599 88.1585 272.126 89.3984L272.238 89.6436C272.616 90.4154 273.195 90.7837 273.871 90.9189C274.201 90.985 274.556 90.9941 274.924 90.9648C274.446 90.8126 274.037 90.5421 273.713 90.1484L273.539 89.9131C272.832 88.8544 272.663 87.4892 272.614 86.2744L272.6 85.7637C272.562 83.7063 273.078 81.8392 273.908 79.9922C274.852 77.8829 275.965 75.8365 277.326 73.9541L277.327 73.9531C277.775 73.3379 278.231 72.693 278.768 72.1162C278.891 71.9831 279.021 71.8508 279.157 71.7236ZM282.184 86.8721C281.49 87.7801 280.679 88.5971 279.778 89.2988C280.338 88.9708 280.878 88.5944 281.399 88.1562C281.65 87.9463 281.89 87.7251 282.121 87.4961C282.141 87.2881 282.162 87.08 282.184 86.8721ZM213.965 86.5635C213.818 86.6029 213.671 86.6422 213.523 86.6816C213.614 86.8784 213.67 87.086 213.7 87.2979C213.769 87.0457 213.858 86.7933 213.987 86.5566C213.98 86.5587 213.972 86.5614 213.965 86.5635ZM321.896 62.1553C323.987 62.1236 325.902 62.6586 327.781 63.4951L327.582 63.9531C327.601 63.9612 327.616 63.9634 327.622 63.9639C327.616 63.9641 327.601 63.9656 327.577 63.9707C327.528 63.9812 327.465 64.002 327.393 64.0283C327.322 64.0541 327.249 64.0826 327.185 64.1094C327.125 64.1341 327.061 64.1615 327.022 64.1758L327.013 64.1787L327.002 64.1816C326.981 64.1873 326.938 64.2027 326.866 64.2285C326.8 64.2523 326.719 64.2819 326.637 64.3086C326.556 64.3349 326.467 64.3606 326.385 64.376C326.344 64.3837 326.298 64.3899 326.253 64.3906C326.212 64.3913 326.149 64.3882 326.085 64.3604L326.083 64.3594C324.022 63.4373 321.971 62.9618 319.715 63.083C319.481 63.0976 319.245 63.1384 318.991 63.1797C318.893 63.1958 318.791 63.2104 318.689 63.2246C318.679 63.2289 318.67 63.2339 318.661 63.2383C318.475 63.3359 318.299 63.445 318.146 63.5703C317.774 63.8733 317.575 64.2277 317.505 64.6074C317.434 64.9914 317.493 65.4201 317.67 65.8691L317.818 66.2021C318.193 66.9621 318.766 67.5957 319.421 68.1924C319.795 68.5333 320.19 68.858 320.587 69.1875C320.883 69.4335 321.181 69.6826 321.466 69.9395L321.746 70.1982C323.191 71.5858 324.546 73.1362 325.303 75.0576C325.98 76.7765 326.244 78.8221 325.421 80.5977C324.605 82.3515 323.037 83.6002 321.405 84.4756C318.971 85.7795 316.109 86.577 313.401 86.9727C312.115 87.158 310.608 87.2401 309.235 86.9443C307.858 86.6475 306.594 85.9649 305.841 84.6094L306.276 84.3623C306.242 84.3028 306.191 84.2746 306.161 84.2627C306.133 84.2513 306.11 84.2496 306.102 84.249C306.086 84.248 306.082 84.2496 306.097 84.2471C306.123 84.2425 306.169 84.2305 306.236 84.21C306.368 84.1695 306.542 84.1079 306.725 84.043C306.903 83.9796 307.092 83.9135 307.24 83.8711C307.313 83.8503 307.388 83.8311 307.452 83.8232C307.483 83.8195 307.527 83.8166 307.573 83.8232C307.6 83.8271 307.668 83.8403 307.728 83.8936L307.782 83.9609V83.9629C308.533 85.3079 309.844 85.9338 311.341 86.1514C312.841 86.3694 314.496 86.1709 315.867 85.8916L315.87 85.8906C316.017 85.8621 316.156 85.8285 316.303 85.7949C316.364 85.7776 316.422 85.7638 316.467 85.751C316.763 85.6594 317.058 85.563 317.352 85.457L317.879 85.2549C318.403 85.0458 318.916 84.8152 319.414 84.5596C320.965 83.7641 322.406 82.6915 323.254 81.1963C324.211 79.5143 324.119 77.7124 323.47 76.002C322.9 74.5012 321.906 73.085 320.842 71.918L320.383 71.4336C319.692 70.73 318.878 70.1172 318.075 69.4268C317.285 68.7465 316.523 68.0037 316.005 67.0752C315.794 66.6992 315.592 66.2518 315.499 65.7871C315.406 65.3199 315.42 64.8188 315.665 64.3555C316.056 63.6061 316.82 63.1747 317.535 62.9336C318.946 62.4618 320.398 62.1764 321.896 62.1553ZM284.032 83.7334C283.671 84.5234 283.261 85.2922 282.783 86.0225C282.749 86.3149 282.714 86.6074 282.684 86.9004C283.09 86.4401 283.461 85.9505 283.803 85.4385C283.872 84.8692 283.946 84.3005 284.032 83.7334ZM307.378 84.3516C307.247 84.3889 307.074 84.4491 306.892 84.5137C306.745 84.5657 306.591 84.6186 306.461 84.6611C307.136 85.6619 308.167 86.2021 309.341 86.4551C309.943 86.5848 310.577 86.6354 311.211 86.6367C309.693 86.405 308.278 85.7557 307.426 84.3398C307.411 84.3436 307.395 84.3466 307.378 84.3516ZM224.363 85.2549L224.365 85.2598C224.367 85.2575 224.369 85.2552 224.37 85.2529C224.368 85.2535 224.366 85.2543 224.363 85.2549ZM285.394 75.9443C285.121 76.1237 284.93 76.4009 284.785 76.7412C284.605 77.163 284.51 77.6405 284.403 78.0908C284.07 79.4776 283.658 80.7759 283.383 82.1494C283.207 83.0263 283.063 83.9088 282.939 84.7949C283.583 83.6398 284.092 82.4061 284.509 81.1436L284.519 81.1104C284.732 80.1405 284.978 79.1785 285.248 78.2197C285.257 78.1614 285.268 78.1034 285.276 78.0449L285.373 77.4609C285.409 77.2494 285.443 77.0238 285.461 76.792C285.479 76.567 285.479 76.356 285.451 76.1748C285.438 76.0868 285.418 76.0101 285.394 75.9443ZM286.896 75.542C286.56 75.7606 286.346 76.1214 286.189 76.5693C286.096 76.8328 286.027 77.1157 285.962 77.4014C285.898 77.6817 285.837 77.9722 285.765 78.2295C285.756 78.2617 285.746 78.2949 285.737 78.3271C285.581 79.3195 285.313 80.2866 285.005 81.2324C284.846 81.9543 284.704 82.6798 284.588 83.4111C284.536 83.7368 284.488 84.0631 284.441 84.3896C284.841 83.6764 285.191 82.933 285.494 82.1729C285.968 80.9887 286.368 79.7677 286.629 78.5244C286.766 77.8789 286.832 77.2247 286.895 76.5527C286.918 76.3069 286.954 76.0916 286.95 75.8701C286.948 75.7449 286.93 75.6365 286.896 75.542ZM317.532 63.4658C316.931 63.6942 316.388 64.0526 316.108 64.5879L316.107 64.5889C315.932 64.9214 315.911 65.2975 315.989 65.6895C316.068 66.0829 316.243 66.478 316.441 66.8301L316.442 66.8311C316.916 67.6801 317.621 68.3769 318.401 69.0479C319.169 69.7085 320.029 70.3597 320.738 71.082C321.998 72.3605 323.254 74.0226 323.938 75.8242C324.58 77.5174 324.724 79.3509 323.873 81.0957L323.689 81.4434C323.147 82.3996 322.386 83.1835 321.525 83.835C322.971 83.0019 324.273 81.881 324.968 80.3877L325.096 80.084C325.682 78.5483 325.447 76.7885 324.837 75.2412C324.12 73.4212 322.828 71.9316 321.399 70.5596C321.048 70.2231 320.663 69.9002 320.268 69.5723C319.874 69.2459 319.469 68.9131 319.084 68.5625C318.363 67.9047 317.696 67.1676 317.284 66.2412L317.205 66.0527C317.003 65.5407 316.922 65.0158 317.014 64.5176C317.084 64.1355 317.253 63.7788 317.532 63.4658ZM279.91 77.5508C280.793 76.5274 281.593 75.36 282.097 74.1201L282.176 73.9102C282.352 73.4092 282.463 72.8309 282.396 72.3418C282.358 72.0663 282.265 71.831 282.109 71.6504C281.956 71.4721 281.724 71.3291 281.373 71.2607C281.132 71.215 280.852 71.2375 280.551 71.2988L280.583 71.3535L280.58 71.3545C280.578 71.3558 280.576 71.3571 280.573 71.3584C280.554 71.3697 280.535 71.3799 280.517 71.3906C280.641 71.4522 280.754 71.5236 280.855 71.6045C281.135 71.8301 281.307 72.1192 281.392 72.4443C281.558 73.0799 281.389 73.8457 281.097 74.584C280.645 75.726 279.851 76.9136 279.249 77.7012C279.259 77.6992 279.268 77.6989 279.274 77.6973C279.334 77.6795 279.404 77.6662 279.465 77.6553C279.541 77.6418 279.613 77.6299 279.687 77.6152C279.76 77.6008 279.82 77.5855 279.866 77.5693C279.893 77.56 279.906 77.5532 279.91 77.5508ZM285.86 75.7676C285.882 75.8244 285.9 75.8824 285.914 75.9414C285.953 75.8651 285.997 75.791 286.043 75.7188C285.982 75.7351 285.921 75.7513 285.86 75.7676ZM405.491 0.578125C405.528 1.1698 405.377 1.77232 405.172 2.33496C404.955 2.92886 404.656 3.54108 404.454 4.03125C403.828 5.56423 403.412 7.19927 402.964 8.81445C401.079 15.614 399.841 22.5873 398.46 29.5244C397.847 32.5939 397.255 35.6654 396.738 38.75L396.522 40.0732C396.251 41.7521 395.961 43.4162 395.712 45.0889C395.588 45.9231 395.48 46.7594 395.413 47.5938C395.413 47.597 395.412 47.6012 395.412 47.6045C395.709 47.4149 396.01 47.2307 396.317 47.0566C396.586 46.9057 396.902 46.8624 397.158 46.8252C397.366 46.7949 397.54 46.7672 397.686 46.7148L397.821 46.6533L398.068 47.0879C397.118 47.6256 396.222 48.2468 395.34 48.8975C395.339 48.9193 395.339 48.9393 395.338 48.958C395.401 48.9446 395.457 48.9328 395.499 48.9199C395.526 48.9118 395.539 48.9062 395.543 48.9043C395.543 48.9043 395.536 48.9083 395.528 48.9141C395.52 48.9203 395.491 48.9435 395.47 48.9863L395.917 49.209C395.916 49.2108 395.913 49.213 395.912 49.2148C395.817 49.4033 395.666 49.5411 395.494 49.6455L395.498 49.6602C395.482 49.6645 395.465 49.6685 395.449 49.6729C395.317 49.7472 395.177 49.8038 395.042 49.8467C394.704 49.9539 394.331 50.0049 394.077 50.0469C394.062 50.0499 394.045 50.0549 394.017 50.0625C393.991 50.0695 393.953 50.0799 393.913 50.0869C393.867 50.095 393.811 50.0992 393.75 50.0918C392.7 50.8861 391.634 51.6785 390.489 52.3633L389.946 52.6758C387.474 54.0428 384.817 54.98 382.113 55.7168C379.755 56.3583 377.344 56.9507 374.898 57.2578C374.014 57.3696 373.001 57.4542 372.023 57.3477C371.046 57.241 370.084 56.9414 369.321 56.2676C368.519 55.5569 368.189 54.5803 368.031 53.6133L367.973 53.2002C367.925 52.7974 367.899 52.3932 367.872 51.998C367.845 51.6012 367.819 51.2119 367.771 50.8252L367.741 50.5596C367.732 50.4696 367.722 50.3804 367.71 50.293C367.694 50.1772 367.673 50.0715 367.647 49.9785C367.587 50.0308 367.527 50.0831 367.469 50.1387C367.098 50.4921 366.764 50.8884 366.436 51.2549C365.621 52.1681 364.935 53.1969 364.295 54.251C362.942 56.476 361.527 58.7346 360.798 61.1992L360.8 61.3613L360.675 61.3945C360.639 61.4227 360.6 61.4436 360.567 61.458C360.502 61.4869 360.424 61.5098 360.348 61.5283C360.193 61.5659 359.996 61.5979 359.814 61.627C359.809 61.6276 359.805 61.6283 359.801 61.6289C359.57 61.6908 359.339 61.7525 359.107 61.8145L358.679 61.9297L358.793 61.5361C358.78 60.1916 359.105 58.9034 359.456 57.6484C359.813 56.3725 360.195 55.1366 360.319 53.8594C360.361 53.4377 360.414 52.9893 360.42 52.5449C360.426 52.1009 360.386 51.6802 360.255 51.3174L360.254 51.3145L360.253 51.3135C358.376 52.6977 356.51 54.0994 354.631 55.4902C353.763 56.1328 352.861 56.82 351.875 57.3623C352.089 57.4111 352.298 57.4728 352.502 57.5469L352.694 57.6211L352.695 57.6221C353.276 57.8635 353.699 58.2324 353.977 58.7021C354.218 59.1108 354.341 59.584 354.372 60.0947L354.38 60.3154L354.369 60.7676C354.246 63.0068 353.085 64.9468 351.454 66.4238C350.174 67.5837 348.594 68.4649 346.973 68.9932C346.938 69.0198 346.903 69.0381 346.888 69.0449C346.789 69.0893 346.604 69.1443 346.439 69.1875C346.273 69.2307 346.086 69.2731 345.981 69.2822C345.967 69.2835 345.949 69.2844 345.931 69.2842L345.927 69.2832C345.694 69.3365 345.462 69.3831 345.23 69.4209L345.231 69.4219C344.806 69.4925 344.257 69.5117 343.772 69.3779C343.282 69.2426 342.822 68.9375 342.67 68.3438L342.627 68.1348C342.592 67.9192 342.582 67.6959 342.593 67.4707C341.819 68.7007 340.714 69.7436 339.679 70.6455C338.117 72.0039 336.409 73.3459 334.569 74.3457L334.568 74.3467C333.526 74.9084 332.45 75.245 331.334 75.541C330.928 75.6484 330.411 75.8077 329.899 75.8809C329.386 75.9542 328.833 75.9485 328.348 75.6963C327.932 75.4811 327.727 75.1212 327.643 74.7422C327.56 74.3712 327.589 73.9703 327.64 73.6338L327.708 73.2529C327.889 72.3658 328.218 71.494 328.53 70.6826C329.465 68.2705 330.844 66.0784 332.709 64.2627L332.71 64.2607C332.784 64.1901 332.877 64.1498 332.952 64.124C333.032 64.0968 333.118 64.0777 333.196 64.0635C333.275 64.0491 333.355 64.0383 333.421 64.0293C333.486 64.0204 333.534 64.0133 333.567 64.0068C333.621 63.9935 333.691 63.9819 333.755 63.9717C333.826 63.9604 333.899 63.949 333.972 63.9355C334.035 63.9239 334.09 63.9105 334.136 63.8975C333.992 63.903 333.816 63.912 333.644 63.9092C333.437 63.9058 333.206 63.8877 333.01 63.8203L333.009 63.8193C332.961 63.8026 332.937 63.7975 332.895 63.7842C332.878 63.779 332.852 63.7705 332.825 63.7578C332.798 63.7448 332.753 63.7193 332.716 63.6719C332.628 63.5608 332.656 63.4374 332.666 63.3984C332.678 63.3534 332.7 63.2975 332.718 63.251L332.719 63.248C332.798 63.0484 332.971 62.9109 333.116 62.8203C333.192 62.773 333.272 62.7315 333.346 62.6963L333.545 62.6084C334.306 62.2883 335.157 62.1129 335.924 61.9346C337.029 61.6789 338.359 61.4683 339.612 61.5186C340.132 61.2161 340.645 60.8956 341.153 60.5674L342.701 59.5723C343.209 59.235 343.701 58.8842 344.163 58.498L344.439 58.251C344.705 57.9986 344.942 57.7277 345.173 57.4268L345.371 57.1689C345.584 56.9025 345.845 56.6257 346.203 56.4746C346.408 56.3894 346.627 56.3303 346.836 56.2803C347.04 56.2313 347.221 56.1923 347.404 56.1455C347.417 56.142 347.43 56.1383 347.443 56.1348C347.457 56.13 347.478 56.1239 347.507 56.1133C347.544 56.0998 347.589 56.0833 347.637 56.0684C347.683 56.0537 347.738 56.0383 347.792 56.0293C347.826 56.0236 347.887 56.0159 347.953 56.0273C347.97 56.0202 347.997 56.0107 348.03 56.0078C348.054 56.0058 348.088 56.006 348.125 56.0176C348.165 56.0298 348.204 56.0528 348.235 56.0869C348.296 56.1528 348.302 56.2275 348.302 56.2568C348.302 56.2899 348.294 56.3154 348.291 56.3271C348.287 56.3408 348.282 56.3514 348.279 56.3584C348.273 56.3722 348.267 56.3837 348.264 56.3896C348.261 56.3945 348.257 56.3983 348.254 56.4023V56.4043C348.245 56.4229 348.227 56.4689 348.202 56.5596L348.201 56.5586C348.176 56.653 348.135 56.7472 348.098 56.8232C348.055 56.9106 348.024 56.9682 347.997 57.0283L347.996 57.0303C347.879 57.2884 347.758 57.5417 347.638 57.793C347.785 57.7477 347.932 57.7091 348.066 57.6729C348.497 57.5569 348.954 57.4182 349.417 57.3281L349.822 57.2637C349.988 57.2431 350.156 57.2313 350.324 57.2246C351.33 56.641 352.258 55.9062 353.23 55.2051C354.974 53.9442 356.667 52.6434 358.401 51.3623L358.816 51.0684C359.235 50.7878 359.671 50.5523 360.195 50.4072C360.301 50.3779 360.426 50.3311 360.582 50.2764C360.731 50.2242 360.902 50.1681 361.072 50.1338C361.403 50.0674 361.837 50.0665 362.1 50.4639C362.302 50.769 362.372 51.1509 362.396 51.5029C362.419 51.8563 362.398 52.222 362.391 52.4951C362.375 53.0121 362.329 53.5289 362.263 54.041L362.19 54.5518C362.18 54.6194 362.167 54.6865 362.155 54.7539C363.035 53.3022 363.99 51.9117 365.192 50.666C365.647 50.1928 366.173 49.5879 366.884 49.3047C367.426 49.0909 368.055 48.9266 368.624 48.8311L368.778 48.8086C368.935 48.7909 369.097 48.7942 369.24 48.8652C369.451 48.9703 369.546 49.1792 369.601 49.4072C369.689 49.7659 369.745 50.1309 369.784 50.4932L369.819 50.8545L369.873 51.6055C369.921 52.3477 369.968 53.0651 370.149 53.7695C370.483 55.0621 371.325 55.7768 372.389 56.1465C373.466 56.5208 374.765 56.5378 375.967 56.4102C379.686 56.0151 383.409 54.9938 386.775 53.3789C388.521 52.5404 390.13 51.5009 391.677 50.3301C392.215 49.9199 392.753 49.5021 393.299 49.0908C393.301 48.9497 393.311 48.808 393.324 48.6719C393.339 48.5228 393.359 48.374 393.377 48.2354C393.395 48.0948 393.411 47.9644 393.421 47.8467C393.593 45.8347 393.974 43.8392 394.289 41.8701L394.758 39.0449C395.883 32.4585 397.227 25.9113 398.562 19.3691C399.008 17.1909 399.479 15.0165 400.002 12.8545C399.96 12.8651 399.916 12.8751 399.874 12.8838C399.71 12.9176 399.518 12.9462 399.465 12.9551C399.432 12.9626 399.37 12.975 399.311 12.9863C399.238 12.9999 399.152 13.0164 399.067 13.0342C398.982 13.0522 398.905 13.0705 398.85 13.0869C398.822 13.0953 398.806 13.1004 398.802 13.1025C398.804 13.1015 398.811 13.0981 398.819 13.0918C398.826 13.0871 398.87 13.056 398.895 12.9922L398.426 12.8174C399.206 10.6718 399.932 8.47154 400.839 6.35449L401.015 5.95312C401.436 5.01987 401.918 4.11342 402.353 3.21289L402.683 2.51465C402.789 2.28221 402.888 2.04902 402.977 1.8125L402.978 1.81055C403.093 1.50766 403.2 1.11364 403.473 0.790039L403.463 0.696289L403.605 0.658203C403.625 0.64474 403.643 0.635017 403.655 0.628906C403.684 0.614881 403.716 0.603166 403.745 0.592773C403.804 0.571934 403.876 0.550723 403.952 0.53125C404.105 0.492019 404.297 0.451351 404.478 0.413086C404.553 0.397147 404.626 0.381006 404.695 0.366211C404.855 0.323425 405.015 0.280107 405.175 0.237305L406.064 0L405.491 0.578125ZM333.488 64.5244C333.421 64.5336 333.352 64.5426 333.285 64.5547C333.218 64.5669 333.16 64.5812 333.115 64.5967C333.077 64.6098 333.06 64.6198 333.057 64.6221C331.362 66.2722 330.078 68.2456 329.173 70.4238L328.997 70.8623C328.683 71.6788 328.369 72.5139 328.198 73.3506L328.134 73.709C328.086 74.0234 328.068 74.3515 328.131 74.6328C328.184 74.8719 328.292 75.0674 328.488 75.2002L328.578 75.2529C328.928 75.4347 329.358 75.4532 329.829 75.3857C329.875 75.3792 329.92 75.3683 329.966 75.3604C329.72 75.2596 329.49 75.0993 329.331 74.8496C329.114 74.5109 329.063 74.1153 329.077 73.7471C329.092 73.3779 329.174 73.0089 329.247 72.708C329.757 70.5651 330.693 68.4449 331.918 66.6123C332.419 65.8641 332.978 65.1637 333.589 64.5078C333.556 64.5128 333.521 64.5199 333.488 64.5244ZM339.287 62.6094C338.971 62.745 338.651 62.8705 338.324 62.9824L337.826 63.1416C337.591 63.2117 337.351 63.2808 337.108 63.3506C337.102 63.3546 337.097 63.3598 337.093 63.3623C337.067 63.3765 337.04 63.3886 337.018 63.3975C336.993 63.4069 336.967 63.4161 336.94 63.4248C336.888 63.4422 336.828 63.4594 336.772 63.4736C336.719 63.4875 336.661 63.5009 336.615 63.5078C336.603 63.5096 336.59 63.5106 336.576 63.5117C336.565 63.5126 336.548 63.5126 336.529 63.5117C335.778 63.7095 335.003 63.8675 334.222 63.8945L334.553 64.2383C333.723 65.049 332.977 65.9296 332.334 66.8906C331.141 68.6753 330.23 70.7411 329.733 72.8252C329.661 73.1237 329.59 73.4512 329.577 73.7666C329.566 74.0429 329.601 74.2908 329.704 74.4951L329.753 74.5801C329.847 74.727 329.99 74.8339 330.168 74.9043L330.357 74.9629L330.36 74.9639C330.554 75.0121 330.76 75.0177 330.979 75.0078C331.031 75.0056 331.087 75.0002 331.149 74.9932C331.17 74.9908 331.192 74.9889 331.215 74.9863C331.242 74.9731 331.267 74.959 331.292 74.9492C331.316 74.9401 331.341 74.9346 331.365 74.9277C331.444 74.8973 331.522 74.87 331.595 74.8467C331.819 74.7748 332.003 74.7251 332.135 74.6641C332.394 74.5424 332.654 74.4109 332.907 74.2695L333.31 74.0381C333.708 73.8006 334.098 73.5447 334.484 73.2793C335.225 72.7668 335.947 72.2176 336.655 71.6562C337.989 70.6007 339.282 69.4639 340.284 68.1211L340.449 67.8936C341.262 66.7392 341.847 65.3435 341.24 64.0908C340.831 63.2473 340.153 62.823 339.348 62.6221C339.328 62.6171 339.307 62.6141 339.287 62.6094ZM340.38 62.0898C340.244 62.16 340.107 62.228 339.969 62.2949C340.676 62.5698 341.292 63.0536 341.689 63.8721C342.425 65.3906 341.689 67.003 340.853 68.1895L340.685 68.4209C339.643 69.8168 338.309 70.9847 336.966 72.0479C336.339 72.5446 335.697 73.0329 335.04 73.498C336.566 72.5798 338.005 71.4382 339.35 70.2686C340.715 69.0796 342.112 67.7197 342.752 66.0625C343.379 64.437 342.682 62.6498 340.941 62.2031C340.76 62.1563 340.572 62.1187 340.38 62.0898ZM235.01 71.9414C235.035 71.9478 235.054 71.951 235.059 71.9512C235.07 71.9516 235.079 71.9514 235.083 71.9512C235.091 71.9507 235.099 71.9492 235.099 71.9492C235.104 71.9486 235.103 71.9481 235.093 71.9502C235.076 71.9535 235.051 71.9594 235.022 71.9658C234.994 71.9723 234.965 71.9792 234.945 71.9844C234.936 71.9869 234.93 71.9886 234.928 71.9893C234.928 71.9893 234.933 71.9881 234.938 71.9863C234.94 71.9854 234.952 71.9805 234.966 71.9727C234.972 71.9693 234.99 71.9588 235.01 71.9414ZM235.082 71.8271C235.074 71.854 235.064 71.8755 235.055 71.8896C235.038 71.9152 235.02 71.9325 235.01 71.9414C235.001 71.9393 234.991 71.9392 234.981 71.9355C234.963 71.9285 234.912 71.907 234.871 71.8535C234.857 71.8355 234.847 71.8137 234.838 71.79L235.082 71.8271ZM237.686 68.8135C237.662 68.8296 237.636 68.8525 237.606 68.8828C237.552 68.9401 237.5 69.0099 237.449 69.085L237.45 69.0859C237.23 69.4181 237.075 69.7933 236.944 70.1943C236.879 70.3948 236.82 70.5999 236.761 70.8076C236.743 70.8697 236.723 70.9315 236.705 70.9941C236.7 71.14 236.696 71.2846 236.692 71.4287C236.706 71.4254 236.72 71.4223 236.734 71.4189C236.826 71.3972 236.918 71.3754 236.991 71.3584C237.028 71.3498 237.06 71.3426 237.084 71.3369C237.096 71.3341 237.106 71.3309 237.113 71.3291C237.12 71.3276 237.124 71.3271 237.124 71.3271L237.126 71.3262C237.303 71.2796 237.476 71.2341 237.648 71.1836L237.67 71.1777C237.67 71.1777 237.673 71.1773 237.68 71.1758C237.683 71.175 237.686 71.1738 237.69 71.1729C237.695 70.863 237.708 70.554 237.719 70.2539C237.732 69.8901 237.739 69.5343 237.719 69.1797L237.699 68.9248C237.696 68.8875 237.69 68.8506 237.686 68.8135ZM236.182 69.2178C236.112 69.2647 236.045 69.3354 235.98 69.4297C235.898 69.5466 235.831 69.682 235.766 69.8164C235.597 70.1674 235.466 70.5364 235.349 70.918L235.348 70.9189C235.302 71.0648 235.261 71.2142 235.218 71.3672C235.214 71.3806 235.209 71.3937 235.205 71.4072C235.315 71.3783 235.427 71.3493 235.54 71.3203C235.714 71.2746 235.883 71.2301 236.053 71.1807C236.06 71.1782 236.066 71.1766 236.069 71.1758C236.073 71.1749 236.077 71.1744 236.079 71.1738C236.084 71.1728 236.088 71.1717 236.092 71.1709C236.099 71.1693 236.109 71.1669 236.118 71.165C236.124 71.1638 236.13 71.1615 236.136 71.1602C236.161 71.0779 236.185 70.995 236.209 70.9111V70.9072C236.219 70.6262 236.23 70.3503 236.23 70.0742C236.23 69.8014 236.219 69.5377 236.189 69.2764L236.189 69.2666C236.187 69.2508 236.184 69.2346 236.182 69.2178ZM236.814 69.0391L236.801 69.043C236.753 69.0531 236.708 69.0633 236.667 69.0723C236.674 69.1198 236.681 69.1702 236.685 69.2197H236.687C236.694 69.2871 236.697 69.3547 236.702 69.4219C236.764 69.2831 236.832 69.1462 236.908 69.0127C236.877 69.0212 236.846 69.0306 236.814 69.0391ZM347.576 56.751C347.504 56.8151 347.435 56.8858 347.367 56.9648C347.283 57.0634 347.203 57.1693 347.12 57.2812C347.039 57.3911 346.954 57.5093 346.864 57.6211L346.863 57.6221C346.613 57.9323 346.32 58.2075 346.015 58.4609C345.989 58.5119 345.963 58.5625 345.938 58.6133L345.939 58.6143C345.591 59.3222 345.252 60.0218 344.966 60.7451C344.405 62.1592 343.952 63.6265 343.597 65.1094C343.478 65.613 343.314 66.1322 343.199 66.7002C343.087 67.2561 343.042 67.7815 343.154 68.2188C343.247 68.5803 343.521 68.7902 343.905 68.8965C344.292 69.0031 344.755 68.9915 345.136 68.9297C344.96 68.8666 344.797 68.7836 344.654 68.6719C344.33 68.4182 344.132 68.0453 344.105 67.5508C344.051 66.4851 344.42 65.3195 344.651 64.3711C344.975 63.0601 345.373 61.7635 345.859 60.4971C346.344 59.2347 346.997 58.0261 347.541 56.8252C347.551 56.8021 347.564 56.7768 347.576 56.751ZM349.52 58.293C349.309 58.3601 349.081 58.4309 348.85 58.4873C348.395 58.598 347.884 58.6659 347.44 58.5186L347.439 58.5176C347.395 58.5026 347.353 58.4838 347.314 58.4678C346.962 59.1966 346.618 59.9176 346.326 60.6758C345.848 61.9205 345.457 63.1972 345.138 64.4902C344.892 65.4949 344.555 66.5532 344.605 67.5234L344.617 67.6533C344.659 67.9439 344.786 68.1407 344.962 68.2783C345.172 68.4429 345.478 68.5413 345.856 68.5752C346.021 68.5901 346.178 68.5797 346.347 68.5635C346.363 68.5566 346.38 68.5512 346.397 68.5439L346.398 68.543C346.885 68.3333 347.349 68.0665 347.804 67.7715C349.488 66.6788 351.201 65.1856 351.914 63.3389C352.232 62.5169 352.456 61.476 352.364 60.5527C352.273 59.6377 351.878 58.8696 350.982 58.4971C350.605 58.3393 350.214 58.2482 349.814 58.2002C349.721 58.2296 349.623 58.26 349.52 58.293ZM351.105 57.7451C350.992 57.7948 350.878 57.8419 350.763 57.8867C350.901 57.929 351.038 57.9782 351.175 58.0352L351.377 58.1279C352.349 58.621 352.766 59.5331 352.862 60.5029C352.965 61.529 352.717 62.6508 352.381 63.5186C351.737 65.1869 350.357 66.5523 348.925 67.6035C349.713 67.1703 350.458 66.6513 351.118 66.0537C352.782 64.5468 353.897 62.5717 353.88 60.3203L353.873 60.124C353.846 59.6749 353.738 59.2823 353.546 58.9561C353.328 58.5863 352.992 58.286 352.504 58.083C352.068 57.9032 351.59 57.7927 351.105 57.7451ZM396.312 60.1328C396.542 60.0917 396.808 60.0641 397.065 60.0898C397.397 60.1232 397.746 60.2518 397.968 60.585C398.003 60.6066 398.039 60.6284 398.072 60.6533C398.231 60.7712 398.375 60.9361 398.436 61.1582L398.457 61.2568C398.502 61.56 398.38 61.8084 398.219 61.9922C398.061 62.1717 397.854 62.3068 397.682 62.4023L397.681 62.4014C396.991 62.785 396.179 63.0255 395.424 63.2305C395.39 63.2461 395.357 63.2643 395.323 63.2793C395.03 63.4107 394.726 63.5053 394.426 63.5898C394.391 63.6016 394.346 63.6177 394.295 63.6328C394.172 63.6695 394.001 63.7168 393.837 63.7607C393.819 63.7654 393.802 63.7688 393.784 63.7734C393.366 63.9744 392.943 64.1749 392.516 64.3555L392.179 64.4932C391.58 64.7273 390.951 64.8816 390.355 65.0352C390.171 65.0827 389.933 65.1559 389.703 65.1992C389.468 65.2436 389.205 65.2651 388.945 65.2012L388.944 65.2002C388.821 65.1689 388.647 65.1126 388.556 64.9541C388.461 64.7895 388.505 64.608 388.552 64.4766C388.654 64.1859 388.851 63.9526 389.036 63.7686C389.46 63.3463 389.989 63.0032 390.443 62.6816C391.022 62.273 391.638 61.9749 392.272 61.7344C392.451 61.5906 392.638 61.4615 392.815 61.3516L393.03 61.2227C393.922 60.7002 394.95 60.4364 395.919 60.2178C395.931 60.2144 395.941 60.2113 395.95 60.209C395.957 60.207 395.967 60.2049 395.975 60.2031C395.977 60.2026 395.98 60.202 395.984 60.2012C395.984 60.2012 395.99 60.2004 395.998 60.1992C396.03 60.192 396.063 60.1839 396.095 60.1768L396.312 60.1328ZM391.224 62.7754C391.057 62.8723 390.893 62.9766 390.732 63.0898C390.253 63.4297 389.775 63.7383 389.39 64.1221C389.222 64.289 389.088 64.4586 389.023 64.6426V64.6445C389.016 64.6654 389.013 64.6829 389.01 64.6963C389.024 64.7014 389.043 64.7096 389.067 64.7158C389.228 64.7549 389.408 64.7453 389.61 64.707C389.731 64.6844 389.846 64.6541 389.964 64.6221C389.978 64.6119 389.987 64.6045 389.987 64.6045C389.997 64.5989 390.005 64.5949 390.01 64.5928C390.019 64.5884 390.028 64.5844 390.034 64.582C390.044 64.5783 390.055 64.5734 390.066 64.5693C389.992 64.4535 389.981 64.3214 390.001 64.209C390.025 64.0736 390.092 63.9435 390.159 63.8369C390.296 63.6202 390.489 63.419 390.585 63.3262L390.586 63.3252C390.783 63.1361 390.998 62.9522 391.224 62.7754ZM391.443 63.2383C391.263 63.3836 391.091 63.5338 390.932 63.6865C390.846 63.7698 390.687 63.9382 390.582 64.1045C390.529 64.1891 390.502 64.2539 390.494 64.2949C390.506 64.2995 390.524 64.3076 390.553 64.3135C390.606 64.3243 390.667 64.3286 390.724 64.3311H390.73C390.868 64.273 391.005 64.2135 391.138 64.1494L391.142 64.1475C391.394 64.0304 391.636 63.9072 391.892 63.7822C391.876 63.7657 391.86 63.7488 391.846 63.7305C391.808 63.6822 391.78 63.63 391.758 63.5771C391.665 63.5317 391.56 63.463 391.492 63.3555C391.468 63.3179 391.453 63.2773 391.443 63.2383ZM345.139 59.1221C343.994 59.9314 342.804 60.7033 341.598 61.416C341.423 61.519 341.247 61.6202 341.069 61.7197C342.315 62.0406 343.092 62.9337 343.365 63.9941C343.68 62.8305 344.057 61.6806 344.501 60.5615C344.695 60.0711 344.914 59.5938 345.139 59.1221ZM321.925 62.6553C323.415 62.8304 324.838 63.2577 326.255 63.8887C326.263 63.8879 326.276 63.8879 326.292 63.8848C326.342 63.8753 326.408 63.8571 326.482 63.833C326.555 63.8093 326.629 63.7821 326.696 63.7578C326.75 63.7386 326.809 63.7185 326.854 63.7051L326.925 63.6748C325.31 63.0242 323.677 62.632 321.925 62.6553ZM334.172 62.9072C334.025 62.9573 333.88 63.0108 333.738 63.0703C333.627 63.1169 333.495 63.1735 333.382 63.2441C333.313 63.2871 333.264 63.3277 333.231 63.3633C333.345 63.3921 333.488 63.4065 333.651 63.4092C333.843 63.4123 334.031 63.401 334.203 63.3955L334.345 63.3857C334.274 63.3493 334.173 63.2771 334.144 63.1406C334.122 63.0436 334.15 62.9602 334.171 62.9111L334.172 62.9072ZM392.707 62.3789C392.662 62.405 392.616 62.431 392.57 62.458L392.478 62.5645C392.34 62.7314 392.217 62.9912 392.198 63.2012C392.203 63.2024 392.209 63.2049 392.214 63.2061C392.283 63.2219 392.355 63.2305 392.423 63.2402C392.388 63.1392 392.391 63.0339 392.406 62.9434V62.9404C392.448 62.7045 392.591 62.5127 392.707 62.3789ZM392.972 62.8555C392.934 62.9154 392.909 62.9725 392.899 63.0273C392.898 63.0342 392.897 63.0403 392.897 63.0459C392.91 63.05 392.927 63.0563 392.949 63.0615H392.952C393.02 63.0783 393.089 63.0886 393.16 63.0957C393.083 63.0351 393.013 62.9577 392.972 62.8555ZM337.782 62.4658C337.423 62.4682 337.061 62.4889 336.705 62.5156L336.704 62.5146C336.402 62.5402 336.105 62.5717 335.803 62.6074L335.802 62.6064C335.627 62.6294 335.448 62.6568 335.271 62.6846C335.182 62.7209 335.102 62.7501 335.032 62.7744C334.918 62.8277 334.826 62.8863 334.752 62.9648L334.746 62.9697C334.776 62.9723 334.806 62.9767 334.838 62.9785C334.892 62.9816 334.959 62.9839 335.007 62.9883C335.589 63.037 336.146 62.9552 336.766 62.8818C336.793 62.8718 336.821 62.8598 336.852 62.8486L337.05 62.7725C337.115 62.7471 337.18 62.721 337.247 62.6953L337.642 62.5303C337.689 62.5097 337.735 62.4869 337.782 62.4658ZM394.147 61.9365C393.971 62.1193 393.834 62.3058 393.755 62.4932L393.717 62.5967C393.694 62.6734 393.688 62.7408 393.689 62.7988C393.735 62.8111 393.784 62.8246 393.837 62.834C393.849 62.8362 393.862 62.8369 393.875 62.8389C393.884 62.8344 393.893 62.8297 393.901 62.8252C393.869 62.7257 393.872 62.6256 393.891 62.5391C393.915 62.4254 393.967 62.3196 394.022 62.2324C394.119 62.0755 394.247 61.9365 394.331 61.8535C394.269 61.8808 394.207 61.9071 394.147 61.9365ZM395.47 61.6465C395.27 61.7598 395.076 61.8798 394.903 62.0156L394.704 62.1875C394.634 62.2545 394.522 62.3737 394.446 62.4961C394.437 62.5116 394.429 62.527 394.422 62.541C394.519 62.4841 394.617 62.4266 394.713 62.3652L395.044 62.1426C395.201 62.0308 395.351 61.9099 395.498 61.7861C395.508 61.736 395.509 61.7061 395.506 61.6904C395.503 61.6751 395.497 61.6662 395.485 61.6562C395.481 61.6527 395.475 61.6501 395.47 61.6465ZM396.34 61.6885C396.328 61.7006 396.317 61.7126 396.309 61.7217L396.308 61.7227C396.232 61.8 396.152 61.8729 396.073 61.9463C396.068 61.9869 396.059 62.0264 396.05 62.0654C396.176 61.9873 396.301 61.9068 396.423 61.8223C396.437 61.8125 396.45 61.8008 396.464 61.791C396.467 61.7453 396.461 61.7079 396.448 61.6758C396.447 61.6714 396.443 61.6675 396.441 61.6631C396.407 61.6717 396.373 61.6801 396.34 61.6885ZM397.893 61.2285C397.878 61.2431 397.864 61.2567 397.85 61.2715L397.847 61.2754C397.76 61.3618 397.668 61.4493 397.574 61.5371C397.555 61.6892 397.509 61.832 397.439 61.9648C397.594 61.8795 397.742 61.778 397.843 61.6631C397.94 61.5526 397.979 61.447 397.962 61.332L397.941 61.2559C397.934 61.2383 397.925 61.2218 397.915 61.2051C397.907 61.213 397.9 61.2213 397.893 61.2285ZM360.734 58.2363C360.225 59.1915 359.766 60.1636 359.426 61.1865C359.508 61.1722 359.596 61.1563 359.682 61.1426C359.698 61.1382 359.714 61.1342 359.73 61.1299C359.92 61.0789 360.11 61.0276 360.301 60.9766C360.313 60.0288 360.499 59.1211 360.734 58.2363ZM397.295 60.8438C397.347 60.885 397.389 60.9329 397.424 60.9873C397.446 60.965 397.47 60.9437 397.493 60.9209C397.496 60.9177 397.499 60.9142 397.502 60.9111C397.456 60.8932 397.408 60.8765 397.36 60.8623L397.358 60.8613C397.337 60.8549 397.316 60.8496 397.295 60.8438ZM346.097 57.125C345.912 57.2813 345.751 57.4922 345.57 57.7295C345.245 58.1547 344.9 58.5312 344.484 58.8809C344.127 59.1797 343.75 59.4579 343.366 59.7236C343.917 59.3632 344.461 58.9944 344.993 58.6152L345.398 58.3164C345.472 58.26 345.543 58.1998 345.614 58.1416C345.732 57.9052 345.849 57.6704 345.959 57.4326L346.097 57.125ZM361.371 50.6123C361.127 50.7652 360.9 50.8929 360.681 51.0283C360.699 51.0725 360.714 51.1131 360.726 51.1475C360.885 51.5908 360.926 52.0799 360.919 52.5518C360.916 52.7875 360.901 53.0241 360.881 53.2529L360.817 53.9082C360.688 55.2403 360.289 56.5286 359.938 57.7832C359.76 58.418 359.593 59.0461 359.474 59.6758C360.003 58.4625 360.659 57.312 361.314 56.1816C361.47 55.6166 361.609 55.0528 361.696 54.4766C361.799 53.8123 361.87 53.1448 361.891 52.4805C361.899 52.1854 361.918 51.8589 361.897 51.5371C361.875 51.2135 361.813 50.9364 361.683 50.7402C361.62 50.6447 361.523 50.5963 361.363 50.6006L361.371 50.6123ZM367.067 49.7686L367.068 49.7695C366.482 50.0031 366.042 50.504 365.553 51.0127C364.332 52.2774 363.366 53.7018 362.461 55.2119L362.076 55.8643C361.977 56.0362 361.878 56.2084 361.778 56.3799C361.637 56.8894 361.486 57.3925 361.346 57.8887C361.228 58.3042 361.117 58.7172 361.027 59.1309C361.814 57.3267 362.872 55.6287 363.867 53.9912C364.514 52.9269 365.218 51.8678 366.063 50.9209C366.378 50.5691 366.735 50.1487 367.124 49.7773C367.141 49.7615 367.158 49.7462 367.175 49.7305C367.139 49.7439 367.102 49.7547 367.067 49.7686ZM346.727 56.9697C346.765 56.9181 346.805 56.8661 346.846 56.8135C346.83 56.8178 346.814 56.8228 346.798 56.8271C346.777 56.8843 346.745 56.9398 346.727 56.9697ZM369.018 49.3125C368.99 49.2989 368.919 49.2866 368.711 49.3232L368.709 49.3242C368.686 49.3281 368.663 49.3328 368.64 49.3369C368.44 49.4132 368.247 49.5202 368.06 49.6494C368.138 49.8312 368.179 50.036 368.205 50.2236C368.219 50.3207 368.23 50.4174 368.239 50.5078L368.267 50.7617C368.317 51.165 368.345 51.5692 368.371 51.9648C368.398 52.3628 368.424 52.7529 368.47 53.1406L368.525 53.5361C368.675 54.45 368.975 55.292 369.652 55.8926L369.778 55.998C370.418 56.5083 371.218 56.7568 372.078 56.8506C372.497 56.8962 372.925 56.9034 373.351 56.8887C372.963 56.8308 372.583 56.7442 372.224 56.6191C371.032 56.2046 370.048 55.3768 369.665 53.8945C369.409 52.9012 369.402 51.8579 369.321 50.8975L369.287 50.5459C369.249 50.1971 369.196 49.8559 369.114 49.5254V49.5234C369.07 49.338 369.025 49.316 369.018 49.3125ZM352.089 56.6602C352.859 56.1904 353.594 55.6355 354.334 55.0879C356.081 53.7948 357.83 52.484 359.579 51.1914C359.282 51.3488 358.998 51.5428 358.698 51.7646C356.977 53.0364 355.267 54.3494 353.523 55.6104C353.052 55.9505 352.576 56.3099 352.089 56.6602ZM347.99 56.0361C347.993 56.0369 347.996 56.0373 347.998 56.0381C347.998 56.0381 347.997 56.0367 347.993 56.0361H347.99ZM393.332 49.6924C392.882 50.0346 392.434 50.3827 391.98 50.7285C391.615 51.0045 391.244 51.2719 390.871 51.5332C391.717 50.9867 392.529 50.3872 393.34 49.7744C393.335 49.7537 393.333 49.7324 393.332 49.7109C393.332 49.7046 393.332 49.6983 393.332 49.6924ZM394.853 48.5771C394.5 48.8226 394.153 49.0768 393.808 49.335C393.81 49.3621 393.814 49.3883 393.818 49.4141C394.161 49.1545 394.504 48.8943 394.851 48.6367C394.851 48.6169 394.852 48.597 394.853 48.5771ZM404.266 3.1416C403.768 4.15923 403.251 5.13253 402.814 6.1582L402.813 6.15918C402.133 7.7375 401.562 9.35618 400.986 10.9824C400.258 13.7886 399.634 16.6225 399.051 19.4688C397.525 26.9478 395.991 34.4206 394.783 41.9492C394.465 43.9386 394.089 45.9018 393.919 47.8896C393.908 48.0198 393.891 48.1597 393.873 48.2988C393.856 48.4323 393.838 48.5659 393.824 48.6992C394.173 48.4429 394.527 48.1924 394.887 47.9492C394.896 47.817 394.904 47.6847 394.915 47.5527C394.983 46.7028 395.093 45.8544 395.218 45.0146C395.467 43.3387 395.758 41.6639 396.027 39.9941L396.245 38.668C396.763 35.5753 397.357 32.4979 397.97 29.4268C399.348 22.5039 400.591 15.5034 402.482 8.68066C402.926 7.08165 403.351 5.40838 403.991 3.84082C404.17 3.40683 404.378 2.97267 404.564 2.51465L404.266 3.1416ZM395.758 47.9775C395.627 48.0601 395.496 48.1413 395.367 48.2266C395.367 48.2373 395.367 48.2481 395.366 48.2588C395.496 48.1645 395.627 48.0704 395.758 47.9775ZM403.138 2.72168L402.804 3.42969C402.293 4.48823 401.752 5.48719 401.298 6.55078C400.463 8.50146 399.783 10.5141 399.061 12.5254C399.117 12.5141 399.171 12.5029 399.218 12.4941C399.254 12.4872 399.286 12.4823 399.311 12.4775C399.323 12.4752 399.333 12.4723 399.341 12.4707C399.345 12.4699 399.348 12.4692 399.351 12.4688H399.353L399.36 12.4668L399.369 12.4648C399.444 12.4513 399.603 12.4298 399.773 12.3945C399.853 12.3782 399.921 12.3599 399.97 12.3438C400.152 11.8419 400.331 11.3371 400.51 10.8311C400.713 10.048 400.923 9.26601 401.145 8.4873C401.558 7.03735 401.956 5.53141 402.544 4.11426C402.734 3.65836 402.955 3.19591 403.143 2.70996C403.141 2.71381 403.139 2.71783 403.138 2.72168ZM404.552 0.921875C404.368 0.971319 404.183 1.01986 403.998 1.06934C404.015 1.61164 403.877 2.15947 403.693 2.67285C403.488 3.24695 403.205 3.82836 403.006 4.30566C402.841 4.70279 402.692 5.10734 402.553 5.5166C402.952 4.63421 403.399 3.77621 403.816 2.92188L404.156 2.20996C404.265 1.97178 404.368 1.73206 404.462 1.48926C404.498 1.39562 404.529 1.30179 404.564 1.20215C404.599 1.10442 404.636 1.00241 404.679 0.901367C404.681 0.896263 404.683 0.890851 404.686 0.885742C404.641 0.897674 404.596 0.909941 404.552 0.921875ZM238.188 71.3613C238.188 71.4565 238.135 71.5157 238.119 71.5322C238.099 71.5543 238.079 71.5685 238.07 71.5742C238.051 71.5864 238.034 71.5938 238.027 71.5967C238.011 71.6036 237.995 71.6087 237.983 71.6123C237.959 71.6202 237.928 71.6287 237.901 71.6357C237.849 71.6496 237.788 71.6648 237.768 71.6689C237.595 71.7191 237.423 71.7642 237.255 71.8086C237.221 71.8178 237.022 71.8644 236.851 71.9053C236.761 71.9268 236.674 71.9471 236.611 71.9639C236.58 71.9724 236.557 71.9793 236.545 71.9834C236.538 71.9856 236.54 71.9853 236.547 71.9824C236.549 71.9815 236.564 71.9747 236.581 71.9629C236.589 71.9572 236.608 71.9438 236.627 71.9219C236.643 71.9029 236.688 71.8456 236.688 71.7588H236.188C236.188 71.7262 236.188 71.6937 236.189 71.6611C236.013 71.7124 235.838 71.7594 235.666 71.8047H235.664C235.484 71.8509 235.308 71.8978 235.132 71.9443L235.088 71.8125C235.086 71.8176 235.086 71.823 235.084 71.8281L235.082 71.8271C235.084 71.8201 235.084 71.8125 235.086 71.8047L235.069 71.7539L234.845 71.7541L234.824 71.7471C234.827 71.7624 234.833 71.7764 234.838 71.79L234.595 71.7539C234.595 71.7224 234.601 71.6947 234.609 71.6709C234.654 71.5278 234.694 71.3814 234.736 71.2314C234.779 71.0798 234.822 70.9241 234.87 70.7705C234.991 70.3772 235.131 69.9812 235.314 69.5986C235.379 69.4644 235.463 69.2975 235.569 69.1445C235.676 68.992 235.817 68.8351 236.01 68.7393C236.02 68.7343 236.031 68.7307 236.042 68.7256C236.05 68.7197 236.058 68.7158 236.058 68.7158C236.082 68.7013 236.105 68.6936 236.111 68.6914C236.131 68.6844 236.154 68.6777 236.176 68.6719C236.197 68.6662 236.223 68.6608 236.254 68.6533C236.464 68.5917 236.681 68.5358 236.883 68.4834H236.885C237.114 68.4252 237.43 68.3149 237.717 68.2764L237.733 68.2744H237.746C237.746 68.2744 237.746 68.2738 237.75 68.2734C237.752 68.2732 237.769 68.2714 237.78 68.2705C237.804 68.2687 237.859 68.2662 237.921 68.2852L237.928 68.2871C237.971 68.3006 238.079 68.3382 238.133 68.459C238.153 68.5037 238.157 68.5463 238.159 68.5605C238.163 68.5888 238.162 68.5823 238.164 68.6016L238.197 68.8779L238.218 69.1504C238.239 69.5293 238.231 69.9054 238.218 70.2725C238.205 70.6427 238.188 71.0004 238.188 71.3613Z" fill="url(#paint11_linear_51_1097)"/>
</g>
<defs>
<filter id="filter0_dd_51_1097" x="0" y="0" width="566.063" height="467.718" filterUnits="userSpaceOnUse" color-interpolation-filters="sRGB">
<feFlood flood-opacity="0" result="BackgroundImageFix"/>
<feColorMatrix in="SourceAlpha" type="matrix" values="0 0 0 0 0 0 0 0 0 0 0 0 0 0 0 0 0 0 127 0" result="hardAlpha"/>
<feMorphology radius="48" operator="erode" in="SourceAlpha" result="effect1_dropShadow_51_1097"/>
<feOffset dy="64"/>
<feGaussianBlur stdDeviation="40"/>
<feComposite in2="hardAlpha" operator="out"/>
<feColorMatrix type="matrix" values="0 0 0 0 0 0 0 0 0 0 0 0 0 0 0 0 0 0 0.1 0"/>
<feBlend mode="normal" in2="BackgroundImageFix" result="effect1_dropShadow_51_1097"/>
<feColorMatrix in="SourceAlpha" type="matrix" values="0 0 0 0 0 0 0 0 0 0 0 0 0 0 0 0 0 0 127 0" result="hardAlpha"/>
<feMorphology radius="40" operator="erode" in="SourceAlpha" result="effect2_dropShadow_51_1097"/>
<feOffset dy="160"/>
<feGaussianBlur stdDeviation="100"/>
<feComposite in2="hardAlpha" operator="out"/>
<feColorMatrix type="matrix" values="0 0 0 0 0 0 0 0 0 0 0 0 0 0 0 0 0 0 0.1 0"/>
<feBlend mode="normal" in2="effect1_dropShadow_51_1097" result="effect2_dropShadow_51_1097"/>
<feBlend mode="normal" in="SourceGraphic" in2="effect2_dropShadow_51_1097" result="shape"/>
</filter>
<linearGradient id="paint0_linear_51_1097" x1="198.75" y1="99.9736" x2="357.423" y2="142.298" gradientUnits="userSpaceOnUse">
<stop stop-color="#2B7FFF"/>
<stop offset="0.447115" stop-color="#155DFC"/>
<stop offset="0.826923" stop-color="#841CFA"/>
<stop offset="0.894231" stop-color="#9810FA"/>
</linearGradient>
<linearGradient id="paint1_linear_51_1097" x1="198.75" y1="99.9736" x2="357.423" y2="142.298" gradientUnits="userSpaceOnUse">
<stop stop-color="#2B7FFF"/>
<stop offset="0.447115" stop-color="#155DFC"/>
<stop offset="0.826923" stop-color="#841CFA"/>
<stop offset="0.894231" stop-color="#9810FA"/>
</linearGradient>
<linearGradient id="paint2_linear_51_1097" x1="198.75" y1="99.9736" x2="357.423" y2="142.298" gradientUnits="userSpaceOnUse">
<stop stop-color="#2B7FFF"/>
<stop offset="0.447115" stop-color="#155DFC"/>
<stop offset="0.826923" stop-color="#841CFA"/>
<stop offset="0.894231" stop-color="#9810FA"/>
</linearGradient>
<linearGradient id="paint3_linear_51_1097" x1="198.75" y1="99.9736" x2="357.423" y2="142.298" gradientUnits="userSpaceOnUse">
<stop stop-color="#2B7FFF"/>
<stop offset="0.447115" stop-color="#155DFC"/>
<stop offset="0.826923" stop-color="#841CFA"/>
<stop offset="0.894231" stop-color="#9810FA"/>
</linearGradient>
<linearGradient id="paint4_linear_51_1097" x1="198.75" y1="99.9736" x2="357.423" y2="142.298" gradientUnits="userSpaceOnUse">
<stop stop-color="#2B7FFF"/>
<stop offset="0.447115" stop-color="#155DFC"/>
<stop offset="0.826923" stop-color="#841CFA"/>
<stop offset="0.894231" stop-color="#9810FA"/>
</linearGradient>
<linearGradient id="paint5_linear_51_1097" x1="198.75" y1="99.9736" x2="357.423" y2="142.298" gradientUnits="userSpaceOnUse">
<stop stop-color="#2B7FFF"/>
<stop offset="0.447115" stop-color="#155DFC"/>
<stop offset="0.826923" stop-color="#841CFA"/>
<stop offset="0.894231" stop-color="#9810FA"/>
</linearGradient>
<linearGradient id="paint6_linear_51_1097" x1="198.75" y1="99.9736" x2="357.423" y2="142.298" gradientUnits="userSpaceOnUse">
<stop stop-color="#2B7FFF"/>
<stop offset="0.447115" stop-color="#155DFC"/>
<stop offset="0.826923" stop-color="#841CFA"/>
<stop offset="0.894231" stop-color="#9810FA"/>
</linearGradient>
<linearGradient id="paint7_linear_51_1097" x1="198.75" y1="99.9736" x2="357.423" y2="142.298" gradientUnits="userSpaceOnUse">
<stop stop-color="#2B7FFF"/>
<stop offset="0.447115" stop-color="#155DFC"/>
<stop offset="0.826923" stop-color="#841CFA"/>
<stop offset="0.894231" stop-color="#9810FA"/>
</linearGradient>
<linearGradient id="paint8_linear_51_1097" x1="198.75" y1="99.9736" x2="357.423" y2="142.298" gradientUnits="userSpaceOnUse">
<stop stop-color="#2B7FFF"/>
<stop offset="0.447115" stop-color="#155DFC"/>
<stop offset="0.826923" stop-color="#841CFA"/>
<stop offset="0.894231" stop-color="#9810FA"/>
</linearGradient>
<linearGradient id="paint9_linear_51_1097" x1="198.75" y1="99.9736" x2="357.423" y2="142.298" gradientUnits="userSpaceOnUse">
<stop stop-color="#2B7FFF"/>
<stop offset="0.447115" stop-color="#155DFC"/>
<stop offset="0.826923" stop-color="#841CFA"/>
<stop offset="0.894231" stop-color="#9810FA"/>
</linearGradient>
<linearGradient id="paint10_linear_51_1097" x1="198.75" y1="99.9736" x2="357.423" y2="142.298" gradientUnits="userSpaceOnUse">
<stop stop-color="#2B7FFF"/>
<stop offset="0.447115" stop-color="#155DFC"/>
<stop offset="0.826923" stop-color="#841CFA"/>
<stop offset="0.894231" stop-color="#9810FA"/>
</linearGradient>
<linearGradient id="paint11_linear_51_1097" x1="198.75" y1="99.9736" x2="357.423" y2="142.298" gradientUnits="userSpaceOnUse">
<stop stop-color="#2B7FFF"/>
<stop offset="0.447115" stop-color="#155DFC"/>
<stop offset="0.826923" stop-color="#841CFA"/>
<stop offset="0.894231" stop-color="#9810FA"/>
</linearGradient>
</defs>
</svg>
