<svg fill="none" height="26" viewBox="0 0 26 26" width="26" xmlns="http://www.w3.org/2000/svg"><path d="m5.59375 11.4878c-.20964 0-.38558-.0711-.52783-.2134-.13477-.1422-.20215-.3182-.20215-.5278 0-.2022.07861-.3856.23584-.5503l7.56929-7.56935c.0824-.08235.1685-.14225.2583-.17968.0974-.04493.1985-.06739.3033-.06739.1123 0 .2133.02246.3032.06739.0973.03743.1834.09733.2583.17968l7.5806 7.56935c.1497.1647.2246.3481.2246.5503 0 .2096-.0712.3856-.2134.5278-.1348.1423-.3032.2134-.5054.2134-.1048 0-.2059-.015-.3032-.0449-.0898-.0375-.1685-.0899-.2358-.1573l-3.4141-3.38033-3.6948-3.97558-3.69486 3.97558-3.41406 3.38033c-.05989.0674-.13851.1198-.23584.1573-.09733.0299-.19466.0449-.29199.0449zm7.63675 11.9268c-.2172 0-.3968-.0712-.5391-.2134-.1348-.1348-.2021-.3107-.2021-.5279v-15.61031l.0786-3.05469c0-.19466.0599-.35189.1797-.47168.1272-.12728.2882-.19092.4829-.19092.2021 0 .3631.06364.4829.19092.1273.11979.1909.28076.1909.48291l.0786 3.04346v15.61031c0 .2172-.0711.3931-.2134.5279-.1422.1422-.3219.2134-.539.2134z" fill="#ebebf5" fill-opacity=".7"/></svg>
