<svg fill="none" height="26" viewBox="0 0 26 26" width="26" xmlns="http://www.w3.org/2000/svg" xmlns:xlink="http://www.w3.org/1999/xlink"><clipPath id="a"><path d="m0 0h26v26h-26z"/></clipPath><g clip-path="url(#a)"><path d="m9.61182 24.6167v-7.311c0-.2321.07112-.4193.21338-.5616.14225-.1422.3332-.2133.5727-.2133h4.8628c.2321 0 .4156.0711.5503.2133.1423.1423.2134.3295.2134.5616v7.311zm-9.01807-10.9609c-.224609 0-.404297-.0674-.5390625-.2022-.1272786-.1422-.1909175-.2995-.1909175-.4717 0-.2246.0973303-.4155.291992-.5727l11.466338-9.62453c.3743-.32194.7749-.48291 1.2016-.48291.4193 0 .8199.16097 1.2017.48291l11.4663 9.62453c.1872.1572.2808.3481.2808.5727 0 .1722-.0637.3295-.191.4717-.1272.1348-.3069.2022-.539.2022-.1198 0-.2284-.0262-.3257-.0787-.0898-.0524-.1797-.1123-.2695-.1796l-11.1856-9.39994c-.1347-.11979-.2807-.17969-.438-.17969-.1572 0-.3032.0599-.438.17969l-11.1855 9.39994c-.08985.0673-.18344.1272-.280766.1796-.097331.0525-.205892.0787-.325684.0787zm19.72075-5.13236v-2.86377c0-.20215.0636-.36312.1909-.48291.1272-.11979.2882-.17969.4829-.17969h1.0556c.2022 0 .3632.0599.483.17969.1197.11979.1796.28076.1796.48291v4.88523zm-15.04888 16.95796c-.74869 0-1.32519-.1984-1.72949-.5952-.40429-.3893-.60644-.9583-.60644-1.707v-12.3984l1.38135-.9434v13.0161c0 .4193.10107.73.30322.9321.20963.2097.52034.3145.93213.3145h14.55471c.4118 0 .7187-.1048.9209-.3145.2021-.2021.3032-.5128.3032-.9321v-13.03856l1.3813.96586v12.3984c0 .7412-.2021 1.3102-.6064 1.707-.3968.3968-.9658.5952-1.707.5952z" fill="#fff"/></g></svg>