<svg fill="none" height="26" viewBox="0 0 26 26" width="26" xmlns="http://www.w3.org/2000/svg"><path d="m5.58997 11.4879c-.20964 0-.38558-.0711-.52784-.2134-.13476-.1422-.20214-.3182-.20214-.5278 0-.2021.07861-.3856.23584-.5503l7.56937-7.56932c.0823-.08236.1684-.14226.2583-.17969.0973-.04492.1984-.06739.3032-.06739.1123 0 .2134.02247.3032.06739.0973.03743.1834.09733.2583.17969l7.5806 7.56932c.1497.1647.2246.3482.2246.5503 0 .2096-.0711.3856-.2134.5278-.1348.1423-.3032.2134-.5054.2134-.1048 0-.2059-.015-.3032-.0449-.0898-.0374-.1684-.0899-.2358-.1572l-3.4141-3.3804-3.6948-3.97559-3.69484 3.97559-3.41406 3.3804c-.0599.0673-.13851.1198-.23584.1572-.09733.0299-.19466.0449-.29199.0449zm7.63673 11.9268c-.2171 0-.3968-.0712-.5391-.2134-.1347-.1348-.2021-.3107-.2021-.5278v-15.61039l.0786-3.05469c0-.19466.0599-.35189.1797-.47168.1273-.12728.2882-.19091.4829-.19091.2021 0 .3631.06363.4829.19091.1273.11979.1909.28076.1909.48291l.0786 3.04346v15.61039c0 .2171-.0711.393-.2134.5278-.1422.1422-.3219.2134-.539.2134z" fill="#fff"/></svg>