<svg fill="none" height="26" viewBox="0 0 26 26" width="26" xmlns="http://www.w3.org/2000/svg"><path d="m5.1814 12.4822c-.20964 0-.38558-.0711-.52784-.2134-.13476-.1423-.20214-.3182-.20214-.5278 0-.2022.07861-.3856.23584-.5503l7.56934-7.56936c.0823-.08236.1684-.14225.2583-.17969.0973-.04492.1984-.06738.3032-.06738.1123 0 .2134.02246.3032.06738.0974.03744.1835.09733.2583.17969l7.5806 7.56936c.1497.1647.2246.3481.2246.5503 0 .2096-.0711.3855-.2134.5278-.1347.1423-.3032.2134-.5053.2134-.1049 0-.2059-.015-.3033-.0449-.0898-.0375-.1684-.0899-.2358-.1573l-3.4141-3.38034-3.6948-3.97559-3.69481 3.97559-3.41406 3.38034c-.0599.0674-.13851.1198-.23584.1573-.09733.0299-.19466.0449-.29199.0449zm7.6367 11.9267c-.2171 0-.3968-.0711-.539-.2133-.1348-.1348-.2022-.3108-.2022-.5279v-15.61033l.0786-3.05468c0-.19467.0599-.35189.1797-.47168.1273-.12728.2883-.19092.4829-.19092.2022 0 .3631.06364.4829.19092.1273.11979.1909.28076.1909.48291l.0787 3.04345v15.61033c0 .2171-.0712.3931-.2134.5279-.1423.1422-.322.2133-.5391.2133z" fill="#fff"/></svg>
