<svg fill="none" height="25" viewBox="0 0 26 25" width="26" xmlns="http://www.w3.org/2000/svg"><path d="m13.2744 24.1558c-1.5573 0-3.0172-.292-4.37987-.876-1.36263-.584-2.56055-1.3926-3.59375-2.4258-1.02571-1.0332-1.83057-2.2274-2.41455-3.5825-.58398-1.3626-.87598-2.8226-.87598-4.3799s.292-3.01351.87598-4.36865c.58398-1.36263 1.38884-2.56055 2.41455-3.59375 1.0332-1.04069 2.23112-1.84928 3.59375-2.42578 1.36267-.58399 2.82257-.87598 4.37987-.87598 1.5498 0 3.006.29199 4.3687.87598 1.3626.5765 2.5568 1.38509 3.5825 2.42578 1.0332 1.0332 1.8418 2.23112 2.4258 3.59375.5914 1.35514.8872 2.81135.8872 4.36865s-.2958 3.0173-.8872 4.3799c-.584 1.3551-1.3926 2.5493-2.4258 3.5825-1.0257 1.0332-2.2199 1.8418-3.5825 2.4258-1.3627.584-2.8189.876-4.3687.876zm0-1.4488c1.3552 0 2.6242-.2545 3.8071-.7636 1.1905-.5092 2.2349-1.2129 3.1333-2.1114.8985-.8984 1.6023-1.9391 2.1114-3.122.5091-1.1905.7636-2.4633.7636-3.8184s-.2545-2.6279-.7636-3.81836c-.5091-1.19043-1.2129-2.23112-2.1114-3.12207-.8984-.89844-1.9428-1.60221-3.1333-2.11133-1.1829-.50911-2.4519-.76367-3.8071-.76367-1.3551 0-2.6279.25456-3.81835.76367-1.18294.50912-2.22363 1.21289-3.12207 2.11133-.89843.89095-1.60221 1.93164-2.11132 3.12207-.50912 1.19046-.76368 2.46326-.76368 3.81836s.25456 2.6279.76368 3.8184c.50911 1.1829 1.21289 2.2236 2.11132 3.122.89844.8985 1.93913 1.6022 3.12207 2.1114 1.19045.5091 2.46325.7636 3.81835.7636zm7.6255-2.5044c-.6813.6814-1.4562 1.2616-2.3247 1.7408-.8685.4866-1.7632.8572-2.6841 1.1118-.9134.2545-1.7856.3818-2.6167.3818-.8161 0-1.6883-.131-2.6167-.3931-.92837-.2545-1.83055-.6251-2.70653-1.1118-.87597-.4791-1.64339-1.0556-2.30224-1.7295l.02246-.1123c.20963-.5315.65885-1.0631 1.34765-1.5947.69629-.5316 1.57601-.9733 2.63916-1.3252 1.0632-.3519 2.2686-.5278 3.6162-.5278 1.3477 0 2.5568.1759 3.6275.5278 1.0706.3519 1.9466.7974 2.6279 1.3364.6888.5316 1.138 1.0669 1.3476 1.606zm-7.6255-5.4804c-.7187-.0075-1.3664-.1947-1.9429-.5616-.5765-.3743-1.0332-.8797-1.37007-1.5161-.33692-.6364-.50912-1.3551-.51661-2.1562-.00748-.74872.16097-1.43752.50538-2.06642.3444-.62891.8048-1.13054 1.3813-1.50489.584-.38183 1.2317-.57275 1.9429-.57275.7113 0 1.3552.19092 1.9317.57275.5765.37435 1.0369.87598 1.3813 1.50489.3444.6289.5166 1.3177.5166 2.06642 0 .8011-.1685 1.5236-.5054 2.1675-.3369.6364-.7973 1.1417-1.3813 1.5161-.5765.3668-1.2241.5503-1.9429.5503z" fill="#ebebf5" fill-opacity=".7"/></svg>