<svg preserveAspectRatio="none" width="100%" height="100%" overflow="visible" style="display: block;" viewBox="0 0 25.4595 21.4053" fill="none" xmlns="http://www.w3.org/2000/svg">
<path id="&#244;&#128;&#142;&#157;" d="M11.0171 13.8696H14.4312C15.2098 13.8696 15.5991 13.4878 15.5991 12.7241V11.8257C16.6997 11.7583 17.7928 11.6385 18.8784 11.4663C19.964 11.2866 21.0534 11.0545 22.1465 10.77C23.2471 10.4855 24.3514 10.1336 25.4595 9.71436V8.28809C24.1193 8.86458 22.7604 9.32503 21.3828 9.66943C20.0127 10.0138 18.6089 10.2609 17.1714 10.4106C15.7414 10.5604 14.259 10.6353 12.7241 10.6353C11.1968 10.6353 9.71436 10.5604 8.27686 10.4106C6.84684 10.2609 5.44303 10.0138 4.06543 9.66943C2.69531 9.32503 1.34017 8.86458 0 8.28809V9.71436C1.10807 10.1336 2.20866 10.4855 3.30176 10.77C4.40234 11.0545 5.49544 11.2866 6.58105 11.4663C7.66667 11.6385 8.75602 11.7583 9.84912 11.8257V12.7241C9.84912 13.4878 10.2384 13.8696 11.0171 13.8696ZM3.18945 21.4053C2.1263 21.4053 1.32894 21.1432 0.797363 20.6191C0.265788 20.1025 0 19.3089 0 18.2383V7.15381C0 6.09066 0.265788 5.30078 0.797363 4.78418C1.32894 4.26009 2.1263 3.99805 3.18945 3.99805H22.2588C23.3294 3.99805 24.1305 4.26009 24.6621 4.78418C25.1937 5.30078 25.4595 6.09066 25.4595 7.15381V18.2383C25.4595 19.3089 25.1937 20.1025 24.6621 20.6191C24.1305 21.1432 23.3294 21.4053 22.2588 21.4053H3.18945ZM7.19873 4.76172V2.74023C7.19873 1.82682 7.45329 1.14176 7.9624 0.685059C8.47152 0.228353 9.16032 0 10.0288 0H15.4082C16.3216 0 17.0216 0.228353 17.5083 0.685059C18.0024 1.14176 18.2495 1.82682 18.2495 2.74023V4.75049H16.9019V2.66162C16.9019 2.21989 16.7746 1.87923 16.52 1.63965C16.2655 1.40007 15.9061 1.28027 15.4419 1.28027H10.0063C9.54215 1.28027 9.18278 1.40007 8.92822 1.63965C8.67367 1.87923 8.54639 2.21989 8.54639 2.66162V4.76172H7.19873Z" fill="var(--fill-0, white)"/>
</svg>
