<svg width="26" height="28" viewBox="0 0 26 28" fill="none" xmlns="http://www.w3.org/2000/svg">
<path d="M22.1455 8.63574C22.1455 7.61121 21.9702 6.6519 21.623 5.75684H21.6221C21.2803 4.87443 20.7615 4.10122 20.0615 3.43652V3.43555C19.3664 2.77362 18.4878 2.24073 17.4141 1.84473L17.4131 1.84375C16.3537 1.45257 15.106 1.25 13.6572 1.25H4.625V25.5645H9.09961V16.1738H11.5703L11.7012 16.624C13.2455 21.9147 17.9236 25.7263 23.6875 25.9844V21.7773C20.3207 21.5644 17.5514 19.6381 16.207 16.7842L15.8604 16.0479L16.6602 15.9023C17.327 15.7811 17.8709 15.6177 18.2061 15.4189L18.2148 15.4141L18.2246 15.4092C19.4851 14.7171 20.4455 13.8028 21.124 12.665C21.7981 11.5369 22.1455 10.2012 22.1455 8.63574ZM16.3662 8.97852C16.3662 8.06262 16.0984 7.40473 15.6182 6.93164C15.1391 6.46049 14.4547 6.19141 13.4854 6.19141H10.4893V11.7266H13.4854C14.4475 11.7266 15.1289 11.4493 15.6094 10.957C16.1076 10.4461 16.3662 9.8019 16.3662 8.97852ZM17.6162 8.97852C17.6162 10.0265 17.2952 10.942 16.6396 11.6836L16.5039 11.8301C15.7378 12.615 14.7046 12.9766 13.4854 12.9766H9.23926V4.94141H13.4854C14.6973 4.94141 15.7276 5.28603 16.4951 6.04102L16.6338 6.18555C17.3032 6.92117 17.6162 7.87271 17.6162 8.97852ZM23.3955 8.63574C23.3955 10.3921 23.004 11.9566 22.1973 13.3066C21.3968 14.6489 20.2673 15.7136 18.8262 16.5049L18.8252 16.5039C18.5056 16.6903 18.1195 16.834 17.7109 16.9463C19.0392 19.1375 21.4348 20.5479 24.3125 20.5479H24.9375V27.25H24.3125C17.8673 27.25 12.5314 23.1927 10.6426 17.4238H10.3496V26.8145H3.375V0H13.6572C15.2203 0 16.6201 0.218874 17.8467 0.671875C19.0558 1.11782 20.0869 1.73424 20.9229 2.53027L21.2246 2.83301C21.9071 3.55451 22.4299 4.38062 22.7881 5.30566L22.9307 5.70117C23.2411 6.63134 23.3955 7.61143 23.3955 8.63574Z" fill="#EBEBF5" fill-opacity="0.7"/>
</svg>
