<svg fill="none" height="26" viewBox="0 0 26 26" width="26" xmlns="http://www.w3.org/2000/svg"><path d="m10.7573 22.2583c-.2021 0-.3856-.0786-.5503-.2358l-7.55807-7.5694c-.1722-.1647-.25831-.3519-.25831-.5615 0-.2171.08611-.4043.25831-.5615l7.50197-7.51321c.1048-.1123.2059-.18717.3032-.2246.0973-.04493.1984-.06739.3032-.06739.2097 0 .3856.07113.5279.21338.1422.13477.2133.30322.2133.50537 0 .10482-.0187.20589-.0561.30323-.03.08984-.0786.16845-.146.23583l-3.38038 3.41409-3.97559 3.6948 3.97559 3.6948 3.38038 3.4141c.0674.0599.116.1385.146.2358.0374.0974.0561.1984.0561.3033 0 .2021-.0711.3706-.2133.5053-.1423.1423-.3182.2134-.5279.2134zm-3.53757-7.6143-3.30176-.1572c-.1722 0-.3182-.0561-.43799-.1684-.1123-.1123-.16846-.2546-.16846-.4268 0-.1797.05616-.3219.16846-.4268.11231-.1123.25456-.1684.42676-.1684l3.31299-.1572h15.28467c.2171 0 .3931.0711.5278.2133.1423.1423.2134.322.2134.5391s-.0711.3968-.2134.5391c-.1347.1422-.3107.2133-.5278.2133z" fill="#FF453A"/></svg>