<svg fill="none" height="26" viewBox="0 0 26 26" width="26" xmlns="http://www.w3.org/2000/svg"><path d="m11.1055 17.0586h3.414c.7787 0 1.168-.3818 1.168-1.1455v-.8985c1.1006-.0673 2.1937-.1871 3.2793-.3593 1.0856-.1797 2.175-.4118 3.2681-.6963 1.1005-.2845 2.2049-.6364 3.313-1.0557v-1.4262c-1.3402.5764-2.6991 1.0369-4.0767 1.3813-1.3701.3444-2.7739.5915-4.2114.7412-1.43.1497-2.9125.2246-4.4473.2246-1.5273 0-3.00977-.0749-4.44727-.2246-1.43001-.1497-2.83382-.3968-4.21142-.7412-1.37012-.3444-2.72526-.8049-4.0654311-1.3813v1.4262c1.1080711.4193 2.2086611.7712 3.3017611 1.0557 1.10058.2845 2.19368.5166 3.27929.6963 1.08562.1722 2.17497.292 3.26807.3593v.8985c0 .7637.3893 1.1455 1.168 1.1455zm-7.82767 7.5356c-1.06315 0-1.86051-.262-2.392088-.7861-.531575-.5166-.7973631-1.3102-.7973631-2.3809v-11.0844c0-1.06318.2657881-1.85305.7973631-2.36966.531578-.52408 1.328938-.78613 2.392088-.78613h19.06937c1.0706 0 1.8717.26205 2.4033.78613.5316.51661.7974 1.30648.7974 2.36966v11.0844c0 1.0707-.2658 1.8643-.7974 2.3809-.5316.5241-1.3327.7861-2.4033.7861zm4.00928-16.64352v-2.02148c0-.91341.25456-1.59847.76367-2.05518.50912-.4567 1.19792-.68506 2.06642-.68506h5.3794c.9134 0 1.6134.22836 2.1001.68506.4941.45671.7412 1.14177.7412 2.05518v2.01025h-1.3477v-2.08886c0-.44174-.1272-.78239-.3818-1.02198-.2546-.23958-.6139-.35937-1.0781-.35937h-5.4356c-.46417 0-.82354.11979-1.0781.35937-.25456.23959-.38183.58024-.38183 1.02198v2.10009z" fill="#fff"/></svg>