<svg fill="none" height="26" viewBox="0 0 32 26" width="32" xmlns="http://www.w3.org/2000/svg" xmlns:xlink="http://www.w3.org/1999/xlink"><linearGradient id="a" gradientUnits="userSpaceOnUse" x1="16" x2="16" y1="4" y2="22.2252"><stop offset="0" stop-color="#ebebf5" stop-opacity=".4"/><stop offset=".45" stop-color="#ebebf5" stop-opacity=".7"/><stop offset=".55" stop-color="#a9a9ae" stop-opacity=".7"/><stop offset=".89" stop-color="#ebebf5" stop-opacity=".4"/></linearGradient><path d="m3.80273 7.70117c7.94777-2.38614 16.42237-2.38614 24.37017 0v-.00097c.4082.12725.8296-.11235.957-.49415.0127-.03827.0209-.07704.0273-.11523.4296.34043.7622.77068.9688 1.25l.083.25586c.2464.76371.4532 1.55192.6211 2.36032-.3357.1404-.5597.4836-.5303.8662l.2197 2.8555c.0336.4357.3839.7703.8076.7979.0024.1398.0049.2803.0049.4209 0 .3678-.0084.7264-.0263 1.0849l-.001.0049c-.0466 1.1495-.7865 2.2149-1.9756 2.7607-1.8018.8247-3.9467 1.4832-6.3369 1.9268l-.001.001c-.9709.1824-1.9597-.1463-2.6787-.8662l-.1406-.1485c-1.1033-1.26-2.5632-2.042-4.166-2.042-1.6033.0001-3.0344.7729-4.1358 2.002l-.0019.0029c-.7348.8306-1.7991 1.2084-2.835 1.0059h-.00097c-2.45135-.4704-4.63999-1.1834-6.45899-2.0615-1.13693-.5483-1.835827-1.618-1.874998-2.7618l-.000976-.0127c-.000747-.0123-.001374-.0277-.00293-.0429-.000764-.0075-.002735-.0196-.004883-.0332-.000687-.0044-.005086-.0183-.009765-.0381-.000038-.1941 0-.4472 0-.7735 0-.0534.000629-.1068.000976-.1601.436246-.0321.786716-.388.801756-.835l.0957-2.8632c.0111-.3384-.17401-.6371-.45214-.7891.1673-.8578.38016-1.69272.63281-2.50001.18941-.59969.56902-1.1361 1.08984-1.54492.13131.40798.57125.60208.95313.48633z" stroke="url(#a)"/></svg>