<svg preserveAspectRatio="none" width="100%" height="100%" overflow="visible" style="display: block;" viewBox="0 0 25.4595 21.4053" fill="none" xmlns="http://www.w3.org/2000/svg">
<path id="&#244;&#128;&#142;&#156;" d="M0.932129 10.0625L0.96582 8.59131C2.71029 9.2876 4.56331 9.79671 6.5249 10.1187C8.48649 10.4406 10.5529 10.6016 12.7241 10.6016C14.9028 10.6016 16.973 10.4443 18.9346 10.1299C20.8962 9.80794 22.7492 9.30632 24.4937 8.625L24.5273 10.0625C22.693 10.7139 20.7913 11.1893 18.8223 11.4888C16.8532 11.7882 14.8205 11.938 12.7241 11.938C10.6353 11.938 8.60254 11.7882 6.62598 11.4888C4.6569 11.1893 2.75895 10.7139 0.932129 10.0625ZM11.0171 13.8921C10.2384 13.8921 9.84912 13.5103 9.84912 12.7466V11.2192H15.5991V12.7466C15.5991 13.5103 15.2098 13.8921 14.4312 13.8921H11.0171ZM3.18945 21.4053C2.1263 21.4053 1.32894 21.1432 0.797363 20.6191C0.265788 20.1025 0 19.3089 0 18.2383V7.15381C0 6.09066 0.265788 5.30078 0.797363 4.78418C1.32894 4.26009 2.1263 3.99805 3.18945 3.99805H22.2588C23.3294 3.99805 24.1305 4.26009 24.6621 4.78418C25.1937 5.30078 25.4595 6.09066 25.4595 7.15381V18.2383C25.4595 19.3089 25.1937 20.1025 24.6621 20.6191C24.1305 21.1432 23.3294 21.4053 22.2588 21.4053H3.18945ZM3.20068 20.0352H22.2476C22.8615 20.0352 23.3182 19.8817 23.6177 19.5747C23.9246 19.2752 24.0781 18.811 24.0781 18.1821V7.22119C24.0781 6.59229 23.9246 6.12809 23.6177 5.82861C23.3182 5.52165 22.8615 5.36816 22.2476 5.36816H3.20068C2.59424 5.36816 2.13753 5.52165 1.83057 5.82861C1.53109 6.12809 1.38135 6.59229 1.38135 7.22119V18.1821C1.38135 18.811 1.53109 19.2752 1.83057 19.5747C2.13753 19.8817 2.59424 20.0352 3.20068 20.0352ZM7.19873 4.76172V2.74023C7.19873 1.82682 7.45329 1.14176 7.9624 0.685059C8.47152 0.228353 9.16032 0 10.0288 0H15.4082C16.3216 0 17.0216 0.228353 17.5083 0.685059C18.0024 1.14176 18.2495 1.82682 18.2495 2.74023V4.75049H16.9019V2.66162C16.9019 2.21989 16.7746 1.87923 16.52 1.63965C16.2655 1.40007 15.9061 1.28027 15.4419 1.28027H10.0063C9.54215 1.28027 9.18278 1.40007 8.92822 1.63965C8.67367 1.87923 8.54639 2.21989 8.54639 2.66162V4.76172H7.19873Z" fill="var(--fill-0, white)"/>
</svg>
