<svg fill="none" height="26" viewBox="0 0 26 26" width="26" xmlns="http://www.w3.org/2000/svg"><path d="m13.2744 24.1558c-1.5573 0-3.0172-.292-4.37987-.876-1.35514-.584-2.54932-1.3926-3.58252-2.4258-1.0332-1.0407-1.8418-2.2386-2.42578-3.5937-.58398-1.3627-.87598-2.8189-.87598-4.3687s.292-3.00602.87598-4.36865 1.39258-2.56055 2.42578-3.59375 2.22738-1.8418 3.58252-2.42578c1.36267-.58399 2.82257-.87598 4.37987-.87598 1.5498 0 3.006.29199 4.3687.87598 1.3626.58398 2.5568 1.39258 3.5825 2.42578 1.0332 1.0332 1.8418 2.23112 2.4258 3.59375.5914 1.36263.8872 2.81885.8872 4.36865s-.2958 3.006-.8872 4.3687c-.584 1.3551-1.3926 2.553-2.4258 3.5937-1.0257 1.0332-2.2199 1.8418-3.5825 2.4258-1.3627.584-2.8189.876-4.3687.876zm-.0112-1.314c.9284 0 1.8268-.1235 2.6953-.3706.876-.2471 1.6883-.599 2.437-1.0557.7487-.4492 1.4038-.9733 1.9653-1.5722-.4043-.6589-.9695-1.2242-1.6958-1.6958-.7187-.4792-1.5423-.8461-2.4707-1.1006-.9209-.2546-1.8979-.3819-2.9311-.3819-1.0407 0-2.0252.1273-2.9536.3819-.92842.2545-1.75198.6214-2.47073 1.1006-.71127.4716-1.27279 1.0369-1.68457 1.6958.56152.5989 1.21663 1.123 1.96533 1.5722.75618.4567 1.56852.8086 2.43697 1.0557.876.2471 1.7782.3706 2.7066.3706zm0-8.0972c.7187 0 1.3664-.1834 1.9429-.5503.5765-.3743 1.0332-.8797 1.3701-1.5161.3444-.6439.5166-1.3664.5166-2.1675 0-.74866-.1722-1.43746-.5166-2.06636-.3369-.62891-.7974-1.13054-1.3814-1.50489-.5765-.38183-1.2204-.57275-1.9316-.57275-.7113 0-1.3589.19092-1.9429.57275-.5765.37435-1.0369.87598-1.38134 1.50489-.3444.6289-.51285 1.3177-.50537 2.06636 0 .8011.16846 1.5199.50537 2.1563.33694.6364.79364 1.1418 1.37014 1.5161.5765.3669 1.2278.554 1.9541.5615z" fill="#fff"/></svg>