<svg fill="none" height="26" viewBox="0 0 26 26" width="26" xmlns="http://www.w3.org/2000/svg"><path d="m20.8672 14.3066c.2096 0 .3856.0712.5278.2134.1348.1423.2022.3182.2022.5279 0 .2021-.0786.3855-.2359.5502l-7.5693 7.5694c-.0824.0823-.1685.1422-.2583.1797-.0973.0449-.1984.0674-.3032.0674-.1123 0-.2134-.0225-.3033-.0674-.0973-.0375-.1834-.0974-.2583-.1797l-7.58052-7.5694c-.14974-.1647-.22461-.3481-.22461-.5502 0-.2097.07113-.3856.21338-.5279.13476-.1422.30322-.2134.50537-.2134.10482 0 .20589.015.30322.045.08985.0374.16846.0898.23584.1572l3.41406 3.3804 3.69486 3.9755 3.6948-3.9755 3.4141-3.3804c.0599-.0674.1385-.1198.2358-.1572.0973-.03.1947-.045.292-.045zm-7.6367-11.92672c.2171 0 .3968.07113.539.21338.1348.13477.2022.31071.2022.52783v15.61031l-.0786 3.0547c0 .1947-.0599.3519-.1797.4717-.1273.1273-.2883.1909-.4829.1909-.2022 0-.3631-.0636-.4829-.1909-.1273-.1198-.191-.2807-.191-.4829l-.0786-3.0435v-15.61031c0-.21712.0712-.39306.2134-.52783.1423-.14225.3219-.21338.5391-.21338z" fill="#ebebf5" fill-opacity=".7"/></svg>