<svg fill="none" height="26" viewBox="0 0 26 26" width="26" xmlns="http://www.w3.org/2000/svg"><path d="m1.02051 13.2515.03369-1.4712c1.74447.6963 3.59749 1.2054 5.55908 1.5273 1.96159.322 4.02802.4829 6.19922.4829 2.1787 0 4.2489-.1572 6.2104-.4717 1.9616-.3219 3.8147-.8235 5.5591-1.5048l.0337 1.4375c-1.8343.6513-3.736 1.1268-5.7051 1.4262-1.969.2995-4.0017.4493-6.0981.4493-2.0889 0-4.12158-.1498-6.09814-.4493-1.96908-.2994-3.86703-.7749-5.69385-1.4262zm10.08499 3.8296c-.7787 0-1.168-.3819-1.168-1.1456v-1.5273h5.75v1.5273c0 .7637-.3893 1.1456-1.168 1.1456zm-7.82767 7.5131c-1.06315 0-1.86051-.262-2.392088-.7861-.531575-.5166-.7973631-1.3102-.7973631-2.3809v-11.0844c0-1.06318.2657881-1.85305.7973631-2.36966.531578-.52408 1.328938-.78613 2.392088-.78613h19.06937c1.0706 0 1.8717.26205 2.4033.78613.5316.51661.7974 1.30648.7974 2.36966v11.0844c0 1.0707-.2658 1.8643-.7974 2.3809-.5316.5241-1.3327.7861-2.4033.7861zm.01123-1.3701h19.04684c.614 0 1.0707-.1535 1.3702-.4604.3069-.2995.4604-.7637.4604-1.3926v-10.9609c0-.62895-.1535-1.09314-.4604-1.39262-.2995-.30697-.7562-.46045-1.3702-.46045h-19.04684c-.60644 0-1.06315.15348-1.37011.46045-.29948.29948-.44922.76367-.44922 1.39262v10.9609c0 .6289.14974 1.0931.44922 1.3926.30696.3069.76367.4604 1.37011.4604zm3.99805-15.27342v-2.02148c0-.91341.25456-1.59847.76367-2.05518.50912-.4567 1.19792-.68506 2.06642-.68506h5.3794c.9134 0 1.6134.22836 2.1001.68506.4941.45671.7412 1.14177.7412 2.05518v2.01025h-1.3477v-2.08886c0-.44174-.1272-.78239-.3818-1.02198-.2546-.23958-.6139-.35937-1.0781-.35937h-5.4356c-.46417 0-.82354.11979-1.0781.35937-.25456.23959-.38183.58024-.38183 1.02198v2.10009z" fill="#ebebf5" fill-opacity=".7"/></svg>