<svg fill="none" height="26" viewBox="0 0 26 26" width="26" xmlns="http://www.w3.org/2000/svg"><path d="m6.7373 3.17725c-.19466 0-.36311-.07113-.50537-.21338-.14225-.14226-.21338-.31071-.21338-.50537 0-.20215.07113-.37061.21338-.50538.14226-.14225.31071-.21337.50537-.21337.19467 0 .36312.07112.50538.21337.14225.13477.21337.30323.21337.50538 0 .19466-.07112.36311-.21337.50537-.14226.14225-.31071.21338-.50538.21338zm-1.13427 2.07763c-.20215 0-.37435-.06738-.5166-.20215-.14226-.14225-.21338-.31445-.21338-.5166 0-.19466.07112-.36312.21338-.50537.14225-.14225.31445-.21338.5166-.21338.19466 0 .36312.07113.50537.21338s.21338.31071.21338.50537c0 .20215-.07113.37435-.21338.5166-.14225.13477-.31071.20215-.50537.20215zm-1.15674 2.1001c-.19466 0-.36312-.07113-.50537-.21338s-.21338-.31071-.21338-.50537c0-.20215.07113-.37061.21338-.50537.14225-.14225.31071-.21338.50537-.21338.20215 0 .37435.07113.5166.21338.14225.13476.21338.30322.21338.50537 0 .19466-.07113.36312-.21338.50537s-.31445.21338-.5166.21338zm-1.14551 2.07764c-.20215 0-.37435-.07113-.5166-.21338-.13477-.14225-.20215-.31071-.20215-.50537s.06738-.36312.20215-.50537c.14225-.14226.31445-.21338.5166-.21338.19466 0 .36312.07112.50537.21338.14225.14225.21338.31071.21338.50537s-.07113.36312-.21338.50537-.31071.21338-.50537.21338zm-1.14551 2.10008c-.19466 0-.36312-.0711-.50537-.2134-.14225-.1422-.21338-.3144-.21338-.5166 0-.1946.07113-.3631.21338-.5053.14225-.1423.31071-.2134.50537-.2134.20215 0 .37061.0711.50537.2134.14226.1422.21338.3107.21338.5053 0 .2022-.07112.3744-.21338.5166-.13476.1423-.30322.2134-.50537.2134zm-1.1455 2.0777c-.194666 0-.363123-.0712-.505375-.2134-.142253-.1423-.213379-.3107-.213379-.5054s.071126-.3631.213379-.5054c.142252-.1422.310709-.2133.505375-.2133.19466 0 .36311.0711.50537.2133.14225.1423.21338.3107.21338.5054s-.07113.3631-.21338.5054c-.14226.1422-.31071.2134-.50537.2134zm1.1455 2.0776c-.19466 0-.36312-.0674-.50537-.2022-.14225-.1422-.21338-.3144-.21338-.5166 0-.1946.07113-.3631.21338-.5053.14225-.1423.31071-.2134.50537-.2134.20215 0 .37061.0711.50537.2134.14226.1422.21338.3107.21338.5053 0 .2022-.07112.3744-.21338.5166-.13476.1348-.30322.2022-.50537.2022zm1.14551 2.1001c-.20215 0-.37435-.0711-.5166-.2134-.13477-.1422-.20215-.3107-.20215-.5054 0-.2021.06738-.3706.20215-.5053.14225-.1423.31445-.2134.5166-.2134.19466 0 .36312.0711.50537.2134.14225.1347.21338.3032.21338.5053 0 .1947-.07113.3632-.21338.5054-.14225.1423-.31071.2134-.50537.2134zm1.14551 2.0776c-.19466 0-.36312-.0711-.50537-.2134-.14225-.1422-.21338-.3107-.21338-.5053 0-.1947.07113-.3631.21338-.5054s.31071-.2134.50537-.2134c.20215 0 .37435.0711.5166.2134s.21338.3107.21338.5054c0 .1946-.07113.3631-.21338.5053-.14225.1423-.31445.2134-.5166.2134zm1.15674 2.0889c-.20215 0-.37435-.0711-.5166-.2134-.14226-.1348-.21338-.3032-.21338-.5054 0-.1946.07112-.3631.21338-.5053.14225-.1423.31445-.2134.5166-.2134.19466 0 .36312.0711.50537.2134.14225.1422.21338.3107.21338.5053 0 .2022-.07113.3706-.21338.5054-.14225.1423-.31071.2134-.50537.2134zm1.13427 2.0889c-.19466 0-.36311-.0712-.50537-.2134-.14225-.1423-.21338-.3107-.21338-.5054 0-.2021.07113-.3743.21338-.5166.14226-.1348.31071-.2021.50537-.2021.19467 0 .36312.0673.50538.2021.14225.1423.21337.3145.21337.5166 0 .1947-.07112.3631-.21337.5054-.14226.1422-.31071.2134-.50538.2134zm5.6602.0561c-.1423 0-.2845-.0449-.4268-.1348-.1422-.0823-.2695-.2133-.3818-.393l-5.57035-9.6358c-.11979-.2096-.21712-.393-.29199-.5503-.07487-.1572-.1123-.3219-.1123-.4941s.03743-.3369.1123-.4941c.07487-.1648.1722-.3482.29199-.5503l5.55905-9.63577c.1049-.17969.2284-.31071.3706-.39307.1498-.08984.2958-.13477.438-.13477.1797 0 .3332.04867.4605.146.1347.09733.2358.20215.3032.31445l-5.88476 10.35446c-.05241.0749-.09359.1423-.12354.2022-.02246.0599-.03369.1235-.03369.1909 0 .0599.01123.1235.03369.1909.02995.0599.07113.1273.12354.2022l5.88476 10.3432c-.0599.1198-.1572.2284-.292.3257s-.2882.146-.4604.146zm5.6938-.0225c-.262 0-.4904-.0861-.6851-.2583-.1946-.1647-.3968-.4267-.6064-.7861l-5.1211-8.9731c-.1273-.2246-.2246-.4268-.292-.6065-.0599-.1871-.0898-.3743-.0898-.5615-.0075-.1872.0187-.3743.0786-.5615.0674-.1872.1684-.3893.3032-.6065l5.1211-8.97311c.2096-.35938.4118-.62142.6064-.78613.1947-.17221.4231-.25831.6851-.25831.2621 0 .4904.0861.6851.25831.1946.16471.4005.42675.6176.78613l5.1099 8.97311c.1273.2172.2246.4193.292.6065s.1011.3743.1011.5615-.0337.3744-.1011.5615c-.0674.1797-.1647.3819-.292.6065l-5.1099 8.9731c-.2171.3594-.423.6214-.6176.7861-.1947.1722-.423.2583-.6851.2583zm0-1.7744c.0674 0 .1273-.0449.1797-.1347l4.9863-8.8384c.0974-.1722.146-.3182.146-.438 0-.1273-.0486-.2733-.146-.438l-4.9863-8.83837c-.0524-.08984-.1123-.13476-.1797-.13476s-.1273.04492-.1797.13476l-4.9863 8.83837c-.0899.1572-.1348.3032-.1348.438 0 .1198.0449.2658.1348.438l4.9863 8.8384c.0524.0898.1123.1347.1797.1347z" fill="#ebebf5" fill-opacity=".7"/></svg>
