<svg fill="none" height="26" viewBox="0 0 26 26" width="26" xmlns="http://www.w3.org/2000/svg"><path d="m.599976 11.9385c0-.3893.078613-.7263.235839-1.0108.164715-.2845.393065-.5016.685055-.6513.29948-.1498.65511-.2246 1.0669-.2246h.85351v12.1176c0 .2845-.06364.5241-.19091.7188-.12728.2021-.29948.3556-.51661.4604-.21712.1123-.45296.1685-.70751.1685-.25456.0075-.4904-.0449-.70752-.1572-.21713-.1049-.393071-.2583-.527836-.4605-.127279-.2021-.190918-.4455-.190918-.73zm3.470214 12.9936c.43425-.1946.73747-.4604.90967-.7973.17969-.3369.26953-.7862.26953-1.3477v-18.5078c0-1.08562.27702-1.9017.83105-2.44825.55404-.55403 1.37761-.83105 2.47071-.83105h13.31935c1.0931 0 1.9167.27702 2.4707.83105.554.54655.831 1.36263.831 2.44825v17.3848c0 1.0856-.277 1.9017-.831 2.4482-.554.5466-1.3776.8198-2.4707.8198zm5.51416-17.5195h11.27535c.1573 0 .2883-.05241.3931-.15723.1123-.1123.1685-.24707.1685-.4043 0-.14974-.0562-.27701-.1685-.38183-.1048-.10482-.2358-.15723-.3931-.15723h-11.27535c-.16471 0-.30322.05241-.41553.15723-.10481.10482-.15722.23209-.15722.38183 0 .15723.05241.292.15722.4043.11231.10482.25082.15723.41553.15723zm0 4.0317h11.27535c.1573 0 .2883-.0524.3931-.1572.1123-.1048.1685-.2358.1685-.3931 0-.1572-.0562-.2882-.1685-.393-.1048-.1048-.2358-.1572-.3931-.1572h-11.27535c-.16471 0-.30322.0524-.41553.1572-.10481.1048-.15722.2358-.15722.393 0 .1573.05241.2883.15722.3931.11231.1048.25082.1572.41553.1572zm7.00785 4.0205h4.2563c.1572 0 .2883-.0524.3931-.1572.1123-.1048.1684-.2321.1684-.3818 0-.1572-.0561-.2883-.1684-.3931-.1048-.1123-.2359-.1684-.3931-.1684h-4.2563c-.1648 0-.2995.0561-.4043.1684-.1049.1048-.1573.2359-.1573.3931 0 .1497.0524.277.1573.3818.1048.1048.2395.1572.4043.1572zm0 4.0879h4.2563c.1572 0 .2883-.0524.3931-.1572.1123-.1048.1684-.2321.1684-.3818 0-.1647-.0561-.2995-.1684-.4043-.1048-.1048-.2359-.1573-.3931-.1573h-4.2563c-.1648 0-.2995.0525-.4043.1573-.1049.1048-.1573.2396-.1573.4043 0 .1497.0524.277.1573.3818.1048.1048.2395.1572.4043.1572zm-6.334.1236h2.8637c.3894 0 .6963-.1123.9209-.3369.2321-.2247.3482-.5316.3482-.9209v-2.774c0-.3893-.1161-.7-.3482-.9321-.2246-.2321-.5315-.3481-.9209-.3481h-2.8637c-.39683 0-.71128.116-.94338.3481-.22461.2321-.33691.5428-.33691.9321v2.774c0 .3893.1123.6962.33691.9209.2321.2246.54655.3369.94338.3369z" fill="#fff"/></svg>