<svg fill="none" height="26" viewBox="0 0 32 26" width="32" xmlns="http://www.w3.org/2000/svg" xmlns:xlink="http://www.w3.org/1999/xlink"><linearGradient id="a" gradientUnits="userSpaceOnUse" x1="23.2255" x2="8.41381" y1="23.7933" y2="3.44767"><stop offset="0" stop-color="#aaa"/><stop offset=".45" stop-color="#fff"/><stop offset=".55" stop-color="#fff"/><stop offset=".89302" stop-color="#aaa"/></linearGradient><path d="m30.6955 8.45222c-.3396-1.05568-1.1841-1.92777-2.2949-2.35922-3.3415-1.31271-7.6101-2.093-12.2551-2.093s-9.2349.84454-12.63143 2.24906c-1.0924.44981-1.90941 1.31271-2.23988 2.35921-.70685 2.25823-1.101583 4.72763-1.101583 7.29793 0 2.5704.000001.6151.018361.918.045899 1.3403.862902 2.5704 2.157262 3.1946 1.8635.8996 4.0942 1.6248 6.58194 2.1022 1.22093.2387 2.46023-.2111 3.30473-1.1659 1.0281-1.1474 2.3317-1.8359 3.7637-1.8359 1.4321 0 2.7632.6976 3.7913 1.8727.8354.9455 2.0655 1.4045 3.2864 1.175 2.4235-.4498 4.6083-1.12 6.4534-1.9645 1.3403-.615 2.2123-1.836 2.2674-3.1946.0184-.3672.0276-.7344.0276-1.1107 0-2.6346-.4039-5.1499-1.1475-7.45406z" fill="url(#a)"/><g fill="#000"><path d="m28.3088 7.22221c-8.0415-2.4143-16.6155-2.4143-24.65702 0-.14688.04589-.30293-.03672-.33965-.17442-.0459-.1377.03672-.29376.18359-.33966 8.14248-2.45101 16.82668-2.45101 24.96918 0 .1468.0459.2295.20196.1836.33966s-.202.22031-.3397.17442z"/><path d="m31.3579 11.373-.2288.0177c-.2022.0155-.3535.192-.338.3942l.2197 2.8557c.0156.2022.1921.3535.3943.3379l.2288-.0176c.2022-.0155.3535-.192.338-.3942l-.2197-2.8557c-.0156-.2022-.1921-.3535-.3943-.338z"/><path d="m.715746 11.6525-.22937-.0076c-.202684-.0068-.372442.1521-.379166.3548l-.0949596 2.8625c-.0067237.2027.1521336.3725.3548166.3792l.22937.0076c.202684.0067.372442-.1521.379166-.3548l.094957-2.8626c.00673-.2026-.15213-.3724-.354814-.3791z"/></g></svg>