<svg fill="none" height="26" viewBox="0 0 26 26" width="26" xmlns="http://www.w3.org/2000/svg"><path d="m.599976 21.9111v-9.9614c0-.599.179687-1.0631.539064-1.3926.35937-.3369.85726-.5053 1.49365-.5053h2.6167v-5.7725c0-1.08562.27702-1.9017.83105-2.44825.55404-.55403 1.37761-.83105 2.47071-.83105h13.61135c1.0931 0 1.9166.27702 2.4707.83105.554.54655.831 1.36263.831 2.44825v17.3848c0 1.0856-.277 1.9017-.831 2.4482-.5541.5466-1.3776.8198-2.4707.8198h-18.54153c-1.01074 0-1.76693-.2583-2.26855-.7749-.501631-.5166-.752444-1.2653-.752444-2.2461zm1.381344-.0112c0 .4792.15349.8722.46045 1.1792.31446.3145.70752.4717 1.1792.4717.46419 0 .84977-.1535 1.15674-.4605.31445-.3069.47168-.7037.47168-1.1904v-10.4556h-2.49316c-.23959 0-.43051.0674-.57276.2022-.13476.1273-.20215.307-.20215.539zm4.17774 1.6509h15.96974c.6364 0 1.1193-.1647 1.4487-.4942.3369-.3294.5054-.8198.5054-1.4712v-17.22749c0-.65137-.1685-1.14176-.5054-1.47119-.3294-.33692-.8123-.50537-1.4487-.50537h-13.54396c-.62891 0-1.11182.16845-1.44873.50537-.33692.32943-.50537.81982-.50537 1.47119v17.48589c0 .6738-.15723 1.2428-.47168 1.707zm3.57129-16.1382c-.16472 0-.30323-.05241-.41553-.15723-.10482-.1123-.15723-.24707-.15723-.4043 0-.14974.05241-.27701.15723-.38183.1123-.10482.25081-.15723.41553-.15723h11.27535c.1573 0 .2883.05241.3931.15723.1123.10482.1685.23209.1685.38183 0 .15723-.0562.292-.1685.4043-.1048.10482-.2358.15723-.3931.15723zm0 4.0317c-.16472 0-.30323-.0524-.41553-.1572-.10482-.1048-.15723-.2358-.15723-.3931 0-.1572.05241-.2882.15723-.393.1123-.1048.25081-.1572.41553-.1572h11.27535c.1573 0 .2883.0524.3931.1572.1123.1048.1685.2358.1685.393 0 .1573-.0562.2883-.1685.3931-.1048.1048-.2358.1572-.3931.1572zm.71875 8.1084c-.4118 0-.73373-.116-.96582-.3481-.2321-.2321-.34815-.5503-.34815-.9546v-2.5718c0-.4043.11605-.7225.34815-.9546.23209-.2396.55402-.3593.96582-.3593h2.9199c.4043 0 .7225.1197.9546.3593.2321.2321.3482.5503.3482.9546v2.5718c0 .4043-.1161.7225-.3482.9546s-.5503.3481-.9546.3481zm6.2891-4.0879c-.1648 0-.2995-.0524-.4043-.1572-.1049-.1048-.1573-.2321-.1573-.3818 0-.1572.0524-.2883.1573-.3931.1048-.1123.2395-.1684.4043-.1684h4.2563c.1647 0 .2995.0561.4043.1684.1048.1048.1572.2359.1572.3931 0 .1497-.0524.277-.1572.3818s-.2396.1572-.4043.1572zm0 4.0879c-.1648 0-.2995-.0524-.4043-.1572-.1049-.1048-.1573-.2321-.1573-.3818 0-.1647.0524-.2995.1573-.4043.1048-.1048.2395-.1573.4043-.1573h4.2563c.1647 0 .2995.0525.4043.1573s.1572.2396.1572.4043c0 .1497-.0524.277-.1572.3818s-.2396.1572-.4043.1572z" fill="#ebebf5" fill-opacity=".7"/></svg>