<svg fill="none" height="26" viewBox="0 0 26 26" width="26" xmlns="http://www.w3.org/2000/svg"><path d="m20.8634 14.3068c.2096 0 .3856.0711.5278.2133.1348.1423.2022.3182.2022.5279 0 .2021-.0786.3856-.2359.5503l-7.5693 7.5693c-.0823.0824-.1684.1423-.2583.1797-.0973.0449-.1984.0674-.3032.0674-.1123 0-.2134-.0225-.3032-.0674-.0974-.0374-.1835-.0973-.2583-.1797l-7.58061-7.5693c-.14973-.1647-.2246-.3482-.2246-.5503 0-.2097.07112-.3856.21337-.5279.13477-.1422.30323-.2133.50538-.2133.10481 0 .20589.0149.30322.0449.08984.0374.16846.0898.23584.1572l3.41406 3.3804 3.69484 3.9756 3.6948-3.9756 3.4141-3.3804c.0599-.0674.1385-.1198.2358-.1572.0973-.03.1947-.0449.292-.0449zm-7.6367-11.9268c.2171 0 .3968.07113.539.21338.1348.13477.2022.31071.2022.52784v15.61038l-.0786 3.0547c0 .1946-.0599.3518-.1797.4716-.1273.1273-.2883.191-.4829.191-.2022 0-.3631-.0637-.4829-.191-.1273-.1198-.1909-.2807-.1909-.4829l-.0787-3.0434v-15.61038c0-.21713.0712-.39307.2134-.52784.1423-.14225.322-.21338.5391-.21338z" fill="#fff"/></svg>