<svg fill="none" height="26" viewBox="0 0 26 26" width="26" xmlns="http://www.w3.org/2000/svg"><path clip-rule="evenodd" d="m16.7724 15.8925c.6849-.1245 1.3188-.3034 1.7528-.5609 1.3509-.7417 2.3956-1.7306 3.1351-2.9707.7406-1.2392 1.1101-2.68933 1.1101-4.3505 0-1.09764-.1886-2.1332-.5651-3.10414-.3756-.96987-.9472-1.82062-1.7132-2.54813-.7657-.72913-1.7205-1.30421-2.8621-1.725226-1.1431-.422149-2.4665-.632904-3.9725-.632904h-9.6575v25.5645h5.72474v-9.3907h1.37676c1.6765 5.7439 6.8806 9.8262 13.211 9.8262v-5.4519c-3.4096 0-6.2183-1.8494-7.5401-4.6556zm-6.90844-10.95066h3.62174c1.0908 0 1.9475.30656 2.5708.91969.6227.61342.9343 1.44432.9343 2.49215 0 .97072-.3116 1.77612-.9343 2.41472-.6233.6386-1.48.9581-2.5708.9581h-3.62174z" fill="#fff" fill-rule="evenodd"/></svg>