<svg fill="none" height="26" viewBox="0 0 26 26" width="26" xmlns="http://www.w3.org/2000/svg" xmlns:xlink="http://www.w3.org/1999/xlink"><clipPath id="a"><path d="m0 0h26v26h-26z"/></clipPath><g clip-path="url(#a)"><path d="m9.75781 24.1001h6.12059v-6.7944c0-.2321-.0711-.4193-.2134-.5616-.1347-.1422-.3219-.2133-.5615-.2133h-4.5596c-.2395 0-.4305.0711-.57271.2133-.14225.1423-.21338.3295-.21338.5616zm-6.68213-.8872v-9.6582l9.04052-7.59181c.4642-.38184.9284-.38184 1.3926 0l9.0517 7.60301v9.647c0 .7113-.2021 1.2653-.6064 1.6621-.4043.4043-.9696.6064-1.6958.6064h-14.86914c-.72624 0-1.29525-.2021-1.70703-.6064-.4043-.3968-.60645-.9508-.60645-1.6621zm-2.48193-9.5571c-.224609 0-.404297-.0674-.5390625-.2022-.1272786-.1422-.1909175-.2995-.1909175-.4717 0-.2246.0973303-.4155.291992-.5727l11.466338-9.62453c.3743-.32194.7749-.48291 1.2016-.48291.4193 0 .8199.16097 1.2017.48291l11.4663 9.62453c.1872.1572.2808.3481.2808.5727 0 .1722-.0637.3295-.191.4717-.1272.1348-.3069.2022-.539.2022-.1198 0-.2284-.0262-.3257-.0787-.0898-.0524-.1797-.1123-.2695-.1796l-11.1856-9.39994c-.1347-.11979-.2807-.17969-.438-.17969-.1572 0-.3032.0599-.438.17969l-11.1855 9.39994c-.08985.0673-.18344.1272-.280766.1796-.097331.0525-.205892.0787-.325684.0787zm19.72075-5.13236v-2.86377c0-.20215.0636-.36312.1909-.48291.1272-.11979.2882-.17969.4829-.17969h1.0556c.2022 0 .3632.0599.483.17969.1197.11979.1796.28076.1796.48291v4.88523z" fill="#fff"/></g></svg>