<svg fill="none" height="26" viewBox="0 0 26 26" width="26" xmlns="http://www.w3.org/2000/svg"><path d="m23.0587 16.0388h-.0954c-.804 2.1394-2.3711 3.9245-4.6876 4.8511v-4.8511l2.6436-2.3847-2.6436-2.3438v-3.31135c2.4801-.09539 4.2516-1.94864 4.2516-4.15618 0-2.848011-2.7118-3.84277-4.2516-3.84277-.3407 0-.7086 0-1.2401.136268v.136269c.2044 0 .5042-.027254.5996-.027254 1.0765 0 1.8805.504193 1.8805 1.471697 0 .73585-.5996 1.4717-1.6761 1.4717-2.6436 0-5.7641-2.13941-9.14358-2.13941-3.01153-.01363-5.09644 2.2348-5.09644 4.51048s1.30818 2.98427 2.68449 3.48847l.02725-.13627c-.43606-.27254-.73585-.73585-.73585-1.4717 0-1.00838.94025-1.83962 2.11216-1.83962 2.84797 0 7.44027 2.34381 10.27467 2.41195h.0954v3.35222l-2.6437 2.3029 2.6437 2.3847v4.9193c-.9676.327-2.0713.5042-3.2841.5042-1.9759 0-3.7201-.5042-4.98744-1.6489l4.82394-2.1394v-9.60689l-6.69081 2.94339c.83123-2.37106 2.50731-3.6111 3.88361-4.22431l-.0272-.09539c-4.85117 1.07652-8.7757 4.5922-8.7757 9.4161 0 5.6279 4.34696 9.8795 10.5881 9.8795 6.241 0 9.4706-4.7558 9.4706-9.5388v-.3952zm-13.43606 3.652c-1.33543-1.2673-2.18029-3.1478-2.18029-5.587 0-1.0765.13627-2.0032.4088-2.8072l2.27565-1.0083v9.1708z" fill="#fff"/></svg>