<svg fill="none" height="26" viewBox="0 0 26 26" width="26" xmlns="http://www.w3.org/2000/svg"><path clip-rule="evenodd" d="m4.04879 2.5h17.89771c.8564 0 1.5535.67783 1.5535 1.51433v17.97017c0 .8365-.6971 1.5155-1.5535 1.5155h-17.89771c-.8546 0-1.54879-.679-1.54879-1.5155v-17.97017c0-.8365.69419-1.51433 1.54879-1.51433zm13.23211 17.8943h3.1145v-5.4961c0-2.6991-.5828-4.774-3.7369-4.774-1.515 0-2.5312.8306-2.9465 1.6187h-.0432v-1.3702h-2.9856v10.0216h3.111v-4.9566c0-1.3078.2474-2.5742 1.8685-2.5742 1.5984 0 1.6182 1.4951 1.6182 2.6571zm-10.10944-11.39072c-1.00044 0-1.80721-.80908-1.80721-1.80658 0-.99692.80677-1.806 1.80721-1.806.99636 0 1.80489.80908 1.80489 1.806 0 .9975-.80853 1.80658-1.80489 1.80658zm1.55813 11.39072h-3.118v-10.0216h3.118z" fill="#fff" fill-rule="evenodd"/></svg>