<svg fill="none" height="26" viewBox="0 0 31 26" width="31" xmlns="http://www.w3.org/2000/svg"><path d="m2.20117 12.3975c-.73372 0-1.284015-.1797-1.650877-.5391s-.550293-.9097-.550293-1.6509v-5.07615c0-.73373.183431-1.28028.550293-1.63965.366862-.35938.917157-.53906 1.650877-.53906h10.70263c.7262 0 1.2728.17968 1.6397.53906.3668.35937.5503.90592.5503 1.63965v5.07615c0 .7412-.1835 1.2915-.5503 1.6509-.3669.3594-.9135.5391-1.6397.5391zm.08985-1.314h10.51168c.3295 0 .5765-.0824.7412-.2471.1648-.1647.2471-.4155.2471-.7524v-4.81789c0-.3444-.0823-.59521-.2471-.75244-.1647-.16471-.4117-.24707-.7412-.24707h-10.51168c-.32943 0-.5765.08236-.74122.24707-.15722.15723-.23584.40804-.23584.75244v4.81789c0 .3369.07862.5877.23584.7524.16472.1647.41179.2471.74122.2471zm2.77392 11.7358c-.72624 0-1.27653-.1797-1.65088-.539-.36686-.3519-.55029-.9022-.55029-1.6509v-3.605c0-.7412.18343-1.2877.55029-1.6396.37435-.3519.92464-.5279 1.65088-.5279h9.24266c.7263 0 1.2728.176 1.6397.5279.3743.3519.5615.8984.5615 1.6396v3.605c0 .7487-.1872 1.299-.5615 1.6509-.3669.3593-.9134.539-1.6397.539zm.10108-1.3139h9.02928c.3369 0 .5877-.0824.7525-.2471.1647-.1647.247-.4155.247-.7524v-3.3467c0-.3444-.0823-.5952-.247-.7525-.1648-.1647-.4156-.247-.7525-.247h-9.02928c-.32943 0-.5765.0823-.74122.247-.16471.1573-.24707.4081-.24707.7525v3.3467c0 .3369.08236.5877.24707.7524.16472.1647.41179.2471.74122.2471zm15.68898.0674c-.7263 0-1.2765-.1797-1.6509-.5391-.3669-.3519-.5503-.8984-.5503-1.6397v-12.82515c0-.74121.1834-1.28776.5503-1.63965.3744-.35938.9246-.53906 1.6509-.53906h7.7041c.7262 0 1.2728.17968 1.6396.53906.3744.35189.5616.89844.5616 1.63965v12.82515c0 .7413-.1872 1.2878-.5616 1.6397-.3668.3594-.9134.5391-1.6396.5391zm.0898-1.314h7.502c.3369 0 .5877-.0786.7524-.2359.1647-.1647.2471-.4192.2471-.7636v-12.55569c0-.3444-.0824-.59521-.2471-.75244-.1647-.16471-.4155-.24707-.7524-.24707h-7.502c-.3294 0-.5765.08236-.7412.24707-.1572.15723-.2358.40804-.2358.75244v12.55569c0 .3444.0786.5989.2358.7636.1647.1573.4118.2359.7412.2359z" fill="#fff"/></svg>