<svg fill="none" height="26" viewBox="0 0 27 26" width="27" xmlns="http://www.w3.org/2000/svg"><path d="m26.9419 9.98291v5.82859c0 .9359-.2471 1.6509-.7412 2.145-.4942.4942-1.2092.7413-2.145.7413h-21.15824c-.93587 0-1.65462-.2471-2.156249-.7413-.494141-.4941-.741211-1.2091-.741211-2.145v-5.82859c0-.94336.24707-1.65837.741211-2.14502.494139-.48665 1.212889-.72998 2.156249-.72998h21.15824c.9358 0 1.6508.24707 2.145.74121.4941.48665.7412 1.19792.7412 2.13379zm-23.64014-1.37012h-.79737v5.13231c0 .1123.03744.2059.11231.2808.07487.0748.1722.1123.29199.1123.11231 0 .20589-.0375.28076-.1123.07487-.0824.11231-.1797.11231-.292zm2.11133 0h-.78614v3.16701c0 .1198.03744.2171.11231.292.07487.0674.16845.1011.28076.1011.11979 0 .21338-.0375.28076-.1124.07487-.0748.11231-.1722.11231-.2919zm2.12255 0h-.78613v3.16701c0 .1198.03369.2171.10108.292.07487.0674.16845.1011.28076.1011.11979 0 .21712-.0375.29199-.1124.07487-.0748.1123-.1722.1123-.2919zm2.1001 0h-.78613v3.16701c0 .1198.03743.2171.1123.292.07487.0674.16846.1011.28077.1011.11979 0 .21337-.0375.28076-.1124.07487-.0748.1123-.1722.1123-.2919zm2.12256 0h-.7974v3.16701c0 .1198.0375.2171.1123.292.0824.0674.176.1011.2808.1011.1273 0 .2246-.0375.292-.1124.0749-.0748.1123-.1722.1123-.2919zm2.1226 0h-.7974v5.13231c0 .1123.0374.2059.1123.2808.0824.0748.1759.1123.2808.1123.1198 0 .2171-.0375.292-.1123.0748-.0824.1123-.1797.1123-.292zm2.1113 0h-.7861v3.16701c0 .1198.0374.2171.1123.292.0748.0674.1684.1011.2807.1011s.2059-.0375.2808-.1124c.0749-.0748.1123-.1722.1123-.2919zm2.1225 0h-.7973v3.16701c0 .1198.0374.2171.1123.292.0749.0674.1722.1011.292.1011.1123 0 .2059-.0375.2807-.1124.0749-.0748.1123-.1722.1123-.2919zm2.1114 0h-.7974v3.16701c0 .1198.0374.2171.1123.292.0749.0674.1685.1011.2808.1011.1198 0 .2171-.0375.292-.1124.0748-.0748.1123-.1722.1123-.2919zm2.1113 0h-.7861v3.16701c0 .1198.0337.2171.101.292.0749.0674.1722.1011.292.1011.1123 0 .2059-.0375.2808-.1124.0749-.0748.1123-.1722.1123-.2919zm2.1001 0h-.7861v5.13231c0 .1123.0374.2059.1123.2808.0748.0748.1684.1123.2807.1123.1198 0 .2134-.0375.2808-.1123.0749-.0824.1123-.1797.1123-.292z" fill="#fff"/></svg>