<svg fill="none" height="26" viewBox="0 0 26 26" width="26" xmlns="http://www.w3.org/2000/svg"><path d="m7.16602 24.6611c-.31446 0-.56153-.1048-.74122-.3144-.17968-.2022-.26953-.4829-.26953-.8423v-19.39502c0-.99577.25082-1.74447.75244-2.2461.50163-.50911 1.24284-.76367 2.22364-.76367h8.69235c.9808 0 1.722.25456 2.2237.76367.5016.50163.7524 1.25033.7524 2.2461v19.39502c0 .3594-.0898.6401-.2695.8423-.1797.2096-.4268.3144-.7412.3144-.2246 0-.4343-.0711-.6289-.2133-.1872-.1423-.468-.3931-.8423-.7525l-4.7505-4.7842c-.0599-.0599-.1198-.0599-.1797 0l-4.75049 4.7842c-.37435.3669-.65886.6177-.85352.7525-.19466.1422-.40055.2133-.61767.2133z" fill="#fff"/></svg>