<svg fill="none" height="25" viewBox="0 0 27 25" width="27" xmlns="http://www.w3.org/2000/svg"><path d="m26.9419 9.98291v5.82859c0 .9359-.2471 1.6509-.7412 2.145-.4942.4942-1.2092.7413-2.145.7413h-21.15824c-.94336 0-1.66211-.2471-2.156249-.7413-.494141-.4941-.741211-1.2091-.741211-2.145v-5.82859c0-.93587.24707-1.64714.741211-2.13379.494139-.49414 1.209149-.74121 2.145019-.74121h21.15817c.9434 0 1.6621.24707 2.1563.74121.4941.48665.7412 1.19792.7412 2.13379zm-1.3926.22459c0-.5615-.1497-.98826-.4492-1.28025-.292-.29948-.7075-.44922-1.2466-.44922h-20.76512c-.54655 0-.96956.14974-1.26904.44922-.292.29199-.43799.71875-.43799 1.28025v5.3906c0 .5541.14599.9808.43799 1.2803.29948.292.71875.438 1.25781.438h20.76515c.5465 0 .9658-.146 1.2578-.438.2995-.2995.4492-.7262.4492-1.2803zm-21.62987-2.23484v5.76124c0 .1123-.03743.2096-.1123.292-.06738.0748-.16097.1123-.28076.1123-.11231 0-.20589-.0375-.28076-.1123-.07487-.0749-.11231-.1685-.11231-.2808v-5.77244zm1.99903 0v3.79594c0 .1197-.03744.2171-.11231.2919-.06738.0749-.16471.1124-.29199.1124-.10482 0-.1984-.0337-.28076-.1011-.07487-.0749-.11231-.1722-.11231-.292v-3.80714zm1.98779 0v3.79594c0 .1197-.03743.2171-.1123.2919-.07487.0749-.17221.1124-.292.1124-.1123 0-.20589-.0337-.28076-.1011-.07487-.0749-.1123-.1722-.1123-.292v-3.80714zm1.97656 0v3.79594c0 .1197-.03743.2171-.1123.2919-.06739.0749-.16097.1124-.28076.1124-.11231 0-.20964-.0337-.292-.1011-.07487-.0749-.1123-.1722-.1123-.292v-3.80714zm1.99899 0v3.79594c0 .1197-.0374.2171-.1123.2919-.0674.0749-.1647.1124-.292.1124-.1048 0-.1984-.0337-.2807-.1011-.0749-.0749-.1123-.1722-.1123-.292v-3.80714zm1.9991 0v5.76124c0 .1123-.0375.2096-.1123.292-.0749.0748-.1722.1123-.292.1123-.1049 0-.1984-.0375-.2808-.1123-.0749-.0749-.1123-.1685-.1123-.2808v-5.77244zm1.9878 0v3.79594c0 .1197-.0375.2171-.1124.2919-.0748.0749-.1722.1124-.2919.1124-.1123 0-.2059-.0337-.2808-.1011-.0749-.0749-.1123-.1722-.1123-.292v-3.80714zm1.9877 0v3.79594c0 .1197-.0374.2171-.1123.2919-.0748.0749-.1684.1124-.2807.1124-.1198 0-.2171-.0337-.292-.1011-.0749-.0749-.1123-.1722-.1123-.292v-3.80714zm1.9766 0v3.79594c0 .1197-.0374.2171-.1123.2919-.0674.0749-.161.1124-.2808.1124-.1123 0-.2059-.0337-.2807-.1011-.0749-.0749-.1123-.1722-.1123-.292v-3.80714zm1.999 0v3.79594c0 .1197-.0374.2171-.1123.2919-.0748.0749-.1722.1124-.292.1124-.1123 0-.2059-.0337-.2807-.1011-.0674-.0749-.1011-.1722-.1011-.292v-3.80714zm1.9766 0v5.76124c0 .1123-.0374.2096-.1123.292-.0674.0748-.161.1123-.2808.1123-.1123 0-.2059-.0375-.2807-.1123-.0749-.0749-.1123-.1685-.1123-.2808v-5.77244z" fill="#ebebf5" fill-opacity=".7"/></svg>