<svg fill="none" height="26" viewBox="0 0 27 26" width="27" xmlns="http://www.w3.org/2000/svg"><path d="m19.6421 21.1685c-.7861 0-1.4824-.146-2.0889-.438-.6064-.2995-1.0818-.7113-1.4262-1.2354-.337-.5316-.5054-1.1455-.5054-1.8418 0-1.0407.3706-1.868 1.1118-2.4819.7487-.6139 1.8343-.9621 3.2568-1.0444l3.9082-.2471v-1.022c0-.8909-.277-1.6022-.831-2.1338-.5466-.5316-1.3065-.79734-2.2798-.79734-.861 0-1.5723.19464-2.1338.58394-.554.3894-.9658.9584-1.2353 1.7071-.0599.1347-.1423.2321-.2471.292s-.2284.0898-.3706.0898c-.1872 0-.3444-.0561-.4717-.1684-.1273-.1124-.1909-.2621-.1909-.4493 0-.1123.0187-.2321.0561-.3593.0375-.1273.0824-.2583.1348-.3931.307-.7861.8573-1.40756 1.6509-1.86427.8011-.4567 1.7482-.68505 2.8413-.68505.9284 0 1.7295.16845 2.4033.50537.6813.32942 1.2017.8011 1.561 1.41505.3669.6064.5503 1.3214.5503 2.145v7.6816c0 .2321-.0673.4156-.2021.5503-.1273.1348-.292.2022-.4942.2022-.2096 0-.378-.0674-.5053-.2022-.1273-.1347-.1909-.3069-.1909-.5166v-1.8867h-.045c-.2171.5166-.539.9696-.9658 1.3589-.4267.3893-.9246.6926-1.4936.9097s-1.168.3257-1.7969.3257zm.3144-1.2129c.7263 0 1.3851-.1573 1.9766-.4717.599-.3145 1.0744-.7375 1.4263-1.2691.3594-.5315.539-1.1193.539-1.7631v-1.4712l-3.7172.2583c-1.0183.0748-1.7894.3219-2.3135.7412-.5166.4118-.7749.9546-.7749 1.6284 0 .6963.2658 1.2616.7973 1.6958.5391.4342 1.2279.6514 2.0664.6514zm-19.23775 1.2129c-.224609 0-.400553-.0599-.527832-.1797-.1272787-.1273-.190918-.2958-.190918-.5054 0-.1348.0299479-.292.0898438-.4717l5.5927762-14.65574c.17968-.50163.52783-.75244 1.04443-.75244.26953 0 .4904.06738.6626.20214.1722.12728.30696.31446.4043.56153l5.58155 14.64451c.0674.1722.1011.3257.1011.4605 0 .2171-.0674.3893-.2022.5166-.1348.1198-.3144.1797-.539.1797-.2172 0-.3894-.0487-.5166-.146-.1198-.0974-.2209-.2621-.3033-.4942l-5.16599-13.98191h-.04492l-5.16602 13.98191c-.08235.2321-.18343.3968-.30322.4942-.11979.0973-.291991.146-.5166.146zm2.33594-5.1661c-.17969 0-.33317-.0636-.46045-.1909-.11979-.1273-.17969-.277-.17969-.4492 0-.1872.0599-.3407.17969-.4604.12728-.1198.28076-.1797.46045-.1797h7.36721c.1722 0 .3219.0599.4492.1797.1273.1197.1909.2732.1909.4604 0 .1722-.0636.3219-.1909.4492s-.277.1909-.4492.1909z" fill="#fff"/></svg>