<svg fill="none" height="26" viewBox="0 0 26 26" width="26" xmlns="http://www.w3.org/2000/svg"><path d="m.86377 7.88281v-5.09863c0-.80859.24707-1.44873.74121-1.92041.50163-.479167 1.17546-.71875 2.02148-.71875h3.97559c.82357 0 1.47868.239583 1.96533.71875.48662.47168.73002 1.11182.73002 1.92041v5.09863zm0 8.70359v-7.41208h9.43363v7.41208zm2.76269 9.0406c-.84602 0-1.51985-.2396-2.02148-.7188-.49414-.4717-.74121-1.1118-.74121-1.9204v-5.0874h9.43363v5.0874c0 .8086-.2434 1.4487-.73002 1.9204-.48665.4792-1.14176.7188-1.96533.7188zm7.96244-16.68852v-5.60401c.0449-.14225.0898-.2845.1347-.42676.045-.14973.0861-.29199.1236-.42675.4118-.49414.9059-.77865 1.4824-.85352.584-.08236 1.1942.0599 1.8306.42676l3.414 1.98779c.7263.41179 1.1792.94711 1.3589 1.60596.1797.65137.0674 1.32894-.3369 2.03271l-2.5381 4.41354zm0 12.60062v-11.0957l4.8178 2.7739zm7.5918-2.4034-2.336-4.0542 3.7398-6.47994c.0374-.07487.0748-.14599.1123-.21338.0374-.06738.0748-.13476.1123-.20214.3444.04492.6626.17968.9546.40429.2995.21712.5578.52035.7749.90967l1.9765 3.4253c.4193.7187.5428 1.4113.3706 2.0776-.1647.6589-.5989 1.1867-1.3027 1.5835zm-7.0303 4.0542 3.9307-6.8169 1.9653 3.4141z" fill="#fff"/></svg>