<svg fill="none" height="26" viewBox="0 0 26 26" width="26" xmlns="http://www.w3.org/2000/svg"><path d="m3.77246 25.627c-.93587 0-1.65462-.2396-2.15625-.7188-.50163-.4717-.75244-1.1605-.75244-2.0664v-19.91162c0-.89844.25081-1.58724.75244-2.06641.50163-.479167 1.22038-.71875 2.15625-.71875h4.25635c.9209 0 1.62467.239583 2.11129.71875.4942.47917.7412 1.16797.7412 2.06641v19.91162c0 .9059-.247 1.5947-.7412 2.0664-.48662.4792-1.19039.7188-2.11129.7188zm.02246-1.3702h4.22266c.44173 0 .79736-.1385 1.06689-.4155.27702-.2695.41553-.6252.41553-1.0669v-19.77684c0-.43425-.13851-.78613-.41553-1.05567-.26953-.27701-.62516-.41552-1.06689-.41552h-4.22266c-.4567 0-.83105.13851-1.12304.41552-.28451.26954-.42676.62142-.42676 1.05567v19.77684c0 .4417.14225.7974.42676 1.0669.29199.277.66634.4155 1.12304.4155zm-2.20117-14.70065v-1.37011h8.56885v1.37011zm0 8.04105v-1.3814h8.56885v1.3814zm8.50145-12.46585 1.3589-2.33594c.4492-.78613 1.007-1.25781 1.6733-1.41504.6739-.16471 1.4188-.01123 2.2349.46045l3.6836 2.13379c.7936.45671 1.284 1.01449 1.4712 1.67334s.0524 1.3776-.4043 2.15625l-9.6133 16.6548-1.19042-.6963 9.57962-16.59864c.2171-.38183.2732-.75618.1684-1.12304-.0973-.37435-.3331-.67009-.7075-.88721l-3.6611-2.12256c-.3968-.22461-.7899-.28825-1.1792-.19092-.3819.08985-.6813.32194-.8985.69629l-2.1787 3.76221zm.4717 4.80664v-1.59473l6.3115 3.63864-.6963 1.1905zm-.2134 9.15281v-1.5947l2.5044 1.4487-.6963 1.2017zm8.7935-11.08445.4492-.24707c.6514-.27702 1.2615-.29574 1.8306-.05616.5765.2321 1.0706.70752 1.4824 1.42627l2.1338 3.67241c.4567.7936.5989 1.5236.4267 2.1899s-.6476 1.2279-1.4262 1.6846l-13.8472 7.9848 1.1455-2.2573 11.9604-6.9067c.3744-.2097.6102-.5017.7076-.876.1048-.3744.0486-.7562-.1685-1.1455l-2.1113-3.64992c-.2321-.39681-.5391-.65136-.9209-.76367-.3819-.1123-.7599-.05989-1.1343.15723l-1.2353.70752zm-3.6612 7.07515.7974-1.3701 2.8638 4.9527-1.1905.685z" fill="#ebebf5" fill-opacity=".7"/></svg>