<svg fill="none" height="25" viewBox="0 0 26 25" width="26" xmlns="http://www.w3.org/2000/svg"><path d="m6.16553 23.0552c-1.0931 0-1.91667-.277-2.47071-.8311-.55403-.5465-.83105-1.3589-.83105-2.437v-13.77978c0-1.08561.27702-1.90169.83105-2.44824.55404-.55403 1.37761-.83105 2.47071-.83105h13.71237c1.1006 0 1.9279.28076 2.482.84228.554.55404.831 1.36638.831 2.43701v13.77978c0 1.0781-.277 1.8905-.831 2.437-.5541.5541-1.3814.8311-2.482.8311zm.03369-1.3814h13.65628c.6214 0 1.1006-.1647 1.4375-.4941.3444-.3294.5166-.8198.5166-1.4712v-13.62256c0-.65137-.1722-1.14177-.5166-1.47119-.3369-.33692-.8161-.50537-1.4375-.50537h-13.65628c-.63639 0-1.12305.16845-1.45996.50537-.32943.32942-.49414.81982-.49414 1.47119v13.62256c0 .6514.16471 1.1418.49414 1.4712.33691.3294.82357.4941 1.45996.4941zm1.06689-6.334c-.15722 0-.29199-.0524-.40429-.1572-.10482-.1123-.15723-.2471-.15723-.4043 0-.1497.05241-.277.15723-.3818.1123-.1048.24707-.1572.40429-.1572h11.25289c.1573 0 .2883.0524.3931.1572s.1572.2321.1572.3818c0 .1572-.0524.292-.1572.4043-.1048.1048-.2358.1572-.3931.1572zm0 3.751c-.15722 0-.29199-.0524-.40429-.1572-.10482-.1048-.15723-.2358-.15723-.3931 0-.1497.05241-.277.15723-.3818.1123-.1123.24707-.1685.40429-.1685h8.14209c.1647 0 .2995.0562.4043.1685.1123.1048.1685.2321.1685.3818 0 .1573-.0562.2883-.1685.3931-.1048.1048-.2396.1572-.4043.1572zm-.49414-11.82566c0-.32194.09359-.57276.28076-.75244.18718-.18718.44174-.28077.76368-.28077h3.00979c.3219 0 .5727.09359.7524.28077.1872.17968.2808.4305.2808.75244v3.00976c0 .3219-.0936.5765-.2808.7637-.1797.1797-.4305.2695-.7524.2695h-3.00979c-.32194 0-.5765-.0898-.76368-.2695-.18717-.1872-.28076-.4418-.28076-.7637z" fill="#ebebf5" fill-opacity=".7"/></svg>