<svg fill="none" height="25" viewBox="0 0 26 25" width="26" xmlns="http://www.w3.org/2000/svg"><path d="m7.16602 24.6611c-.31446 0-.56153-.1048-.74122-.3144-.17968-.2022-.26953-.4829-.26953-.8423v-19.39502c0-.99577.25082-1.74447.75244-2.2461.50163-.50911 1.24284-.76367 2.22364-.76367h8.69235c.9808 0 1.722.25456 2.2237.76367.5016.50163.7524 1.25033.7524 2.2461v19.39502c0 .3594-.0898.6401-.2695.8423-.1797.2096-.4268.3144-.7412.3144-.2246 0-.4343-.0711-.6289-.2133-.1872-.1423-.468-.3931-.8423-.7525l-4.7505-4.7842c-.0599-.0599-.1198-.0599-.1797 0l-4.75049 4.7842c-.37435.3669-.65886.6177-.85352.7525-.19466.1422-.40055.2133-.61767.2133zm.70752-2.2348 5.09866-5.0987c.1497-.1422.3182-.2133.5053-.2133.1872 0 .3557.0711.5054.2133l5.0986 5.0987c.0899.0823.1722.1123.2471.0898.0749-.015.1123-.0823.1123-.2021v-18.18216c0-.55404-.1422-.96957-.4267-1.24659-.2845-.2845-.7038-.42675-1.2579-.42675h-8.55757c-.55404 0-.97331.14225-1.25781.42675-.28451.27702-.42676.69255-.42676 1.24659v18.18216c0 .1198.03744.1871.1123.2021.07487.0225.15723-.0075.24708-.0898z" fill="#ebebf5" fill-opacity=".7"/></svg>