<svg fill="none" height="26" viewBox="0 0 26 26" width="26" xmlns="http://www.w3.org/2000/svg"><path d="m6.16553 23.0552c-1.0931 0-1.91667-.277-2.47071-.8311-.55403-.5465-.83105-1.3589-.83105-2.437v-13.77978c0-1.08561.27702-1.90169.83105-2.44824.55404-.55403 1.37761-.83105 2.47071-.83105h13.71237c1.1006 0 1.9279.28076 2.482.84228.554.55404.831 1.36638.831 2.43701v13.77978c0 1.0781-.277 1.8905-.831 2.437-.5541.5541-1.3814.8311-2.482.8311zm.70752-7.1763h11.39895c.1572 0 .2882-.0524.393-.1572.1123-.1123.1685-.2433.1685-.3931 0-.1572-.0562-.2882-.1685-.3931-.1048-.1048-.2358-.1572-.393-.1572h-11.39895c-.15723 0-.292.0524-.4043.1572-.10482.1049-.15723.2359-.15723.3931 0 .1498.05241.2808.15723.3931.1123.1048.24707.1572.4043.1572zm0 3.7622h8.29935c.1572 0 .2882-.0524.393-.1572.1123-.1123.1685-.2433.1685-.3931 0-.1572-.0562-.2882-.1685-.393-.1048-.1124-.2358-.1685-.393-.1685h-8.29935c-.15723 0-.292.0561-.4043.1685-.10482.1048-.15723.2358-.15723.393 0 .1498.05241.2808.15723.3931.1123.1048.24707.1572.4043.1572zm-.43799-12.79149v3.06592c0 .32197.09359.58027.28076.77487.19466.1872.45671.2808.78613.2808h3.05465c.322 0 .5803-.0936.7749-.2808.1947-.1946.292-.4529.292-.77487v-3.06592c0-.32194-.0973-.58024-.292-.7749-.1946-.19466-.4529-.292-.7749-.292h-3.05465c-.32942 0-.59147.09734-.78613.292-.18717.19466-.28076.45296-.28076.7749z" fill="#fff"/></svg>