<svg fill="none" height="65" viewBox="0 0 65 65" width="65" xmlns="http://www.w3.org/2000/svg"><g fill="#fff"><path d="m6.85982 30.8155c-.02164.3425-.0659.5879-.13346.8987l-1.08819-.0708c.09026-.3666.10761-.4897.12444-.756.04988-.7895-.23575-1.1232-.95166-1.1698l-4.81094929-.313.07692209-1.2175 4.9064072.3192c1.32683.0863 1.96723.873 1.87649 2.3092z"/><path d="m7.21184 22.9135c-.80816.2313-1.71479.1464-2.61305-.2589-.89826-.4052-1.56141-1.0284-1.92187-1.7868-.37964-.809-.38203-1.7091.00676-2.5686.38879-.8596 1.06664-1.4528 1.92538-1.7031.80816-.2313 1.71479-.1464 2.61306.2588.89826.4052 1.56141 1.0284 1.92187 1.7869.37963.8089.38202 1.709-.00677 2.5686-.38878.8595-1.06663 1.4528-1.92538 1.7031zm.93991-2.1477c.23956-.5296.22661-1.0581-.03405-1.573-.26065-.5148-.72674-.9237-1.39826-1.2266s-1.28683-.3818-1.84595-.2368-.96478.4847-1.20434 1.0143c-.23955.5296-.2266 1.0582.03405 1.573.26066.5148.72674.9237 1.39826 1.2266s1.28684.3819 1.84596.2369c.55911-.1451.96477-.4848 1.20433-1.0144z"/><path d="m13.822 8.51405-1.8647-2.0764.9114-.8125 4.585 5.10565-.9114.8125-2.0051-2.23283-2.4494 2.18363 2.0052 2.2328-.9114.8125-4.58511-5.10565.9114-.8125 1.86471 2.07635z"/><path d="m23.962.358874 1.1191-.35887462 2.1172 6.51544062-1.019.32679-4.7931-3.74354 1.554 4.78223-1.1191.35888-2.1172-6.51544 1.201-.38514 4.5403 3.58409z"/><path d="m31.7033 3.35135c.0155-.47632.1907-.86128.5164-1.16475.3256-.30346.7324-.45153 1.2008-.43534.4684.01618.8455.19134 1.1508.51661.3052.32526.4551.72145.4396 1.19776-.0151.46679-.1903.85175-.516 1.15522-.3257.30346-.713.44267-1.1814.42648-.4684-.01618-.8649-.18248-1.1702-.50774-.3053-.32527-.4551-.72146-.44-1.18824z"/><path d="m45.9941 2.25249 1.0926.43722-2.5461 6.35025-.9948-.39812-1.2935-5.92644-1.8688 4.66098-1.0926-.43723 2.5461-6.350249 1.1725.469219 1.201 5.64308z"/><path d="m53.1761 6.82009.9268.79926-4.4865 5.17095-.9269-.7992z"/><path d="m53.0991 16.5002 5.8455-3.5784 2.4396 3.9489-.9118.5582-1.8072-2.9251-1.4654.8971 1.521 2.4619-.9118.5582-1.521-2.4619-1.6445 1.0067 1.8071 2.9251-.9118.5582z"/><path d="m57.6275 27.1113-.3788-2.2572 6.7731-1.1136.3788 2.2572c.172 1.0252.0044 1.9322-.5 2.624-.4932.6996-1.298 1.1605-2.3168 1.328s-1.9309-.0111-2.6262-.5154c-.7032-.4932-1.1581-1.2979-1.3301-2.323zm5.554-2.0245-4.6978.7723.1814 1.0816c.2289 1.3637 1.2765 2.0613 2.7198 1.824 1.4622-.2404 2.2085-1.2233 1.9765-2.6058z"/><path d="m57.9101 35.1969 6.7031 1.503-1.0102 4.5194-1.0456-.2344.7483-3.3477-1.6805-.3768-.6298 2.8176-1.0456-.2344.6298-2.8177-1.8858-.4228-.7483 3.3477-1.0457-.2344z"/><path d="m55.9076 47.4628.6235-.9132-2.1993-1.4943.688-1.0076 5.6803 3.8593-1.5427 2.2593c-.8868 1.2988-2.0303 1.6167-3.1379.8642-.8782-.5967-1.1465-1.4589-.7638-2.4434l-3.2728-.0917.7848-1.1493zm3.2342.8606-1.7405-1.1825-.817 1.1965c-.4891.7163-.4493 1.3196.1124 1.7012.5696.387 1.1336.2055 1.6281-.5187z"/><path d="m46.6622 59.1987-1.2517-5.4474.8471-.5177 4.314 3.5755-2.7828-4.5114.9692-.5924 3.6002 5.8364-1.4335.8762-4.2646-3.5499 1.251 5.3918-1.4009.8562-3.6001-5.8364.9692-.5924z"/><path d="m38.0809 56.7191.9269 6.7834-4.6057.6146-.1446-1.0581 3.4116-.4553-.2323-1.7006-2.8715.3832-.1446-1.0581 2.8715-.3832-.2608-1.9085-3.4117.4553-.1446-1.0581z"/><path d="m26.2564 63.5311-1.0209-3.2521-2.4315 2.3867-1.2622-.3164 3.3796-3.2983.6846-2.7362 1.1879.2978-.6845 2.7361 1.437 4.5057z"/><path d="m19.2925 53.7115-3.9988 5.5547-3.7789-2.7063.6237-.8665 2.7993 2.0047 1.0024-1.3925-2.356-1.6873.6238-.8664 2.356 1.6872 1.125-1.5627-2.7992-2.0047.6238-.8664z"/><path d="m8.73479 47.058.60293.9295 2.23198-1.4348.6653 1.0258-5.7647 3.7058-1.49172-2.2999c-.8576-1.3223-.70907-2.4965.41498-3.2191.8912-.5729 1.792-.482 2.55407.2544l1.35076-2.969.75881 1.17zm-2.04661 2.6328 1.76636-1.1355-.79004-1.2181c-.47298-.7292-1.04599-.9286-1.61604-.5622-.57808.3716-.6285.9604-.15031 1.6977z"/><path d="m5.16751 39.7922c-.4653.1089-.88439.0405-1.26435-.1938-.37997-.2343-.63091-.587-.7391-1.0417-.1082-.4547-.03831-.8629.19592-1.2411.23424-.3781.57825-.6252 1.04355-.7341.456-.1068.87509-.0384 1.25505.1959.37997.2344.61719.5707.72538 1.0254s.05203.8793-.1822 1.2574c-.23424.3781-.57825.6252-1.03425.732z"/></g></svg>