<svg fill="none" height="26" viewBox="0 0 26 26" width="26" xmlns="http://www.w3.org/2000/svg" xmlns:xlink="http://www.w3.org/1999/xlink"><clipPath id="a"><path d="m3 0h22v26h-22z"/></clipPath><mask id="b" height="23" maskUnits="userSpaceOnUse" width="19" x="4" y="1"><path clip-rule="evenodd" d="m22.4441 23.9701-5.376-8.1611.651-.3251c1.1823-.5907 2.184-1.5002 2.8928-2.6297.7266-1.1592 1.1108-2.5011 1.1108-3.88236 0-1.9125-.7286-3.71769-2.0527-5.083-1.3209-1.36212-3.087-2.1335-4.9728-2.17281l-.0945-.00106h-9.7734v22.25513h4.14435v-7.5926h3.81255l.189.137 4.9445 7.4556zm-7.8928-11.934h-5.57765v-6.12851h5.58185c.8095.00213 1.5686.32088 2.1388.89994.5712.578.8841 1.34725.8841 2.16431 0 1.68936-1.3576 3.06426-3.0271 3.06426z" fill="#fff" fill-rule="evenodd"/></mask><mask id="c" height="23" maskUnits="userSpaceOnUse" width="19" x="4" y="1"><path clip-rule="evenodd" d="m22.4441 23.9701-5.376-8.1611.651-.3251c1.1823-.5907 2.184-1.5002 2.8928-2.6297.7266-1.1592 1.1108-2.5011 1.1108-3.88236 0-1.9125-.7286-3.71769-2.0527-5.083-1.3209-1.36212-3.087-2.1335-4.9728-2.17281l-.0945-.00106h-9.7734v22.25513h4.14435v-7.5926h3.81255l.189.137 4.9445 7.4556zm-7.8928-11.934h-5.57765v-6.12851h5.58185c.8095.00213 1.5686.32088 2.1388.89994.5712.578.8841 1.34725.8841 2.16431 0 1.68936-1.3576 3.06426-3.0271 3.06426z" fill="#fff" fill-rule="evenodd"/></mask><mask id="d" height="23" maskUnits="userSpaceOnUse" width="19" x="4" y="1"><path clip-rule="evenodd" d="m22.4441 23.9701-5.376-8.1611.651-.3251c1.1823-.5907 2.184-1.5002 2.8928-2.6297.7266-1.1592 1.1108-2.5011 1.1108-3.88236 0-1.9125-.7286-3.71769-2.0527-5.083-1.3209-1.36212-3.087-2.1335-4.9728-2.17281l-.0945-.00106h-9.7734v22.25513h4.14435v-7.5926h3.81255l.189.137 4.9445 7.4556zm-7.8928-11.934h-5.57765v-6.12851h5.58185c.8095.00213 1.5686.32088 2.1388.89994.5712.578.8841 1.34725.8841 2.16431 0 1.68936-1.3576 3.06426-3.0271 3.06426z" fill="#fff" fill-rule="evenodd"/></mask><mask id="e" height="23" maskUnits="userSpaceOnUse" width="19" x="4" y="1"><path clip-rule="evenodd" d="m22.4441 23.9701-5.376-8.1611.651-.3251c1.1823-.5907 2.184-1.5002 2.8928-2.6297.7266-1.1592 1.1108-2.5011 1.1108-3.88236 0-1.9125-.7286-3.71769-2.0527-5.083-1.3209-1.36212-3.087-2.1335-4.9728-2.17281l-.0945-.00106h-9.7734v22.25513h4.14435v-7.5926h3.81255l.189.137 4.9445 7.4556zm-7.8928-11.934h-5.57765v-6.12851h5.58185c.8095.00213 1.5686.32088 2.1388.89994.5712.578.8841 1.34725.8841 2.16431 0 1.68936-1.3576 3.06426-3.0271 3.06426z" fill="#fff" fill-rule="evenodd"/></mask><mask id="f" height="23" maskUnits="userSpaceOnUse" width="19" x="4" y="1"><path clip-rule="evenodd" d="m22.4441 23.9701-5.376-8.1611.651-.3251c1.1823-.5907 2.184-1.5002 2.8928-2.6297.7266-1.1592 1.1108-2.5011 1.1108-3.88236 0-1.9125-.7286-3.71769-2.0527-5.083-1.3209-1.36212-3.087-2.1335-4.9728-2.17281l-.0945-.00106h-9.7734v22.25513h4.14435v-7.5926h3.81255l.189.137 4.9445 7.4556zm-7.8928-11.934h-5.57765v-6.12851h5.58185c.8095.00213 1.5686.32088 2.1388.89994.5712.578.8841 1.34725.8841 2.16431 0 1.68936-1.3576 3.06426-3.0271 3.06426z" fill="#fff" fill-rule="evenodd"/></mask><mask id="g" height="23" maskUnits="userSpaceOnUse" width="19" x="4" y="1"><path clip-rule="evenodd" d="m22.4441 23.9701-5.376-8.1611.651-.3251c1.1823-.5907 2.184-1.5002 2.8928-2.6297.7266-1.1592 1.1108-2.5011 1.1108-3.88236 0-1.9125-.7286-3.71769-2.0527-5.083-1.3209-1.36212-3.087-2.1335-4.9728-2.17281l-.0945-.00106h-9.7734v22.25513h4.14435v-7.5926h3.81255l.189.137 4.9445 7.4556zm-7.8928-11.934h-5.57765v-6.12851h5.58185c.8095.00213 1.5686.32088 2.1388.89994.5712.578.8841 1.34725.8841 2.16431 0 1.68936-1.3576 3.06426-3.0271 3.06426z" fill="#fff" fill-rule="evenodd"/></mask><mask id="h" height="23" maskUnits="userSpaceOnUse" width="19" x="4" y="1"><path clip-rule="evenodd" d="m22.4441 23.9701-5.376-8.1611.651-.3251c1.1823-.5907 2.184-1.5002 2.8928-2.6297.7266-1.1592 1.1108-2.5011 1.1108-3.88236 0-1.9125-.7286-3.71769-2.0527-5.083-1.3209-1.36212-3.087-2.1335-4.9728-2.17281l-.0945-.00106h-9.7734v22.25513h4.14435v-7.5926h3.81255l.189.137 4.9445 7.4556zm-7.8928-11.934h-5.57765v-6.12851h5.58185c.8095.00213 1.5686.32088 2.1388.89994.5712.578.8841 1.34725.8841 2.16431 0 1.68936-1.3576 3.06426-3.0271 3.06426z" fill="#fff" fill-rule="evenodd"/></mask><mask id="i" height="23" maskUnits="userSpaceOnUse" width="19" x="4" y="1"><path clip-rule="evenodd" d="m22.4441 23.9701-5.376-8.1611.651-.3251c1.1823-.5907 2.184-1.5002 2.8928-2.6297.7266-1.1592 1.1108-2.5011 1.1108-3.88236 0-1.9125-.7286-3.71769-2.0527-5.083-1.3209-1.36212-3.087-2.1335-4.9728-2.17281l-.0945-.00106h-9.7734v22.25513h4.14435v-7.5926h3.81255l.189.137 4.9445 7.4556zm-7.8928-11.934h-5.57765v-6.12851h5.58185c.8095.00213 1.5686.32088 2.1388.89994.5712.578.8841 1.34725.8841 2.16431 0 1.68936-1.3576 3.06426-3.0271 3.06426z" fill="#fff" fill-rule="evenodd"/></mask><mask id="j" height="23" maskUnits="userSpaceOnUse" width="19" x="4" y="1"><path clip-rule="evenodd" d="m22.4441 23.9701-5.376-8.1611.651-.3251c1.1823-.5907 2.184-1.5002 2.8928-2.6297.7266-1.1592 1.1108-2.5011 1.1108-3.88236 0-1.9125-.7286-3.71769-2.0527-5.083-1.3209-1.36212-3.087-2.1335-4.9728-2.17281l-.0945-.00106h-9.7734v22.25513h4.14435v-7.5926h3.81255l.189.137 4.9445 7.4556zm-7.8928-11.934h-5.57765v-6.12851h5.58185c.8095.00213 1.5686.32088 2.1388.89994.5712.578.8841 1.34725.8841 2.16431 0 1.68936-1.3576 3.06426-3.0271 3.06426z" fill="#fff" fill-rule="evenodd"/></mask><mask id="k" height="23" maskUnits="userSpaceOnUse" width="19" x="4" y="1"><path clip-rule="evenodd" d="m22.4441 23.9701-5.376-8.1611.651-.3251c1.1823-.5907 2.184-1.5002 2.8928-2.6297.7266-1.1592 1.1108-2.5011 1.1108-3.88236 0-1.9125-.7286-3.71769-2.0527-5.083-1.3209-1.36212-3.087-2.1335-4.9728-2.17281l-.0945-.00106h-9.7734v22.25513h4.14435v-7.5926h3.81255l.189.137 4.9445 7.4556zm-7.8928-11.934h-5.57765v-6.12851h5.58185c.8095.00213 1.5686.32088 2.1388.89994.5712.578.8841 1.34725.8841 2.16431 0 1.68936-1.3576 3.06426-3.0271 3.06426z" fill="#fff" fill-rule="evenodd"/></mask><mask id="l" height="23" maskUnits="userSpaceOnUse" width="19" x="4" y="1"><path clip-rule="evenodd" d="m22.4441 23.9701-5.376-8.1611.651-.3251c1.1823-.5907 2.184-1.5002 2.8928-2.6297.7266-1.1592 1.1108-2.5011 1.1108-3.88236 0-1.9125-.7286-3.71769-2.0527-5.083-1.3209-1.36212-3.087-2.1335-4.9728-2.17281l-.0945-.00106h-9.7734v22.25513h4.14435v-7.5926h3.81255l.189.137 4.9445 7.4556zm-7.8928-11.934h-5.57765v-6.12851h5.58185c.8095.00213 1.5686.32088 2.1388.89994.5712.578.8841 1.34725.8841 2.16431 0 1.68936-1.3576 3.06426-3.0271 3.06426z" fill="#fff" fill-rule="evenodd"/></mask><mask id="m" height="23" maskUnits="userSpaceOnUse" width="19" x="4" y="1"><path clip-rule="evenodd" d="m22.4441 23.9701-5.376-8.1611.651-.3251c1.1823-.5907 2.184-1.5002 2.8928-2.6297.7266-1.1592 1.1108-2.5011 1.1108-3.88236 0-1.9125-.7286-3.71769-2.0527-5.083-1.3209-1.36212-3.087-2.1335-4.9728-2.17281l-.0945-.00106h-9.7734v22.25513h4.14435v-7.5926h3.81255l.189.137 4.9445 7.4556zm-7.8928-11.934h-5.57765v-6.12851h5.58185c.8095.00213 1.5686.32088 2.1388.89994.5712.578.8841 1.34725.8841 2.16431 0 1.68936-1.3576 3.06426-3.0271 3.06426z" fill="#fff" fill-rule="evenodd"/></mask><mask id="n" height="23" maskUnits="userSpaceOnUse" width="19" x="4" y="1"><path clip-rule="evenodd" d="m22.4441 23.9701-5.376-8.1611.651-.3251c1.1823-.5907 2.184-1.5002 2.8928-2.6297.7266-1.1592 1.1108-2.5011 1.1108-3.88236 0-1.9125-.7286-3.71769-2.0527-5.083-1.3209-1.36212-3.087-2.1335-4.9728-2.17281l-.0945-.00106h-9.7734v22.25513h4.14435v-7.5926h3.81255l.189.137 4.9445 7.4556zm-7.8928-11.934h-5.57765v-6.12851h5.58185c.8095.00213 1.5686.32088 2.1388.89994.5712.578.8841 1.34725.8841 2.16431 0 1.68936-1.3576 3.06426-3.0271 3.06426z" fill="#fff" fill-rule="evenodd"/></mask><mask id="o" height="23" maskUnits="userSpaceOnUse" width="19" x="4" y="1"><path clip-rule="evenodd" d="m22.4441 23.9701-5.376-8.1611.651-.3251c1.1823-.5907 2.184-1.5002 2.8928-2.6297.7266-1.1592 1.1108-2.5011 1.1108-3.88236 0-1.9125-.7286-3.71769-2.0527-5.083-1.3209-1.36212-3.087-2.1335-4.9728-2.17281l-.0945-.00106h-9.7734v22.25513h4.14435v-7.5926h3.81255l.189.137 4.9445 7.4556zm-7.8928-11.934h-5.57765v-6.12851h5.58185c.8095.00213 1.5686.32088 2.1388.89994.5712.578.8841 1.34725.8841 2.16431 0 1.68936-1.3576 3.06426-3.0271 3.06426z" fill="#fff" fill-rule="evenodd"/></mask><mask id="p" height="23" maskUnits="userSpaceOnUse" width="19" x="4" y="1"><path clip-rule="evenodd" d="m22.4441 23.9701-5.376-8.1611.651-.3251c1.1823-.5907 2.184-1.5002 2.8928-2.6297.7266-1.1592 1.1108-2.5011 1.1108-3.88236 0-1.9125-.7286-3.71769-2.0527-5.083-1.3209-1.36212-3.087-2.1335-4.9728-2.17281l-.0945-.00106h-9.7734v22.25513h4.14435v-7.5926h3.81255l.189.137 4.9445 7.4556zm-7.8928-11.934h-5.57765v-6.12851h5.58185c.8095.00213 1.5686.32088 2.1388.89994.5712.578.8841 1.34725.8841 2.16431 0 1.68936-1.3576 3.06426-3.0271 3.06426z" fill="#fff" fill-rule="evenodd"/></mask><g clip-path="url(#a)"><path clip-rule="evenodd" d="m14.7108 1.06998v.00106c4.2389.08713 7.6504 3.59019 7.6504 7.90075 0 3.11101-1.7777 5.80231-4.3607 7.09011l5.6343 8.5531h-6.0564l-5.1345-7.7414h.001-2.8339v7.7414h-5.4201v-23.54502zm-5.0998 10.32112h4.9402c1.3209 0 2.3898-1.0837 2.3898-2.41931 0-1.3345-1.0668-2.41612-2.3856-2.41931h-4.9444zm5.0998-11.325182h-10.5199c-.54705 0-.9912.449437-.9912 1.004062v.30813.01381 10.32108.0149 5.1457.0128 7.7286c0 .5546.44415 1.004.9912 1.004h5.4201c.5481 0 .9912-.4494.9912-1.004v-6.7373h1.3125l4.8415 7.2972c.1838.2773.4925.4441.8222.4441h6.0564c.3664 0 .7025-.204.8747-.5312.1722-.3262.1543-.7214-.0484-1.0296l-5.0483-7.6617c1.029-.6906 1.9067-1.5948 2.5735-2.6583.8935-1.4238 1.3661-3.0728 1.3661-4.76641 0-1.18681-.2279-2.33962-.6763-3.42762-.4326-1.04869-1.052-1.99431-1.8427-2.80925-.7906-.81494-1.7115-1.45881-2.7395-1.916752-1.0426-.465375-2.1514-.716125-3.2959-.748-.0284-.0031875-.0578-.00425-.0872-.00425zm-4.1086 7.490622h3.9522c.7707.00107 1.3954.63644 1.3954 1.41525 0 .77988-.6268 1.41521-1.3986 1.41521h-3.949z" fill="#fff" fill-rule="evenodd"/><g mask="url(#b)"><path clip-rule="evenodd" d="m4.8293 1.71497h17.6159v.36656h-17.6159z" fill="#fff" fill-rule="evenodd"/></g><g mask="url(#c)"><path clip-rule="evenodd" d="m4.8293 3.20886h17.6159v.43563h-17.6159z" fill="#fff" fill-rule="evenodd"/></g><g mask="url(#d)"><path clip-rule="evenodd" d="m4.8293 4.77173h17.6159v.43562h-17.6159z" fill="#fff" fill-rule="evenodd"/></g><g mask="url(#e)"><path clip-rule="evenodd" d="m4.8293 6.33582h17.6159v.43562h-17.6159z" fill="#fff" fill-rule="evenodd"/></g><g mask="url(#f)"><path clip-rule="evenodd" d="m4.8293 7.89868h17.6159v.43563h-17.6159z" fill="#fff" fill-rule="evenodd"/></g><g mask="url(#g)"><path clip-rule="evenodd" d="m4.8293 9.46277h17.6159v.43562h-17.6159z" fill="#fff" fill-rule="evenodd"/></g><g mask="url(#h)"><path clip-rule="evenodd" d="m4.8293 11.0256h17.6159v.4357h-17.6159z" fill="#fff" fill-rule="evenodd"/></g><g mask="url(#i)"><path clip-rule="evenodd" d="m4.8293 12.5896h17.6159v.4356h-17.6159z" fill="#fff" fill-rule="evenodd"/></g><g mask="url(#j)"><path clip-rule="evenodd" d="m4.8293 14.1537h17.6159v.4356h-17.6159z" fill="#fff" fill-rule="evenodd"/></g><g mask="url(#k)"><path clip-rule="evenodd" d="m4.8293 15.7166h17.6159v.4356h-17.6159z" fill="#fff" fill-rule="evenodd"/></g><g mask="url(#l)"><path clip-rule="evenodd" d="m4.8293 17.2795h17.6159v.4357h-17.6159z" fill="#fff" fill-rule="evenodd"/></g><g mask="url(#m)"><path clip-rule="evenodd" d="m4.8293 18.8435h17.6159v.4356h-17.6159z" fill="#fff" fill-rule="evenodd"/></g><g mask="url(#n)"><path clip-rule="evenodd" d="m4.8293 20.4075h17.6159v.4356h-17.6159z" fill="#fff" fill-rule="evenodd"/></g><g mask="url(#o)"><path clip-rule="evenodd" d="m4.8293 21.9716h17.6159v.4356h-17.6159z" fill="#fff" fill-rule="evenodd"/></g><g mask="url(#p)"><path clip-rule="evenodd" d="m4.8293 23.5344h17.6159v.4356h-17.6159z" fill="#fff" fill-rule="evenodd"/></g></g></svg>