<svg width="1510" height="731" viewBox="0 0 1510 731" fill="none" xmlns="http://www.w3.org/2000/svg">
<path d="M1136.95 82.2709C1060.38 73.9262 983.944 72.3873 907.269 80.6977C832.851 88.7688 759.015 102.141 686.239 119.582C548.757 152.551 413.738 198.514 286.517 260.484C221.641 292.084 156.628 327.856 99.8567 372.76C73.1812 393.861 47.1555 416.843 28.0381 445.194C13.5033 466.74 0.849567 492.902 6.28726 519.646C8.64702 531.274 14.9739 541.602 24.4471 548.784C30.945 553.709 37.4771 556.103 45.3429 557.95C54.7478 560.173 64.1526 562.669 73.6258 564.653C92.367 568.551 113.16 567.902 132.243 568.141C151.84 568.415 171.436 567.902 190.998 566.636C267.57 561.677 343.493 548.203 418.8 534.044C564.831 506.651 708.708 470.604 851.866 431.104C923.753 411.269 995.709 391.467 1067.25 370.332C1138.05 349.402 1209.08 327.514 1277.31 299.163C1311.13 285.107 1344.68 269.854 1376.66 251.968C1406.41 235.313 1437.09 216.64 1462.63 193.898C1474.29 183.535 1484.52 171.634 1493.04 158.535C1501.28 145.847 1507.19 132.031 1504.25 116.573C1501.21 100.568 1489.96 89.5895 1477.61 79.9453C1465.4 70.4379 1452 62.5379 1437.77 56.4846C1421.59 49.5763 1404.39 45.6434 1387.43 41.0949C1368.93 36.136 1350.7 31.1086 1331.79 27.8939C1293.96 21.4644 1255.76 17.4973 1217.42 15.9925C1141.33 12.983 1064.55 17.0527 988.869 25.0212C848.378 39.8295 709.768 68.8989 574.715 110.246C432.924 153.679 297.187 212.536 164.288 277.96C131.388 294.17 98.6255 310.654 65.9309 327.241C68.9063 325.736 72.8392 326.112 75.8487 324.573C203.173 259.971 331.523 196.907 465.687 147.626C605.426 96.2926 750.055 58.9127 897.488 37.8117C969.58 27.4835 1042.12 20.6778 1114.93 18.6259C1188.18 16.5739 1261.03 19.3783 1333.26 32.5792C1351.01 35.8281 1368.38 41.3342 1385.79 45.9854C1401.59 50.2261 1417.28 54.2616 1432.23 61.1015C1445.94 67.3599 1458.8 75.3968 1470.5 84.87C1482.02 94.2064 1492.01 105.116 1494.51 120.301C1497 135.417 1491.12 148.823 1483.08 161.203C1475.01 173.617 1465.37 185.006 1454.42 194.992C1430.52 216.811 1401.59 234.595 1373.65 250.703C1312.16 286.167 1245.19 312.467 1177.99 334.901C1107.57 358.396 1036.47 379.429 965.032 399.47C819.445 440.304 673.756 481.104 525.707 512.157C452.657 527.478 379.163 541.978 305.224 552.512C268.665 557.71 231.866 562.293 194.999 564.379C176.429 565.439 157.79 565.815 139.186 565.473C121.06 565.166 101.259 565.781 83.5094 562.019C74.9938 560.207 66.5465 557.984 58.0651 556C49.9257 554.085 42.8464 552.17 35.9039 547.314C26.6017 540.782 19.9328 531.342 16.9575 520.365C10.357 495.912 20.4116 470.57 33.1338 450.016C50.507 421.973 74.2414 399.401 99.4805 378.471C125.643 356.755 153.926 338.014 182.824 320.127C303.035 245.675 436.72 191.777 571.705 150.738C647.628 127.653 725.055 109.425 803.337 96.361C875.224 84.357 947.864 76.115 1020.85 77.6539C1056.34 78.4063 1091.74 81.1081 1127 84.9384C1130.25 85.2804 1133.81 81.9289 1136.95 82.2709Z" fill="#9810FA"/>
<path d="M1357.64 397.555C1360.96 397.555 1364.28 394.887 1367.56 394.887C1364.21 394.921 1360.89 397.555 1357.64 397.555Z" fill="#9810FA"/>
<path d="M857.544 586.403C853.508 586.472 849.507 586.677 845.608 587.6C841.06 588.695 836.032 589.584 831.826 591.704C823.926 595.671 820.301 605.452 817.394 613.216C814.076 622.176 811.101 633.838 816.197 642.73C820.027 649.433 827.688 650.664 834.733 649.57C843.83 648.167 853.269 645.295 861.477 641.122C858.501 642.627 854.568 642.251 851.559 643.79C849.028 645.09 846.429 646.252 843.727 647.21C842.906 647.518 842.086 647.757 841.265 648.031C838.324 649.022 850.225 645.91 847.181 646.457C846.874 646.526 846.566 646.594 846.258 646.663C844.514 647.005 842.735 647.244 840.957 647.312C835.109 647.552 829.329 645.637 826.217 640.404C821.976 633.291 823.208 624.091 825.328 616.499C827.414 609.009 830.526 600.596 835.383 594.406C837.503 591.704 840.102 589.721 843.248 588.387C844.616 587.806 847.318 587.224 840.512 589.037C833.707 590.849 836.819 589.96 838.495 589.687C839.35 589.55 840.205 589.447 841.06 589.379C843.248 589.174 845.403 589.105 847.592 589.071C849.165 589.037 851.046 588.182 852.551 587.806C854.09 587.395 855.971 586.438 857.544 586.403Z" fill="#9810FA"/>
<path d="M900.532 594.235C894.65 594.304 889.075 595.911 883.467 597.621C879.26 598.887 876.456 601.657 874.506 605.555C872.42 609.762 870.915 614.413 870.095 618.996C869.376 622.997 869.479 627.306 872.01 630.692C874.164 633.53 877.653 634.933 881.175 634.659C883.603 634.454 886.031 633.599 888.391 632.983C890.922 632.299 893.658 631.786 895.983 630.555C900.053 628.401 903.063 624.126 905.422 620.261C908.124 615.815 910.176 610.72 910.347 605.453C910.518 599.468 907.645 594.509 903.439 590.439C901.49 588.524 899.438 587.156 896.702 586.746C893.863 586.335 891.059 586.506 888.836 584.454C888.46 584.078 884.458 585.583 883.877 585.72C882.714 586.028 881.551 586.335 880.388 586.677C880.218 586.711 879.021 587.156 878.952 587.088C882.235 590.097 887.023 588.456 890.648 590.713C894.239 592.936 897.557 596.903 899.198 600.802C902.721 609.146 898.685 618.791 893.795 625.665C891.572 628.811 888.904 632.06 885.279 633.633C885.142 633.701 884.971 633.77 884.834 633.804C882.817 634.488 883.911 634.214 888.083 632.983C894.992 631.102 892.837 631.855 891.161 631.991C890.443 632.06 889.691 632.026 888.973 631.957C887.399 631.786 885.895 631.239 884.561 630.384C877.926 626.109 879.499 617.354 881.38 610.993C882.611 606.923 884.116 602.443 886.852 599.126C888.22 597.484 889.862 596.322 891.811 595.467C892.085 595.364 892.324 595.296 892.598 595.193C889.896 595.911 887.228 596.629 884.527 597.348C885.382 597.211 886.202 597.074 887.057 597.006C888.254 596.903 889.451 596.869 890.648 596.869C892.221 596.835 894.102 595.98 895.607 595.603C897.078 595.193 898.959 594.235 900.532 594.235Z" fill="#9810FA"/>
<path d="M933.74 600.083C934.731 595.227 935.826 590.405 937.057 585.651C938.049 581.787 938.664 576.691 941.161 573.442C937.844 574.331 934.56 575.22 931.243 576.109C932.508 581.718 930.696 587.977 931.14 593.688C931.346 596.185 931.722 599.194 933.603 601.041C935.894 603.264 938.869 602.067 941.537 601.349C945.196 600.391 948.821 600.015 951.352 597.005C953.678 594.235 955.183 590.781 956.687 587.498C958.124 584.317 959.799 581.376 961.544 578.367C964.211 573.716 966.845 568.928 970.675 565.097C967.358 565.986 964.074 566.876 960.757 567.765C962.912 575.562 959.252 583.497 957.85 591.089C956.824 596.732 956.653 606.718 964.006 608.154C966.674 608.667 969.375 607.881 971.94 607.197C975.771 606.205 979.738 605.316 983.397 603.811C988.766 601.588 993.999 598.236 998.24 594.269C997.419 595.022 994.375 595.261 993.281 595.535C992.049 595.877 989.314 596.014 988.322 596.903C984.765 600.254 980.524 603.024 976.181 605.213C974.984 605.829 973.719 606.273 972.487 606.855C969.752 608.086 982.063 605.145 977.481 605.521C976.865 605.555 976.249 605.658 975.634 605.658C973.445 605.624 971.393 604.94 969.957 603.264C965.75 598.339 967.187 590.576 968.52 584.899C970.059 578.469 972.487 571.732 970.675 565.132C970.709 565.303 961.407 567.149 960.757 567.799C957.679 570.911 955.388 574.639 953.165 578.401C951.421 581.41 949.471 584.42 947.967 587.566C945.846 592.081 943.384 600.596 938.049 602.272C941.298 601.417 944.547 600.528 947.796 599.673C936.989 601.656 942.324 578.709 941.161 573.51C941.229 573.852 931.824 575.426 931.243 576.178C928.747 579.393 928.165 584.488 927.139 588.387C925.908 593.175 924.814 597.997 923.822 602.819C923.89 602.511 928.302 601.656 928.781 601.554C929.328 601.314 933.637 600.596 933.74 600.083Z" fill="#9810FA"/>
<path d="M1002 569.509C999.539 579.187 998.171 589.071 996.153 598.818C996.153 598.784 997.829 598.407 997.624 598.476C998.787 598.168 999.949 597.86 1001.15 597.553C1002.31 597.245 1003.47 596.937 1004.63 596.595C1004.81 596.527 1006.04 596.321 1006.07 596.184C1008.09 586.438 1009.49 576.554 1011.92 566.876C1011.92 566.91 1010.24 567.286 1010.45 567.218C1009.29 567.525 1008.12 567.833 1006.93 568.141C1005.76 568.449 1004.6 568.757 1003.44 569.099C1003.23 569.167 1002.04 569.372 1002 569.509Z" fill="#9810FA"/>
<path d="M1000.02 536.302C1003.34 536.302 1006.65 533.634 1009.94 533.634C1006.62 533.634 1003.3 536.302 1000.02 536.302Z" fill="#9810FA"/>
<path d="M1033.26 563.661C1031.75 570.979 1028.27 578.777 1029.6 586.335C1029.53 585.856 1038.97 584.522 1039.52 583.667C1045.06 575.015 1046.77 564.482 1050.19 554.94C1052.58 548.237 1055.42 538.729 1062.81 535.994C1059.49 536.883 1056.21 537.772 1052.89 538.661C1060.93 543.073 1057.99 556 1058.16 563.421C1058.23 566.67 1058.87 572.997 1062.53 574.228C1063.77 574.639 1065.1 574.126 1066.3 573.818C1068.66 573.202 1071.05 572.587 1073.41 571.903C1075.94 571.185 1078.33 569.782 1078.37 566.807C1078.37 566.944 1073.79 567.97 1073.41 568.072C1073 568.175 1068.48 569.133 1068.45 569.44C1068.45 571.663 1066.95 573.271 1064.96 574.092C1067.05 573.51 1069.13 572.929 1071.22 572.347C1071.02 572.416 1070.81 572.45 1070.61 572.518C1071.84 572.211 1073.03 571.903 1074.26 571.595C1068.11 572.313 1068.01 561.917 1068.11 557.881C1068.25 552.101 1069.2 545.296 1066.6 539.892C1066.06 538.798 1065.34 537.772 1064.42 536.951C1062.64 535.412 1061.37 536.267 1059.22 536.814C1055.42 537.806 1051.62 538.422 1048.75 541.26C1044.1 545.843 1042.08 552.683 1039.93 558.668C1036.65 567.867 1035.04 577.854 1029.7 586.198C1033.02 585.309 1036.3 584.42 1039.62 583.531C1038.29 575.973 1041.78 568.141 1043.28 560.856C1043.21 561.164 1038.8 562.019 1038.32 562.122C1037.64 562.43 1033.36 563.148 1033.26 563.661Z" fill="#9810FA"/>
<path d="M1105.69 539.516C1106.75 537.122 1110.58 532.676 1110.35 530.043C1110.17 528.23 1108.12 528.641 1106.58 528.949C1102.55 529.804 1097.32 530.556 1094.31 533.634C1091.43 536.541 1088.94 540.508 1086.75 543.962C1084.35 547.724 1081.58 553.777 1084.42 558.018C1086.92 561.78 1091.57 559.899 1095.09 558.976C1099.57 557.779 1103.74 556.718 1107.61 554.119C1110.62 552.102 1113.29 549.571 1115.78 546.972C1118.04 544.646 1122.76 540.098 1120.98 536.438C1120.98 536.438 1111.37 538.49 1111.06 539.106C1104.7 552.102 1108.57 568.175 1110.04 581.923C1111.88 598.92 1114.41 615.986 1113.42 633.154C1112.57 647.586 1108.98 661.471 1101.21 673.783C1094.1 685.034 1084.15 695.089 1073.2 702.647C1070.09 704.802 1066.81 706.717 1063.39 708.358C1061.65 709.213 1059.83 709.966 1058.02 710.684C1056.86 711.129 1055.69 711.505 1054.53 711.915C1051.52 713.01 1056.07 711.71 1056.62 711.368C1055.01 712.326 1051.62 712.325 1049.71 712.565C1047.73 712.838 1045.74 713.044 1043.76 713.181C1039.66 713.488 1035.55 713.522 1031.41 713.454C1028.1 713.386 1024.78 716.19 1021.5 716.122C1035.59 716.429 1048.79 714.001 1062.23 709.966C1076.76 705.622 1088.9 696.765 1099.33 685.958C1109.52 675.39 1117.29 662.702 1120.78 648.338C1125.22 630.076 1123.48 610.924 1121.43 592.457C1120.33 582.744 1119.27 573.066 1118.25 563.353C1117.29 554.256 1116.84 544.885 1120.95 536.438C1117.63 537.327 1114.35 538.217 1111.03 539.106C1113.18 543.517 1106.34 549.195 1103.61 551.828C1102.07 553.264 1100.53 554.735 1098.82 555.966C1097.62 556.821 1096.39 557.642 1095.09 558.36C1093.59 559.181 1090.65 559.933 1096.39 558.463C1102.27 556.958 1099.37 557.915 1097.79 557.676C1090.37 556.513 1093.72 546.322 1096.08 542.252C1097.49 539.858 1099.26 537.669 1100.84 535.344C1102.51 532.882 1104.46 529.769 1107.44 528.812C1104.19 529.667 1100.94 530.556 1097.69 531.411C1098.31 531.343 1099.3 531.24 1099.85 531.65C1100.94 532.54 1100.22 533.326 1099.64 534.626C1098.51 537.225 1096.87 539.619 1095.71 542.218C1095.91 541.739 1100.05 541.124 1100.67 540.953C1101.49 540.679 1105.39 540.234 1105.69 539.516Z" fill="#9810FA"/>
<path d="M1197.52 496.528C1193.59 496.391 1189.55 496.459 1185.69 497.28C1183.22 497.827 1180.8 498.511 1178.37 499.195C1176.59 499.674 1174.74 500.085 1173.03 500.803C1171.36 501.487 1169.68 502.547 1169.03 504.291C1168.93 504.599 1168.65 505.215 1168.76 505.522C1168.93 506.035 1170.13 506.719 1170.54 506.993C1171.8 507.882 1173.17 508.6 1174.61 509.147C1177.38 510.208 1180.35 510.721 1183.26 511.336C1186.23 511.952 1189.21 512.738 1191.84 514.311C1192.25 514.551 1193.48 515.167 1193.69 515.577C1193.89 515.987 1193.55 517.184 1193.45 517.629C1193.14 518.894 1192.46 520.023 1191.5 520.912C1189.45 522.861 1186.58 523.716 1183.94 524.605C1179.84 526.008 1175.9 527.82 1172.04 529.77C1175.36 528.88 1178.64 527.991 1181.96 527.102C1182.4 526.384 1182.98 525.802 1183.67 525.324C1184.04 525.084 1184.42 524.879 1184.83 524.674C1188.15 522.93 1174.09 526.999 1177.89 526.521C1179.53 526.315 1181.24 525.666 1182.85 525.255C1184.45 524.811 1186.16 524.093 1187.81 523.887C1184.11 524.366 1180.42 525.632 1176.86 526.692C1174.95 527.239 1173.17 528.06 1172.04 529.804C1172.11 529.735 1173.61 529.428 1173.51 529.462C1174.67 529.154 1175.84 528.846 1177.03 528.538C1178.61 528.128 1180.52 527.889 1181.99 527.17C1185.14 525.597 1188.29 524.093 1191.57 522.827C1194.03 521.904 1196.66 521.22 1199.02 519.989C1201.01 518.928 1202.72 517.424 1203.33 515.201C1203.47 514.653 1203.67 513.97 1203.61 513.422C1203.54 512.704 1202.96 512.465 1202.34 512.054C1201.11 511.268 1199.81 510.652 1198.44 510.139C1193.21 508.258 1187.36 508.224 1182.37 505.556C1181.31 504.975 1179.8 504.223 1179.05 503.231C1178.71 502.752 1178.71 502.649 1178.88 502.034C1179.02 501.589 1179.19 501.179 1179.43 500.803C1180.39 499.298 1182.06 498.511 1183.67 497.93C1183.7 497.93 1183.77 497.896 1183.8 497.896C1186.58 497.007 1183.94 497.691 1175.9 500.016C1176.28 499.948 1176.62 499.845 1177 499.777C1177.58 499.674 1178.2 499.572 1178.78 499.503C1179.91 499.366 1181.03 499.298 1182.13 499.23C1183.98 499.161 1185.82 499.161 1187.67 499.23C1188.08 499.23 1188.8 498.956 1189.14 498.888C1190.3 498.58 1191.47 498.272 1192.66 497.964C1193.83 497.656 1194.99 497.349 1196.15 497.007C1196.49 496.836 1197.14 496.494 1197.52 496.528Z" fill="#9810FA"/>
<path d="M1228.81 490.645C1228.54 490.167 1228.26 489.722 1227.99 489.243C1227.79 488.901 1218.89 491.466 1218.07 491.911C1214.17 493.963 1202.03 508.429 1209.18 512.191C1211.51 513.422 1214.82 512.396 1217.18 511.815C1220.91 510.891 1224.74 509.968 1228.37 508.703C1235.79 506.138 1244.88 501.179 1248.89 494.168C1251.21 490.064 1250.29 486.37 1247.52 482.814C1246.36 481.343 1244.1 479.565 1243.48 477.752C1242.7 475.461 1245.33 474.196 1247.35 473.477C1244.85 474.161 1242.39 474.845 1239.89 475.529C1242.22 474.914 1244.95 475.256 1247.35 474.811C1249.74 474.366 1252.1 473.614 1254.46 472.964C1261.1 471.152 1266.84 468.279 1272.79 464.825C1270.16 466.364 1265.99 466.432 1263.04 467.424C1257.85 469.202 1254.91 474.401 1252.65 479.086C1250.32 483.84 1246.46 490.577 1251.55 494.818C1255.76 498.34 1263.15 494.852 1267.7 493.518C1272.45 492.116 1277.44 490.406 1281.79 487.978C1286.37 485.413 1290.54 481.172 1289.72 475.461C1288.97 470.502 1284.21 468.416 1280.32 466.227C1279.46 465.748 1274.95 463.594 1275.01 462.431C1275.12 460.858 1282.98 458.327 1284.25 457.609C1290.3 454.257 1295.91 450.256 1301.59 446.289C1303.23 445.16 1304.87 444.032 1306.61 443.074C1307.37 442.664 1308.12 442.322 1308.87 441.946C1311.54 440.749 1309.62 441.604 1303.06 444.545C1303.09 444.955 1303.13 445.365 1303.16 445.776C1302.44 449.64 1302.03 453.437 1301.04 457.301C1300.42 459.661 1299.74 461.918 1298.99 464.209C1298.37 466.09 1296.83 469.271 1297.69 471.254C1297.76 471.254 1297.83 471.22 1297.86 471.22C1301.62 470.331 1305.79 469.613 1309.35 468.04C1312.67 466.569 1314.69 463.389 1316.26 460.242C1318 456.822 1319.27 453.197 1321.12 449.846C1321.94 448.375 1322.86 446.939 1324.06 445.742C1324.57 445.229 1325.12 444.716 1325.7 444.305C1326.07 444.032 1326.59 443.861 1326.93 443.553C1328.33 442.869 1327.31 443.142 1323.78 444.339C1321.12 443.826 1319.99 444.374 1320.36 445.947C1319.41 450.495 1322.76 457.609 1327.07 459.319C1331.17 460.926 1336.47 459.524 1340.64 458.703C1349.47 456.959 1359.15 454.702 1366.84 449.88C1376.42 443.895 1382.33 434.114 1387.05 424.128C1386.81 424.641 1382.74 425.222 1382.09 425.393C1381.34 425.598 1377.51 426.043 1377.17 426.761C1372.65 436.268 1367.11 445.639 1358.22 451.658C1356.1 453.094 1353.81 454.36 1351.45 455.386C1350.32 455.865 1344.68 457.643 1349.47 456.343C1354.15 455.078 1347.48 456.549 1346.25 456.72C1341.53 457.438 1336.4 457.951 1333.26 453.642C1331.31 450.974 1330.79 447.794 1330.42 444.579C1330.25 442.972 1330.55 442.937 1329.22 442.732C1328.4 442.595 1326.96 443.279 1326.18 443.484C1322.21 444.51 1317.46 445.092 1314.38 448.067C1308.53 453.676 1308.26 463.047 1302.37 468.655C1301.69 469.305 1300.77 469.715 1300.08 470.331C1298.06 472.178 1308.12 466.808 1307.44 468.176C1307.57 467.869 1307.33 467.116 1307.47 466.706C1308.29 464.278 1308.8 461.713 1309.62 459.285C1311.54 453.573 1313.93 446.631 1312.7 440.612C1312.63 440.612 1312.57 440.646 1312.53 440.646C1304.63 442.39 1297.79 444.545 1291.12 449.264C1282.91 455.044 1274.47 461.337 1264.75 464.278C1264.69 464.312 1264.65 464.312 1264.58 464.346C1268.38 469.168 1276.07 469.852 1278.98 475.495C1282.78 482.848 1275.49 488.97 1269.58 491.706C1268.07 492.424 1266.5 493.005 1264.96 493.586C1264.24 493.86 1263.52 494.1 1262.81 494.373C1260.89 495.057 1261.13 495.023 1263.49 494.271C1265.85 493.86 1266.12 493.621 1264.31 493.586C1262.5 492.184 1260.58 492.013 1259.45 489.585C1258.53 487.567 1258.91 485.447 1259.59 483.395C1261.78 476.966 1265.68 467.219 1272.65 464.859C1269.41 465.714 1266.16 466.603 1262.91 467.458C1259.69 469.339 1256.48 471.254 1253.06 472.793C1246.94 475.529 1259.42 472.178 1255.45 472.417C1254.12 472.485 1252.72 472.622 1251.38 472.759C1246.94 473.238 1242.39 474.572 1238.15 475.905C1236.64 476.384 1234.35 477.068 1233.6 478.641C1232.68 480.591 1235.65 483.019 1236.95 484.592C1240.58 488.97 1241.64 493.176 1238.18 498.067C1235.07 502.444 1230.15 505.625 1225.49 508.155C1223.72 509.113 1221.9 510.036 1220.02 510.755C1214.17 513.046 1224.19 509.592 1225.08 509.592C1223.92 509.592 1222.76 510.036 1221.53 509.968C1217.59 509.763 1216.7 506.89 1217.66 503.402C1219.17 497.964 1222.93 491.842 1227.99 489.175C1224.67 490.064 1221.39 490.953 1218.07 491.842C1218.35 492.321 1218.62 492.766 1218.89 493.245C1219.37 494.168 1228.37 489.927 1228.81 490.645Z" fill="#9810FA"/>
<path d="M1396.7 338.937C1391.26 350.189 1387.15 361.988 1384.97 374.334C1382.81 386.611 1380.66 401.18 1384.97 413.184C1385.1 413.526 1394.82 410.346 1394.88 410.517C1390.57 398.547 1392.73 383.944 1394.88 371.666C1397.04 359.32 1401.18 347.521 1406.61 336.27C1406.37 336.783 1402.31 337.364 1401.66 337.535C1400.87 337.775 1397.07 338.219 1396.7 338.937Z" fill="#9810FA"/>
<path d="M1406.61 457.438C1408.5 456.446 1410.34 455.386 1412.12 454.223C1411.85 454.394 1410.85 454.531 1410.65 454.565C1409.69 454.805 1408.73 455.044 1407.81 455.318C1406 455.796 1404.19 456.275 1402.37 456.822C1399.06 457.814 1395.6 458.772 1393.07 461.303C1393.14 461.303 1393.21 461.268 1393.24 461.268C1399.95 459.695 1406.72 458.464 1413.28 456.309C1415.4 455.625 1417.56 454.736 1419.2 453.197C1419.54 452.889 1420.02 452.479 1420.23 452.069C1420.46 451.556 1420.4 451.658 1419.81 451.658C1418.82 451.658 1417.83 451.863 1416.84 452.069C1412.39 453.026 1407.91 454.223 1403.6 455.66C1401.38 456.412 1399.16 457.301 1397.17 458.532C1396.83 458.738 1396.49 458.943 1396.15 459.182C1396.05 459.285 1395.74 459.422 1395.67 459.558C1395.5 459.9 1395.5 459.558 1395.74 459.764C1396.18 460.14 1397.52 459.969 1398.03 459.969C1400.59 459.9 1403.09 459.182 1405.55 458.532C1409.35 457.541 1413.35 456.72 1416.98 455.147C1418.21 454.599 1420.6 453.676 1421.15 452.274C1421.32 451.829 1421.35 451.863 1420.84 451.692C1420.5 451.59 1420.16 451.487 1419.81 451.419C1418.82 451.214 1417.83 451.145 1416.84 451.145C1414.62 451.111 1412.36 451.419 1410.17 451.829C1405.79 452.684 1401.45 453.95 1397.17 455.215C1394.88 455.865 1392.66 456.651 1390.51 457.643C1388.66 458.498 1386.81 459.524 1385.27 460.892C1384.97 461.166 1384.69 461.439 1384.42 461.747C1384.01 462.226 1383.91 462.192 1384.49 462.465C1385.48 462.944 1386.71 463.081 1387.77 463.183C1390.54 463.423 1393.38 463.115 1396.11 462.602C1398.51 462.123 1400.87 461.474 1403.19 460.824C1405.42 460.208 1407.71 459.695 1409.9 458.909C1410 458.874 1411.54 458.396 1411.54 458.259C1411.54 458.259 1408.87 458.874 1408.8 458.874C1405.72 459.661 1402.54 460.379 1399.53 461.439C1397.93 461.986 1396.42 462.807 1394.92 463.594C1394.17 463.97 1393.45 464.38 1392.66 464.722C1392.42 464.825 1392.15 464.962 1391.91 465.064C1386.98 467.116 1403.3 462.602 1398.68 463.286C1397 463.525 1395.33 464.141 1393.72 464.551C1392.11 464.996 1390.44 465.68 1388.76 465.919C1390.61 465.646 1392.46 465.064 1394.27 464.586C1396.46 464.004 1398.71 463.491 1400.87 462.739C1403.06 461.986 1405.01 460.755 1407.09 459.729C1407.67 459.456 1408.26 459.216 1408.84 458.977C1411.74 457.78 1403.23 460.242 1400.97 461.166C1400.56 461.337 1400.12 461.474 1399.71 461.645C1398.34 462.089 1396.32 462.568 1402.99 460.79C1406.89 459.798 1408.02 459.49 1406.37 459.866C1406.17 459.9 1405.96 459.969 1405.72 460.003C1403.6 460.413 1401.42 460.653 1399.23 460.619C1398.3 460.619 1397.38 460.55 1396.49 460.413C1396.05 460.345 1394.2 460.14 1393.99 459.695C1393.69 459.114 1396.46 457.267 1397 456.925C1398.51 455.933 1400.12 455.147 1401.79 454.463C1402.75 454.052 1403.74 453.71 1404.73 453.368C1405.14 453.231 1405.52 453.129 1405.93 452.992C1407.5 452.479 1396.35 455.42 1399.26 454.77C1399.53 454.702 1399.84 454.634 1400.12 454.599C1403.47 453.915 1407.26 453.368 1410.62 454.326C1411.33 454.531 1411.61 454.565 1411.09 455.215C1410.68 455.762 1410.14 456.173 1409.59 456.549C1408.15 457.506 1406.48 458.156 1404.84 458.703C1401.59 459.764 1415.1 456.173 1411.23 456.959C1410.79 457.062 1410.34 457.13 1409.9 457.199C1409.08 457.301 1408.26 457.404 1407.43 457.404C1406.92 457.404 1406.2 457.438 1405.72 457.233C1405.31 457.028 1405.45 457.164 1405.72 456.857C1406 456.549 1406.44 456.344 1406.79 456.104C1408.39 455.112 1410.17 454.326 1411.91 453.642C1412.43 453.437 1412.94 453.266 1413.45 453.095C1417.63 451.693 1406.31 454.941 1406.92 454.805C1407.81 454.634 1408.7 454.428 1409.59 454.394C1409.73 454.394 1409.93 454.36 1410.07 454.394C1410.48 454.497 1410.44 454.223 1410.34 454.668C1410.24 455.01 1409.73 455.454 1409.45 455.694C1408.73 456.412 1407.88 456.993 1406.99 457.472C1405.93 458.054 1404.8 458.498 1403.64 458.874C1399.71 460.174 1412.98 456.549 1409.52 457.301C1409.01 457.404 1408.46 457.541 1407.95 457.643C1406.85 457.883 1405.76 458.088 1404.66 458.293C1404.25 458.361 1403.78 458.532 1403.37 458.567C1402.99 458.567 1402.85 458.909 1403.19 458.361C1403.37 458.088 1403.78 457.848 1404.01 457.643C1406.31 455.865 1409.11 455.078 1411.85 454.292C1408.6 455.147 1405.35 456.036 1402.1 456.891C1400.32 458.054 1398.47 459.114 1396.59 460.106C1396.94 459.935 1397.76 459.832 1398.06 459.764C1399.23 459.456 1400.39 459.148 1401.59 458.84C1403.23 458.396 1405.18 458.19 1406.61 457.438Z" fill="#9810FA"/>
</svg>
