<svg width="247" height="148" viewBox="0 0 247 148" fill="none" xmlns="http://www.w3.org/2000/svg">
<path d="M120.208 70.8633C120.615 70.7597 121.06 70.6921 121.467 70.7695C121.912 70.8562 122.25 71.0497 122.487 71.3242C122.722 71.5963 122.843 71.9299 122.891 72.2744C122.984 72.9556 122.796 73.7245 122.56 74.3076C122.028 75.6163 121.191 76.8323 120.282 77.8838L120.283 77.8848C120.21 77.9712 120.105 78.0158 120.033 78.041C119.953 78.0693 119.864 78.0896 119.783 78.1055C119.704 78.1212 119.617 78.1359 119.553 78.1475C119.481 78.1604 119.436 78.1691 119.413 78.1768L119.404 78.1807L119.396 78.1826C119.346 78.1949 119.274 78.2064 119.208 78.2168C119.137 78.2281 119.06 78.2399 118.985 78.2539C118.91 78.2681 118.844 78.2833 118.795 78.2988C118.771 78.3066 118.755 78.3127 118.748 78.3164C118.753 78.3133 118.76 78.3055 118.771 78.2939L118.393 77.9678C118.394 77.9665 118.394 77.9651 118.396 77.9639C118.948 77.3263 120.073 75.811 120.632 74.3994C120.914 73.6871 121.032 73.0477 120.908 72.5713C120.848 72.3408 120.731 72.147 120.541 71.9941C120.398 71.8793 120.207 71.7814 119.953 71.7119C119.951 71.7136 119.949 71.7151 119.946 71.7168L119.943 71.7188C119.655 71.9278 119.387 72.1834 119.134 72.4561C118.878 72.731 118.641 73.0233 118.411 73.3242L117.731 74.2471C116.562 75.8643 115.576 77.6094 114.723 79.418L114.364 80.1973C113.555 81.9986 113.064 83.7909 113.1 85.7539L113.114 86.2607C113.163 87.4531 113.327 88.6959 113.955 89.6357L114.097 89.8271C114.443 90.2491 114.902 90.4992 115.469 90.5811C115.7 90.6146 115.937 90.6248 116.177 90.6152L116.366 90.5918C116.446 90.5801 116.54 90.5659 116.607 90.5576C116.614 90.5568 116.621 90.5564 116.628 90.5557C116.743 90.5137 116.846 90.4768 116.89 90.459C117.107 90.3634 117.315 90.2631 117.524 90.1562C119.233 89.2695 120.734 87.9871 121.884 86.4414C122.028 86.2474 122.165 86.0493 122.299 85.8486C122.451 84.577 122.64 83.3087 122.893 82.0508C123.168 80.6752 123.597 79.306 123.917 77.9746C124.017 77.5519 124.124 77.0168 124.325 76.5449C124.504 76.1267 124.768 75.7277 125.195 75.4775L125.389 75.3799C125.489 75.3351 125.857 75.2109 126.196 75.1104C126.373 75.0581 126.553 75.009 126.695 74.9785C126.765 74.9636 126.835 74.9509 126.894 74.9463C126.922 74.9441 126.959 74.9425 126.997 74.9473C127.013 74.9493 127.071 74.9571 127.129 74.9961L127.186 75.0469L127.256 75.1426C127.405 75.3707 127.446 75.6272 127.45 75.8613C127.454 76.1189 127.41 76.4002 127.392 76.5986C127.329 77.27 127.262 77.9498 127.118 78.627C126.85 79.9056 126.44 81.155 125.959 82.3584C125.508 83.4879 124.956 84.5905 124.284 85.6152C123.934 88.5226 123.773 91.4579 123.595 94.3887C123.184 101.119 122.478 107.762 121.173 114.386C119.968 120.506 118.389 126.562 115.103 131.98C113.553 134.537 111.709 136.983 109.592 139.107C107.694 141.008 105.431 142.487 102.99 143.588C98.2488 145.726 93.0052 146.636 88.0039 147.718L87.8975 147.229C88.0654 147.193 88.3026 147.123 88.5674 147.045C88.8254 146.969 89.1062 146.888 89.3448 146.837L91.5118 146.37C96.5661 145.28 101.571 144.083 105.719 140.913C107.86 139.275 109.644 137.173 111.241 134.995C112.901 132.735 114.325 130.301 115.453 127.74C117.872 122.248 119.005 116.193 119.985 110.275C121.026 104.006 121.368 97.7055 121.81 91.3535C121.882 90.3223 121.958 89.2876 122.05 88.2529C121.942 88.3501 121.833 88.4465 121.721 88.54C120.093 89.9075 118.309 90.7067 116.284 91.2305C115.462 91.4432 114.574 91.5692 113.773 91.4092C112.958 91.246 112.241 90.7865 111.789 89.8633C111.095 88.4536 111.063 86.7585 111.1 85.293C111.164 82.7837 112.308 80.4507 113.399 78.3174C114.396 76.3683 115.59 74.4324 117.039 72.7588L117.245 72.5254C117.74 71.9837 118.33 71.4673 119.075 71.2217C119.393 71.1171 119.801 70.9669 120.208 70.8633ZM123.683 86.4688C123.349 86.9073 122.988 87.3251 122.601 87.7207C122.558 88.1678 122.519 88.6155 122.482 89.0635L122.308 91.3887C121.867 97.7288 121.524 104.059 120.479 110.357C119.498 116.274 118.359 122.385 115.911 127.941C114.91 130.213 113.681 132.385 112.264 134.425L111.645 135.291C110.036 137.485 108.219 139.631 106.022 141.311C105.864 141.432 105.705 141.55 105.544 141.665C106.88 140.836 108.125 139.869 109.237 138.755C111.322 136.663 113.143 134.25 114.675 131.722L114.974 131.219C118.012 126.006 119.518 120.205 120.683 114.289C121.982 107.694 122.686 101.075 123.096 94.3584C123.255 91.7388 123.4 89.0968 123.683 86.4688ZM15.6739 86.4941C16.7355 86.2075 17.897 85.8745 19.085 86.2002C20.4939 86.5885 21.478 87.7496 22.0899 88.9473C22.7417 90.2191 23.0445 91.5953 23.2188 92.9805C23.3909 94.3485 23.4416 95.7833 23.5684 97.1006L23.5674 97.166C23.5588 97.2263 23.5303 97.2708 23.5108 97.2949C23.4849 97.3269 23.4564 97.3471 23.4405 97.3574C23.4075 97.3787 23.372 97.3937 23.3467 97.4033C23.2924 97.4239 23.2219 97.4435 23.1495 97.4619C23.002 97.4995 22.8075 97.5402 22.6192 97.5791C22.4276 97.6186 22.2423 97.6566 22.1036 97.6885C22.0334 97.7046 21.9811 97.7176 21.9493 97.7275C21.9433 97.7294 21.9391 97.7305 21.9366 97.7314C21.9392 97.7302 21.9554 97.7222 21.9746 97.7061C21.9816 97.7002 22.0261 97.6637 22.0479 97.5977L22.0596 97.5215L21.5606 97.5449C21.4232 96.0901 21.3845 94.6154 21.1807 93.1514C20.9913 91.7909 20.6636 90.4845 20.001 89.3154L19.8643 89.084C19.1927 87.9988 18.2163 87.1618 16.9854 86.9902L16.7354 86.9648C16.4797 86.9487 16.2243 86.9566 15.9717 86.9873C15.8144 87.0512 15.6619 87.1149 15.5137 87.1846L15.5127 87.1836C14.8477 87.4999 14.2218 87.9032 13.6446 88.3672L13.6436 88.3682C11.4646 90.1066 9.78701 92.5542 8.30961 94.9346C6.73645 97.4622 5.43175 100.155 4.43656 102.959C3.71067 104.998 3.16864 107.097 2.75394 109.225L2.58402 110.139C2.207 112.227 1.96069 114.339 2.00687 116.445C2.09927 120.587 3.56949 124.598 7.45707 126.437C10.2362 127.75 13.2007 127.988 16.2051 127.741C19.2149 127.494 22.2403 126.764 25.1514 126.154L25.2559 126.644C25.0881 126.68 24.8515 126.75 24.587 126.827C24.3286 126.903 24.0465 126.985 23.8077 127.036C20.4384 127.741 17.0209 128.591 13.5225 128.716C10.2845 128.83 6.69375 128.276 4.00297 126.247C0.324241 123.467 -0.231578 118.591 0.0703504 114.428C0.451379 109.224 1.8446 104 4.07816 99.29C5.42433 96.4524 7.08436 93.7435 9.03715 91.2783C10.7175 89.1587 12.6467 87.4186 15.2881 86.6074C15.3037 86.5989 15.3153 86.5936 15.3174 86.5928C15.3335 86.5862 15.3509 86.581 15.3633 86.5771C15.4148 86.5614 15.519 86.5331 15.6739 86.4941ZM13.1768 88.1055C11.7438 88.9806 10.5404 90.1877 9.42973 91.5889C7.50178 94.0227 5.86126 96.6984 4.53031 99.5039C2.32279 104.158 0.945854 109.322 0.569374 114.464C0.269489 118.599 0.844289 123.233 4.30375 125.848C6.49741 127.502 9.34966 128.141 12.125 128.22C10.654 128.064 9.2005 127.728 7.78617 127.132L7.2432 126.889C3.10964 124.934 1.60126 120.687 1.50687 116.456C1.45972 114.304 1.71139 112.157 2.09183 110.05C2.52945 107.59 3.12398 105.153 3.96488 102.791C4.97235 99.9522 6.29318 97.2283 7.8848 94.6709L8.45121 93.7725C9.76582 91.7255 11.2801 89.6635 13.1768 88.1055ZM34.7491 94.1006C36.915 93.5394 39.2242 93.8358 40.96 95.3633L41.127 95.5156L41.295 95.6816C42.8769 97.3131 43.3117 99.7133 43.2823 101.865L43.2696 102.307C43.1645 104.808 42.5657 107.361 41.5518 109.653C40.5571 111.897 39.1091 113.9 37.2823 115.541C36.4754 116.266 35.5477 116.971 34.4717 117.334C33.6814 117.6 32.7191 117.925 31.8174 117.941C30.6681 117.964 29.8115 117.435 29.2276 116.665C28.7219 115.998 28.4197 115.151 28.2891 114.315L28.2432 113.959C28.0098 111.649 28.5521 109.254 29.2188 107.101L29.5303 106.14C30.2908 103.893 31.2833 101.636 32.502 99.6191C33.0293 98.749 33.7209 97.7556 34.8399 97.4258C35.2146 97.315 35.5647 97.213 35.9141 97.1455C35.9922 97.1245 36.0704 97.1038 36.1485 97.083L36.1563 97.1074C36.6573 97.0351 37.1676 97.0413 37.7569 97.2021L37.626 97.6846C37.6431 97.6892 37.6341 97.6824 37.5791 97.6943C37.5317 97.7047 37.4731 97.7235 37.4063 97.748C37.3394 97.7727 37.2734 97.8001 37.208 97.8262C37.149 97.8497 37.0796 97.8767 37.0235 97.8916L37.0186 97.8936C36.9914 97.9001 36.9465 97.9151 36.8789 97.9395C36.8169 97.9618 36.7394 97.9902 36.6631 98.0156C36.5868 98.0411 36.5012 98.0664 36.42 98.082C36.346 98.0962 36.2415 98.1101 36.1416 98.083C35.9599 98.0351 35.7862 97.9912 35.6202 97.958C35.4127 98.1297 35.2211 98.3376 35.0411 98.5674C34.6795 99.0287 34.3838 99.5618 34.1241 100.043C33.6608 100.897 33.2345 101.781 32.8321 102.674L32.4366 103.568C31.4254 105.922 30.6256 108.378 30.3233 110.909C30.1423 112.408 30.0947 114.03 30.7354 115.355C31.0354 115.977 31.5056 116.479 32.1221 116.772C32.4727 116.937 32.8466 117.025 33.2305 117.034H33.2325C33.2856 117.023 33.3442 117.015 33.4082 117.01C33.4194 117.005 33.4305 116.999 33.4414 116.994C33.5413 116.947 33.6355 116.903 33.7266 116.853C35.3369 115.947 36.7378 114.459 37.8262 112.95C39.0576 111.25 39.9584 109.309 40.5166 107.284C41.0087 105.496 41.415 103.31 41.2959 101.248C41.1769 99.1868 40.5359 97.2816 38.9659 96.0039C38.3109 95.4702 37.5392 95.0933 36.7217 94.8848C36.3086 94.7807 35.8852 94.7209 35.462 94.7061C35.2771 94.6991 35.0858 94.7212 34.8731 94.7461C34.711 94.7651 34.5343 94.7852 34.3555 94.7891C34.2605 94.8273 34.1639 94.8671 34.0645 94.9102C33.8687 95.0002 33.6837 95.0962 33.4981 95.2012L33.4971 95.2002C33.1439 95.4035 32.8079 95.6426 32.4844 95.9043L32.4854 95.9053C31.7684 96.4937 31.1534 97.1967 30.5479 97.9287L30.542 97.9346C30.4688 98.0174 30.3656 98.0612 30.295 98.0859C30.2152 98.1139 30.1261 98.1344 30.045 98.1504C29.9631 98.1666 29.8801 98.1804 29.8125 98.1914L29.6651 98.2178C29.6158 98.2305 29.5428 98.2426 29.4776 98.2529C29.4059 98.2643 29.3286 98.276 29.253 98.29C29.1763 98.3043 29.1096 98.3194 29.0606 98.335C29.0365 98.3426 29.0222 98.3483 29.0157 98.3516C29.0206 98.3483 29.0302 98.3394 29.042 98.3252L28.6563 98.0098L28.6573 98.0078C29.4524 97.045 30.3199 96.0672 31.419 95.3623L31.6153 95.2412C32.6037 94.6586 33.689 94.3754 34.7491 94.1006ZM34.8741 97.9443L34.8731 97.9414C34.1295 98.2031 33.595 98.8379 33.1329 99.5527L32.9297 99.8779C31.5623 102.141 30.4803 104.721 29.6963 107.249C29.0349 109.385 28.5182 111.702 28.7412 113.909L28.7832 114.241C28.9043 115.014 29.1818 115.778 29.626 116.363C30.1276 117.025 30.8405 117.46 31.8077 117.441C31.9847 117.438 32.166 117.419 32.3487 117.393C32.1993 117.347 32.0521 117.293 31.9092 117.226L31.9082 117.225C31.176 116.877 30.6285 116.284 30.2852 115.572C29.5772 114.107 29.644 112.358 29.8262 110.85C30.1362 108.255 30.9552 105.75 31.9776 103.37L32.376 102.468C32.7819 101.567 33.2131 100.672 33.6836 99.8047C33.9427 99.3247 34.2568 98.7573 34.6475 98.2588C34.7349 98.1473 34.8269 98.0382 34.9239 97.9336C34.9073 97.9371 34.8905 97.9401 34.8741 97.9443ZM36.5821 94.3408L36.8448 94.4004L37.1739 94.4932C37.9363 94.7304 38.6559 95.1066 39.2813 95.6162C41.0006 97.0154 41.6714 99.0799 41.795 101.219C41.9185 103.357 41.498 105.603 40.9991 107.417C40.4263 109.495 39.5005 111.491 38.2315 113.243C37.4055 114.388 36.3899 115.538 35.2256 116.445C35.8413 116.101 36.4131 115.651 36.9483 115.17C38.722 113.576 40.1283 111.63 41.0948 109.45C42.0833 107.215 42.6671 104.725 42.7696 102.286C42.8672 99.9977 42.4553 97.4655 40.7823 95.8779C39.6132 94.7717 38.1237 94.3007 36.5821 94.3408ZM65.2461 84.4717C65.3366 84.4588 65.4638 84.4509 65.5791 84.499C65.5808 84.4997 65.5833 84.5003 65.585 84.501C65.7539 84.5721 65.8363 84.7282 65.8789 84.8486C65.9244 84.977 65.9454 85.1248 65.9551 85.2607C65.9747 85.5348 65.9518 85.8231 65.9414 85.9541V85.9561C65.9033 86.3962 65.8058 86.8266 65.6954 87.2354C65.577 87.6726 65.4385 88.1051 65.3057 88.5303C65.2389 88.744 65.1733 88.9564 65.1114 89.1689L64.9395 89.8076C64.3628 92.1941 63.6196 94.4911 63.3106 96.8867C63.2116 97.6702 63.0993 98.6065 63.1836 99.4805C63.2681 100.354 63.5448 101.122 64.1846 101.612L64.3164 101.706C64.9871 102.151 65.8786 102.254 66.7364 102.273C67.3263 102.289 67.9127 102.243 68.4952 102.147C68.549 102.139 68.6336 102.12 68.7198 102.102C68.8584 102.05 68.9954 101.999 69.1309 101.947L69.6309 101.746C69.8963 101.63 70.1832 101.575 70.4366 101.526C70.701 101.476 70.931 101.431 71.1348 101.343L71.2334 101.572L71.333 101.802C69.5549 102.575 67.4242 103.172 65.4541 103.172C64.6758 103.172 63.8349 103.089 63.1084 102.789C62.4192 102.505 61.8299 102.022 61.503 101.238L61.4414 101.077C61.1241 100.181 61.0822 99.1915 61.1602 98.2236C61.2382 97.2556 61.4374 96.2899 61.6133 95.4395C61.9868 93.6338 62.4362 91.8042 62.9473 90.0234L63.17 89.2637C63.2361 89.036 63.5355 88.0942 63.7422 87.1631C63.5747 87.4315 63.4106 87.7017 63.253 87.9766C62.8428 88.6908 62.4558 89.4163 62.0694 90.1455C61.8764 90.5095 61.6834 90.8746 61.4883 91.2393L60.8936 92.3301C59.516 94.8062 58.1744 97.3038 56.7139 99.7422L56.7129 99.7412C56.4859 100.125 56.224 100.59 55.9082 101.004C55.592 101.419 55.2056 101.806 54.7188 102.026L54.7198 102.027C54.2891 102.225 53.7695 102.314 53.3721 102.419L53.3702 102.42C53.2626 102.447 53.1535 102.475 53.0557 102.489C52.957 102.504 52.8445 102.511 52.7315 102.477C52.4846 102.402 52.3558 102.181 52.2588 101.918C52.0485 101.342 52.1425 100.676 52.1817 100.179C52.2047 99.8682 52.2188 99.5556 52.2325 99.2393C52.246 98.9238 52.2593 98.6038 52.2803 98.2852C52.3022 97.9716 52.3268 97.6555 52.3516 97.3398C52.3495 97.3532 52.3479 97.3666 52.3457 97.3799C52.0076 99.4475 51.5908 101.514 51.0274 103.541C50.4642 105.567 49.8463 107.546 49.4336 109.581L49.4327 109.58C49.4029 109.729 49.2822 109.802 49.2246 109.831C49.1546 109.866 49.0725 109.89 48.9961 109.907C48.841 109.943 48.6447 109.967 48.4659 109.988C48.2787 110.011 48.1092 110.03 47.9825 110.056C47.9182 110.069 47.8803 110.081 47.8623 110.089C47.8251 110.106 47.9054 110.084 47.9278 109.982L47.4385 109.88C47.8559 107.817 48.4835 105.806 49.0411 103.806C49.6032 101.802 50.0114 99.7597 50.3477 97.6982C50.6887 95.5883 50.9761 93.452 51.3975 91.3428L51.5528 90.6084C51.6062 90.3647 51.6605 90.1219 51.7149 89.8799C51.8239 89.395 51.9324 88.9129 52.0303 88.4277L52.1455 87.8848C52.262 87.3963 52.4381 86.8925 52.8155 86.4912L52.7325 86.376L53.0411 86.293C53.0551 86.2851 53.0665 86.2771 53.0743 86.2734C53.0973 86.2627 53.1232 86.2522 53.1495 86.2422C53.2026 86.2218 53.2694 86.1993 53.3428 86.1758C53.4902 86.1286 53.6754 86.0745 53.8575 86.0254C54.0394 85.9763 54.2224 85.9306 54.3633 85.9004C54.4328 85.8855 54.4978 85.8739 54.5489 85.8672C54.5731 85.864 54.6028 85.8601 54.6319 85.8604C54.6456 85.8605 54.6702 85.862 54.6983 85.8682C54.7124 85.8713 54.798 85.8885 54.8565 85.9717C55.1768 86.413 55.2499 86.9499 55.2364 87.457C55.2228 87.9628 55.12 88.4835 55.0547 88.8936C54.865 90.0734 54.8037 91.2784 54.7149 92.4902C54.517 95.1353 54.2481 97.7538 54.1446 100.384C54.1373 100.548 54.1481 100.695 54.168 100.839C54.4198 100.484 54.647 100.101 54.878 99.7139L55.7696 98.1895C56.6528 96.6607 57.5109 95.1202 58.3545 93.5674C59.515 91.4303 60.6092 89.1954 61.917 87.1143L62.2168 86.6064C62.3225 86.4234 62.436 86.2291 62.5577 86.04C62.798 85.6665 63.0867 85.2879 63.4483 85.0488C63.6208 84.9344 63.8153 84.8665 63.9942 84.8174C64.0843 84.7926 64.1745 84.7713 64.2588 84.752C64.3448 84.7322 64.4236 84.7148 64.4981 84.6953H64.5C64.5313 84.6873 64.5857 84.6679 64.67 84.6377C64.7483 84.6096 64.8441 84.5752 64.9414 84.5449C65.0379 84.5149 65.1449 84.4861 65.2461 84.4717ZM53.0909 86.9346C52.7584 87.3514 52.6458 87.9068 52.5205 88.5264C52.4213 89.0178 52.312 89.5053 52.2032 89.9893C52.0941 90.4742 51.9857 90.9562 51.8877 91.4414C51.6783 92.4898 51.5022 93.5418 51.336 94.5977L50.8418 97.7783C50.5037 99.8509 50.0913 101.912 49.5225 103.939C48.9996 105.815 48.4307 107.656 48.0215 109.543C48.1444 109.524 48.2805 109.506 48.4073 109.491C48.5927 109.469 48.7608 109.448 48.8848 109.42C48.9176 109.412 48.9418 109.402 48.961 109.396C49.3783 107.367 49.9962 105.385 50.5459 103.407C51.1031 101.403 51.5163 99.3558 51.8526 97.2998C52.1646 95.3694 52.4319 93.417 52.7979 91.4834C52.8514 90.7758 52.9208 90.0665 53.0303 89.3682C53.1031 88.909 53.208 88.4122 53.2286 87.9199C53.2439 87.5526 53.2092 87.2178 53.0909 86.9346ZM65.3916 84.9824C65.1991 85.0679 65.0329 85.2179 64.877 85.4121C64.7128 85.6167 64.5763 85.8472 64.4307 86.0781C64.4288 86.0811 64.4267 86.0849 64.4248 86.0879C64.4001 86.3855 64.3475 86.7188 64.2793 87.0498C64.0686 88.0737 63.7145 89.1803 63.6495 89.4043V89.4072C63.0498 91.4102 62.5276 93.4911 62.1036 95.541C61.9267 96.3957 61.7343 97.3315 61.6592 98.2637C61.5841 99.1961 61.6278 100.107 61.9121 100.91C62.167 101.632 62.6696 102.067 63.2989 102.327C63.9369 102.591 64.702 102.672 65.4541 102.672C65.4805 102.672 65.5068 102.67 65.5332 102.67C65.0098 102.581 64.4883 102.421 64.0371 102.121L63.8799 102.009C63.083 101.398 62.7763 100.468 62.6856 99.5293C62.595 98.5911 62.7163 97.5992 62.8145 96.8223C63.1281 94.3913 63.8885 92.0263 64.4532 89.6895L64.5391 89.3574C64.6286 89.027 64.7289 88.7018 64.8291 88.3809C64.9635 87.9508 65.0978 87.5301 65.2129 87.1045C65.3203 86.7072 65.4089 86.3101 65.4434 85.9131C65.4539 85.7799 65.4727 85.5269 65.4561 85.2959C65.4477 85.1791 65.431 85.0828 65.4073 85.0156C65.4022 85.0015 65.3957 84.991 65.3916 84.9824ZM54.5996 86.5332C54.2636 86.9531 54.151 87.5079 54.0254 88.1289C53.9262 88.6204 53.8169 89.1078 53.708 89.5918C53.599 90.0767 53.4905 90.5588 53.3926 91.0439C53.3593 91.2109 53.3267 91.3778 53.295 91.5449C53.2427 92.2416 53.2044 92.9438 53.1524 93.6484C53.0369 95.2221 52.889 96.7479 52.7793 98.3184C52.7588 98.63 52.7461 98.9434 52.7325 99.2607C52.7189 99.577 52.7044 99.8973 52.6807 100.217C52.6369 100.773 52.5658 101.297 52.7286 101.744L52.7891 101.887C52.8427 101.992 52.8745 101.997 52.876 101.997C52.884 101.999 52.8998 102.001 52.9307 101.999C52.9527 101.99 52.9873 101.976 53.0371 101.957H53.0352C53.0561 101.947 53.0767 101.939 53.0938 101.93C53.1159 101.918 53.1251 101.911 53.125 101.911L53.126 101.909C53.3039 101.767 53.4305 101.687 53.5655 101.558C53.6325 101.493 53.6962 101.425 53.7588 101.355C53.6833 101.048 53.6278 100.742 53.6446 100.362C53.7486 97.7216 54.0194 95.0788 54.2159 92.4531C54.3035 91.2571 54.3664 90.0218 54.5606 88.8145C54.6302 88.3773 54.724 87.9061 54.7364 87.4434C54.7454 87.1058 54.7091 86.7972 54.5996 86.5332ZM63.8692 85.3887C63.8167 85.4118 63.7683 85.4369 63.7246 85.4658C63.4533 85.6453 63.2094 85.9503 62.9776 86.3105C62.8633 86.4883 62.7551 86.6734 62.6495 86.8564C62.5449 87.0375 62.4417 87.2194 62.3399 87.3809L62.3389 87.3799C61.0422 89.4433 59.9682 91.6432 58.794 93.8057C57.667 95.88 56.5133 97.9345 55.3077 99.9688C55.0117 100.465 54.699 101.003 54.3077 101.483L54.3282 101.562L54.3291 101.563L54.3301 101.568C54.3336 101.569 54.3424 101.572 54.3526 101.575C54.3579 101.577 54.3874 101.588 54.419 101.611C54.4497 101.599 54.4807 101.587 54.5108 101.573L54.5127 101.572C54.8918 101.4 55.2167 101.086 55.5098 100.701C55.8035 100.316 56.0496 99.8828 56.2842 99.4863C57.7394 97.0568 59.0746 94.5717 60.4571 92.0869L61.0469 91.0039C61.241 90.641 61.4334 90.2765 61.627 89.9111C62.0135 89.1818 62.4046 88.4499 62.8194 87.7275L63.1084 87.2393C63.3797 86.7925 63.662 86.3552 63.9375 85.9219C63.9421 85.8315 63.9426 85.748 63.9385 85.6729C63.9297 85.5114 63.9014 85.4266 63.8789 85.3926C63.8776 85.3905 63.876 85.3889 63.875 85.3877C63.8734 85.3877 63.8715 85.3885 63.8692 85.3887ZM77.4473 83.5957C77.439 83.6019 77.3736 83.6511 77.3662 83.751L77.8653 83.7832C77.6982 86.7379 77.1711 89.6423 76.5528 92.5146C76.3995 93.2261 76.2403 93.9375 76.0821 94.6484C75.9238 95.3597 75.7661 96.0711 75.6133 96.7832C75.4575 97.5178 75.2962 98.2527 75.1299 98.9824C75.0985 99.1175 75.0518 99.2614 75.0088 99.3945C74.9645 99.5317 74.923 99.6629 74.8926 99.791C74.8619 99.9207 74.846 100.034 74.8487 100.134C74.8765 100.122 74.9046 100.112 74.9297 100.097C74.9314 100.096 74.933 100.095 74.9346 100.094L75.1856 100.526C75.1839 100.527 75.1814 100.527 75.1797 100.528L75.1807 100.529C75.0655 100.594 74.9491 100.665 74.8291 100.737L74.8282 100.736C74.7857 100.762 74.7264 100.785 74.6866 100.799C74.6339 100.818 74.5678 100.839 74.4942 100.862C74.3463 100.908 74.1609 100.961 73.9795 101.011C73.7985 101.06 73.6179 101.107 73.4795 101.138C73.4114 101.153 73.3488 101.165 73.2998 101.173C73.2767 101.176 73.2476 101.18 73.2198 101.181C73.2072 101.181 73.182 101.18 73.1534 101.175C73.1389 101.172 73.114 101.166 73.086 101.152C73.0584 101.139 73.01 101.109 72.9766 101.049C72.7884 100.714 72.832 100.33 72.9082 100.014C72.9475 99.8508 72.9999 99.6892 73.0469 99.5439C73.0953 99.3945 73.1371 99.2649 73.1641 99.1494C73.3297 98.4224 73.4843 97.6918 73.6455 96.9561L74.1045 94.8799C74.2579 94.19 74.4106 93.5007 74.5586 92.8076C75.1751 89.9438 75.6964 87.0631 75.8614 84.1523C75.8675 84.0494 75.9263 83.982 75.9629 83.9492C76.0006 83.9156 76.0419 83.8934 76.0733 83.8789C76.1374 83.8493 76.2155 83.8267 76.2901 83.8086C76.4424 83.7716 76.6398 83.7393 76.8243 83.71C77.0146 83.6797 77.1921 83.6515 77.3243 83.623C77.3917 83.6085 77.435 83.5966 77.4571 83.5879C77.469 83.5832 77.4619 83.5848 77.4473 83.5957ZM76.9024 84.2031C76.7136 84.2332 76.5373 84.2626 76.4082 84.2939C76.3866 84.2992 76.3678 84.3059 76.3516 84.3105C76.1988 86.8472 75.7832 89.3538 75.2745 91.833L75.0479 92.9121C74.7525 94.2954 74.4344 95.6835 74.1348 97.0625C73.9745 97.7941 73.8177 98.5318 73.6514 99.2617C73.6187 99.4018 73.5689 99.5539 73.5225 99.6973C73.4747 99.8451 73.4286 99.9895 73.3946 100.131C73.3562 100.29 73.3385 100.428 73.3448 100.547C73.3704 100.531 73.3969 100.517 73.4229 100.501L73.4239 100.5C73.6912 100.34 74.0163 100.299 74.2735 100.264C74.3019 100.26 74.3294 100.255 74.3565 100.251C74.3344 100.051 74.3633 99.8518 74.4053 99.6748C74.441 99.5241 74.4898 99.3748 74.5332 99.2402C74.5781 99.1015 74.6169 98.9805 74.6426 98.8701C74.8083 98.1431 74.9687 97.4101 75.1241 96.6777C75.2773 95.9636 75.4366 95.2511 75.5948 94.54C75.753 93.8287 75.9107 93.1187 76.0635 92.4092C76.6538 89.667 77.1554 86.9155 77.3418 84.127C77.208 84.1525 77.0512 84.1794 76.9024 84.2031ZM98.0049 75.2461C98.1524 75.2182 98.3277 75.2041 98.5059 75.2559H98.5079C98.8176 75.3483 99.021 75.562 99.1465 75.8174C99.2688 76.0662 99.3207 76.3604 99.3379 76.6455C99.3722 77.2157 99.2708 77.8288 99.2168 78.1562C98.9975 79.4569 98.6784 80.756 98.3946 82.0254C98.0994 83.3355 97.8067 84.6576 97.42 85.959C97.0313 87.2668 96.5971 88.5281 96.25 89.8281C96.0743 90.4884 95.8061 91.3251 95.7032 92.1553C95.6063 92.9366 95.6657 93.6442 96.0362 94.1533L96.1153 94.2529L96.2286 94.3711C96.5052 94.6308 96.8709 94.7758 97.2842 94.8447C97.7576 94.9237 98.2715 94.8994 98.7354 94.8486H98.7383C98.911 94.8312 99.0829 94.8072 99.2549 94.7783L99.7725 94.6777C99.8246 94.6637 99.8835 94.6479 99.9414 94.6367C99.9751 94.6235 100.01 94.6105 100.041 94.6006H100.043C100.732 94.3856 101.416 94.139 102.092 93.877L103.432 93.3379C103.884 93.1554 104.342 92.9776 104.801 92.8242L105.186 92.7129C105.319 92.6783 105.456 92.646 105.586 92.6152C105.854 92.5519 106.09 92.4962 106.253 92.4414H106.255L106.317 92.6318L106.412 92.916C106.41 92.9166 106.408 92.9164 106.406 92.917C105.835 93.1051 105.273 93.3287 104.705 93.5586C104.138 93.7881 103.565 94.0251 102.983 94.2363C101.47 94.7875 99.896 95.2568 98.3096 95.5801C97.7942 95.6838 97.2024 95.7902 96.6123 95.8057C96.096 95.8192 95.5664 95.7635 95.0801 95.5684L94.8741 95.4756C94.2168 95.1467 93.9034 94.5928 93.7803 93.9922C93.6595 93.4023 93.7181 92.7557 93.8047 92.2012C94.0178 90.8542 94.3967 89.5496 94.7959 88.2646C95.1968 86.9747 95.6171 85.7083 95.9258 84.4141C96.2469 83.0627 96.5471 81.706 96.8321 80.3438C96.9574 79.7358 97.1168 79.1668 97.2256 78.5508C97.3316 77.9508 97.3758 77.3677 97.2676 76.8145L97.2666 76.8135C97.2258 76.5983 97.1755 76.472 97.1084 76.3789C97.0996 76.3667 97.0892 76.3556 97.0791 76.3438C96.5461 76.786 96.0811 77.3324 95.6563 77.9004L95.4483 78.1846C93.9674 80.2395 93.149 82.6251 92.2305 85.0215C91.2232 87.6486 90.1848 90.2603 89.1153 92.8564C88.6706 93.9321 88.2452 95.1631 87.7207 96.3018C87.204 97.4236 86.5718 98.5014 85.6807 99.3604L85.6729 99.4297L85.5743 99.4551C85.5183 99.4941 85.4561 99.5191 85.4141 99.5332C85.3505 99.5546 85.276 99.5737 85.1993 99.5908C85.0708 99.6194 84.9176 99.6447 84.7696 99.6709C84.7654 99.672 84.7611 99.6737 84.7569 99.6748C84.5068 99.7419 84.2565 99.8088 84.0049 99.876L83.8721 99.6377L83.6914 99.6152C83.7329 99.2687 83.8199 98.9389 83.9131 98.623C84.0083 98.3005 84.1067 98.0032 84.1856 97.6914C84.3556 97.0242 84.5047 96.3458 84.6553 95.668C84.9409 94.3956 85.2311 93.1215 85.4952 91.8477L85.6944 90.8555C86.1398 88.5369 86.4483 86.2017 86.4034 83.8516C86.4011 83.7237 86.486 83.6481 86.5137 83.626C86.5504 83.5969 86.591 83.5774 86.6192 83.5654C86.6784 83.5403 86.7523 83.5193 86.8252 83.501C86.9746 83.4634 87.1707 83.4257 87.3565 83.3906C87.5473 83.3546 87.7283 83.3203 87.8614 83.2881C87.9289 83.2717 87.9728 83.2584 87.9961 83.249C88.0093 83.2437 88.0028 83.2452 87.9883 83.2559C87.9867 83.257 87.9013 83.3167 87.9034 83.4375L88.4024 83.4229C88.4025 83.4248 88.4023 83.4268 88.4024 83.4287L88.4073 83.9424C88.4023 86.5078 88.0013 89.0443 87.4844 91.5361C87.3823 92.0253 87.2747 92.5131 87.168 93.001C87.2873 92.7104 87.4086 92.4207 87.5274 92.1299C88.699 89.264 89.834 86.3765 90.9278 83.4746C91.7867 81.1932 92.8278 78.9186 94.5264 77.0684L94.8975 76.6787C95.2903 76.2885 95.7496 75.9143 96.294 75.7109C96.6848 75.5649 97.1119 75.4701 97.4932 75.376C97.5363 75.3635 97.5748 75.3519 97.6065 75.3457C97.6095 75.3451 97.6134 75.3444 97.6172 75.3438C97.717 75.3175 97.8682 75.272 98.0049 75.2461ZM85.4493 98.1035C85.2316 98.4739 84.9909 98.8314 84.7149 99.168C84.8833 99.1228 85.0517 99.0774 85.2207 99.0322C85.2637 98.7662 85.3296 98.511 85.4014 98.2656C85.4175 98.2108 85.4332 98.1566 85.4493 98.1035ZM87.4493 83.8818C87.2591 83.9178 87.0792 83.9522 86.9473 83.9854C86.9316 83.9893 86.9175 83.9945 86.9043 83.998C86.9383 86.6854 86.5263 89.3416 85.9854 91.9492C85.8529 92.5886 85.7138 93.2279 85.5723 93.8662L85.1436 95.7773C84.9934 96.4531 84.8423 97.1393 84.67 97.8154C84.588 98.1391 84.4815 98.4634 84.3926 98.7646C84.3914 98.7689 84.39 98.7731 84.3887 98.7773C84.9797 98.0357 85.4106 97.1791 85.8008 96.2695C85.8929 96.0554 85.9811 95.8396 86.0723 95.625C86.0908 95.5412 86.1103 95.4569 86.1289 95.373C86.4248 94.0601 86.7206 92.7491 86.9952 91.4336C87.5197 88.9048 87.9165 86.3559 87.9053 83.7891C87.7689 83.8195 87.6055 83.8523 87.4493 83.8818ZM96.4688 76.1797C95.8667 76.4047 95.3621 76.8941 94.8955 77.4053C93.2636 79.1827 92.2497 81.3843 91.3965 83.6504C90.301 86.5569 89.1636 89.4482 87.9903 92.3184C87.5183 93.4743 87.0387 94.6299 86.5498 95.7812C86.4223 96.3589 86.2943 96.9447 86.1426 97.5225C86.0644 97.8185 85.9645 98.1236 85.8829 98.4023C86.4385 97.7205 86.8807 96.9306 87.2666 96.0928C87.7887 94.9593 88.1902 93.7864 88.6534 92.666L89.4483 90.7188C90.2376 88.7688 91.0094 86.8102 91.7637 84.8428C92.6715 82.4744 93.5147 80.0123 95.043 77.8916C95.4743 77.2918 95.962 76.6773 96.5342 76.1572C96.5126 76.1649 96.4903 76.1717 96.4688 76.1797ZM32.1963 95.4961C32.0867 95.5522 31.9771 95.6088 31.8702 95.6719L31.6885 95.7832C30.8754 96.3047 30.1902 96.9922 29.5469 97.7314C29.5998 97.7184 29.67 97.7074 29.7325 97.6973C29.803 97.6858 29.8767 97.6743 29.9483 97.6602C30.0205 97.6459 30.0823 97.6306 30.1289 97.6143C30.1536 97.6056 30.1668 97.5979 30.1729 97.5947C30.778 96.8638 31.4163 96.1355 32.168 95.5186L32.169 95.5176C32.178 95.5103 32.1873 95.5034 32.1963 95.4961ZM36.3467 97.585C36.3184 97.5882 36.2902 97.5928 36.2618 97.5967L36.2715 97.5996L36.2725 97.6006C36.2587 97.5969 36.2703 97.6025 36.3262 97.5918C36.333 97.5905 36.3395 97.5866 36.3467 97.585ZM18.9522 86.6826C18.481 86.5535 18.0126 86.542 17.5391 86.5957C18.7285 86.9219 19.6533 87.7939 20.2891 88.8213C21.0955 90.1315 21.4692 91.5978 21.6758 93.082C21.8658 94.447 21.9207 95.8722 22.0332 97.1914C22.1731 97.1601 22.3482 97.1248 22.5176 97.0898C22.7079 97.0506 22.8918 97.0118 23.0264 96.9775C23.0364 96.975 23.0456 96.9712 23.0547 96.9688C22.9354 95.6569 22.8877 94.3551 22.7227 93.043C22.5519 91.6853 22.2587 90.3732 21.6446 89.1748C21.0995 88.1079 20.2792 87.1454 19.1768 86.7529L18.9522 86.6826ZM98.0977 75.7373C98.016 75.7528 97.9424 75.7755 97.8594 75.7988C97.8579 75.8002 97.8569 75.8025 97.8555 75.8037C97.8333 75.8236 97.8065 75.8411 97.7813 75.8584L97.7823 75.8594C97.7006 75.9175 97.6169 75.9673 97.543 76.0117C97.5222 76.0242 97.502 76.0369 97.4825 76.0488C97.4926 76.0617 97.505 76.0735 97.5147 76.0869C97.6417 76.2634 97.7105 76.4697 97.7579 76.7188C97.8831 77.3592 97.8284 78.0117 97.7178 78.6377C97.6101 79.2476 97.4346 79.8959 97.3213 80.4453C97.0356 81.8114 96.7344 83.1739 96.4121 84.5303C96.0984 85.8456 95.6703 87.1351 95.2735 88.4121C94.9249 89.5339 94.5986 90.6505 94.3838 91.7891L94.2989 92.2783C94.2144 92.8192 94.1673 93.3926 94.2696 93.8916C94.3696 94.3798 94.6088 94.7836 95.0977 95.0283C95.5378 95.2486 96.054 95.3199 96.5987 95.3057C96.7143 95.3026 96.8303 95.293 96.9463 95.2832C96.4945 95.1715 96.0615 94.9605 95.7344 94.5771C95.1536 93.8977 95.0991 92.9651 95.2071 92.0938C95.3156 91.2187 95.5999 90.3267 95.7666 89.7002C96.1148 88.3961 96.5614 87.0931 96.9405 85.8174C97.3215 84.5351 97.611 83.2309 97.9073 81.916L98.3418 79.9951C98.4832 79.3555 98.6155 78.7158 98.7237 78.0742C98.7787 77.7402 98.8693 77.1812 98.8389 76.6758C98.8237 76.423 98.7792 76.2029 98.6983 76.0381C98.6205 75.8799 98.5136 75.7799 98.3643 75.7354C98.2941 75.7155 98.2082 75.7164 98.0977 75.7373ZM119.157 71.7236C118.476 71.9718 117.923 72.4981 117.418 73.085L117.417 73.0859C116.002 74.7196 114.83 76.6184 113.845 78.5449C112.747 80.6904 111.66 82.9264 111.6 85.3057C111.566 86.6831 111.599 88.1585 112.126 89.3984L112.238 89.6436C112.616 90.4154 113.195 90.7837 113.871 90.9189C114.201 90.985 114.556 90.9941 114.924 90.9648C114.446 90.8126 114.037 90.5421 113.713 90.1484L113.539 89.9131C112.832 88.8544 112.663 87.4892 112.614 86.2744L112.6 85.7637C112.562 83.7063 113.078 81.8392 113.908 79.9922C114.852 77.8829 115.965 75.8365 117.326 73.9541L117.327 73.9531C117.775 73.3379 118.231 72.693 118.768 72.1162C118.891 71.9831 119.021 71.8508 119.157 71.7236ZM122.184 86.8721C121.49 87.7801 120.679 88.5971 119.778 89.2988C120.338 88.9708 120.878 88.5944 121.399 88.1562C121.65 87.9463 121.89 87.7251 122.121 87.4961C122.141 87.2881 122.162 87.08 122.184 86.8721ZM53.9649 86.5635C53.8181 86.6029 53.6706 86.6422 53.5235 86.6816C53.6139 86.8784 53.6701 87.086 53.7002 87.2979C53.7693 87.0457 53.8578 86.7933 53.9873 86.5566C53.9798 86.5587 53.9724 86.5614 53.9649 86.5635ZM161.896 62.1553C163.987 62.1236 165.902 62.6586 167.781 63.4951L167.582 63.9531C167.601 63.9612 167.616 63.9634 167.622 63.9639C167.616 63.9641 167.601 63.9656 167.577 63.9707C167.528 63.9812 167.465 64.002 167.393 64.0283C167.322 64.0541 167.249 64.0826 167.185 64.1094C167.125 64.1341 167.061 64.1615 167.022 64.1758L167.013 64.1787L167.002 64.1816C166.981 64.1873 166.938 64.2027 166.866 64.2285C166.8 64.2523 166.719 64.2819 166.637 64.3086C166.556 64.3349 166.467 64.3606 166.385 64.376C166.344 64.3837 166.298 64.3899 166.253 64.3906C166.212 64.3913 166.149 64.3882 166.085 64.3604L166.083 64.3594C164.022 63.4373 161.971 62.9618 159.715 63.083C159.481 63.0976 159.245 63.1384 158.991 63.1797C158.893 63.1958 158.791 63.2104 158.689 63.2246C158.679 63.2289 158.67 63.2339 158.661 63.2383C158.475 63.3359 158.299 63.445 158.146 63.5703C157.774 63.8733 157.575 64.2277 157.505 64.6074C157.434 64.9914 157.493 65.4201 157.67 65.8691L157.818 66.2021C158.193 66.9621 158.766 67.5957 159.421 68.1924C159.795 68.5333 160.19 68.858 160.587 69.1875C160.883 69.4335 161.181 69.6826 161.466 69.9395L161.746 70.1982C163.191 71.5858 164.546 73.1362 165.303 75.0576C165.98 76.7765 166.244 78.8221 165.421 80.5977C164.605 82.3515 163.037 83.6002 161.405 84.4756C158.971 85.7795 156.109 86.577 153.401 86.9727C152.115 87.158 150.608 87.2401 149.235 86.9443C147.858 86.6475 146.594 85.9649 145.841 84.6094L146.276 84.3623C146.242 84.3028 146.191 84.2746 146.161 84.2627C146.133 84.2513 146.11 84.2496 146.102 84.249C146.086 84.248 146.082 84.2496 146.097 84.2471C146.123 84.2425 146.169 84.2305 146.236 84.21C146.368 84.1695 146.542 84.1079 146.725 84.043C146.903 83.9796 147.092 83.9135 147.24 83.8711C147.313 83.8503 147.388 83.8311 147.452 83.8232C147.483 83.8195 147.527 83.8166 147.573 83.8232C147.6 83.8271 147.668 83.8403 147.728 83.8936L147.782 83.9609V83.9629C148.533 85.3079 149.844 85.9338 151.341 86.1514C152.841 86.3694 154.496 86.1709 155.867 85.8916L155.87 85.8906C156.017 85.8621 156.156 85.8285 156.303 85.7949C156.364 85.7776 156.422 85.7638 156.467 85.751C156.763 85.6594 157.058 85.563 157.352 85.457L157.879 85.2549C158.403 85.0458 158.916 84.8152 159.414 84.5596C160.965 83.7641 162.406 82.6915 163.254 81.1963C164.211 79.5143 164.119 77.7124 163.47 76.002C162.9 74.5012 161.906 73.085 160.842 71.918L160.383 71.4336C159.692 70.73 158.878 70.1172 158.075 69.4268C157.285 68.7465 156.523 68.0037 156.005 67.0752C155.794 66.6992 155.592 66.2518 155.499 65.7871C155.406 65.3199 155.42 64.8188 155.665 64.3555C156.056 63.6061 156.82 63.1747 157.535 62.9336C158.946 62.4618 160.398 62.1764 161.896 62.1553ZM124.032 83.7334C123.671 84.5234 123.261 85.2922 122.783 86.0225C122.749 86.3149 122.714 86.6074 122.684 86.9004C123.09 86.4401 123.461 85.9505 123.803 85.4385C123.872 84.8692 123.946 84.3005 124.032 83.7334ZM147.378 84.3516C147.247 84.3889 147.074 84.4491 146.892 84.5137C146.745 84.5657 146.591 84.6186 146.461 84.6611C147.136 85.6619 148.167 86.2021 149.341 86.4551C149.943 86.5848 150.577 86.6354 151.211 86.6367C149.693 86.405 148.278 85.7557 147.426 84.3398C147.411 84.3436 147.395 84.3466 147.378 84.3516ZM64.3633 85.2549C64.3639 85.2565 64.3647 85.2581 64.3653 85.2598C64.3669 85.2575 64.3685 85.2552 64.3702 85.2529C64.3679 85.2535 64.3656 85.2543 64.3633 85.2549ZM125.394 75.9443C125.121 76.1237 124.93 76.4009 124.785 76.7412C124.605 77.163 124.51 77.6405 124.403 78.0908C124.07 79.4776 123.658 80.7759 123.383 82.1494C123.207 83.0263 123.063 83.9088 122.939 84.7949C123.583 83.6398 124.092 82.4061 124.509 81.1436L124.519 81.1104C124.732 80.1405 124.978 79.1785 125.248 78.2197C125.257 78.1614 125.268 78.1034 125.276 78.0449L125.373 77.4609C125.409 77.2494 125.443 77.0238 125.461 76.792C125.479 76.567 125.479 76.356 125.451 76.1748C125.438 76.0868 125.418 76.0101 125.394 75.9443ZM126.896 75.542C126.56 75.7606 126.346 76.1214 126.189 76.5693C126.096 76.8328 126.027 77.1157 125.962 77.4014C125.898 77.6817 125.837 77.9722 125.765 78.2295C125.756 78.2617 125.746 78.2949 125.737 78.3271C125.581 79.3195 125.313 80.2866 125.005 81.2324C124.846 81.9543 124.704 82.6798 124.588 83.4111C124.536 83.7368 124.488 84.0631 124.441 84.3896C124.841 83.6764 125.191 82.933 125.494 82.1729C125.968 80.9887 126.368 79.7677 126.629 78.5244C126.766 77.8789 126.832 77.2247 126.895 76.5527C126.918 76.3069 126.954 76.0916 126.95 75.8701C126.948 75.7449 126.93 75.6365 126.896 75.542ZM157.532 63.4658C156.931 63.6942 156.388 64.0526 156.108 64.5879L156.107 64.5889C155.932 64.9214 155.911 65.2975 155.989 65.6895C156.068 66.0829 156.243 66.478 156.441 66.8301L156.442 66.8311C156.916 67.6801 157.621 68.3769 158.401 69.0479C159.169 69.7085 160.029 70.3597 160.738 71.082C161.998 72.3605 163.254 74.0226 163.938 75.8242C164.58 77.5174 164.724 79.3509 163.873 81.0957L163.689 81.4434C163.147 82.3996 162.386 83.1835 161.525 83.835C162.971 83.0019 164.273 81.881 164.968 80.3877L165.096 80.084C165.682 78.5483 165.447 76.7885 164.837 75.2412C164.12 73.4212 162.828 71.9316 161.399 70.5596C161.048 70.2231 160.663 69.9002 160.268 69.5723C159.874 69.2459 159.469 68.9131 159.084 68.5625C158.363 67.9047 157.696 67.1676 157.284 66.2412L157.205 66.0527C157.003 65.5407 156.922 65.0158 157.014 64.5176C157.084 64.1355 157.253 63.7788 157.532 63.4658ZM119.91 77.5508C120.793 76.5274 121.593 75.36 122.097 74.1201L122.176 73.9102C122.352 73.4092 122.463 72.8309 122.396 72.3418C122.358 72.0663 122.265 71.831 122.109 71.6504C121.956 71.4721 121.724 71.3291 121.373 71.2607C121.132 71.215 120.852 71.2375 120.551 71.2988L120.583 71.3535C120.582 71.354 120.581 71.354 120.58 71.3545C120.578 71.3558 120.576 71.3571 120.573 71.3584C120.554 71.3697 120.535 71.3799 120.517 71.3906C120.641 71.4522 120.754 71.5236 120.855 71.6045C121.135 71.8301 121.307 72.1192 121.392 72.4443C121.558 73.0799 121.389 73.8457 121.097 74.584C120.645 75.726 119.851 76.9136 119.249 77.7012C119.259 77.6992 119.268 77.6989 119.274 77.6973C119.334 77.6795 119.404 77.6662 119.465 77.6553C119.541 77.6418 119.613 77.6299 119.687 77.6152C119.76 77.6008 119.82 77.5855 119.866 77.5693C119.893 77.56 119.906 77.5532 119.91 77.5508ZM125.86 75.7676C125.882 75.8244 125.9 75.8824 125.914 75.9414C125.953 75.8651 125.997 75.791 126.043 75.7188C125.982 75.7351 125.921 75.7513 125.86 75.7676ZM245.491 0.578125C245.528 1.1698 245.377 1.77232 245.172 2.33496C244.955 2.92886 244.656 3.54108 244.454 4.03125C243.828 5.56423 243.412 7.19927 242.964 8.81445C241.079 15.614 239.841 22.5873 238.46 29.5244C237.847 32.5939 237.255 35.6654 236.738 38.75L236.522 40.0732C236.251 41.7521 235.961 43.4162 235.712 45.0889C235.588 45.9231 235.48 46.7594 235.413 47.5938C235.413 47.597 235.412 47.6012 235.412 47.6045C235.709 47.4149 236.01 47.2307 236.317 47.0566C236.586 46.9057 236.902 46.8624 237.158 46.8252C237.366 46.7949 237.54 46.7672 237.686 46.7148L237.821 46.6533L238.068 47.0879C237.118 47.6256 236.222 48.2468 235.34 48.8975C235.339 48.9193 235.339 48.9393 235.338 48.958C235.401 48.9446 235.457 48.9328 235.499 48.9199C235.526 48.9118 235.539 48.9062 235.543 48.9043C235.541 48.9051 235.536 48.9083 235.528 48.9141C235.52 48.9203 235.491 48.9435 235.47 48.9863L235.917 49.209C235.916 49.2108 235.913 49.213 235.912 49.2148C235.817 49.4033 235.666 49.5411 235.494 49.6455L235.498 49.6602C235.482 49.6645 235.465 49.6685 235.449 49.6729C235.317 49.7472 235.177 49.8038 235.042 49.8467C234.704 49.9539 234.331 50.0049 234.077 50.0469C234.062 50.0499 234.045 50.0549 234.017 50.0625C233.991 50.0695 233.953 50.0799 233.913 50.0869C233.867 50.095 233.811 50.0992 233.75 50.0918C232.7 50.8861 231.634 51.6785 230.489 52.3633L229.946 52.6758C227.474 54.0428 224.817 54.98 222.113 55.7168C219.755 56.3583 217.344 56.9507 214.898 57.2578C214.014 57.3696 213.001 57.4542 212.023 57.3477C211.046 57.241 210.084 56.9414 209.321 56.2676C208.519 55.5569 208.189 54.5803 208.031 53.6133L207.973 53.2002C207.925 52.7974 207.899 52.3932 207.872 51.998C207.845 51.6012 207.819 51.2119 207.771 50.8252L207.741 50.5596C207.732 50.4696 207.722 50.3804 207.71 50.293C207.694 50.1772 207.673 50.0715 207.647 49.9785C207.587 50.0308 207.527 50.0831 207.469 50.1387C207.098 50.4921 206.764 50.8884 206.436 51.2549C205.621 52.1681 204.935 53.1969 204.295 54.251C202.942 56.476 201.527 58.7346 200.798 61.1992L200.8 61.3613L200.675 61.3945C200.639 61.4227 200.6 61.4436 200.567 61.458C200.502 61.4869 200.424 61.5098 200.348 61.5283C200.193 61.5659 199.996 61.5979 199.814 61.627C199.809 61.6276 199.805 61.6283 199.801 61.6289C199.57 61.6908 199.339 61.7525 199.107 61.8145L198.679 61.9297L198.793 61.5361C198.78 60.1916 199.105 58.9034 199.456 57.6484C199.813 56.3725 200.195 55.1366 200.319 53.8594C200.361 53.4377 200.414 52.9893 200.42 52.5449C200.426 52.1009 200.386 51.6802 200.255 51.3174L200.254 51.3145L200.253 51.3135C198.376 52.6977 196.51 54.0994 194.631 55.4902C193.763 56.1328 192.861 56.82 191.875 57.3623C192.089 57.4111 192.298 57.4728 192.502 57.5469L192.694 57.6211L192.695 57.6221C193.276 57.8635 193.699 58.2324 193.977 58.7021C194.218 59.1108 194.341 59.584 194.372 60.0947L194.38 60.3154L194.369 60.7676C194.246 63.0068 193.085 64.9468 191.454 66.4238C190.174 67.5837 188.594 68.4649 186.973 68.9932C186.938 69.0198 186.903 69.0381 186.888 69.0449C186.789 69.0893 186.604 69.1443 186.439 69.1875C186.273 69.2307 186.086 69.2731 185.981 69.2822C185.967 69.2835 185.949 69.2844 185.931 69.2842C185.93 69.2842 185.928 69.2832 185.927 69.2832C185.694 69.3365 185.462 69.3831 185.23 69.4209L185.231 69.4219C184.806 69.4925 184.257 69.5117 183.772 69.3779C183.282 69.2426 182.822 68.9375 182.67 68.3438L182.627 68.1348C182.592 67.9192 182.582 67.6959 182.593 67.4707C181.819 68.7007 180.714 69.7436 179.679 70.6455C178.117 72.0039 176.409 73.3459 174.569 74.3457L174.568 74.3467C173.526 74.9084 172.45 75.245 171.334 75.541C170.928 75.6484 170.411 75.8077 169.899 75.8809C169.386 75.9542 168.833 75.9485 168.348 75.6963C167.932 75.4811 167.727 75.1212 167.643 74.7422C167.56 74.3712 167.589 73.9703 167.64 73.6338L167.708 73.2529C167.889 72.3658 168.218 71.494 168.53 70.6826C169.465 68.2705 170.844 66.0784 172.709 64.2627L172.71 64.2607C172.784 64.1901 172.877 64.1498 172.952 64.124C173.032 64.0968 173.118 64.0777 173.196 64.0635C173.275 64.0491 173.355 64.0383 173.421 64.0293C173.486 64.0204 173.534 64.0133 173.567 64.0068C173.621 63.9935 173.691 63.9819 173.755 63.9717C173.826 63.9604 173.899 63.949 173.972 63.9355C174.035 63.9239 174.09 63.9105 174.136 63.8975C173.992 63.903 173.816 63.912 173.644 63.9092C173.437 63.9058 173.206 63.8877 173.01 63.8203L173.009 63.8193C172.961 63.8026 172.937 63.7975 172.895 63.7842C172.878 63.779 172.852 63.7705 172.825 63.7578C172.798 63.7448 172.753 63.7193 172.716 63.6719C172.628 63.5608 172.656 63.4374 172.666 63.3984C172.678 63.3534 172.7 63.2975 172.718 63.251L172.719 63.248C172.798 63.0484 172.971 62.9109 173.116 62.8203C173.192 62.773 173.272 62.7315 173.346 62.6963L173.545 62.6084C174.306 62.2883 175.157 62.1129 175.924 61.9346C177.029 61.6789 178.359 61.4683 179.612 61.5186C180.132 61.2161 180.645 60.8956 181.153 60.5674L182.701 59.5723C183.209 59.235 183.701 58.8842 184.163 58.498L184.439 58.251C184.705 57.9986 184.942 57.7277 185.173 57.4268L185.371 57.1689C185.584 56.9025 185.845 56.6257 186.203 56.4746C186.408 56.3894 186.627 56.3303 186.836 56.2803C187.04 56.2313 187.221 56.1923 187.404 56.1455C187.417 56.142 187.43 56.1383 187.443 56.1348C187.457 56.13 187.478 56.1239 187.507 56.1133C187.544 56.0998 187.589 56.0833 187.637 56.0684C187.683 56.0537 187.738 56.0383 187.792 56.0293C187.826 56.0236 187.887 56.0159 187.953 56.0273C187.97 56.0202 187.997 56.0107 188.03 56.0078C188.054 56.0058 188.088 56.006 188.125 56.0176C188.165 56.0298 188.204 56.0528 188.235 56.0869C188.296 56.1528 188.302 56.2275 188.302 56.2568C188.302 56.2899 188.294 56.3154 188.291 56.3271C188.287 56.3408 188.282 56.3514 188.279 56.3584C188.273 56.3722 188.267 56.3837 188.264 56.3896C188.261 56.3945 188.257 56.3983 188.254 56.4023V56.4043C188.245 56.4229 188.227 56.4689 188.202 56.5596L188.201 56.5586C188.176 56.653 188.135 56.7472 188.098 56.8232C188.055 56.9106 188.024 56.9682 187.997 57.0283L187.996 57.0303C187.879 57.2884 187.758 57.5417 187.638 57.793C187.785 57.7477 187.932 57.7091 188.066 57.6729C188.497 57.5569 188.954 57.4182 189.417 57.3281L189.822 57.2637C189.988 57.2431 190.156 57.2313 190.324 57.2246C191.33 56.641 192.258 55.9062 193.23 55.2051C194.974 53.9442 196.667 52.6434 198.401 51.3623L198.816 51.0684C199.235 50.7878 199.671 50.5523 200.195 50.4072C200.301 50.3779 200.426 50.3311 200.582 50.2764C200.731 50.2242 200.902 50.1681 201.072 50.1338C201.403 50.0674 201.837 50.0665 202.1 50.4639C202.302 50.769 202.372 51.1509 202.396 51.5029C202.419 51.8563 202.398 52.222 202.391 52.4951C202.375 53.0121 202.329 53.5289 202.263 54.041L202.19 54.5518C202.18 54.6194 202.167 54.6865 202.155 54.7539C203.035 53.3022 203.99 51.9117 205.192 50.666C205.647 50.1928 206.173 49.5879 206.884 49.3047C207.426 49.0909 208.055 48.9266 208.624 48.8311L208.778 48.8086C208.935 48.7909 209.097 48.7942 209.24 48.8652C209.451 48.9703 209.546 49.1792 209.601 49.4072C209.689 49.7659 209.745 50.1309 209.784 50.4932L209.819 50.8545L209.873 51.6055C209.921 52.3477 209.968 53.0651 210.149 53.7695C210.483 55.0621 211.325 55.7768 212.389 56.1465C213.466 56.5208 214.765 56.5378 215.967 56.4102C219.686 56.0151 223.409 54.9938 226.775 53.3789C228.521 52.5404 230.13 51.5009 231.677 50.3301C232.215 49.9199 232.753 49.5021 233.299 49.0908C233.301 48.9497 233.311 48.808 233.324 48.6719C233.339 48.5228 233.359 48.374 233.377 48.2354C233.395 48.0948 233.411 47.9644 233.421 47.8467C233.593 45.8347 233.974 43.8392 234.289 41.8701L234.758 39.0449C235.883 32.4585 237.227 25.9113 238.562 19.3691C239.008 17.1909 239.479 15.0165 240.002 12.8545C239.96 12.8651 239.916 12.8751 239.874 12.8838C239.71 12.9176 239.518 12.9462 239.465 12.9551C239.432 12.9626 239.37 12.975 239.311 12.9863C239.238 12.9999 239.152 13.0164 239.067 13.0342C238.982 13.0522 238.905 13.0705 238.85 13.0869C238.822 13.0953 238.806 13.1004 238.802 13.1025C238.804 13.1015 238.811 13.0981 238.819 13.0918C238.826 13.0871 238.87 13.056 238.895 12.9922L238.426 12.8174C239.206 10.6718 239.932 8.47154 240.839 6.35449L241.015 5.95312C241.436 5.01987 241.918 4.11342 242.353 3.21289L242.683 2.51465C242.789 2.28221 242.888 2.04902 242.977 1.8125L242.978 1.81055C243.093 1.50766 243.2 1.11364 243.473 0.790039L243.463 0.696289L243.605 0.658203C243.625 0.64474 243.643 0.635017 243.655 0.628906C243.684 0.614881 243.716 0.603166 243.745 0.592773C243.804 0.571934 243.876 0.550723 243.952 0.53125C244.105 0.492019 244.297 0.451351 244.478 0.413086C244.553 0.397147 244.626 0.381006 244.695 0.366211C244.855 0.323425 245.015 0.280107 245.175 0.237305L246.064 0L245.491 0.578125ZM173.488 64.5244C173.421 64.5336 173.352 64.5426 173.285 64.5547C173.218 64.5669 173.16 64.5812 173.115 64.5967C173.077 64.6098 173.06 64.6198 173.057 64.6221C171.362 66.2722 170.078 68.2456 169.173 70.4238L168.997 70.8623C168.683 71.6788 168.369 72.5139 168.198 73.3506L168.134 73.709C168.086 74.0234 168.068 74.3515 168.131 74.6328C168.184 74.8719 168.292 75.0674 168.488 75.2002L168.578 75.2529C168.928 75.4347 169.358 75.4532 169.829 75.3857C169.875 75.3792 169.92 75.3683 169.966 75.3604C169.72 75.2596 169.49 75.0993 169.331 74.8496C169.114 74.5109 169.063 74.1153 169.077 73.7471C169.092 73.3779 169.174 73.0089 169.247 72.708C169.757 70.5651 170.693 68.4449 171.918 66.6123C172.419 65.8641 172.978 65.1637 173.589 64.5078C173.556 64.5128 173.521 64.5199 173.488 64.5244ZM179.287 62.6094C178.971 62.745 178.651 62.8705 178.324 62.9824L177.826 63.1416C177.591 63.2117 177.351 63.2808 177.108 63.3506C177.102 63.3546 177.097 63.3598 177.093 63.3623C177.067 63.3765 177.04 63.3886 177.018 63.3975C176.993 63.4069 176.967 63.4161 176.94 63.4248C176.888 63.4422 176.828 63.4594 176.772 63.4736C176.719 63.4875 176.661 63.5009 176.615 63.5078C176.603 63.5096 176.59 63.5106 176.576 63.5117C176.565 63.5126 176.548 63.5126 176.529 63.5117C175.778 63.7095 175.003 63.8675 174.222 63.8945L174.553 64.2383C173.723 65.049 172.977 65.9296 172.334 66.8906C171.141 68.6753 170.23 70.7411 169.733 72.8252C169.661 73.1237 169.59 73.4512 169.577 73.7666C169.566 74.0429 169.601 74.2908 169.704 74.4951L169.753 74.5801C169.847 74.727 169.99 74.8339 170.168 74.9043L170.357 74.9629L170.36 74.9639C170.554 75.0121 170.76 75.0177 170.979 75.0078C171.031 75.0056 171.087 75.0002 171.149 74.9932C171.17 74.9908 171.192 74.9889 171.215 74.9863C171.242 74.9731 171.267 74.959 171.292 74.9492C171.316 74.9401 171.341 74.9346 171.365 74.9277C171.444 74.8973 171.522 74.87 171.595 74.8467C171.819 74.7748 172.003 74.7251 172.135 74.6641C172.394 74.5424 172.654 74.4109 172.907 74.2695L173.31 74.0381C173.708 73.8006 174.098 73.5447 174.484 73.2793C175.225 72.7668 175.947 72.2176 176.655 71.6562C177.989 70.6007 179.282 69.4639 180.284 68.1211L180.449 67.8936C181.262 66.7392 181.847 65.3435 181.24 64.0908C180.831 63.2473 180.153 62.823 179.348 62.6221C179.328 62.6171 179.307 62.6141 179.287 62.6094ZM180.38 62.0898C180.244 62.16 180.107 62.228 179.969 62.2949C180.676 62.5698 181.292 63.0536 181.689 63.8721C182.425 65.3906 181.689 67.003 180.853 68.1895L180.685 68.4209C179.643 69.8168 178.309 70.9847 176.966 72.0479C176.339 72.5446 175.697 73.0329 175.04 73.498C176.566 72.5798 178.005 71.4382 179.35 70.2686C180.715 69.0796 182.112 67.7197 182.752 66.0625C183.379 64.437 182.682 62.6498 180.941 62.2031C180.76 62.1563 180.572 62.1187 180.38 62.0898ZM75.0098 71.9414C75.0355 71.9478 75.0544 71.951 75.0586 71.9512C75.0698 71.9516 75.0791 71.9514 75.083 71.9512C75.0912 71.9507 75.0972 71.9494 75.0987 71.9492C75.1036 71.9486 75.1031 71.9481 75.0928 71.9502C75.0764 71.9535 75.0506 71.9594 75.0225 71.9658C74.9941 71.9723 74.9655 71.9792 74.9454 71.9844C74.9355 71.9869 74.93 71.9886 74.9278 71.9893C74.9293 71.9888 74.933 71.9881 74.9375 71.9863C74.9401 71.9854 74.9516 71.9805 74.9659 71.9727C74.972 71.9693 74.99 71.9588 75.0098 71.9414ZM75.0821 71.8271C75.0738 71.854 75.0639 71.8755 75.0547 71.8896C75.0382 71.9152 75.0199 71.9325 75.0098 71.9414C75.0012 71.9393 74.9911 71.9392 74.9815 71.9355C74.9627 71.9285 74.9122 71.907 74.8711 71.8535C74.8574 71.8355 74.847 71.8137 74.8379 71.79L75.0821 71.8271ZM77.6856 68.8135C77.6617 68.8296 77.6356 68.8525 77.6065 68.8828C77.5515 68.9401 77.4996 69.0099 77.4493 69.085L77.4502 69.0859C77.2295 69.4181 77.0754 69.7933 76.9444 70.1943C76.8789 70.3948 76.8201 70.5999 76.7608 70.8076C76.7431 70.8697 76.7231 70.9315 76.7051 70.9941C76.6998 71.14 76.6958 71.2846 76.6924 71.4287C76.7063 71.4254 76.7204 71.4223 76.7344 71.4189C76.8255 71.3972 76.9182 71.3754 76.9912 71.3584C77.028 71.3498 77.06 71.3426 77.084 71.3369C77.0961 71.3341 77.1058 71.3309 77.1133 71.3291C77.1196 71.3276 77.123 71.3274 77.1241 71.3271L77.126 71.3262C77.3028 71.2796 77.476 71.2341 77.6485 71.1836L77.67 71.1777C77.67 71.1777 77.673 71.1773 77.6797 71.1758C77.6829 71.175 77.6864 71.1738 77.6905 71.1729C77.6951 70.863 77.7081 70.554 77.7188 70.2539C77.7317 69.8901 77.7388 69.5343 77.7188 69.1797L77.6993 68.9248C77.6957 68.8875 77.6899 68.8506 77.6856 68.8135ZM76.1817 69.2178C76.1125 69.2647 76.0452 69.3354 75.9795 69.4297C75.8981 69.5466 75.8306 69.682 75.7657 69.8164C75.597 70.1674 75.4662 70.5364 75.3487 70.918L75.3477 70.9189C75.3023 71.0648 75.2608 71.2142 75.2178 71.3672C75.214 71.3806 75.2089 71.3937 75.2051 71.4072C75.3154 71.3783 75.4267 71.3493 75.5401 71.3203C75.7136 71.2746 75.8835 71.2301 76.0528 71.1807C76.0601 71.1782 76.0663 71.1766 76.0694 71.1758C76.0729 71.1749 76.0768 71.1744 76.0791 71.1738C76.0836 71.1728 76.0881 71.1717 76.0918 71.1709C76.0994 71.1693 76.1094 71.1669 76.1182 71.165C76.124 71.1638 76.1297 71.1615 76.1358 71.1602C76.1606 71.0779 76.1849 70.995 76.209 70.9111C76.2091 70.91 76.209 70.9084 76.209 70.9072C76.2194 70.6262 76.2295 70.3503 76.2295 70.0742C76.2295 69.8014 76.2192 69.5377 76.1895 69.2764L76.1885 69.2666C76.1873 69.2508 76.1836 69.2346 76.1817 69.2178ZM76.8145 69.0391L76.8008 69.043C76.753 69.0531 76.7084 69.0633 76.667 69.0723C76.6738 69.1198 76.6805 69.1702 76.6846 69.2197H76.6866C76.6942 69.2871 76.6968 69.3547 76.7022 69.4219C76.7635 69.2831 76.8316 69.1462 76.9082 69.0127C76.8769 69.0212 76.8458 69.0306 76.8145 69.0391ZM187.576 56.751C187.504 56.8151 187.435 56.8858 187.367 56.9648C187.283 57.0634 187.203 57.1693 187.12 57.2812C187.039 57.3911 186.954 57.5093 186.864 57.6211L186.863 57.6221C186.613 57.9323 186.32 58.2075 186.015 58.4609C185.989 58.5119 185.963 58.5625 185.938 58.6133L185.939 58.6143C185.591 59.3222 185.252 60.0218 184.966 60.7451C184.405 62.1592 183.952 63.6265 183.597 65.1094C183.478 65.613 183.314 66.1322 183.199 66.7002C183.087 67.2561 183.042 67.7815 183.154 68.2188C183.247 68.5803 183.521 68.7902 183.905 68.8965C184.292 69.0031 184.755 68.9915 185.136 68.9297C184.96 68.8666 184.797 68.7836 184.654 68.6719C184.33 68.4182 184.132 68.0453 184.105 67.5508C184.051 66.4851 184.42 65.3195 184.651 64.3711C184.975 63.0601 185.373 61.7635 185.859 60.4971C186.344 59.2347 186.997 58.0261 187.541 56.8252C187.551 56.8021 187.564 56.7768 187.576 56.751ZM189.52 58.293C189.309 58.3601 189.081 58.4309 188.85 58.4873C188.395 58.598 187.884 58.6659 187.44 58.5186L187.439 58.5176C187.395 58.5026 187.353 58.4838 187.314 58.4678C186.962 59.1966 186.618 59.9176 186.326 60.6758C185.848 61.9205 185.457 63.1972 185.138 64.4902C184.892 65.4949 184.555 66.5532 184.605 67.5234L184.617 67.6533C184.659 67.9439 184.786 68.1407 184.962 68.2783C185.172 68.4429 185.478 68.5413 185.856 68.5752C186.021 68.5901 186.178 68.5797 186.347 68.5635C186.363 68.5566 186.38 68.5512 186.397 68.5439L186.398 68.543C186.885 68.3333 187.349 68.0665 187.804 67.7715C189.488 66.6788 191.201 65.1856 191.914 63.3389C192.232 62.5169 192.456 61.476 192.364 60.5527C192.273 59.6377 191.878 58.8696 190.982 58.4971C190.605 58.3393 190.214 58.2482 189.814 58.2002C189.721 58.2296 189.623 58.26 189.52 58.293ZM191.105 57.7451C190.992 57.7948 190.878 57.8419 190.763 57.8867C190.901 57.929 191.038 57.9782 191.175 58.0352L191.377 58.1279C192.349 58.621 192.766 59.5331 192.862 60.5029C192.965 61.529 192.717 62.6508 192.381 63.5186C191.737 65.1869 190.357 66.5523 188.925 67.6035C189.713 67.1703 190.458 66.6513 191.118 66.0537C192.782 64.5468 193.897 62.5717 193.88 60.3203L193.873 60.124C193.846 59.6749 193.738 59.2823 193.546 58.9561C193.328 58.5863 192.992 58.286 192.504 58.083C192.068 57.9032 191.59 57.7927 191.105 57.7451ZM236.312 60.1328C236.542 60.0917 236.808 60.0641 237.065 60.0898C237.397 60.1232 237.746 60.2518 237.968 60.585C238.003 60.6066 238.039 60.6284 238.072 60.6533C238.231 60.7712 238.375 60.9361 238.436 61.1582L238.457 61.2568C238.502 61.56 238.38 61.8084 238.219 61.9922C238.061 62.1717 237.854 62.3068 237.682 62.4023L237.681 62.4014C236.991 62.785 236.179 63.0255 235.424 63.2305C235.39 63.2461 235.357 63.2643 235.323 63.2793C235.03 63.4107 234.726 63.5053 234.426 63.5898C234.391 63.6016 234.346 63.6177 234.295 63.6328C234.172 63.6695 234.001 63.7168 233.837 63.7607C233.819 63.7654 233.802 63.7688 233.784 63.7734C233.366 63.9744 232.943 64.1749 232.516 64.3555L232.179 64.4932C231.58 64.7273 230.951 64.8816 230.355 65.0352C230.171 65.0827 229.933 65.1559 229.703 65.1992C229.468 65.2436 229.205 65.2651 228.945 65.2012L228.944 65.2002C228.821 65.1689 228.647 65.1126 228.556 64.9541C228.461 64.7895 228.505 64.608 228.552 64.4766C228.654 64.1859 228.851 63.9526 229.036 63.7686C229.46 63.3463 229.989 63.0032 230.443 62.6816C231.022 62.273 231.638 61.9749 232.272 61.7344C232.451 61.5906 232.638 61.4615 232.815 61.3516L233.03 61.2227C233.922 60.7002 234.95 60.4364 235.919 60.2178C235.931 60.2144 235.941 60.2113 235.95 60.209C235.957 60.207 235.967 60.2049 235.975 60.2031C235.977 60.2026 235.98 60.202 235.984 60.2012C235.985 60.2011 235.99 60.2004 235.998 60.1992C236.03 60.192 236.063 60.1839 236.095 60.1768L236.312 60.1328ZM231.224 62.7754C231.057 62.8723 230.893 62.9766 230.732 63.0898C230.253 63.4297 229.775 63.7383 229.39 64.1221C229.222 64.289 229.088 64.4586 229.023 64.6426V64.6445C229.016 64.6654 229.013 64.6829 229.01 64.6963C229.024 64.7014 229.043 64.7096 229.067 64.7158C229.228 64.7549 229.408 64.7453 229.61 64.707C229.731 64.6844 229.846 64.6541 229.964 64.6221C229.978 64.6119 229.986 64.605 229.987 64.6045C229.997 64.5989 230.005 64.5949 230.01 64.5928C230.019 64.5884 230.028 64.5844 230.034 64.582C230.044 64.5783 230.055 64.5734 230.066 64.5693C229.992 64.4535 229.981 64.3214 230.001 64.209C230.025 64.0736 230.092 63.9435 230.159 63.8369C230.296 63.6202 230.489 63.419 230.585 63.3262L230.586 63.3252C230.783 63.1361 230.998 62.9522 231.224 62.7754ZM231.443 63.2383C231.263 63.3836 231.091 63.5338 230.932 63.6865C230.846 63.7698 230.687 63.9382 230.582 64.1045C230.529 64.1891 230.502 64.2539 230.494 64.2949C230.506 64.2995 230.524 64.3076 230.553 64.3135C230.606 64.3243 230.667 64.3286 230.724 64.3311H230.729H230.73C230.868 64.273 231.005 64.2135 231.138 64.1494L231.142 64.1475C231.394 64.0304 231.636 63.9072 231.892 63.7822C231.876 63.7657 231.86 63.7488 231.846 63.7305C231.808 63.6822 231.78 63.63 231.758 63.5771C231.665 63.5317 231.56 63.463 231.492 63.3555C231.468 63.3179 231.453 63.2773 231.443 63.2383ZM185.139 59.1221C183.994 59.9314 182.804 60.7033 181.598 61.416C181.423 61.519 181.247 61.6202 181.069 61.7197C182.315 62.0406 183.092 62.9337 183.365 63.9941C183.68 62.8305 184.057 61.6806 184.501 60.5615C184.695 60.0711 184.914 59.5938 185.139 59.1221ZM161.925 62.6553C163.415 62.8304 164.838 63.2577 166.255 63.8887C166.263 63.8879 166.276 63.8879 166.292 63.8848C166.342 63.8753 166.408 63.8571 166.482 63.833C166.555 63.8093 166.629 63.7821 166.696 63.7578C166.75 63.7386 166.809 63.7185 166.854 63.7051L166.925 63.6748C165.31 63.0242 163.677 62.632 161.925 62.6553ZM174.172 62.9072C174.025 62.9573 173.88 63.0108 173.738 63.0703C173.627 63.1169 173.495 63.1735 173.382 63.2441C173.313 63.2871 173.264 63.3277 173.231 63.3633C173.345 63.3921 173.488 63.4065 173.651 63.4092C173.843 63.4123 174.031 63.401 174.203 63.3955L174.345 63.3857C174.274 63.3493 174.173 63.2771 174.144 63.1406C174.122 63.0436 174.15 62.9602 174.171 62.9111C174.171 62.9099 174.171 62.9084 174.172 62.9072ZM232.707 62.3789C232.662 62.405 232.616 62.431 232.57 62.458L232.478 62.5645C232.34 62.7314 232.217 62.9912 232.198 63.2012C232.203 63.2024 232.209 63.2049 232.214 63.2061C232.283 63.2219 232.355 63.2305 232.423 63.2402C232.388 63.1392 232.391 63.0339 232.406 62.9434V62.9404C232.448 62.7045 232.591 62.5127 232.707 62.3789ZM232.972 62.8555C232.934 62.9154 232.909 62.9725 232.899 63.0273C232.898 63.0342 232.897 63.0403 232.897 63.0459C232.91 63.05 232.927 63.0563 232.949 63.0615H232.952C233.02 63.0783 233.089 63.0886 233.16 63.0957C233.083 63.0351 233.013 62.9577 232.972 62.8555ZM177.782 62.4658C177.423 62.4682 177.061 62.4889 176.705 62.5156L176.704 62.5146C176.402 62.5402 176.105 62.5717 175.803 62.6074L175.802 62.6064C175.627 62.6294 175.448 62.6568 175.271 62.6846C175.182 62.7209 175.102 62.7501 175.032 62.7744C174.918 62.8277 174.826 62.8863 174.752 62.9648L174.746 62.9697C174.776 62.9723 174.806 62.9767 174.838 62.9785C174.892 62.9816 174.959 62.9839 175.007 62.9883C175.589 63.037 176.146 62.9552 176.766 62.8818C176.793 62.8718 176.821 62.8598 176.852 62.8486L177.05 62.7725C177.115 62.7471 177.18 62.721 177.247 62.6953L177.642 62.5303C177.689 62.5097 177.735 62.4869 177.782 62.4658ZM234.147 61.9365C233.971 62.1193 233.834 62.3058 233.755 62.4932L233.717 62.5967C233.694 62.6734 233.688 62.7408 233.689 62.7988C233.735 62.8111 233.784 62.8246 233.837 62.834C233.849 62.8362 233.862 62.8369 233.875 62.8389C233.884 62.8344 233.893 62.8297 233.901 62.8252C233.869 62.7257 233.872 62.6256 233.891 62.5391C233.915 62.4254 233.967 62.3196 234.022 62.2324C234.119 62.0755 234.247 61.9365 234.331 61.8535C234.269 61.8808 234.207 61.9071 234.147 61.9365ZM235.47 61.6465C235.27 61.7598 235.076 61.8798 234.903 62.0156L234.704 62.1875C234.634 62.2545 234.522 62.3737 234.446 62.4961C234.437 62.5116 234.429 62.527 234.422 62.541C234.519 62.4841 234.617 62.4266 234.713 62.3652L235.044 62.1426C235.201 62.0308 235.351 61.9099 235.498 61.7861C235.508 61.736 235.509 61.7061 235.506 61.6904C235.503 61.6751 235.497 61.6662 235.485 61.6562C235.481 61.6527 235.475 61.6501 235.47 61.6465ZM236.34 61.6885C236.328 61.7006 236.317 61.7126 236.309 61.7217L236.308 61.7227C236.232 61.8 236.152 61.8729 236.073 61.9463C236.068 61.9869 236.059 62.0264 236.05 62.0654C236.176 61.9873 236.301 61.9068 236.423 61.8223C236.437 61.8125 236.45 61.8008 236.464 61.791C236.467 61.7453 236.461 61.7079 236.448 61.6758C236.447 61.6714 236.443 61.6675 236.441 61.6631C236.407 61.6717 236.373 61.6801 236.34 61.6885ZM237.893 61.2285C237.878 61.2431 237.864 61.2567 237.85 61.2715L237.847 61.2754C237.76 61.3618 237.668 61.4493 237.574 61.5371C237.555 61.6892 237.509 61.832 237.439 61.9648C237.594 61.8795 237.742 61.778 237.843 61.6631C237.94 61.5526 237.979 61.447 237.962 61.332L237.941 61.2559C237.934 61.2383 237.925 61.2218 237.915 61.2051C237.907 61.213 237.9 61.2213 237.893 61.2285ZM200.734 58.2363C200.225 59.1915 199.766 60.1636 199.426 61.1865C199.508 61.1722 199.596 61.1563 199.682 61.1426C199.698 61.1382 199.714 61.1342 199.73 61.1299C199.92 61.0789 200.11 61.0276 200.301 60.9766C200.313 60.0288 200.499 59.1211 200.734 58.2363ZM237.295 60.8438C237.347 60.885 237.389 60.9329 237.424 60.9873C237.446 60.965 237.47 60.9437 237.493 60.9209C237.496 60.9177 237.499 60.9142 237.502 60.9111C237.456 60.8932 237.408 60.8765 237.36 60.8623L237.358 60.8613C237.337 60.8549 237.316 60.8496 237.295 60.8438ZM186.097 57.125C185.912 57.2813 185.751 57.4922 185.57 57.7295C185.245 58.1547 184.9 58.5312 184.484 58.8809C184.127 59.1797 183.75 59.4579 183.366 59.7236C183.917 59.3632 184.461 58.9944 184.993 58.6152L185.398 58.3164C185.472 58.26 185.543 58.1998 185.614 58.1416C185.732 57.9052 185.849 57.6704 185.959 57.4326L186.097 57.125ZM201.371 50.6123C201.127 50.7652 200.9 50.8929 200.681 51.0283C200.699 51.0725 200.714 51.1131 200.726 51.1475C200.885 51.5908 200.926 52.0799 200.919 52.5518C200.916 52.7875 200.901 53.0241 200.881 53.2529L200.817 53.9082C200.688 55.2403 200.289 56.5286 199.938 57.7832C199.76 58.418 199.593 59.0461 199.474 59.6758C200.003 58.4625 200.659 57.312 201.314 56.1816C201.47 55.6166 201.609 55.0528 201.696 54.4766C201.799 53.8123 201.87 53.1448 201.891 52.4805C201.899 52.1854 201.918 51.8589 201.897 51.5371C201.875 51.2135 201.813 50.9364 201.683 50.7402C201.62 50.6447 201.523 50.5963 201.363 50.6006L201.371 50.6123ZM207.067 49.7686L207.068 49.7695C206.482 50.0031 206.042 50.504 205.553 51.0127C204.332 52.2774 203.366 53.7018 202.461 55.2119L202.076 55.8643C201.977 56.0362 201.878 56.2084 201.778 56.3799C201.637 56.8894 201.486 57.3925 201.346 57.8887C201.228 58.3042 201.117 58.7172 201.027 59.1309C201.814 57.3267 202.872 55.6287 203.867 53.9912C204.514 52.9269 205.218 51.8678 206.063 50.9209C206.378 50.5691 206.735 50.1487 207.124 49.7773C207.141 49.7615 207.158 49.7462 207.175 49.7305C207.139 49.7439 207.102 49.7547 207.067 49.7686ZM186.727 56.9697C186.765 56.9181 186.805 56.8661 186.846 56.8135C186.83 56.8178 186.814 56.8228 186.798 56.8271C186.777 56.8843 186.745 56.9398 186.727 56.9697ZM209.018 49.3125C208.99 49.2989 208.919 49.2866 208.711 49.3232L208.709 49.3242C208.686 49.3281 208.663 49.3328 208.64 49.3369C208.44 49.4132 208.247 49.5202 208.06 49.6494C208.138 49.8312 208.179 50.036 208.205 50.2236C208.219 50.3207 208.23 50.4174 208.239 50.5078L208.267 50.7617C208.317 51.165 208.345 51.5692 208.371 51.9648C208.398 52.3628 208.424 52.7529 208.47 53.1406L208.525 53.5361C208.675 54.45 208.975 55.292 209.652 55.8926L209.778 55.998C210.418 56.5083 211.218 56.7568 212.078 56.8506C212.497 56.8962 212.925 56.9034 213.351 56.8887C212.963 56.8308 212.583 56.7442 212.224 56.6191C211.032 56.2046 210.048 55.3768 209.665 53.8945C209.409 52.9012 209.402 51.8579 209.321 50.8975L209.287 50.5459C209.249 50.1971 209.196 49.8559 209.114 49.5254V49.5234C209.07 49.338 209.025 49.316 209.018 49.3125ZM192.089 56.6602C192.859 56.1904 193.594 55.6355 194.334 55.0879C196.081 53.7948 197.83 52.484 199.579 51.1914C199.282 51.3488 198.998 51.5428 198.698 51.7646C196.977 53.0364 195.267 54.3494 193.523 55.6104C193.052 55.9505 192.576 56.3099 192.089 56.6602ZM187.99 56.0361C187.993 56.0369 187.996 56.0373 187.998 56.0381C187.998 56.0381 187.997 56.0367 187.993 56.0361C187.992 56.036 187.991 56.0362 187.99 56.0361ZM233.332 49.6924C232.882 50.0346 232.434 50.3827 231.98 50.7285C231.615 51.0045 231.244 51.2719 230.871 51.5332C231.717 50.9867 232.529 50.3872 233.34 49.7744C233.335 49.7537 233.333 49.7324 233.332 49.7109C233.332 49.7046 233.332 49.6983 233.332 49.6924ZM234.853 48.5771C234.5 48.8226 234.153 49.0768 233.808 49.335C233.81 49.3621 233.814 49.3883 233.818 49.4141C234.161 49.1545 234.504 48.8943 234.851 48.6367C234.851 48.6169 234.852 48.597 234.853 48.5771ZM244.266 3.1416C243.768 4.15923 243.251 5.13253 242.814 6.1582L242.813 6.15918C242.133 7.7375 241.562 9.35618 240.986 10.9824C240.258 13.7886 239.634 16.6225 239.051 19.4688C237.525 26.9478 235.991 34.4206 234.783 41.9492C234.465 43.9386 234.089 45.9018 233.919 47.8896C233.908 48.0198 233.891 48.1597 233.873 48.2988C233.856 48.4323 233.838 48.5659 233.824 48.6992C234.173 48.4429 234.527 48.1924 234.887 47.9492C234.896 47.817 234.904 47.6847 234.915 47.5527C234.983 46.7028 235.093 45.8544 235.218 45.0146C235.467 43.3387 235.758 41.6639 236.027 39.9941L236.245 38.668C236.763 35.5753 237.357 32.4979 237.97 29.4268C239.348 22.5039 240.591 15.5034 242.482 8.68066C242.926 7.08165 243.351 5.40838 243.991 3.84082C244.17 3.40683 244.378 2.97267 244.564 2.51465L244.266 3.1416ZM235.758 47.9775C235.627 48.0601 235.496 48.1413 235.367 48.2266C235.367 48.2373 235.367 48.2481 235.366 48.2588C235.496 48.1645 235.627 48.0704 235.758 47.9775ZM243.138 2.72168L242.804 3.42969C242.293 4.48823 241.752 5.48719 241.298 6.55078C240.463 8.50146 239.783 10.5141 239.061 12.5254C239.117 12.5141 239.171 12.5029 239.218 12.4941C239.254 12.4872 239.286 12.4823 239.311 12.4775C239.323 12.4752 239.333 12.4723 239.341 12.4707C239.345 12.4699 239.348 12.4692 239.351 12.4688H239.353L239.36 12.4668L239.369 12.4648C239.444 12.4513 239.603 12.4298 239.773 12.3945C239.853 12.3782 239.921 12.3599 239.97 12.3438C240.152 11.8419 240.331 11.3371 240.51 10.8311C240.713 10.048 240.923 9.26601 241.145 8.4873C241.558 7.03735 241.956 5.53141 242.544 4.11426C242.734 3.65836 242.955 3.19591 243.143 2.70996C243.141 2.71381 243.139 2.71783 243.138 2.72168ZM244.552 0.921875C244.368 0.971319 244.183 1.01986 243.998 1.06934C244.015 1.61164 243.877 2.15947 243.693 2.67285C243.488 3.24695 243.205 3.82836 243.006 4.30566C242.841 4.70279 242.692 5.10734 242.553 5.5166C242.952 4.63421 243.399 3.77621 243.816 2.92188L244.156 2.20996C244.265 1.97178 244.368 1.73206 244.462 1.48926C244.498 1.39562 244.529 1.30179 244.564 1.20215C244.599 1.10442 244.636 1.00241 244.679 0.901367C244.681 0.896263 244.683 0.890851 244.686 0.885742C244.641 0.897674 244.596 0.909941 244.552 0.921875ZM78.1875 71.3613C78.1875 71.4565 78.1345 71.5157 78.1192 71.5322C78.0987 71.5543 78.0792 71.5685 78.0704 71.5742C78.0514 71.5864 78.0342 71.5938 78.0274 71.5967C78.0112 71.6036 77.9946 71.6087 77.9834 71.6123C77.9588 71.6202 77.9282 71.6287 77.9014 71.6357C77.8491 71.6496 77.7884 71.6648 77.7676 71.6689C77.5952 71.7191 77.4233 71.7642 77.2549 71.8086C77.2207 71.8178 77.0216 71.8644 76.8506 71.9053C76.7605 71.9268 76.674 71.9471 76.6114 71.9639C76.5795 71.9724 76.5574 71.9793 76.545 71.9834C76.5381 71.9856 76.5403 71.9853 76.5469 71.9824C76.549 71.9815 76.5638 71.9747 76.5811 71.9629C76.5894 71.9572 76.6079 71.9438 76.627 71.9219C76.6434 71.9029 76.6875 71.8456 76.6875 71.7588H76.1875C76.1875 71.7262 76.1883 71.6937 76.1885 71.6611C76.0127 71.7124 75.8377 71.7594 75.6661 71.8047H75.6641C75.4836 71.8509 75.3083 71.8978 75.1319 71.9443L75.0879 71.8125C75.0863 71.8176 75.0856 71.823 75.084 71.8281L75.0821 71.8271C75.0842 71.8201 75.0843 71.8125 75.086 71.8047L75.0694 71.7539H74.8448L74.8243 71.7471C74.8271 71.7624 74.8327 71.7764 74.8379 71.79L74.5948 71.7539C74.5948 71.7224 74.601 71.6947 74.6094 71.6709C74.6538 71.5278 74.6943 71.3814 74.7364 71.2314C74.7789 71.0798 74.8223 70.9241 74.8702 70.7705C74.9913 70.3772 75.1305 69.9812 75.3145 69.5986C75.3793 69.4644 75.4628 69.2975 75.5694 69.1445C75.6756 68.992 75.8173 68.8351 76.0098 68.7393C76.0197 68.7343 76.0309 68.7307 76.042 68.7256C76.0505 68.7197 76.0564 68.7166 76.0577 68.7158C76.0819 68.7013 76.1052 68.6936 76.1114 68.6914C76.131 68.6844 76.1543 68.6777 76.1758 68.6719C76.1969 68.6662 76.2232 68.6608 76.2539 68.6533C76.4638 68.5917 76.6812 68.5358 76.8829 68.4834H76.8848C77.1139 68.4252 77.4297 68.3149 77.7168 68.2764L77.7334 68.2744H77.7461C77.7455 68.2744 77.7465 68.2738 77.75 68.2734C77.7524 68.2732 77.7686 68.2714 77.7803 68.2705C77.8045 68.2687 77.8593 68.2662 77.9209 68.2852L77.9278 68.2871C77.9713 68.3006 78.0795 68.3382 78.1329 68.459C78.1525 68.5037 78.1575 68.5463 78.1592 68.5605C78.1626 68.5888 78.1616 68.5823 78.1641 68.6016L78.1973 68.8779L78.2178 69.1504C78.2392 69.5293 78.2308 69.9054 78.2178 70.2725C78.2047 70.6427 78.1875 71.0004 78.1875 71.3613Z" fill="#9810FA"/>
</svg>
