<svg width="525" height="117" viewBox="160 0 525 117" fill="none" xmlns="http://www.w3.org/2000/svg">
<g filter="url(#filter0_dd_51_1098)">
<path d="M578.678 14.8323C567.297 12.7355 555.835 10.7785 544.173 9.6141C532.351 8.43414 520.371 7.96281 508.447 7.84355C484.954 7.6154 461.357 8.72916 438.092 10.8936C395.619 14.853 353.928 22.4827 313.389 31.9654C270.233 42.0633 226.934 53.4323 188.53 70.6409C179.723 74.5866 171.673 78.5606 165.608 84.6344C164.173 86.0763 162.596 87.6012 161.885 89.2819C161.173 90.9907 159.95 93.5806 160.316 95.3206C160.866 98.0046 163.512 100.631 166.49 102.283C170.05 104.257 174.755 105.553 178.947 106.696C183.864 108.036 188.955 109.04 194.088 109.862C204.082 111.453 214.284 112.365 224.435 113.339C248.242 115.617 272.275 116.405 296.264 116.554C320.413 116.704 344.568 116.263 368.668 115.266C416.052 113.301 463.164 109.069 509.701 102.708C529.947 99.9456 550.096 96.8238 569.88 92.7774C591.291 88.4019 612.097 82.8606 632.238 76.1951C641.783 73.0367 650.941 69.2982 659.549 65.0412C663.873 62.9023 668.964 60.6863 672.277 57.7856C674.015 56.2552 675.763 54.7319 677.501 53.2015C679.331 51.5946 681.614 50.0201 682.821 48.1331C690.34 36.4062 674.236 27.3958 661.864 21.4719C657.579 19.4208 652.462 17.9875 647.718 16.5297C642.542 14.9342 637.274 13.4855 631.944 12.1909C621.535 9.66024 610.839 7.71046 600.006 6.33593C576.266 3.33531 552.539 1.13633 528.412 0.747536C504.123 0.357223 479.945 -0.0390756 455.658 0.547902C431.612 1.1231 407.602 2.26812 383.639 3.6667C371.89 4.35059 360.14 5.09776 348.4 5.86611C347.401 5.93405 346.46 6.31892 345.472 6.38696C392.008 3.33768 438.682 0.662332 485.483 0.659878C497.115 0.656866 508.745 0.87179 520.374 1.18514C532.104 1.49943 543.774 1.73582 555.469 2.53492C567.144 3.33382 578.765 4.49782 590.302 6.00554C600.953 7.39946 611.483 8.84146 621.864 11.0765C639.81 14.9366 658.501 19.9708 672.182 29.2889C677.551 32.9462 682.194 37.6513 681.86 43.09C681.668 46.3576 679.889 49.0617 677.033 51.573C673.567 54.6128 670.338 58.1541 666.011 60.6023C649.686 69.8347 631.268 76.4672 611.982 82.1635C589.826 88.7115 566.756 93.8027 543.325 97.653C498.178 105.067 451.967 110.004 405.753 112.958C359.671 115.906 313.021 117.112 266.741 115.376C244.906 114.559 222.836 113.001 201.364 110.008C191.579 108.643 182.345 106.573 173.383 103.48C169.827 102.251 166.799 100.5 164.927 98.0217C164.151 96.9879 163.107 95.5016 163.088 94.3132C163.076 93.4483 163.69 92.3924 163.95 91.5441C164.293 90.4576 164.437 89.1161 165.031 88.0811C166.691 85.186 170.175 82.3713 173.13 80.0789C176.267 77.6477 179.826 75.4383 183.704 73.5976C193.09 69.1441 202.846 64.9893 212.83 61.2093C232.07 53.9236 252.276 47.9337 272.699 42.438C316.405 30.679 361.244 20.5689 407.385 14.5348C429.437 11.6488 451.721 9.7423 474.146 8.87766C497.086 7.98973 520.422 7.88595 543.219 10.3363C554.205 11.5154 565.003 13.3677 575.75 15.3531C576.615 15.5089 577.832 14.6767 578.678 14.8323Z" fill="url(#paint0_linear_51_1098)"/>
<path d="M460.206 0.199164C482.969 -0.239623 505.646 0.131492 528.416 0.497396C552.555 0.886404 576.292 3.08648 600.037 6.08773C610.879 7.46339 621.585 9.41548 632.003 11.9484C637.338 13.2442 642.611 14.6936 647.792 16.2906C652.525 17.745 657.666 19.1852 661.972 21.2465C668.156 24.2075 675.31 27.9564 679.975 32.4467C682.309 34.6932 684.039 37.1431 684.7 39.7923C685.364 42.4522 684.943 45.284 683.031 48.2672C682.408 49.2412 681.514 50.1262 680.559 50.9608C680.081 51.3789 679.583 51.7877 679.093 52.1903C678.603 52.5938 678.12 52.9912 677.666 53.3898L672.443 57.9736C669.098 60.9022 663.961 63.1381 659.66 65.2658C651.041 69.5282 641.873 73.2709 632.317 76.4327C612.166 83.1013 591.35 88.6446 569.931 93.0221C550.139 97.07 529.984 100.193 509.735 102.956C463.19 109.318 416.07 113.551 368.679 115.517C344.575 116.513 320.416 116.954 296.262 116.804C272.27 116.655 248.228 115.867 224.411 113.588C214.897 112.675 205.328 111.816 195.926 110.399L194.048 110.109C188.91 109.287 183.81 108.28 178.882 106.937C174.697 105.796 169.96 104.493 166.368 102.502C164.859 101.664 163.431 100.579 162.308 99.3579C161.187 98.139 160.358 96.7718 160.071 95.3708L160.072 95.3698C159.875 94.4323 160.107 93.2974 160.458 92.2132C160.811 91.122 161.302 90.0314 161.654 89.1862L161.655 89.1843C162.389 87.4487 164.01 85.8855 165.431 84.4579L166.008 83.891C172.038 78.0983 179.897 74.2348 188.427 70.413C226.855 53.1939 270.175 41.8207 313.332 31.7225C353.879 22.2381 395.582 14.6053 438.069 10.6446C461.341 8.47944 484.947 7.36573 508.45 7.59398C520.378 7.71328 532.366 8.18414 544.198 9.36508C555.87 10.5305 567.341 12.4896 578.723 14.5867L578.632 15.0781C578.468 15.0478 578.271 15.0639 578.038 15.1145C577.807 15.165 577.561 15.2447 577.299 15.3302C577.042 15.4139 576.77 15.5032 576.506 15.56C576.242 15.6168 575.968 15.6465 575.705 15.5994C564.961 13.6143 554.169 11.7632 543.193 10.5852C520.413 8.13671 497.091 8.24001 474.156 9.12773C451.739 9.99209 429.461 11.8981 407.418 14.7831C361.291 20.8152 316.463 30.9219 272.764 42.6791C252.345 48.1738 232.148 54.1615 212.919 61.4429C202.941 65.2205 193.191 69.3731 183.811 73.8238C180.191 75.5422 176.85 77.5826 173.873 79.8252L173.283 80.2767C170.319 82.5762 166.879 85.3612 165.248 88.2054C164.968 88.6923 164.79 89.2598 164.639 89.855C164.491 90.4359 164.362 91.0659 164.189 91.6164L164.19 91.6174C164.056 92.0517 163.826 92.5573 163.65 93.0128C163.466 93.4888 163.332 93.9296 163.337 94.3097L163.352 94.513C163.408 94.9971 163.632 95.5454 163.942 96.1045C164.294 96.7379 164.741 97.3564 165.128 97.8716C166.957 100.294 169.931 102.022 173.465 103.243C182.409 106.331 191.627 108.398 201.398 109.76C222.859 112.752 244.92 114.309 266.75 115.126C313.02 116.862 359.661 115.656 405.737 112.708C451.943 109.755 498.147 104.819 543.284 97.4063C566.706 93.5574 589.767 88.4683 611.912 81.9236C631.19 76.2295 649.587 69.6035 665.889 60.3847C670.185 57.9535 673.374 54.4487 676.867 51.3851C679.697 48.8973 681.424 46.2499 681.611 43.0749C681.773 40.4354 680.728 37.9579 678.962 35.6746C677.194 33.3904 674.715 31.3171 672.042 29.4959C658.405 20.2083 639.758 15.1814 621.812 11.3212C612.739 9.36766 603.549 8.02059 594.258 6.78044L590.27 6.25362C578.738 4.74657 567.122 3.58273 555.452 2.78418C543.764 1.98554 532.1 1.74972 520.368 1.43536C508.74 1.12206 497.111 0.906736 485.482 0.909746C438.692 0.912214 392.025 3.58623 345.49 6.63541L345.489 6.63638L345.488 6.63539L345.454 6.13798C345.925 6.10559 346.388 5.99682 346.875 5.88279C347.355 5.77034 347.859 5.65229 348.382 5.61669C360.122 4.84832 371.874 4.10097 383.624 3.41703C407.588 2.01835 431.602 0.873197 455.652 0.297911L460.206 0.199164ZM206.833 63.2675C200.661 65.6722 194.587 68.2005 188.632 70.869C180.099 74.692 172.315 78.526 166.356 84.2508L165.785 84.8108C164.337 86.2664 162.803 87.7521 162.115 89.3771L162.116 89.3781C161.756 90.2416 161.279 91.3013 160.934 92.3671C160.609 93.3719 160.417 94.3387 160.533 95.1164L160.561 95.269L160.561 95.2709C160.824 96.5536 161.593 97.8414 162.676 99.0195C163.759 100.196 165.142 101.25 166.611 102.064C170.139 104.021 174.814 105.31 179.013 106.455C183.918 107.792 189 108.794 194.127 109.615L196.001 109.906C205.385 111.32 214.939 112.177 224.459 113.091C245.778 115.13 267.279 115.973 288.771 116.233C281.418 116.101 274.07 115.901 266.732 115.626C245.574 114.834 224.192 113.347 203.345 110.532L201.329 110.256C191.532 108.889 182.282 106.816 173.302 103.716C169.723 102.48 166.642 100.707 164.727 98.1726C164.338 97.6542 163.874 97.0116 163.504 96.3465C163.138 95.6873 162.849 94.9745 162.838 94.3177C162.831 93.833 162.998 93.3127 163.184 92.8326C163.377 92.3319 163.585 91.8853 163.711 91.4713L163.711 91.4694C163.88 90.934 163.996 90.3505 164.154 89.7313C164.308 89.1257 164.499 88.5049 164.814 87.9571C166.503 85.0112 170.031 82.1663 172.976 79.8812C176.128 77.4391 179.703 75.2199 183.597 73.3715C191.128 69.7977 198.899 66.4174 206.833 63.2675ZM513.954 0.774381C516.096 0.824676 518.238 0.87774 520.38 0.935458C532.107 1.24968 543.785 1.48592 555.486 2.28545C567.166 3.08472 578.793 4.24976 590.335 5.75812C600.986 7.15199 611.525 8.59451 621.917 10.832C639.863 14.6919 658.597 19.7343 672.323 29.0826C675.018 30.9187 677.544 33.0265 679.357 35.3688C681.17 37.7121 682.281 40.3067 682.109 43.1059C681.924 46.2555 680.303 48.8789 677.726 51.2828L677.198 51.7613C673.759 54.7772 670.491 58.3546 666.134 60.8197C655.201 67.0031 643.332 72.0198 630.899 76.3696C631.319 76.2317 631.74 76.0965 632.159 75.9576C641.694 72.8028 650.841 69.0688 659.437 64.8174C663.784 62.6674 668.831 60.4702 672.112 57.5975C672.981 56.8322 673.854 56.0688 674.725 55.3055C675.596 54.5422 676.468 53.7785 677.336 53.0136L678.045 52.408C678.286 52.2065 678.531 52.0057 678.776 51.8044C679.266 51.401 679.758 50.9968 680.229 50.5847C681.175 49.7586 682.026 48.9115 682.61 47.9986L682.94 47.4606C684.501 44.7826 684.804 42.2694 684.216 39.9137C683.586 37.3905 681.927 35.019 679.628 32.8067C675.028 28.3792 667.944 24.6605 661.755 21.6976C657.492 19.6568 652.4 18.2298 647.645 16.7687C642.474 15.1748 637.21 13.727 631.885 12.4337C621.486 9.9054 610.798 7.95762 599.974 6.58423C576.24 3.5843 552.522 1.38593 528.407 0.997337C523.585 0.91985 518.768 0.844593 513.954 0.774381ZM506.692 8.07941C518.934 8.20747 531.165 8.78905 543.246 10.0876C554.242 11.2678 565.047 13.1214 575.795 15.107C575.965 15.1377 576.166 15.1223 576.401 15.0717C576.635 15.0213 576.882 14.9404 577.143 14.8551C577.175 14.8446 577.208 14.8343 577.24 14.8238C566.319 12.8247 555.324 10.9786 544.149 9.86268C532.336 8.68371 520.364 8.21316 508.445 8.09395C507.861 8.08828 507.276 8.08343 506.692 8.07941Z" fill="url(#paint1_linear_51_1098)"/>
</g>
<defs>
<filter id="filter0_dd_51_1098" x="0" y="0" width="844.994" height="436.833" filterUnits="userSpaceOnUse" color-interpolation-filters="sRGB">
<feFlood flood-opacity="0" result="BackgroundImageFix"/>
<feColorMatrix in="SourceAlpha" type="matrix" values="0 0 0 0 0 0 0 0 0 0 0 0 0 0 0 0 0 0 127 0" result="hardAlpha"/>
<feMorphology radius="48" operator="erode" in="SourceAlpha" result="effect1_dropShadow_51_1098"/>
<feOffset dy="64"/>
<feGaussianBlur stdDeviation="40"/>
<feComposite in2="hardAlpha" operator="out"/>
<feColorMatrix type="matrix" values="0 0 0 0 0 0 0 0 0 0 0 0 0 0 0 0 0 0 0.1 0"/>
<feBlend mode="normal" in2="BackgroundImageFix" result="effect1_dropShadow_51_1098"/>
<feColorMatrix in="SourceAlpha" type="matrix" values="0 0 0 0 0 0 0 0 0 0 0 0 0 0 0 0 0 0 127 0" result="hardAlpha"/>
<feMorphology radius="40" operator="erode" in="SourceAlpha" result="effect2_dropShadow_51_1098"/>
<feOffset dy="160"/>
<feGaussianBlur stdDeviation="100"/>
<feComposite in2="hardAlpha" operator="out"/>
<feColorMatrix type="matrix" values="0 0 0 0 0 0 0 0 0 0 0 0 0 0 0 0 0 0 0.1 0"/>
<feBlend mode="normal" in2="effect1_dropShadow_51_1098" result="effect2_dropShadow_51_1098"/>
<feBlend mode="normal" in="SourceGraphic" in2="effect2_dropShadow_51_1098" result="shape"/>
</filter>
<linearGradient id="paint0_linear_51_1098" x1="242.676" y1="79.0709" x2="481.601" y2="250.989" gradientUnits="userSpaceOnUse">
<stop stop-color="#2B7FFF"/>
<stop offset="0.447115" stop-color="#155DFC"/>
<stop offset="0.826923" stop-color="#841CFA"/>
<stop offset="0.894231" stop-color="#9810FA"/>
</linearGradient>
<linearGradient id="paint1_linear_51_1098" x1="242.676" y1="79.0709" x2="481.601" y2="250.989" gradientUnits="userSpaceOnUse">
<stop stop-color="#2B7FFF"/>
<stop offset="0.447115" stop-color="#155DFC"/>
<stop offset="0.826923" stop-color="#841CFA"/>
<stop offset="0.894231" stop-color="#9810FA"/>
</linearGradient>
</defs>
</svg>
