<svg width="65" height="50" viewBox="0 0 65 50" xmlns="http://www.w3.org/2000/svg"><title>Artboard</title><desc>Created with Sketch.</desc><path d="M0 2.997c0-1.655 1.343-2.997 3.005-2.997h58.991c1.659 0 3.005 1.337 3.005 2.997v44.007c0 1.655-1.343 2.997-3.005 2.997h-58.991c-1.659 0-3.005-1.337-3.005-2.997v-44.007zm37.06 38.003h9.352v-16.296c0-5.992-.896-13.832-10.08-13.832-3.696 0-6.272 2.016-7.392 3.752v-3.024h-9.128v29.4h9.352v-17.528c0-2.352 1.456-4.2 4.032-4.2 2.24 0 3.864 1.456 3.864 4.2v17.528z" fill="#F3504B"/></svg>