<svg height="36" viewBox="0 0 36 36" width="36" xmlns="http://www.w3.org/2000/svg" xmlns:xlink="http://www.w3.org/1999/xlink"><filter id="a" height="138.9%" width="138.9%" x="-19.4%" y="-13.9%"><feOffset dx="0" dy="2" in="SourceAlpha" result="shadowOffsetOuter1"/><feGaussianBlur in="shadowOffsetOuter1" result="shadowBlurOuter1" stdDeviation="2"/><feColorMatrix in="shadowBlurOuter1" result="shadowMatrixOuter1" type="matrix" values="0 0 0 0 0   0 0 0 0 0   0 0 0 0 0  0 0 0 0.5 0"/><feMerge><feMergeNode in="shadowMatrixOuter1"/><feMergeNode in="SourceGraphic"/></feMerge></filter><g fill="none" fill-rule="evenodd" filter="url(#a)"><path d="m33.5858195 9.00145186c4.9697934 8.60794864 2.0204973 19.61475414-6.5872714 24.58436764-8.6079486 4.9697934-19.6147541 2.0204973-24.58436755-6.5872714-4.96979345-8.6079486-2.02049734-19.6147541 6.58727131-24.58436755 8.60794864-4.96979345 19.61457414-2.02049734 24.58436764 6.58727131" fill="#747480" fill-opacity=".18"/><path d="m31.7199406 8.50137121c4.6936938 8.12972929 1.9082475 18.52504559-6.2213118 23.21856939-8.1297293 4.6936938-18.52504558 1.9082475-23.21856939-6.2213118-4.69369381-8.1297293-1.90824749-18.52504558 6.2213118-23.21856939 8.12972929-4.69369381 18.52487559-1.90824749 23.21856939 6.2213118" fill="#fff"/><g transform="translate(1.3077 1.3077)"><path d="m29.2799452 7.84741957c4.3326404 7.50436553 1.7614592 17.10004203-5.7427494 21.43252563-7.5043655 4.3326404-17.10004206 1.7614592-21.43252558-5.7427494-4.33264044-7.5043655-1.76145921-17.10004206 5.74274935-21.43252558 7.50436553-4.33264044 17.09988513-1.76145921 21.43252563 5.74274935" fill="#fe0"/><g fill="#000"><path d="m7.00427299 26.5126103-5.27402074-9.1347941 2.7665502-1.5973179 3.88227181 6.7244589 3.46501394-2.0004528 1.391592 2.4103353z"/><path d="m10.3823516 18.4814548c-1.62101323-2.807664-.55048541-5.9820567 2.2708309-7.6109161 2.8213162-1.62885943 6.1058688-.96884183 7.7268821 1.8386652 1.6208563 2.807664.5503285 5.9822137-2.2709878 7.6110731s-6.1057119.9686849-7.7267252-1.8388222zm7.190049-4.1512376c-.7353406-1.273743-2.1832679-1.7889207-3.5117769-1.0220387-1.328509.767039-1.6061056 2.278677-.870765 3.552263.7353406 1.273743 2.1832679 1.7890777 3.5117769 1.0220387 1.328509-.7668821 1.6061056-2.2785201.870765-3.552263z"/><path d="m23.5900788 16.9367061-5.2740207-9.13479416 2.7665502-1.59731789 3.8822718 6.72445885 3.4650139-2.0004528 1.391592 2.4103353z"/></g></g></g></svg>