<svg height="29" viewBox="0 0 29 29" width="29" xmlns="http://www.w3.org/2000/svg" xmlns:xlink="http://www.w3.org/1999/xlink"><filter id="a" height="107.1%" width="107.1%" x="-1.8%" y="-1.8%"><feOffset dx="1" dy="1" in="SourceAlpha" result="shadowOffsetOuter1"/><feColorMatrix in="shadowOffsetOuter1" result="shadowMatrixOuter1" type="matrix" values="0 0 0 0 0.921568627   0 0 0 0 0.921568627   0 0 0 0 0.960784314  0 0 0 0.16 0"/><feMerge><feMergeNode in="shadowMatrixOuter1"/><feMergeNode in="SourceGraphic"/></feMerge></filter><g fill="none" fill-rule="evenodd" filter="url(#a)"><path d="m26.122304 7.00112923c3.8653949 6.69507117 1.5714979 15.25591987-5.1234332 19.12117477-6.6950712 3.8653949-15.25591991 1.5714979-19.12117482-5.1234332-3.8653949-6.6950712-1.57149792-15.25591991 5.12343325-19.12117482 6.69507117-3.8653949 15.25577987-1.57149792 19.12117477 5.12343325" fill="#fe0"/><g fill="#000"><path d="m6.24891022 23.6534073-4.7052538-8.1496693 2.46819675-1.4250581 3.46359543 5.9992721 3.0913359-1.7847177 1.2415184 2.1503972z"/><path d="m9.26268625 16.4883567c-1.4461981-2.5048767-.49111936-5.3369329 2.02593735-6.79013103 2.5170567-1.45319808 5.4473928-.86435886 6.8935909 1.64037783 1.4460581 2.5048767.4909793 5.337073-2.0260773 6.7902711-2.5170567 1.453198-5.4472529.8642188-6.89345095-1.6405179zm6.41465155-3.7035551c-.6560391-1.1363785-1.9478174-1.5959979-3.1330559-.9118188-1.1852384.6843191-1.4328981 2.0329373-.776859 3.1691758.6560392 1.1363785 1.9478175 1.5961379 3.1330559.9118188 1.1852385-.6841791 1.4328981-2.0327973.776859-3.1691758z"/><path d="m21.0460507 15.1101985-4.7052538-8.14966922 2.4681968-1.42505812 3.4635954 5.99927214 3.0913359-1.7847177 1.2415184 2.1503972z"/></g></g></svg>