<svg fill="none" height="128" viewBox="0 0 128 128" width="128" xmlns="http://www.w3.org/2000/svg"><path d="m0 0h128v128h-128z" fill="#ff453a"/><g fill="#fff"><path d="m25.0306 63.6156c-.0337.5267-.102.9042-.2061 1.3823l-1.6677-.1069c.1389-.564.1658-.7532.192-1.1629.0779-1.2142-.3593-1.727-1.4565-1.7973l-7.3731-.4728.1201-1.8726 7.5194.4822c2.0335.1304 3.0136 1.339 2.8719 3.548z"/><path d="m25.5843 51.4623c-1.2391.3572-2.6285.2282-4.0045-.3933-1.3761-.6216-2.3913-1.5788-2.9425-2.7447-.5804-1.2433-.5824-2.6276.015-3.9502s1.6374-2.2362 2.9541-2.6226c1.239-.3572 2.6285-.2283 4.0045.3933s2.3913 1.5788 2.9424 2.7446c.5804 1.2434.5825 2.6277-.0149 3.9503-.5975 1.3226-1.6375 2.2362-2.9541 2.6226zm1.4444-3.3045c.3681-.8149.3492-1.6278-.0493-2.419-.3986-.7913-1.1123-1.4193-2.1409-1.884-1.0287-.4646-1.9717-.5849-2.8289-.3609s-1.4796.7472-1.8477 1.5621-.3492 1.6277.0494 2.419 1.1122 1.4193 2.1409 1.884c1.0287.4646 1.9716.5849 2.8289.3609.8572-.224 1.4795-.7472 1.8476-1.5621z"/><path d="m35.7413 29.3055-2.8543-3.1899 1.3984-1.2512 7.0183 7.8438-1.3983 1.2512-3.0693-3.4303-3.7581 3.3626 3.0693 3.4303-1.3983 1.2511-7.0184-7.8438 1.3984-1.2512 2.8543 3.19z"/><path d="m51.2973 16.7455 1.7159-.5539 3.2335 10.0164-1.5625.5043-7.3396-5.7486 2.3733 7.3519-1.7159.5539-3.2334-10.0164 1.8414-.5944 6.9526 5.5038z"/><path d="m63.1571 21.3338c.0246-.7325.2938-1.3249.7934-1.7922.4997-.4673 1.1234-.6957 1.8413-.6717.7179.0241 1.2956.2928 1.7629.7925s.6962 1.1087.6717 1.8413c-.0241.7179-.2933 1.3102-.793 1.7775-.4996.4673-1.0935.6821-1.8114.658s-1.3254-.2791-1.7927-.7788-.6962-1.1087-.6722-1.8266z"/><path d="m85.0624 19.6183 1.6738.6705-3.9137 9.7706-1.5242-.6105-1.9718-9.112-2.8727 7.1715-1.6738-.6704 3.9138-9.7707 1.7962.7195 1.8306 8.6764z"/><path d="m96.0619 26.63 1.4191 1.2275-6.8857 7.9606-1.4191-1.2275z"/><path d="m95.9267 41.5173 8.9653-5.5137 3.732 6.0686-1.398.8601-2.765-4.4953-2.247 1.3823 2.326 3.7835-1.398.8601-2.327-3.7835-2.5222 1.5512 2.7642 4.4953-1.3982.86z"/><path d="m102.848 57.828-.576-3.4706 10.383-1.7247.576 3.4707c.262 1.5762.003 2.9714-.771 4.0362-.757 1.0769-1.991 1.7871-3.553 2.0466-1.562.2594-2.96-.0137-4.024-.7879-1.077-.7573-1.773-1.994-2.035-3.5703zm8.516-3.1234-7.201 1.1962.276 1.663c.348 2.0969 1.953 3.1678 4.165 2.8003 2.242-.3724 3.387-1.8852 3.034-4.011z"/><path d="m103.267 70.2625 10.271 2.2994-1.556 6.9523-1.603-.3587 1.153-5.1498-2.575-.5765-.97 4.3345-1.602-.3587.97-4.3345-2.889-.6469-1.153 5.1499-1.603-.3587z"/><path d="m100.176 89.1298.957-1.4055-3.3682-2.2941 1.0563-1.5508 8.6989 5.9251-2.368 3.4772c-1.362 1.9992-3.115 2.49-4.811 1.3347-1.345-.916-1.7547-2.2415-1.1664-3.7563l-5.016-.1352 1.2048-1.769zm4.955 1.3178-2.665-1.8155-1.255 1.8416c-.751 1.1025-.691 2.0302.17 2.6161.872.5941 1.737.314 2.496-.8006z"/><path d="m85.9844 107.195-1.9086-8.3752 1.2992-.7977 6.6057 5.4909-4.2572-6.933 1.4866-.9128 5.5075 8.9698-2.1987 1.35-6.5298-5.452 1.9077 8.29-2.1487 1.319-5.5074-8.969 1.4866-.913z"/><path d="m72.8364 103.397 1.4086 10.431-7.0603.953-.2197-1.627 5.2298-.706-.3531-2.615-4.4018.594-.2197-1.627 4.4018-.594-.3963-2.935-5.2299.707-.2197-1.628z"/><path d="m54.701 113.894-1.5588-4.999-3.7311 3.675-1.9339-.485 5.1857-5.078 1.0541-4.209 1.8202.455-1.0541 4.21 2.1945 6.926z"/><path d="m44.0451 98.8053-6.1388 8.5497-5.7871-4.155.9576-1.334 4.2867 3.078 1.539-2.143-3.608-2.591.9576-1.3336 3.608 2.5906 1.7271-2.4053-4.2868-3.078.9576-1.3336z"/><path d="m27.8753 88.5916.9225 1.4286 3.4235-2.2107 1.0179 1.5763-8.8422 5.7096-2.2822-3.5344c-1.3121-2.032-1.0823-3.8381.6418-4.9514 1.3669-.8827 2.7474-.7445 3.9141.3867l2.0756-4.5684 1.161 1.7979zm-3.1415 4.0527 2.7093-1.7494-1.2087-1.8719c-.7236-1.1207-1.6015-1.4263-2.4759-.8617-.8866.5725-.965 1.4782-.2334 2.6111z"/><path d="m22.4208 77.4239c-.7134.1684-1.3556.0639-1.9375-.2957-.582-.3597-.9659-.9017-1.131-1.6008-.165-.6991-.0571-1.327.3026-1.909.3596-.5819.8873-.9625 1.6007-1.1309.6991-.165 1.3413-.0606 1.9233.2991.5819.3597.9449.8765 1.1099 1.5756s.0782 1.3522-.2815 1.9342c-.3597.5819-.8874.9625-1.5865 1.1275z"/></g></svg>