<svg fill="none" height="128" viewBox="0 0 128 128" width="128" xmlns="http://www.w3.org/2000/svg"><path d="m0 0h128v128h-128z" fill="#ff453a"/><g fill="#fff"><path d="m34.273 62.8541c-.0254.395-.0766.6782-.1546 1.0367l-1.2508-.0802c.1042-.423.1243-.5649.144-.8721.0584-.9107-.2695-1.2953-1.0924-1.348l-5.5298-.3546.0901-1.4044 5.6395.3616c1.5251.0978 2.2602 1.0043 2.154 2.661z"/><path d="m34.6882 53.7391c-.9293.2679-1.9713.1712-3.0034-.295-1.032-.4662-1.7935-1.1841-2.2068-2.0585-.4353-.9325-.4368-1.9707.0112-2.9627.4481-.9919 1.2281-1.6771 2.2156-1.9669.9293-.2679 1.9713-.1712 3.0034.295 1.032.4662 1.7935 1.1841 2.2068 2.0585.4353.9325.4368 1.9707-.0112 2.9626-.4481.992-1.2281 1.6772-2.2156 1.967zm1.0834-2.4784c.276-.6112.2619-1.2208-.0371-1.8143-.2989-.5934-.8341-1.0644-1.6057-1.4129-.7715-.3485-1.4787-.4387-2.1216-.2707s-1.1097.5604-1.3857 1.1716c-.2761.6112-.262 1.2208.037 1.8143.2989.5934.8341 1.0644 1.6057 1.4129.7715.3485 1.4787.4387 2.1216.2707s1.1097-.5604 1.3858-1.1716z"/><path d="m42.306 37.1215-2.1407-2.3924 1.0487-.9384 5.2638 5.8828-1.0488.9384-2.3019-2.5727-2.8186 2.5219 2.302 2.5727-1.0487.9384-5.2638-5.8828 1.0487-.9384 2.1407 2.3925z"/><path d="m53.973 27.7015 1.2869-.4154 2.4251 7.5122-1.1718.3783-5.5047-4.3114 1.7799 5.5138-1.2869.4155-2.4251-7.5123 1.3811-.4458 5.2144 4.1279z"/><path d="m62.8678 31.1427c.0184-.5494.2203-.9936.5951-1.3441s.8425-.5218 1.381-.5038c.5384.0181.9717.2196 1.3221.5944.3505.3747.5222.8315.5038 1.3809-.0181.5384-.22.9827-.5947 1.3332-.3748.3504-.8202.5115-1.3586.4935-.5385-.0181-.9941-.2093-1.3445-.5841-.3505-.3748-.5222-.8315-.5042-1.37z"/><path d="m79.2968 29.8561 1.2553.5029-2.9353 7.3279-1.143-.4578-1.479-6.834-2.1544 5.3786-1.2554-.5029 2.9353-7.3279 1.3472.5396 1.3729 6.5073z"/><path d="m87.5464 35.1149 1.0644.9206-5.1643 5.9704-1.0644-.9206z"/><path d="m87.445 46.2804 6.7242-4.1353 2.7991 4.5514-1.0489.6451-2.0734-3.3715-1.6858 1.0367 1.7452 2.8377-1.0489.645-1.7452-2.8376-1.8917 1.1634 2.0734 3.3715-1.0489.645z"/><path d="m92.6361 58.5134-.4323-2.603 7.7873-1.2935.4319 2.603c.197 1.1822.003 2.2286-.5778 3.0272-.568.8076-1.4937 1.3403-2.665 1.5349-1.1714.1946-2.2196-.0103-3.0182-.5909-.8076-.568-1.3295-1.4955-1.5259-2.6777zm6.3871-2.3426-5.4012.8972.2072 1.2472c.2612 1.5727 1.4645 2.3759 3.124 2.1002 1.6811-.2792 2.5402-1.4138 2.2754-3.0082z"/><path d="m92.9501 67.8392 7.7029 1.7246-1.1669 5.2142-1.2016-.269.8647-3.8624-1.9312-.4323-.7278 3.2508-1.2016-.269.7278-3.2508-2.1673-.4852-.8647 3.8624-1.2016-.269z"/><path d="m90.6318 81.9897.718-1.0541-2.5262-1.7206.7922-1.1631 6.5244 4.4438-1.7763 2.608c-1.0212 1.4993-2.3361 1.8674-3.6083 1.001-1.0086-.687-1.3159-1.6812-.8746-2.8173l-3.7621-.1014.9037-1.3267zm3.7166.9884-1.9991-1.3617-.9407 1.3813c-.5632.8269-.5183 1.5226.1269 1.962.6542.4456 1.3028.2356 1.8722-.6004z"/><path d="m79.9883 95.5387-1.4315-6.2815.9744-.5983 4.9543 4.1184-3.1929-5.1999 1.115-.6846 4.1306 6.7271-1.649 1.0125-4.8974-4.0888 1.4308 6.2173-1.6115.9895-4.1306-6.727 1.1149-.6846z"/><path d="m70.1273 92.6901 1.0565 7.8229-5.2953.715-.1648-1.22 3.9224-.5298-.2648-1.9612-3.3014.4459-.1648-1.2203 3.3014-.4459-.2972-2.2009-3.9224.5297-.1648-1.2203z"/><path d="m56.5257 100.563-1.1691-3.7494-2.7983 2.756-1.4504-.3632 3.8893-3.8089.7906-3.1569 1.3651.3419-.7906 3.1568 1.6459 5.1947z"/><path d="m48.5338 89.2464-4.6041 6.4123-4.3403-3.1165.7182-1.0002 3.215 2.3084 1.1543-1.6075-2.706-1.943.7182-1.0002 2.706 1.943 1.2953-1.804-3.2151-2.3085.7182-1.0003z"/><path d="m36.4065 81.5861.6918 1.0714 2.5677-1.658.7634 1.1823-6.6316 4.2821-1.7117-2.6508c-.9841-1.524-.8117-2.8786.4813-3.7135 1.0253-.662 2.0606-.5584 2.9356.29l1.5567-3.4263.8708 1.3485zm-2.3561 3.0395 2.0319-1.3121-.9065-1.4039c-.5427-.8405-1.2011-1.0697-1.8569-.6462-.665.4294-.7238 1.1086-.1751 1.9583z"/><path d="m32.3156 73.2103c-.535.1263-1.0167.048-1.4531-.2218-.4365-.2698-.7245-.6762-.8482-1.2006-.1238-.5243-.0429-.9952.2268-1.4317.2698-.4365.6656-.7219 1.2006-.8482.5243-.1238 1.006-.0454 1.4424.2243.4365.2698.7087.6574.8325 1.1817.1238.5244.0586 1.0142-.2111 1.4506-.2698.4365-.6656.722-1.1899.8457z"/></g></svg>