<svg height="40" viewBox="0 0 40 40" width="40" xmlns="http://www.w3.org/2000/svg"><path d="m20.4991986 12c-4.6936558 0-8.4991986 3.9018512-8.4991986 8.7153745 0 3.8504964 2.4352753 7.1167108 5.8129403 8.2696793.4252753.0797521.5802489-.1893651.5802489-.4204909 0-.2065129-.0073015-.7549472-.0114788-1.4820291-2.3643128.5264821-2.8631573-1.1684163-2.8631573-1.1684163-.3866618-1.0063991-.9439532-1.2749249-.9439532-1.2749249-.7717508-.5403778.0584398-.5296604.0584398-.5296604.8531552.0614956 1.3019145.8982644 1.3019145.8982644.758187 1.3316162 1.9896494.946973 2.473891.7244211.077227-.5633647.2963833-.9475644.5395642-1.165312-1.8873937-.2198911-3.8718337-.9678165-3.8718337-4.3073525 0-.9512674.3313531-1.7291793.8750736-2.3385548-.0876597-.2204307-.3793532-1.1064107.0829699-2.306447 0 0 .7138306-.2343337 2.3376976.8934748.6778217-.1936741 1.4052302-.2899827 2.1279349-.2931906.7216516.0032079 1.4490601.0995165 2.1279559.2931906 1.622821-1.1278085 2.3350649-.8934748 2.3350649-.8934748.4638537 1.2000363.1722163 2.0860163.0845285 2.306447.5448016.6093755.8739994 1.3872874.8739994 2.3385548 0 3.3481099-1.9875431 4.0848005-3.8811501 4.3004047.3052574.2691171.5770966.800921.5770966 1.6141854 0 1.1647207-.0104608 2.1047459-.0104608 2.3904196 0 .2332693.1529096.5045299.5844683.4194561 3.3750322-1.155112 5.8082456-4.4192568 5.8082456-8.2686445 0-4.8135233-3.8060995-8.7153745-8.5008014-8.7153745z" fill="#fff"/></svg>