<svg height="32" viewBox="0 0 38 32" width="38" xmlns="http://www.w3.org/2000/svg"><path d="m18.7949091-1c-8.7224242 0-15.79442425 7.072-15.79442425 15.7963636 0 6.9789091 4.52557576 12.8989091 10.80242425 14.9886061.790303.1444848 1.078303-.3432727 1.078303-.7621818 0-.3743031-.0135757-1.3682424-.0213333-2.6860606-4.393697.9541818-5.32072728-2.1178182-5.32072728-2.1178182-.71854546-1.824-1.75418182-2.3107879-1.75418182-2.3107879-1.43418182-.9793939.10860606-.96.10860606-.96 1.58545454.1115152 2.41939394 1.6281212 2.41939394 1.6281212 1.4089697 2.4135758 3.6974545 1.7163637 4.5973333 1.3129697.1435152-1.0210909.5507879-1.7173333 1.0026667-2.112-3.5073939-.3985454-7.19515152-1.7541818-7.19515152-7.8070303 0-1.7241212.61575758-3.1340606 1.62618182-4.2385454-.1629091-.3995152-.7049697-2.00533337.1541818-4.18036367 0 0 1.3265455-.42472728 4.3442424 1.61939394 1.2596364-.35103031 2.611394-.52557576 3.9544243-.53139394 1.3410909.00581818 2.6928485.18036363 3.9544242.53139394 3.0157576-2.04412122 4.339394-1.61939394 4.339394-1.61939394.8620606 2.1750303.32 3.78084847.1570909 4.18036367 1.0123636 1.1044848 1.6242424 2.5144242 1.6242424 4.2385454 0 6.0683637-3.6935758 7.4036364-7.2126061 7.7944243.5672728.4877575 1.0724849 1.4516363 1.0724849 2.9255757 0 2.1110303-.019394 3.8147879-.019394 4.3326061 0 .4227879.2841213.9144242 1.0860607.7602424 6.272-2.0935758 10.7936969-8.009697 10.7936969-14.9866667 0-8.7243636-7.0729697-15.7963636-15.7973333-15.7963636" fill="#ff453a" fill-rule="evenodd"/></svg>