<?xml version="1.0" encoding="UTF-8"?>
<svg width="38px" height="32px" viewBox="0 0 38 32" version="1.1" xmlns="http://www.w3.org/2000/svg" xmlns:xlink="http://www.w3.org/1999/xlink">
    <!-- Generator: Sketch 40.3 (33839) - http://www.bohemiancoding.com/sketch -->
    <title>icon-social-linkedin</title>
    <desc>Created with Sketch.</desc>
    <defs></defs>
    <g id="Asssets" stroke="none" stroke-width="1" fill="none" fill-rule="evenodd">
        <g id="icon-social-linkedin" fill="#F3504B">
            <g id="Group-5" transform="translate(4.000000, 0.000000)">
                <path d="M26.3690492,26.3681896 L21.7798014,26.3681896 L21.7798014,19.1864767 C21.7798014,17.474212 21.750576,15.2711324 19.3953524,15.2711324 C17.0066055,15.2711324 16.6421476,17.1372603 16.6421476,19.0644177 L16.6421476,26.3681896 L12.0580572,26.3681896 L12.0580572,11.6007657 L16.4573399,11.6007657 L16.4573399,13.6198971 L16.5209481,13.6198971 C17.1329624,12.4586172 18.6303345,11.2345886 20.8626395,11.2345886 C25.5103381,11.2345886 26.3690492,14.2920814 26.3690492,18.2693148 L26.3690492,26.3681896 L26.3690492,26.3681896 Z M6.88344186,9.58335331 C5.40927818,9.58335331 4.22049195,8.3911288 4.22049195,6.92126297 C4.22049195,5.45225671 5.40927818,4.2600322 6.88344186,4.2600322 C8.35158855,4.2600322 9.54295349,5.45225671 9.54295349,6.92126297 C9.54295349,8.3911288 8.35158855,9.58335331 6.88344186,9.58335331 L6.88344186,9.58335331 Z M4.58494991,26.3681896 L9.1793551,26.3681896 L9.1793551,11.6007657 L4.58494991,11.6007657 L4.58494991,26.3681896 Z M28.6546476,0 L2.28216011,0 C1.02288909,0 0,0.998821109 0,2.23144544 L0,28.7113792 C0,29.9440036 1.02288909,30.9445438 2.28216011,30.9445438 L28.6546476,30.9445438 C29.9164973,30.9445438 30.9436843,29.9440036 30.9436843,28.7113792 L30.9436843,2.23144544 C30.9436843,0.998821109 29.9164973,0 28.6546476,0 L28.6546476,0 Z" id="Fill-4"></path>
            </g>
        </g>
    </g>
</svg>
