<svg height="40" viewBox="0 0 40 40" width="40" xmlns="http://www.w3.org/2000/svg"><path d="m13.180035 12h13.6363989c.6524603 0 1.1835661.5164442 1.1835661 1.1537752v13.6915581c0 .6373334-.5311058 1.1546667-1.1835661 1.1546667h-13.6363989c-.6511313 0-1.180035-.5173333-1.180035-1.1546667v-13.6915581c0-.637331.5289037-1.1537752 1.180035-1.1537752zm10.0815471 13.6337524h2.372947v-4.187581c0-2.0564114-.44396-3.6372952-2.847189-3.6372952-1.1541903 0-1.9284583.6328838-2.2449469 1.2333333h-.0328496v-1.044h-2.2747381v7.6355429h2.3702662v-3.7764572c0-.996419.1884885-1.9612952 1.4236322-1.9612952 1.217775 0 1.2328782 1.1391238 1.2328782 2.0244571zm-7.7024003-8.6786514c-.7622458 0-1.376933-.616442-1.376933-1.376442 0-.759558.6146872-1.376 1.376933-1.376.7591271 0 1.3751509.616442 1.3751509 1.376 0 .76-.6160238 1.376442-1.3751509 1.376442zm1.187123 8.6786514h-2.3756203v-7.63552h2.3756203z" fill="#fff" fill-rule="evenodd"/></svg>