<svg height="40" viewBox="0 0 40 40" width="40" xmlns="http://www.w3.org/2000/svg"><path d="m20.0000137 12c-2.1726924 0-2.4452764.0090028-3.2985419.048015-.8517663.0390126-1.4329453.1740547-1.9421094.3716164-.5261605.2045642-.9723052.4781479-1.4169435.9227928-.4446383.4446377-.7182242.8907735-.9227872 1.4169414-.1975619.508656-.3331043 1.0903408-.3716165 1.9421055-.0390124.8532701-.0480152 1.1258517-.0480152 3.2985289 0 2.1726798.0090028 2.4452468.0480152 3.2985096.0390117.8518083.1740546 1.4330132.3716165 1.9421492.204563.5261533.4781489.9723109.9227872 1.4169413s.890783.7182156 1.4169435.9227863c.5086595.1975893 1.0903431.3330728 1.9421094.3716162.8532655.0389797 1.1258495.0479974 3.2985419.0479974 2.1726996 0 2.4452331-.0090177 3.2985131-.0479974.8517663-.0389797 1.4329453-.1740269 1.9421166-.3716162.5261821-.2045707.9722836-.4781559 1.4169435-.9227863s.7182025-.890788.9227648-1.4169413c.1975706-.5086997.3331526-1.0903409.3716432-1.9421492.0389951-.8532628.0480051-1.1258298.0480051-3.2985096 0-2.1726772-.00901-2.4452588-.0480051-3.2985289-.0389951-.8517647-.1740726-1.4329477-.3716432-1.9421055-.2045623-.5261679-.4781049-.9723037-.9227648-1.4169414-.4446599-.4446449-.8907614-.7182286-1.4169435-.9227928-.5086668-.1975617-1.0903503-.3331041-1.9421166-.3716164-.85328-.0390122-1.1258135-.048015-3.2985131-.048015zm5.2306826 3.7296693c0 .5301676-.4295952.9598025-.9598138.9598025-.5301465 0-.9597417-.4296349-.9597417-.9598025s.4295952-.9598025.9597417-.9598025c.5302186 0 .9598138.4296349.9598138.9598025zm-5.2306105.1620348c-2.2687315 0-4.1083074 1.8390712-4.1083074 4.1082935 0 2.2686769 1.8390785 4.1082862 4.1083074 4.1082862 2.2687098 0 4.1082569-1.8391002 4.1082569-4.1082862 0-2.2687205-1.8390425-4.1082935-4.1082569-4.1082935zm-.0000721 6.7746216c-1.4729639 0-2.6668351-1.1938261-2.6668351-2.6668371 0-1.4729383 1.1938712-2.6668154 2.6668351-2.6668154 1.4729495 0 2.6668063 1.1938771 2.6668063 2.6668154 0 1.473011-1.1938568 2.6668371-2.6668063 2.6668371z" fill="#fff" fill-rule="evenodd"/></svg>