<?xml version="1.0" encoding="UTF-8" standalone="no"?>
<svg width="38px" height="32px" viewBox="0 0 38 32" version="1.1" xmlns="http://www.w3.org/2000/svg" xmlns:xlink="http://www.w3.org/1999/xlink">
    <!-- Generator: Sketch 39.1 (31720) - http://www.bohemiancoding.com/sketch -->
    <title>icon-social-facebook</title>
    <desc>Created with Sketch.</desc>
    <defs>
        <polygon id="path-1" points="1.16104869e-05 30.987809 30.9877045 30.987809 30.9877045 4.64419475e-05 1.16104869e-05 4.64419475e-05"></polygon>
    </defs>
    <g id="Assets" stroke="none" stroke-width="1" fill="none" fill-rule="evenodd">
        <g id="icon-social-facebook">
            <g id="social-facebook" transform="translate(4.000000, 0.000000)">
                <g id="Welcome">
                    <g id="Group">
                        <g id="Fill-1-Clipped">
                            <g>
                                <mask id="mask-2" fill="white">
                                    <use xlink:href="#path-1"></use>
                                </mask>
                                <g id="path-1"></g>
                                <path d="M28.3646704,4.64419475e-05 L1.65691515,4.64419475e-05 C0.74173747,4.64419475e-05 1.16104869e-05,0.765641948 1.16104869e-05,1.71027116 L1.16104869e-05,29.2775146 C1.16104869e-05,30.2220277 0.74173747,30.9878554 1.65691515,30.9878554 L16.0355308,30.9878554 L16.0355308,18.9877206 L12.1230787,18.9877206 L12.1230787,14.3110165 L16.0355308,14.3110165 L16.0355308,10.8621213 C16.0355308,6.85975431 18.4037892,4.68034981 21.8629269,4.68034981 C23.5199429,4.68034981 24.9440026,4.80760075 25.3589596,4.86449213 L25.3589596,9.04728614 L22.9598803,9.04844719 C21.0786817,9.04844719 20.7143429,9.97113258 20.7143429,11.3251476 L20.7143429,14.3110165 L25.2010307,14.3110165 L24.6168963,18.9877206 L20.7143429,18.9877206 L20.7143429,30.9878554 L28.3646704,30.9878554 C29.2797355,30.9878554 30.0215739,30.2220277 30.0215739,29.2775146 L30.0215739,1.71027116 C30.0215739,0.765641948 29.2797355,4.64419475e-05 28.3646704,4.64419475e-05" id="Fill-1" fill="#F3504B" mask="url(#mask-2)"></path>
                            </g>
                        </g>
                    </g>
                </g>
            </g>
        </g>
    </g>
</svg>