<?xml version="1.0" encoding="UTF-8" standalone="no"?>
<svg width="38px" height="32px" viewBox="0 0 38 32" version="1.1" xmlns="http://www.w3.org/2000/svg" xmlns:xlink="http://www.w3.org/1999/xlink">
    <!-- Generator: Sketch 39.1 (31720) - http://www.bohemiancoding.com/sketch -->
    <title>icon-social-instagram</title>
    <desc>Created with Sketch.</desc>
    <defs></defs>
    <g id="Assets" stroke="none" stroke-width="1" fill="none" fill-rule="evenodd">
        <g id="icon-social-instagram" fill="#F3504B">
            <g id="social-instagram" transform="translate(3.000000, 0.000000)">
                <g id="Group">
                    <path d="M16,2.887 C20.271,2.887 20.777,2.903 22.463,2.98 C24.022,3.051 24.869,3.312 25.433,3.531 C26.18,3.821 26.712,4.168 27.272,4.728 C27.832,5.288 28.178,5.821 28.468,6.567 C28.687,7.131 28.948,7.978 29.019,9.537 C29.096,11.224 29.112,11.73 29.112,16 C29.112,20.271 29.096,20.777 29.019,22.463 C28.948,24.022 28.687,24.869 28.468,25.433 C28.178,26.18 27.831,26.712 27.272,27.272 C26.712,27.832 26.179,28.178 25.433,28.468 C24.869,28.687 24.022,28.948 22.463,29.019 C20.777,29.096 20.271,29.112 16,29.112 C11.729,29.112 11.223,29.096 9.537,29.019 C7.978,28.948 7.131,28.687 6.567,28.468 C5.82,28.178 5.288,27.831 4.728,27.272 C4.168,26.712 3.822,26.179 3.532,25.433 C3.313,24.869 3.052,24.022 2.981,22.463 C2.904,20.776 2.888,20.27 2.888,16 C2.888,11.729 2.904,11.223 2.981,9.537 C3.052,7.978 3.313,7.131 3.532,6.567 C3.822,5.82 4.169,5.288 4.728,4.728 C5.288,4.168 5.821,3.822 6.567,3.531 C7.131,3.312 7.978,3.051 9.537,2.98 C11.224,2.903 11.73,2.887 16,2.887 M16,0.005 C11.656,0.005 11.111,0.023 9.405,0.101 C7.702,0.179 6.54,0.449 5.522,0.844 C4.47,1.253 3.578,1.8 2.689,2.689 C1.8,3.578 1.253,4.47 0.844,5.522 C0.449,6.539 0.178,7.702 0.101,9.405 C0.023,11.111 0.005,11.656 0.005,16 C0.005,20.344 0.023,20.889 0.101,22.595 C0.179,24.298 0.449,25.46 0.844,26.478 C1.253,27.53 1.8,28.422 2.689,29.311 C3.578,30.2 4.47,30.747 5.522,31.156 C6.539,31.551 7.702,31.822 9.405,31.899 C11.111,31.977 11.656,31.995 16,31.995 C20.344,31.995 20.889,31.977 22.595,31.899 C24.298,31.821 25.46,31.551 26.478,31.156 C27.53,30.747 28.422,30.2 29.311,29.311 C30.2,28.422 30.747,27.53 31.156,26.478 C31.551,25.461 31.822,24.298 31.899,22.595 C31.977,20.889 31.995,20.344 31.995,16 C31.995,11.656 31.977,11.111 31.899,9.405 C31.821,7.702 31.551,6.54 31.156,5.522 C30.747,4.47 30.2,3.578 29.311,2.689 C28.422,1.8 27.53,1.253 26.478,0.844 C25.461,0.449 24.298,0.178 22.595,0.101 C20.889,0.023 20.344,0.005 16,0.005" id="Shape"></path>
                    <path d="M16,7.786 C11.464,7.786 7.786,11.463 7.786,16 C7.786,20.536 11.463,24.214 16,24.214 C20.536,24.214 24.214,20.537 24.214,16 C24.214,11.464 20.537,7.786 16,7.786 L16,7.786 Z M16,21.331 C13.055,21.331 10.668,18.944 10.668,15.999 C10.668,13.054 13.055,10.667 16,10.667 C18.945,10.667 21.332,13.054 21.332,15.999 C21.332,18.944 18.945,21.331 16,21.331 L16,21.331 Z" id="Shape"></path>
                    <path d="M26.458,7.462 C26.458,8.522 25.599,9.381 24.539,9.381 C23.479,9.381 22.62,8.522 22.62,7.462 C22.62,6.402 23.479,5.543 24.539,5.543 C25.599,5.543 26.458,6.402 26.458,7.462" id="Shape"></path>
                </g>
            </g>
        </g>
    </g>
</svg>