<svg height="32" viewBox="0 0 38 32" width="38" xmlns="http://www.w3.org/2000/svg"><path d="m32.3646704.00004644h-26.70775525c-.91517768 0-1.65690354.76559551-1.65690354 1.71022472v27.56724344c0 .9445131.74172586 1.7103408 1.65690354 1.7103408h14.37861565v-12.0001348h-3.9124521v-4.6767041h3.9124521v-3.4488952c0-4.00236699 2.3682584-6.18177149 5.8273961-6.18177149 1.657016 0 3.0810757.12725094 3.4960327.18414232v4.18279401l-2.3990793.00116105c-1.8811986 0-2.2455374.92268539-2.2455374 2.27670041v2.9858689h4.4866878l-.5841344 4.6767041h-3.9025534v12.0001348h7.6503275c.9150651 0 1.6569035-.7658277 1.6569035-1.7103408v-27.56724344c0-.94462921-.7418384-1.71022472-1.6569035-1.71022472" fill="#ff453a" fill-rule="evenodd"/></svg>