<svg height="32" viewBox="0 0 38 32" width="38" xmlns="http://www.w3.org/2000/svg"><path d="m30.3690492 26.3681896h-4.5892478v-7.1817129c0-1.7122647-.0292254-3.9153443-2.384449-3.9153443-2.3887469 0-2.7532048 1.8661279-2.7532048 3.7932853v7.3037719h-4.5840904v-14.7674239h4.3992827v2.0191314h.0636082c.6120143-1.1612799 2.1093864-2.3853085 4.3416914-2.3853085 4.6476986 0 5.5064097 3.0574928 5.5064097 7.0347262zm-19.4856073-16.78483629c-1.47416372 0-2.66294995-1.19222451-2.66294995-2.66209034 0-1.46900626 1.18878623-2.66123077 2.66294995-2.66123077 1.4681467 0 2.6595116 1.19222451 2.6595116 2.66123077 0 1.46986583-1.1913649 2.66209034-2.6595116 2.66209034zm-2.29849199 16.78483629h4.59440519v-14.7674239h-4.59440519zm24.06969769-26.3681896h-26.37248749c-1.25927102 0-2.28216011.99882111-2.28216011 2.23144544v26.47993376c0 1.2326244 1.02288909 2.2331646 2.28216011 2.2331646h26.37248749c1.2618497 0 2.2890367-1.0005402 2.2890367-2.2331646v-26.47993376c0-1.23262433-1.027187-2.23144544-2.2890367-2.23144544z" fill="#ff453a" fill-rule="evenodd"/></svg>