<svg height="32" viewBox="0 0 38 32" width="38" xmlns="http://www.w3.org/2000/svg"><path d="m33.591582 7.86311462c-.4529974-3.33082281-3.3877436-5.95573588-6.866659-6.46437434-.5869333-.08594829-2.8107461-.39874028-7.962191-.39874028h-.0384717c-5.1528359 0-6.2583436.31279199-6.8452769.39874028-3.38206029.49454936-6.47062605 2.85316845-7.21997712 6.22340895-.36042847 1.65977179-.3988933 3.49989997-.33193608 5.18784997.0954494 2.4206231.11396951 4.8369936.3362101 7.2477602.15364077 1.6013488.42166359 3.1899398.80206141 4.75385.71230846 2.8884051 3.59574165 5.2920974 6.42075579 6.2727705 3.0246064 1.0226821 6.2773012 1.1924269 9.3939538.4903167.3428282-.078891.6819205-.1705 1.0171577-.2747475.7564794-.2381038 1.6440333-.5044256 2.2965038-.9722076.0089423-.0065577.0162949-.0150231.0214615-.0248.0051667-.0097372.008068-.0205475.0084257-.0315565v-2.3360487c-.000159-.0102936-.0026231-.0204282-.0072334-.0296487-.00465-.0092205-.0112871-.0173282-.0195141-.0236474-.0081871-.006359-.0177256-.0108103-.0278602-.0130757-.0101744-.0022256-.0207064-.0021859-.030841.0001193-1.9967975.4717564-4.0429962.7082307-6.0959513.7044948-3.5330461 0-4.4832756-1.658341-4.7554-2.3487666-.218709-.5966705-.3576128-1.2190551-.4131346-1.8513756-.0005564-.0106116.0014308-.0212231.0057628-.0309603.0043321-.0096974.0109693-.0182821.0192757-.0249987.0083461-.0067167.0181628-.0114064.0286551-.0136718.0104923-.0023051.021382-.0020667.0317949.0005961 1.963532.4685372 3.9763461.7050116 5.9962346.7044949.4857858 0 .970141 0 1.4559666-.0126782 2.0314936-.0563564 4.1726795-.1592128 6.1714244-.545282.0498782-.0098565.0997166-.0183218.1424807-.031 3.1526603-.5988167 6.1529038-2.4783706 6.4577769-7.2379039.0114064-.187391.0399026-1.9626974.0399026-2.157123.0014308-.6608167.215132-4.6876372-.0313577-7.16179488zm-4.8522551 11.87621918h-3.3150526v-8.0311461c0-1.6907718-.7123243-2.55304873-2.1611769-2.55304873-1.5927243 0-2.3904974 1.02009873-2.3904974 3.03490003v4.3959987h-3.295141v-4.3959987c0-2.0148013-.7992039-3.03490003-2.3919282-3.03490003-1.4403077 0-2.1597462.86227693-2.1611769 2.55304873v8.0311461h-3.3122308v-8.2748936c0-1.69077174.4364244-3.03398584 1.3092333-4.02968199.9003513-.99331154 2.0813718-1.50334102 3.5473141-1.50334102 1.6966936 0 2.9788616.64527692 3.8336269 1.93451922l.8248782 1.36952435.8262693-1.36952435c.8547653-1.2892423 2.1369333-1.93451922 3.8308051-1.93451922 1.4645115 0 2.6454923.51002948 3.5487051 1.50334102.8728487.9947423 1.3092333 2.3379564 1.3092333 4.02968199z" fill="#ff453a"/></svg>