<svg height="40" viewBox="0 0 40 40" width="40" xmlns="http://www.w3.org/2000/svg"><path d="m17.3401213 27c6.4148288 0 9.9253594-5.38804 9.9253594-10.052343 0-.151732 0-.302925-.0069504-.45465.6805106-.496083 1.2723505-1.122905 1.7414697-1.832593-.6258198.282478-1.2994502.468643-2.0070605.557956.7208793-.434203 1.2723505-1.129898 1.5373797-1.9568787-.6735602.4067637-1.4216094.6956957-2.2173989.8544207-.6396505-.6892403-1.5443302-1.115912-2.5441395-1.115912-1.9252701 0-3.4898197 1.584548-3.4898197 3.534433 0 .275485.0340501.544509.0882495.805994-2.8980008-.144732-5.469247-1.557108-7.1904903-3.6931559-.2990933.5235209-.4696246 1.1299029-.4696246 1.7777109 0 1.226211.6189045 2.308222 1.5512455 2.942044-.5716276-.020447-1.1087205-.179172-1.5783452-.441203v.048426c0 1.70884 1.2043487 3.141691 2.7959699 3.465581-.2927186.08281-.5987202.12376-.9185314.12376-.2247167 0-.4419985-.02044-.6529055-.06188.4419984 1.40539 1.7345263 2.42494 3.2586862 2.45294-1.1974404.95074-2.7008753 1.51571-4.3334058 1.51571-.2789019 0-.5578095-.014-.8298094-.04844 1.5374338.99218 3.373963 1.57752 5.3401213 1.57752" fill="#fff"/></svg>