<svg height="32" viewBox="0 0 38 32" width="38" xmlns="http://www.w3.org/2000/svg"><path d="m10.052 26.02c12.075 0 18.683-10.014 18.683-18.683 0-.282 0-.563-.013-.845 1.281-.922 2.395-2.087 3.278-3.406-1.178.525-2.446.871-3.778 1.037 1.357-.807 2.395-2.1 2.894-3.637-1.268.756-2.676 1.293-4.174 1.588-1.204-1.281-2.907-2.074-4.789-2.074-3.624 0-6.569 2.945-6.569 6.569 0 .512.064 1.012.166 1.498-5.455-.269-10.295-2.894-13.535-6.864-.563.973-.884 2.1-.884 3.304 0 2.279 1.165 4.29 2.92 5.468-1.076-.038-2.087-.333-2.971-.82v.09c0 3.176 2.267 5.839 5.263 6.441-.551.154-1.127.23-1.729.23-.423 0-.832-.038-1.229-.115.832 2.612 3.265 4.507 6.134 4.559-2.254 1.767-5.084 2.817-8.157 2.817-.525 0-1.05-.026-1.562-.09 2.894 1.844 6.351 2.932 10.052 2.932" fill="#ff453a" fill-rule="evenodd" transform="translate(3 3)"/></svg>