<?xml version="1.0" encoding="UTF-8" standalone="no"?>
<svg width="38px" height="32px" viewBox="0 0 38 32" version="1.1" xmlns="http://www.w3.org/2000/svg" xmlns:xlink="http://www.w3.org/1999/xlink">
    <!-- Generator: Sketch 39.1 (31720) - http://www.bohemiancoding.com/sketch -->
    <title>icon-social-github</title>
    <desc>Created with Sketch.</desc>
    <defs>
        <polygon id="path-1" points="0.000484848485 30.8117333 31.5917576 30.8117333 31.5917576 0 0.000484848485 0"></polygon>
    </defs>
    <g id="Assets" stroke="none" stroke-width="1" fill="none" fill-rule="evenodd">
        <g id="icon-social-github">
            <g id="social-github" transform="translate(3.000000, 0.000000)">
                <g id="Welcome">
                    <g id="Desktop-HD">
                        <g id="Page-1">
                            <g id="Fill-1-Clipped">
                                <mask id="mask-2" fill="white">
                                    <use xlink:href="#path-1"></use>
                                </mask>
                                <g id="path-1"></g>
                                <path d="M15.7949091,0 C7.07248485,0 0.000484848485,7.072 0.000484848485,15.7963636 C0.000484848485,22.7752727 4.52606061,28.6952727 10.8029091,30.7849697 C11.5932121,30.9294545 11.8812121,30.441697 11.8812121,30.0227879 C11.8812121,29.6484848 11.8676364,28.6545455 11.8598788,27.3367273 C7.46618182,28.2909091 6.53915152,25.2189091 6.53915152,25.2189091 C5.82060606,23.3949091 4.7849697,22.9081212 4.7849697,22.9081212 C3.35078788,21.9287273 4.89357576,21.9481212 4.89357576,21.9481212 C6.4790303,22.0596364 7.3129697,23.5762424 7.3129697,23.5762424 C8.72193939,25.9898182 11.0104242,25.2926061 11.910303,24.8892121 C12.0538182,23.8681212 12.4610909,23.1718788 12.9129697,22.7772121 C9.40557576,22.3786667 5.71781818,21.0230303 5.71781818,14.9701818 C5.71781818,13.2460606 6.33357576,11.8361212 7.344,10.7316364 C7.18109091,10.3321212 6.6390303,8.72630303 7.49818182,6.55127273 C7.49818182,6.55127273 8.82472727,6.12654545 11.8424242,8.17066667 C13.1020606,7.81963636 14.4538182,7.64509091 15.7968485,7.63927273 C17.1379394,7.64509091 18.489697,7.81963636 19.7512727,8.17066667 C22.7670303,6.12654545 24.0906667,6.55127273 24.0906667,6.55127273 C24.9527273,8.72630303 24.4106667,10.3321212 24.2477576,10.7316364 C25.2601212,11.8361212 25.872,13.2460606 25.872,14.9701818 C25.872,21.0385455 22.1784242,22.3738182 18.6593939,22.7646061 C19.2266667,23.2523636 19.7318788,24.2162424 19.7318788,25.6901818 C19.7318788,27.8012121 19.7124848,29.5049697 19.7124848,30.0227879 C19.7124848,30.4455758 19.9966061,30.9372121 20.7985455,30.7830303 C27.0705455,28.6894545 31.5922424,22.7733333 31.5922424,15.7963636 C31.5922424,7.072 24.5192727,0 15.7949091,0" id="Fill-1" fill="#F3504B" mask="url(#mask-2)"></path>
                            </g>
                        </g>
                    </g>
                </g>
            </g>
        </g>
    </g>
</svg>