<svg height="40" viewBox="0 0 40 40" width="40" xmlns="http://www.w3.org/2000/svg"><path d="m20.0163043 21.3714452c.1684783 0 .3328805-.0377249.4932066-.1131747s.330163-.1961695.5095108-.3621591l7.0923913-6.4962275c-.3043478-.2665893-.861413-.3998839-1.6711956-.3998839h-13.125c-.6902174 0-1.1684783.1232347-1.4347826.369704l7.1331522 6.5264074c.173913.1659896.3423913.2867093.5054347.3621591.1630435.0754498.3288044.1131747.4972826.1131747zm-8.8125 4.4138131 5.763587-5.2739408-5.7798913-5.2739408c-.125.2162894-.1875.5809634-.1875 1.094022v8.3296576c0 .5331786.0679348.9079126.2038043 1.124202zm17.6005435-.007545c.1304348-.2213194.1956522-.5935384.1956522-1.116657v-8.3296576c0-.5080286-.0597826-.8651576-.1793478-1.0713871l-5.763587 5.2513059zm-2.1195652 1.2222867c.6793478 0 1.1548913-.1207197 1.4266304-.362159l-5.8777173-5.3871155-.5380435.5055136c-.5489131.4828787-1.1086957.7243181-1.6793479.7243181-.5760869 0-1.1358695-.2414394-1.6793478-.7243181l-.5461956-.5055136-5.8614131 5.3795705c.3097826.2464693.8532609.369704 1.6304348.369704z" fill="#fff"/></svg>