<svg height="65" viewBox="0 0 65 65" width="65" xmlns="http://www.w3.org/2000/svg"><path d="m0 28.729.121647-1.3584 5.230813.4663c1.31785.1216 2.20992.8312 2.068 2.4329-.10137 1.1151-.8718 1.8045-2.02745 1.7031l-.62851-.0608.10138-1.2368.54741.0406c.44604.0405.85153-.1217.89208-.6083.04054-.5271-.2433-.8515-.85153-.892zm3.00063-11.1105c.89208-1.8247 2.89926-2.4329 5.0078-1.3989 2.18967 1.0745 2.79787 3.0412 1.92608 4.8051-.93263 1.9058-2.87898 2.4532-4.98752 1.4192-2.10855-1.034-2.85871-3.0007-1.94636-4.8254zm5.87961 2.8993c.54741-1.1151.12164-2.2505-1.50032-3.0412-1.35839-.669-2.71678-.6082-3.34529.6691-.60823 1.2367.0811 2.3721 1.50032 3.0817 1.39894.6691 2.71678.5677 3.34529-.7096zm6.38646-11.21179-2.4735 2.10859 2.068 2.4329-1.034.8921-4.74425-5.59579 1.03395-.89207 1.8653 2.18966 2.4735-2.10856-1.8653-2.18965 1.034-.89208 4.7443 5.57549-1.034.8921zm11.3943-1.90581-4.8456-4.23736 1.6016 5.23081-1.257.38522-2.1491-6.9947 1.5814-.48659 4.501 3.9738-1.5003-4.886149 1.2164-.3649406 2.1491 6.9946996zm7.8867-4.1968c0 .32439-.1216.56769-.3244.77043-.2027.20275-.4866.30412-.7907.28384-.3244 0-.5677-.12164-.7704-.34466-.2028-.22302-.3041-.48659-.2839-.79071 0-.32439.1217-.56768.3244-.77043.2028-.20274.4866-.28384.7907-.28384.3244 0 .5677.12165.7705.32439.2027.22302.3041.48659.2838.81098zm8.4748 5.7985-1.2368-6.32564-1.9463 5.12944-1.2165-.46631 2.5952-6.852778 1.5408.587958 1.1151 5.89988 1.8044-4.78478 1.1962.44604-2.5951 6.85277zm9.5695-2.63569 1.0543.85153-4.6226 5.67686-1.0543-.8515zm5.7985 5.67689 3.1223 4.805-1.0137.6488-2.3924-3.6697-1.5206.9935 2.1086 3.2236-.9935.6488-2.0883-3.2236-1.5611 1.0137 2.4938 3.8319-1.0543.6893-3.2439-4.9875zm-1.0137 15.2058-.4866-2.6154 7.1974-1.3178.5272 2.8587c.3447 1.8652-.5474 3.4264-3.0006 3.8724-2.3924.4461-3.8522-.6893-4.2374-2.7979zm6.0823-.8312-.2838-1.5409-4.8456.8921.2636 1.4192c.2635 1.4598 1.3178 1.8044 2.7776 1.5409 1.5003-.2839 2.3113-1.0746 2.0882-2.3113zm1.5409 9.8534-1.1962 5.616-1.1759-.2433.9123-4.2779-1.7841-.3852-.811 3.7508-1.1556-.2433.811-3.7508-1.8045-.3852-.9529 4.4604-1.2367-.2636 1.2367-5.7985zm-8.2922 10.6643-2.4735-1.703.7704-1.1354 6.0418 4.1563-2.0072 2.9195c-.8109 1.1962-2.0274 1.5206-3.0411.8313-.7705-.5272-.8516-1.5003-.6488-2.1694-.4866.3852-1.1962.5677-2.0883 0-.8312-.5271-1.4598-.7502-1.7233-.6691l.8312-1.1962c.3447-.0202 1.0543.3447 1.6828.7299.6894.4258 1.2773.2433 1.7639-.4663zm2.5748 1.7842-1.6219-1.1151-1.1151 1.622c-.4258.6285-.3852 1.2164.1419 1.5814.5069.3446 1.0543.1824 1.3584-.2839zm-14.0096 5.2916.7907-.4866 4.582 3.9333-2.9803-4.9064 1.0948-.6691 3.7913 6.2648-1.7436 1.0543-3.9333-3.4061-.0608.0405 1.1962 5.0687-1.7233 1.0542-3.7913-6.2648 1.0745-.6488 2.9804 4.9065zm-6.0013 10.1778-5.6972.7096-.1419-1.1962 4.3388-.5271-.223-1.8044-3.8117.4663-.1419-1.1759 3.8116-.4663-.223-1.845-4.5212.5677-.1622-1.2571 5.8796-.7298zm-13.219-4.805 1.2165 5.1294-1.4598-.3852-.7502-3.69-2.514 2.8385-1.4598-.3852 3.6089-3.8522.6893-2.5951 1.3382.3446zm-10.7252.6691-4.6226-3.4062.7096-.9731 3.5278 2.5951 1.0745-1.4598-3.0817-2.2707.7096-.9529 3.102 2.2707 1.0948-1.5003-3.6697-2.7168.7502-1.0137 4.7645 3.5075zm-6.28504-11.9417 2.55454-1.5611.7097 1.1759-6.24459 3.8116-1.84497-3.0209c-.75016-1.2368-.56769-2.4735.48658-3.102.81098-.4866 1.72333-.1622 2.25047.3041-.14192-.6082-.04055-1.3178.85153-1.9058.83125-.5474 1.27729-1.034 1.31784-1.2976l.75016 1.2368c-.12165.3244-.72988.8109-1.35839 1.2367-.66906.4663-.75016 1.0746-.30412 1.8044zm-2.67623 1.6219 1.68278-1.0137-1.034-1.6828c-.40549-.6487-.9529-.8515-1.50031-.5271-.52713.3244-.58796.8718-.30411 1.3584zm-2.35186-12.1038c.30412-.0811.58796-.0406.83125.1216.2433.1622.40549.3852.48659.6894.0811.3041.02028.5879-.12165.8312-.14192.2433-.38521.4055-.68933.4866s-.58796.0405-.83125-.1217c-.2433-.1621-.40549-.3852-.48659-.6893s-.04055-.5879.12165-.8312c.14192-.2636.38521-.4258.68933-.4866z" fill="#fff"/></svg>