<svg width="87" height="424" viewBox="0 0 87 424" fill="none" xmlns="http://www.w3.org/2000/svg">
<path d="M0.0001297 73.2H86.6401V55.56H30.6001L86.6401 21.48V0L0.0001297 0V18L61.3201 18L0.0001297 55.32V73.2Z" fill="white"/>
<path d="M0.0001297 84.3719V103.092H86.6401V84.3719H0.0001297Z" fill="white"/>
<path d="M0.0001297 114.312L0.0001297 185.592H16.9201V132.913H35.8801L35.8801 177.193H51.9601L51.9601 132.913H70.3201L70.3201 183.432H86.6401L86.6401 114.312H0.0001297Z" fill="white"/>
<path d="M43.4401 265.445C73.0801 265.445 86.6401 249.605 86.6401 226.445V190.805H0.0001297V223.205C0.0001297 248.885 14.6401 265.445 43.4401 265.445ZM43.4401 246.725C27.1201 246.725 16.5601 241.085 16.5601 225.005V209.525H70.5601V226.445C70.5601 240.245 60.3601 246.725 43.4401 246.725Z" fill="white"/>
<path d="M0.0001297 271.867V343.147H16.9201V290.467H35.8801V334.747H51.9601V290.467H70.3201L70.3201 340.987H86.6401V271.867H0.0001297Z" fill="white"/>
<path d="M34.4401 383.999C34.4401 392.879 30.1201 398.159 21.7201 398.279C12.7201 398.399 3.48013 399.599 0.0001297 403.439V423.839C3.24013 420.239 11.2801 417.599 22.4401 417.119C33.6001 416.639 38.6401 410.399 41.4001 403.559C44.8801 411.719 52.2001 420.239 62.4001 420.239C77.4001 420.239 86.6401 408.719 86.6401 391.199V348.359H0.0001297V367.079H34.4401V383.999ZM70.4401 391.199C70.4401 397.079 66.7201 401.519 60.7201 401.519C54.0001 401.519 50.4001 396.359 50.4001 388.559V367.079H70.4401V391.199Z" fill="white"/>
</svg>
