<svg fill="none" height="74" viewBox="0 0 75 74" width="75" xmlns="http://www.w3.org/2000/svg"><g fill="#ff453a"><path d="m7.88357 35.5681c-.02533.3949-.07654.6781-.15461 1.0367l-1.2508-.0802c.10424-.423.12436-.565.14406-.8722.0584-.9106-.26949-1.2952-1.09238-1.348l-5.529839-.3546.0900563-1.4044 5.6395527.3616c1.5251.0978 2.2602 1.0043 2.15396 2.6611z"/><path d="m8.29883 26.4531c-.9293.2679-1.97137.1711-3.0034-.295-1.03202-.4662-1.79349-1.1842-2.20682-2.0585-.43532-.9326-.43685-1.9708.01122-2.9627.44807-.992 1.22806-1.6771 2.21554-1.967.9293-.2679 1.97137-.1711 3.00339.295 1.03203.4662 1.79354 1.1841 2.20684 2.0585.4353.9325.4368 1.9707-.0112 2.9627-.4481.9919-1.2281 1.6771-2.21557 1.967zm1.08332-2.4784c.27608-.6112.26191-1.2208-.03703-1.8143s-.83416-1.0645-1.60568-1.413c-.77151-.3485-1.47872-.4387-2.12163-.2707-.64291.1681-1.10968.5604-1.38576 1.1716-.27609.6112-.26191 1.2208.03703 1.8143.29893.5935.83416 1.0644 1.60567 1.4129.77152.3485 1.47873.4388 2.12164.2707.64291-.168 1.10968-.5603 1.38576-1.1715z"/><path d="m15.9166 9.83548-2.1407-2.39247 1.0487-.93839 5.2638 5.88288-1.0488.9384-2.3019-2.5728-2.8186 2.522 2.302 2.5727-1.0488.9384-5.26372-5.8829 1.04872-.93838 2.1407 2.39248z"/><path d="m27.5836.415452 1.2869-.41543643 2.4251 7.51227443-1.1718.37829-5.5047-4.31148 1.7799 5.51389-1.2869.41544-2.4251-7.51228 1.3811-.44584 5.2144 4.12792z"/><path d="m36.4784 3.85668c.0184-.54941.2203-.99368.5951-1.34414.3748-.35047.8425-.5218 1.3809-.50376.5385.01804.9717.21957 1.3222.59433s.5222.83154.5038 1.38095c-.0181.53843-.22.98269-.5947 1.33315-.3748.35047-.8202.51155-1.3586.49351-.5385-.01804-.9941-.20932-1.3445-.58408-.3505-.37476-.5222-.83154-.5042-1.36996z"/><path d="m52.9074 2.57005 1.2553.50284-2.9353 7.32801-1.143-.45789-1.479-6.834-2.1544 5.37862-1.2554-.50285 2.9353-7.327983 1.3472.539643 1.3729 6.50729z"/><path d="m61.157 7.82883 1.0644.92065-5.1643 5.97042-1.0644-.9207z"/><path d="m61.0556 18.9943 6.7242-4.1353 2.7991 4.5515-1.0489.645-2.0734-3.3714-1.6858 1.0367 1.7452 2.8376-1.0489.6451-1.7452-2.8377-1.8917 1.1635 2.0734 3.3714-1.0489.6451z"/><path d="m66.2467 31.2273-.4323-2.603 7.7873-1.2935.4323 2.603c.1964 1.1822.0024 2.2287-.5782 3.0272-.568.8077-1.4937 1.3404-2.665 1.5349-1.1714.1946-2.2196-.0102-3.0182-.5909-.8076-.5679-1.3295-1.4955-1.5259-2.6777zm6.3871-2.3426-5.4012.8972.2072 1.2473c.2612 1.5726 1.4645 2.3758 3.124 2.1002 1.6811-.2793 2.5402-1.4139 2.2754-3.0082z"/><path d="m66.5607 40.5532 7.7034 1.7246-1.1674 5.2142-1.2016-.269.8647-3.8624-1.9312-.4324-.7278 3.2509-1.2016-.269.7278-3.2509-2.1673-.4852-.8647 3.8624-1.2016-.269z"/><path d="m64.2424 54.7037.718-1.0541-2.5262-1.7206.7922-1.1631 6.5244 4.4438-1.7763 2.6079c-1.0212 1.4994-2.3361 1.8675-3.6083 1.001-1.0086-.687-1.3159-1.6811-.8746-2.8172l-3.7621-.1014.9036-1.3267zm3.7166.9883-1.9991-1.3616-.9407 1.3812c-.5632.8269-.5183 1.5226.1269 1.9621.6542.4456 1.3028.2355 1.8722-.6005z"/><path d="m53.5989 68.2526-1.4315-6.2814.9744-.5983 4.9543 4.1183-3.1929-5.1999 1.115-.6846 4.1306 6.7271-1.649 1.0125-4.8974-4.0888 1.4308 6.2174-1.6115.9895-4.1306-6.7271 1.1149-.6846z"/><path d="m43.7379 65.4041 1.0565 7.823-5.2953.7151-.1648-1.2203 3.9224-.5297-.2648-1.9612-3.3014.4458-.1648-1.2203 3.3014-.4458-.2972-2.2009-3.9224.5297-.1648-1.2203z"/><path d="m30.1363 73.2771-1.1691-3.7496-2.7983 2.7561-1.4504-.3632 3.8893-3.809.7906-3.1569 1.3651.3419-.7906 3.1569 1.6459 5.1951z"/><path d="m22.1444 61.9603-4.6041 6.4123-4.3403-3.1164.7182-1.0003 3.215 2.3085 1.1543-1.6075-2.706-1.943.7181-1.0003 2.7061 1.943 1.2953-1.804-3.2151-2.3085.7182-1.0002z"/><path d="m10.0171 54.3.6918 1.0714 2.5677-1.6579.7634 1.1822-6.63164 4.2821-1.71167-2.6508c-.98406-1.5239-.81174-2.8785.48134-3.7135 1.02522-.662 2.06058-.5584 2.9356.29l1.55667-3.4263.8708 1.3485zm-2.35614 3.0396 2.03197-1.3121-.90652-1.4039c-.54273-.8405-1.20114-1.0697-1.85692-.6463-.66501.4294-.72375 1.1086-.17506 1.9584z"/><path d="m5.9262 45.9243c-.53502.1263-1.01667.0479-1.45314-.2219-.43646-.2697-.72444-.6762-.8482-1.2005s-.04289-.9953.22688-1.4318c.26976-.4364.66554-.7219 1.20056-.8482.52432-.1237 1.00597-.0454 1.44244.2244.43646.2698.70869.6574.83245 1.1817s.05864 1.0141-.21113 1.4506c-.26976.4364-.66554.7219-1.18986.8457z"/></g></svg>