<svg width="87" height="400" viewBox="0 0 87 400" fill="none" xmlns="http://www.w3.org/2000/svg">
<path d="M24.1199 328.36H86.9999V310.84H0.359863L0.359863 336.4L57.1199 354.88V355.84L0.359863 373.84L0.359863 400H86.9999V382.24H24.1199L86.9999 362.08V349.48L24.1199 328.36Z" fill="white"/>
<path d="M86.9999 300.891L86.9999 229.611H70.0799V282.291H51.1199V238.011H35.0399V282.291H16.6799L16.6799 231.771H0.359863L0.359863 300.891H86.9999Z" fill="white"/>
<path d="M86.9999 203.038V184.318H55.1999L0.359863 154.318L0.359863 174.958L39.1199 193.558L0.359863 212.038L0.359863 232.678L55.0799 203.038H86.9999Z" fill="white"/>
<path d="M86.9999 152.594V81.3138H70.0799V133.994H51.1199L51.1199 89.7137H35.0399L35.0399 133.994H16.6799V83.4738H0.359863L0.359863 152.594H86.9999Z" fill="white"/>
<path d="M52.5599 40.4615C52.5599 31.5815 56.8799 26.3016 65.2799 26.1815C74.2799 26.0616 83.5199 24.8615 86.9999 21.0215V0.621552C83.7599 4.22156 75.7199 6.86155 64.5599 7.34155C53.3999 7.82155 48.3599 14.0616 45.5999 20.9016C42.1199 12.7415 34.7999 4.22156 24.5999 4.22156C9.59986 4.22156 0.359863 15.7416 0.359863 33.2616L0.359863 76.1016H86.9999V57.3816H52.5599V40.4615ZM16.5599 33.2616C16.5599 27.3816 20.2799 22.9416 26.2799 22.9416C32.9999 22.9416 36.5999 28.1016 36.5999 35.9016V57.3816H16.5599V33.2616Z" fill="white"/>
</svg>
