<svg height="478" viewBox="0 0 87 478" width="87" xmlns="http://www.w3.org/2000/svg"><path d="m0 71.8317018h87v-15.1351027h-60.8518214l60.8518214-37.1170375v-19.5795616h-87v15.4954863h65.0692446l-65.0692446 40.2401539zm0 12.3898633v16.0955609h87v-16.0955609zm0 28.5630019v70.15h14.9418036v-54.053938h22.051254v45.525427h14.0983428v-45.525427h21.5692595v51.89178h14.3393401v-67.987842zm43.6204837 149.84152c29.7631681 0 43.3795163-16.216181 43.3795163-38.798715v-34.474401h-87v31.471404c0 25.465411 14.7008062 41.801712 43.6204837 41.801712zm0-16.096061c-17.7133024 0-29.1606748-6.246233-29.1606748-23.783733v-17.17714h58.562347v18.498459c0 14.894863-11.3268737 22.462414-29.4016722 22.462414zm-43.6204837 23.731681v70.149999h14.9418036v-54.053938h22.051254v45.525428h14.0983428v-45.525428h21.5692595v51.891781h14.3393401v-67.987842zm35.6675724 111.042805c0 10.210188-4.5789489 15.975941-14.2188414 16.456421-8.9169006.480479-18.31576564 1.681678-21.448731 4.204195v17.29726c2.04847746-2.402397 9.6398928-4.564555 21.3282323-4.924914 12.6523589-.36036 18.1952971-6.966952 20.4847716-13.933904 2.5304718 7.927911 9.7603912 16.816781 20.9667662 16.816781 14.7008361 0 24.2202299-11.411387 24.2202299-28.468408v-41.921832h-87v16.216182h35.6675724zm37.2340848 7.807791c0 6.606592-4.0969543 11.891866-11.4473723 11.891866-7.5914154 0-11.929367-5.525514-11.929367-14.534503v-23.423373h23.3767393zm-42.054031 30.509444v58.378253h11.6883696v-58.378253z" fill="#fff"/></svg>