<svg height="394" viewBox="0 0 88 394" width="88" xmlns="http://www.w3.org/2000/svg"><path d="m19.1576761 322.015963h68.2021869v-14.996404h-87v23.994246l58.9238347 18.955455v.719827l-58.9238347 18.955455v24.114217h87v-15.116375h-68.2021869l68.2021869-22.314649v-10.917382zm68.2021869-26.170724v-70.063199h-14.9418219v53.987054h-22.0512371v-45.469097h-14.0983319v45.469097h-21.5692429v-51.827572h-14.3393662v67.903717zm0-98.562365v-16.316088h-31.8116208l-55.1883792-29.752865v17.755742l40.1260588 20.155167-40.1260588 19.675282v17.755742l55.3088778-29.27298zm0-47.70756v-70.063299h-14.9418219v53.987154h-22.0512371v-45.4691965h-14.0983319v45.4691965h-21.5692429v-51.8276718h-14.3393662v67.9038168zm-35.6675748-110.905705c0-10.1975546 4.5789454-15.9561737 14.2188305-16.4360586 8.9168937-.479885 18.3157816-1.6794973 21.4487443-4.1988931v-17.2758983c-2.0484756 2.39942562-9.6398851 4.55888778-21.3282457 4.91880148-12.6523492.35991369-18.1952831 6.95839142-20.4847558 13.91672282-2.5304699-7.9181013-9.7603837-16.79603237-20.9667501-16.79603237-14.70085485 0-24.2202484 11.39722697-24.2202484 28.43314177v41.8699596h87v-16.1960162h-35.6675748zm-37.2340561-7.79803c0-6.5984177 4.0969511-11.8772519 11.4473635-11.8772519 7.5914095 0 11.9293578 5.5186767 11.9293578 14.516519v23.39449h-23.3767213z" fill="#fff"/></svg>