<svg width="30" height="30" viewBox="0 0 30 30" xmlns="http://www.w3.org/2000/svg"><title>social-instagram</title><desc>Created with Sketch.</desc><g fill="#2C2E3F"><path d="M14.966 2.756c3.996 0 4.469.015 6.048.087 1.459.067 2.251.31 2.779.515.651.24 1.239.622 1.723 1.119.497.483.88 1.072 1.119 1.723.205.528.449 1.32.515 2.779.072 1.578.087 2.051.087 6.048 0 3.996-.015 4.469-.087 6.048-.067 1.459-.31 2.251-.515 2.779-.503 1.305-1.535 2.337-2.84 2.84-.528.205-1.32.449-2.779.515-1.578.072-2.051.087-6.048.087-3.996 0-4.47-.015-6.048-.087-1.459-.067-2.251-.31-2.779-.515-.651-.24-1.239-.622-1.723-1.119-.497-.483-.88-1.072-1.119-1.723-.205-.528-.449-1.32-.515-2.779-.072-1.578-.087-2.051-.087-6.048 0-3.996.015-4.469.087-6.048.067-1.459.31-2.251.515-2.779.24-.651.622-1.239 1.119-1.723.483-.497 1.072-.88 1.723-1.119.528-.205 1.32-.449 2.779-.515 1.578-.072 2.051-.087 6.048-.087l-.002.002zm.002-2.698c-4.065 0-4.574.017-6.17.09s-2.682.327-3.634.697c-.999.376-1.903.965-2.651 1.726-.761.748-1.35 1.652-1.726 2.651-.37.952-.623 2.04-.696 3.633-.072 1.593-.09 2.106-.09 6.17 0 4.065.017 4.574.09 6.17s.326 2.68.696 3.633c.376.999.965 1.903 1.726 2.651.747.761 1.652 1.35 2.65 1.726.95.37 2.04.623 3.633.696 1.593.072 2.106.09 6.17.09 4.065 0 4.574-.017 6.17-.09s2.681-.326 3.633-.696c2.01-.777 3.6-2.367 4.377-4.377.37-.95.623-2.04.696-3.633.072-1.593.09-2.106.09-6.17 0-4.065-.017-4.574-.09-6.17s-.326-2.681-.696-3.633c-.376-.999-.965-1.903-1.726-2.651-.748-.761-1.652-1.351-2.651-1.726-.952-.37-2.04-.623-3.633-.695-1.593-.072-2.106-.09-6.17-.09l.002-.002zM14.966 7.34c-4.244 0-7.684 3.441-7.684 7.685s3.441 7.684 7.685 7.684 7.685-3.441 7.685-7.685c0-2.038-.81-3.993-2.251-5.434-1.441-1.441-3.396-2.251-5.434-2.251zm0 12.674c-2.756 0-4.99-2.234-4.99-4.99 0-2.756 2.234-4.99 4.99-4.99 2.756 0 4.99 2.234 4.99 4.99 0 2.756-2.234 4.99-4.99 4.99v.001z"/><ellipse cx="22.954" cy="7.036" rx="1.796" ry="1.796"/></g></svg>