<svg width="30" height="30" viewBox="0 0 30 30" xmlns="http://www.w3.org/2000/svg"><title>Group</title><desc>Created with Sketch.</desc><path d="M28.337 0h-26.685c-.91 0-1.652.742-1.652 1.652v26.674c0 .91.742 1.652 1.652 1.652h14.36v-11.596h-3.91v-4.528h3.91v-3.337c0-3.876 2.371-5.978 5.82-5.978 1.169 0 2.337.056 3.494.18v4.045h-2.393c-1.888 0-2.247.899-2.247 2.202v2.888h4.483l-.584 4.528h-3.899v11.618h7.64c.91 0 1.652-.742 1.652-1.652v-26.697c.011-.91-.73-1.652-1.64-1.652z" fill="#2C2E3F"/></svg>