<svg width="40" height="33" viewBox="0 0 40 33" xmlns="http://www.w3.org/2000/svg"><title>Shape</title><desc>Created with Sketch.</desc><path d="M40 3.839c-1.498.664-3.086 1.099-4.713 1.292 1.713-1.024 2.995-2.636 3.608-4.536-1.611.956-3.374 1.629-5.212 1.991-2.544-2.705-6.586-3.367-9.86-1.614-3.274 1.752-4.965 5.483-4.125 9.1-6.601-.33-12.752-3.448-16.919-8.578-2.177 3.751-1.063 8.548 2.544 10.956-1.303-.04-2.578-.391-3.718-1.024v.104c.001 3.907 2.754 7.273 6.584 8.047-1.208.33-2.476.38-3.706.146 1.072 3.346 4.154 5.639 7.667 5.706-2.907 2.281-6.497 3.518-10.192 3.511-.655-.003-1.309-.046-1.959-.126 3.753 2.412 8.121 3.692 12.583 3.687 15.095 0 23.348-12.505 23.348-23.35 0-.356-.008-.71-.023-1.062 1.606-1.162 2.992-2.602 4.092-4.25z" fill="#2C2E3F"/></svg>