<svg fill="none" height="220" viewBox="0 0 220 220" width="220" xmlns="http://www.w3.org/2000/svg" xmlns:xlink="http://www.w3.org/1999/xlink"><linearGradient id="a"><stop offset="0" stop-color="#2a2a2a"/><stop offset="1" stop-color="#0b0b0b"/></linearGradient><linearGradient id="b" gradientUnits="userSpaceOnUse" x1="28" x2="92" xlink:href="#a" y1="74" y2="146"/><linearGradient id="c" gradientUnits="userSpaceOnUse" x1="61.9994" x2="61.9994" y1="80.0011" y2="140.001"><stop offset="0" stop-color="#b1a7ff"/><stop offset=".5" stop-color="#7a9dff"/><stop offset="1" stop-color="#3941ff"/></linearGradient><linearGradient id="d" gradientUnits="userSpaceOnUse" x1="28" x2="92" xlink:href="#a" y1="74.3008" y2="146.301"/><path d="m83 70h-42c-10.4934 0-19 8.5066-19 19v42c0 10.493 8.5066 19 19 19h42c10.4934 0 19-8.507 19-19v-42c0-10.4934-8.5066-19-19-19z" fill="url(#b)"/><path d="m83 70.5h-42c-10.2173 0-18.5 8.2827-18.5 18.5v42c0 10.217 8.2827 18.5 18.5 18.5h42c10.2173 0 18.5-8.283 18.5-18.5v-42c0-10.2173-8.2827-18.5-18.5-18.5z" stroke="#fff" stroke-opacity=".18"/><path d="m48 126 11-13 1.5 10 15.5 4 6.5-15-24.5-13.5-16-2-1.5 20z" fill="#fff"/><path d="m52.2127 81.1478c2.4086-.991 5.0306-1.349 7.6167-1.04 3.3333.3833 6.3033 1.8 8.91 4.25.0333.0333.08.0566.1233.07.0471.0116.0963.0116.1434 0 3.3888-.8752 6.976-.5513 10.1533.9166l.1567.0734.3866.19c3.3259 1.6857 5.9201 4.53 7.2934 7.9966.6966 1.7 1.0433 3.47 1.0499 5.3167.0502 1.3729-.1003 2.7469-.4466 4.0769-.0171.067-.0169.137.0006.204s.0517.129.0994.179c1.98 2.023 3.2933 4.433 3.9433 7.233.9634 4.75-.0233 9.034-2.9566 12.847l-.4534.553c-1.9427 2.224-4.4927 3.832-7.3366 4.627-.0618.018-.1184.051-.1653.095s-.0828.098-.1047.158c-.6367 1.837-1.2767 3.41-2.4667 4.98-3 3.957-7.4067 6.154-12.37 6.127-3.9567-.02-7.4633-1.467-10.5233-4.34-.0461-.043-.1028-.073-.1642-.087-.0615-.014-.1256-.012-.1858.007-1.2934.417-2.6.477-4.0134.46-2.2511-.018-4.4684-.549-6.4833-1.553-2.1106-1.046-3.9481-2.57-5.3667-4.45-.5066-.674-1.01-1.307-1.38-2.057-.5051-1.029-.9178-2.101-1.2333-3.203-.666-2.508-.6821-5.144-.0467-7.66.0209-.06.0278-.124.02-.187-.0114-.062-.0431-.118-.09-.16-1.5398-1.558-2.7166-3.438-3.4466-5.503-.4855-1.273-.7679-2.613-.8367-3.974-.1211-1.791.0375-3.59.47-5.333 1.1233-3.7066 3.2733-6.6166 6.4433-8.7266.7067-.47 1.3767-.8366 2.0034-1.1.7166-.2966 1.4333-.5466 2.1533-.7566.0514-.016.0982-.0444.136-.0828s.0655-.0855.0807-.1372c.5467-1.9632 1.4868-3.7948 2.7633-5.3834 1.6091-2.0433 3.7182-3.6368 6.1233-4.6266zm11.6067 35.2162c-.5417.031-1.0512.267-1.424.662-.3727.394-.5804.916-.5804 1.458 0 .543.2077 1.065.5804 1.459.3728.394.8823.631 1.424.661h12.12c.2884.017.5771-.026.8483-.125.2713-.1.5195-.253.7294-.452.2099-.198.3771-.437.4913-.703.1143-.265.1733-.551.1733-.84 0-.288-.059-.574-.1733-.84-.1142-.265-.2814-.504-.4913-.702-.2099-.199-.4581-.352-.7294-.452-.2712-.099-.5599-.142-.8483-.126zm-13.6133-15.596c-.2885-.47-.7484-.8093-1.2825-.9461-.534-.1369-1.1004-.0606-1.5792.2121-.4789.274-.8327.722-.9867 1.252-.154.529-.096 1.098.1617 1.585l4.24 7.413-4.22 7.12c-.1421.24-.2355.505-.275.781s-.0244.557.0447.827c.069.27.1905.523.3576.746.167.223.3764.411.616.553.2397.142.505.236.7808.275.2757.04.5566.024.8265-.045s.5236-.19.7465-.357c.223-.167.4108-.377.5529-.616l4.8467-8.184c.191-.322.2933-.689.2962-1.064s-.0935-.744-.2796-1.069z" fill="url(#c)"/><path d="m179 70.3008h-42c-10.493 0-19 8.5066-19 19v42.0002c0 10.493 8.507 19 19 19h42c10.493 0 19-8.507 19-19v-42.0002c0-10.4934-8.507-19-19-19z" fill="url(#d)"/><path d="m179 70.8008h-42c-10.217 0-18.5 8.2827-18.5 18.5v42.0002c0 10.217 8.283 18.5 18.5 18.5h42c10.217 0 18.5-8.283 18.5-18.5v-42.0002c0-10.2173-8.283-18.5-18.5-18.5z" stroke="#fff" stroke-opacity=".18"/><path d="m140.888 119.154 10.819-6.073.209-.558-.209-.279h-.559l-1.814-.14-6.142-.14-5.375-.209-5.235-.279-1.326-.279-1.256-1.606.14-.767 1.116-.768 1.606.139 3.49.21 5.234.349 3.769.209 5.654.559h.907l.14-.349-.349-.21-.21-.209-5.444-3.699-5.863-3.909-3.071-2.2335-1.675-1.1168-.837-1.0469-.349-2.3034 1.535-1.6751 2.024.1396.489.1396 2.094 1.6053 4.397 3.4201 5.723 4.1881.489.418.349-.209.07-.139-.349-.629-3.141-5.6532-3.35-5.7234-1.466-2.3731-.419-1.3959c-.14-.5584-.209-1.047-.209-1.6751l1.745-2.3033.977-.2792 2.303.2792.977.8375 1.396 3.2805 2.303 5.0952 3.56 6.9797 1.047 2.0941.558 1.884.21.559h.349v-.349l.279-3.9089.558-4.816.559-6.212.209-1.7449.838-2.0939 1.745-1.1168 1.326.6282 1.116 1.6054-.139 1.0469-.628 4.2576-1.257 6.7005-.837 4.4669h.488l.559-.558 2.233-3.0015 3.769-4.7462 1.675-1.8845 1.955-2.0939 1.256-.9772h2.373l1.745 2.5825-.768 2.6523-2.443 3.071-2.024 2.6523-2.931 3.9082-1.815 3.141.14.28.419-.07 6.56-1.396 3.56-.628 4.258-.698 1.884.907.21.907-.768 1.885-4.537 1.117-5.305 1.047-7.887 1.884-.069.07.139.139 3.56.349 1.535.07h3.7l6.91.489 1.814 1.186 1.117 1.466-.209 1.117-2.792 1.396-3.769-.908-8.795-2.093-3.001-.768h-.419v.279l2.513 2.443 4.607 4.188 5.793 5.374.279 1.326-.768 1.047-.768-.139-5.095-3.839-1.954-1.745-4.397-3.699h-.28v.418l1.047 1.466 5.375 8.097.279 2.512-.419.838-1.396.488-1.535-.279-3.141-4.397-3.281-4.956-2.652-4.467-.349.21-1.535 16.681-.698.838-1.676.628-1.395-1.047-.768-1.745.768-3.42.907-4.397.698-3.49.628-4.397.419-1.466v-.07l-.349.07-3.281 4.537-5.025 6.77-3.978 4.258-.978.349-1.675-.838.14-1.535.907-1.326 5.514-6.98 3.281-4.328 2.163-2.512v-.349h-.139l-14.658 9.492-2.582.349-1.117-1.047.14-1.745.558-.558 4.397-3.001z" fill="#ff6d4d"/></svg>