<svg fill="none" height="407" viewBox="0 0 195 407" width="195" xmlns="http://www.w3.org/2000/svg"><g clip-rule="evenodd" fill-rule="evenodd"><path d="m37.138 3.03027h119.879c11.664 0 15.851 1.32163 20.104 3.59612 4.487 2.39941 8.008 5.92041 10.407 10.40701 2.275 4.2529 3.596 8.4401 3.596 20.1046v331.785c0 11.664-1.321 15.851-3.596 20.104-2.399 4.487-5.92 8.008-10.407 10.407-4.253 2.275-8.44 3.596-20.104 3.596h-119.879c-11.6645 0-15.8517-1.321-20.1046-3.596-4.4866-2.399-8.0076-5.92-10.40701-10.407-2.27449-4.253-3.59612-8.44-3.59612-20.104v-331.785c0-11.6645 1.32163-15.8517 3.59612-20.1046 2.39941-4.4866 5.92041-8.0076 10.40701-10.40701 4.2529-2.27449 8.4401-3.59612 20.1046-3.59612z" fill="#fff" stroke="#3a3a3c" stroke-width="6.06061"/><path d="m33.3338 346.969-8.9059 4.683 1.7009-9.917-7.205-7.023 9.9571-1.447 4.4529-9.023 4.4529 9.023 9.957 1.447-7.205 7.023 1.7009 9.917z" fill="#ff462d"/><path d="m98.5438 198.948-32.492 17.082 6.2055-36.18-26.2866-25.623 36.3271-5.279 16.246-32.918 16.2462 32.918 36.327 5.279-26.287 25.623 6.206 36.18z" fill="#ff462d"/><path d="m66.667 330.303h21.2121v21.212h-21.2121z" fill="#747480" fill-opacity=".18"/></g><path d="m162.121 354.545c7.531 0 13.636-6.105 13.636-13.636s-6.105-13.637-13.636-13.637-13.637 6.106-13.637 13.637 6.106 13.636 13.637 13.636z" fill="#747480" fill-opacity=".18"/><path d="m50 362.122v3.03h-30.3027v-3.03z" stroke="#ff462d" stroke-width="3.0303"/><g opacity=".4"><path clip-rule="evenodd" d="m60.6064 360.606h33.3334v6.061h-33.3334z" fill="#eddef4" fill-rule="evenodd"/><path d="m92.4248 362.122v3.03h-30.3027v-3.03z" stroke="#747480" stroke-opacity=".18" stroke-width="3.0303"/></g><g opacity=".4"><path clip-rule="evenodd" d="m103.03 360.606h33.334v6.061h-33.334z" fill="#eddef4" fill-rule="evenodd"/><path d="m134.849 362.122v3.03h-30.303v-3.03z" stroke="#747480" stroke-opacity=".18" stroke-width="3.0303"/></g><g opacity=".4"><path clip-rule="evenodd" d="m145.454 360.606h33.333v6.061h-33.333z" fill="#eddef4" fill-rule="evenodd"/><path d="m177.272 362.122v3.03h-30.302v-3.03z" stroke="#747480" stroke-opacity=".18" stroke-width="3.0303"/></g><path clip-rule="evenodd" d="m6.06055 318.182h184.84845v3.03h-184.84845z" fill="#747480" fill-opacity=".18" fill-rule="evenodd"/><path clip-rule="evenodd" d="m119.697 327.272 15.152 24.243h-30.303z" fill="#747480" fill-opacity=".18" fill-rule="evenodd"/></svg>