<svg fill="none" height="382" viewBox="0 0 402 382" width="402" xmlns="http://www.w3.org/2000/svg"><path clip-rule="evenodd" d="m.662109.662109h74.172091v252.979891h-74.172091z" fill="#fff" fill-rule="evenodd" stroke="#3a3a3c" stroke-width="1.3245"/><path d="m3.10547 40.3975h69.28693" stroke="#747480" stroke-opacity=".18" stroke-width="1.3245"/><path clip-rule="evenodd" d="m1.32422 62.251h72.84758v18.543h-72.84758z" fill="#ff462d" fill-rule="evenodd"/><path clip-rule="evenodd" d="m109.271.662109h74.173v332.449891h-74.173z" fill="#fff" fill-rule="evenodd" stroke="#3a3a3c" stroke-width="1.3245"/><path clip-rule="evenodd" d="m217.881.662109h74.172v380.131891h-74.172z" fill="#fff" fill-rule="evenodd" stroke="#3a3a3c" stroke-width="1.3245"/><path clip-rule="evenodd" d="m326.49.662109h74.172v295.363891h-74.172z" fill="#fff" fill-rule="evenodd" stroke="#3a3a3c" stroke-width="1.3245"/><g fill="#ff462d"><path clip-rule="evenodd" d="m75.4971 62.2516 33.1129-62.2516v333.775l-33.1129-252.9804z" fill-rule="evenodd" opacity=".34"/><path clip-rule="evenodd" d="m184.106 145.695 33.113-145.695v381.457l-33.113-217.219z" fill-rule="evenodd" opacity=".34"/><path clip-rule="evenodd" d="m292.715 97.6003 33.112-97.6003v296.689l-33.112-180.133z" fill-rule="evenodd" opacity=".34"/><path d="m111.975 9.0428c0 .1979.075.3667.232.51803l4.54 4.44107c.123.1281.286.1921.472.1921.378 0 .675-.291.675-.6752 0-.1862-.076-.355-.204-.4831l-4.091-3.9929 4.091-3.99291c.128-.13387.204-.30267.204-.48892 0-.37834-.297-.66937-.675-.66937-.186 0-.349.06403-.472.19208l-4.54 4.44109c-.157.15134-.227.32013-.232.51803z"/><path d="m123.913 13.3383c.407 0 .651-.2561.651-.6752v-2.85792l2.666-4.03365c.099-.15134.134-.28521.134-.43072 0-.3376-.279-.58788-.64-.58788-.256 0-.419.10477-.576.3667l-2.206 3.43413h-.041l-2.206-3.43413c-.163-.26775-.314-.3667-.582-.3667-.367 0-.646.25028-.646.5937 0 .14551.035.27938.134.4249l2.66 4.03365v2.85792c0 .4191.25.6752.652.6752z"/><path d="m129.785 13.361c1.141 0 2.032-.4598 2.433-1.2631.053-.1222.087-.2386.087-.3376 0-.3143-.221-.5122-.523-.5122-.181 0-.309.064-.443.2212-.465.6344-.896.8731-1.583.8731-1.001 0-1.63-.6985-1.63-1.816v-.0291h3.702c.39 0 .623-.2329.623-.6403 0-1.6705-1.123-2.84626-2.753-2.84626-1.735 0-2.841 1.25724-2.841 3.20136 0 1.9789 1.083 3.1489 2.928 3.1489zm-1.653-3.74264c.064-.95458.693-1.59484 1.56-1.59484.873 0 1.473.63444 1.502 1.59484z"/><path d="m135.216 13.3493c.797 0 1.577-.4307 1.932-1.1117h.029v.518c.012.3726.251.5996.6.5996.355 0 .605-.2387.605-.6345v-3.69604c0-1.22814-.948-2.01392-2.433-2.01392-1.1 0-2.025.44237-2.345 1.13501-.076.1397-.111.27939-.111.40744 0 .31431.227.52385.541.52385.221 0 .384-.08148.513-.26774.349-.55878.75-.77414 1.356-.77414.768 0 1.228.40744 1.228 1.08845v.47146l-1.682.09895c-1.45.08149-2.276.73918-2.276 1.81018 0 1.1001.844 1.8451 2.043 1.8451zm.343-.9953c-.669 0-1.117-.3492-1.117-.8847 0-.5239.425-.8556 1.175-.908l1.514-.0931v.4831c0 .7974-.693 1.4027-1.572 1.4027z"/><path d="m140.227 13.3552c.373 0 .629-.2561.629-.6636v-3.12563c0-.76249.349-1.33873 1.211-1.34455.261 0 .448-.05238.576-.16298.122-.09895.186-.24446.186-.44236s-.052-.34923-.169-.44236c-.105-.09895-.273-.15134-.494-.15134-.612 0-1.176.45983-1.345 1.14666h-.029v-.52386c0-.38415-.245-.63444-.594-.63444-.355 0-.599.25029-.599.63444v5.04642c0 .4075.25.6636.628.6636z"/><path d="m145.769 13.361c1.513 0 2.532-.7567 2.532-1.8917 0-.908-.495-1.3678-1.781-1.66469l-.949-.22118c-.646-.15133-.943-.41908-.943-.80324 0-.47728.466-.80905 1.141-.80905.617 0 .989.24446 1.263.7101.122.1979.303.26775.506.26775.315 0 .489-.18626.489-.46564 0-.05821-.011-.11642-.023-.18626-.175-.72175-1.083-1.28635-2.189-1.28635-1.455 0-2.415.73339-2.415 1.8393 0 .87309.582 1.45516 1.769 1.73456l.967.227c.657.1571.896.3725.896.7741 0 .5064-.483.8149-1.199.8149-.728 0-1.094-.2212-1.409-.7159-.157-.2329-.337-.3318-.547-.3318-.314 0-.541.1862-.541.5006 0 .0814.012.1688.052.2619.291.7508 1.176 1.2456 2.381 1.2456z"/><path d="m26.4798 33.2228c.5529 0 .8789-.3376.8789-.9139v-2.334l2.561-3.9638c.1281-.2037.1863-.3958.1863-.5995 0-.4657-.3725-.8149-.8673-.8149-.3492 0-.5762.1571-.7974.5413l-1.9266 3.1606h-.0408l-1.9207-3.1606c-.2329-.4016-.4366-.5413-.8149-.5413-.5064 0-.8789.3492-.8789.8265 0 .1979.0524.3958.1804.5937l2.5611 3.958v2.334c0 .5763.3259.9139.8789.9139z"/><path d="m32.5858 33.2457c1.2049 0 2.1711-.454 2.5843-1.2223.0757-.1397.1164-.2794.1164-.4133 0-.39-.2968-.6228-.6635-.6228-.2212 0-.3725.064-.553.2503-.4598.5413-.8672.7508-1.49.7508-.8615 0-1.4202-.6053-1.4202-1.5308v-.0756h3.5621c.4715 0 .7393-.2678.7393-.7393 0-1.6937-1.1874-2.9044-2.9569-2.9044-1.8451 0-3.015 1.2747-3.015 3.2828 0 2.0197 1.1466 3.2246 3.0965 3.2246zm-1.4086-3.9056c.0582-.7974.5995-1.3446 1.3446-1.3446.745 0 1.2689.5297 1.3038 1.3446z"/><path d="m38.1794 33.2108c.78 0 1.5599-.39 1.9092-1.0536h.0349v.3202c.0349.5005.3551.7566.8149.7566.4831 0 .8265-.291.8265-.8556v-3.5564c0-1.2572-1.0419-2.0837-2.6425-2.0837-1.2922 0-2.2933.4598-2.5844 1.2048-.0582.1281-.0873.2503-.0873.3842 0 .3842.2969.6519.7101.6519.2736 0 .489-.1048.6752-.3143.3784-.4889.6927-.6577 1.2107-.6577.6403 0 1.0477.3376 1.0477.9196v.4133l-1.5716.0931c-1.5599.0931-2.433.7509-2.433 1.8859 0 1.1233.9022 1.8917 2.0896 1.8917zm.5588-1.2282c-.5704 0-.9546-.291-.9546-.7567 0-.4423.3609-.7275.9953-.7741l1.3155-.0815v.454c0 .6752-.6112 1.1583-1.3562 1.1583z"/><path d="m43.7092 33.2341c.518 0 .8498-.3202.8498-.8848v-2.7705c0-.7393.2735-1.1758 1.0477-1.1874.3318-.0059.5762-.0815.7392-.2212s.2445-.3434.2445-.6112c0-.291-.0815-.5005-.2445-.6286-.1222-.1048-.3027-.1572-.5297-.1572-.6228 0-1.135.4599-1.298 1.234h-.0349v-.4074c0-.5413-.3259-.8557-.8032-.8557-.489 0-.8207.3144-.8207.8557v4.7495c0 .5646.3376.8848.8498.8848z"/><path d="m49.7385 33.2457c1.6472 0 2.759-.8033 2.759-2.043 0-.9313-.5472-1.4203-1.8743-1.6996l-1.0302-.2212c-.6228-.1339-.8673-.3493-.8673-.6752 0-.4016.4017-.6752.9779-.6752.6112 0 .9487.291 1.2456.6694.1513.1804.3958.2619.617.2619.4365 0 .6519-.2387.6519-.5821 0-.0815-.0175-.1629-.0408-.2503-.2037-.7042-1.1524-1.2921-2.4446-1.2921-1.6181 0-2.6484.7683-2.6484 1.9615 0 .9255.617 1.5483 1.8393 1.8102l1.0477.2212c.6112.1339.8266.3143.8266.6519 0 .4133-.4017.6694-1.0186.6694-.6461 0-1.0303-.1979-1.3621-.6345-.2328-.2619-.4656-.3841-.7392-.3841-.3958 0-.6868.2619-.6868.6519 0 .0931.0233.2037.064.3143.2969.7334 1.2515 1.2456 2.6833 1.2456z"/><path d="m220.584 9.0428c0 .1979.076.3667.233.51803l4.54 4.44107c.122.1281.285.1921.471.1921.379 0 .676-.291.676-.6752 0-.1862-.076-.355-.204-.4831l-4.092-3.9929 4.092-3.99291c.128-.13387.204-.30267.204-.48892 0-.37834-.297-.66937-.676-.66937-.186 0-.349.06403-.471.19208l-4.54 4.44109c-.157.15134-.227.32013-.233.51803z"/><path d="m230.008 13.2447h4.639c.355 0 .576-.2212.576-.5471 0-.3318-.221-.553-.576-.553h-3.487v-.0291l2.002-2.0081c1.415-1.41437 1.863-2.08956 1.863-3.04413 0-1.3853-1.135-2.37479-2.742-2.37479-1.67 0-2.642 1.03024-2.823 1.91496-.023.08731-.034.17462-.034.27357 0 .32595.209.55295.576.55295.32 0 .471-.15715.588-.41908.291-.8207.861-1.2456 1.688-1.2456.844 0 1.461.58206 1.461 1.37948 0 .66936-.268 1.10008-1.362 2.21763l-2.625 2.65421c-.286.2852-.361.4249-.361.681 0 .3259.221.5471.617.5471z"/><path d="m239.379 13.4019c2.02 0 3.207-1.6938 3.207-4.37128 0-2.66-1.199-4.34214-3.207-4.34214s-3.219 1.68796-3.219 4.34796c0 2.67746 1.193 4.36546 3.219 4.36546zm0-1.0943c-1.217 0-1.898-1.2398-1.898-3.27116 0-2.00227.699-3.2537 1.898-3.2537s1.892 1.2456 1.892 3.2537c0 2.03716-.681 3.27116-1.892 3.27116z"/><path d="m244.245 13.2447h4.639c.355 0 .576-.2212.576-.5471 0-.3318-.221-.553-.576-.553h-3.487v-.0291l2.003-2.0081c1.414-1.41437 1.862-2.08956 1.862-3.04413 0-1.3853-1.135-2.37479-2.741-2.37479-1.671 0-2.643 1.03024-2.823 1.91496-.024.08731-.035.17462-.035.27357 0 .32595.209.55295.576.55295.32 0 .472-.15715.588-.41908.291-.8207.861-1.2456 1.688-1.2456.844 0 1.461.58206 1.461 1.37948 0 .66936-.268 1.10008-1.362 2.21763l-2.625 2.65421c-.285.2852-.361.4249-.361.681 0 .3259.221.5471.617.5471z"/><path d="m253.488 13.4019c1.752 0 3.044-1.007 3.044-2.4854 0-1.17577-.826-1.92662-2.06-2.03722v-.0291c1.03-.21536 1.769-.92547 1.769-1.97317 0-1.25142-1.053-2.18853-2.765-2.18853-1.28 0-2.194.55877-2.613 1.39111-.111.21536-.157.40744-.157.63444 0 .34924.198.55878.565.55878.308 0 .448-.12223.587-.45983.291-.69846.769-1.05352 1.618-1.05352.996 0 1.496.51803 1.496 1.29799 0 .77995-.652 1.35037-1.612 1.35037h-.524c-.332 0-.541.20372-.541.50639s.209.50639.541.50639h.559c1.123 0 1.816.53549 1.81 1.4959-.006.8149-.692 1.3969-1.711 1.3969-.96 0-1.508-.4016-1.793-1.071-.134-.3026-.297-.4307-.576-.4307-.367 0-.588.227-.588.5762 0 .2096.052.4133.169.6287.466.8498 1.403 1.3853 2.782 1.3853z"/><path d="m132.535 33.1127h4.65c.454 0 .728-.2852.728-.6985 0-.4249-.274-.6985-.728-.6985h-3.166v-.0349l1.816-1.7462c1.373-1.2979 1.874-1.9382 1.874-2.9626 0-1.4435-1.199-2.4447-2.98-2.4447-1.589 0-2.643.8673-2.928 1.7986-.041.1222-.064.2445-.064.3783 0 .4366.279.716.751.716.378 0 .582-.163.78-.5122.303-.6752.768-1.0128 1.443-1.0128.751 0 1.287.4947 1.287 1.1874 0 .6053-.268 1.0128-1.304 2.0081l-2.503 2.3922c-.355.326-.483.5472-.483.8789 0 .4424.274.7509.827.7509z"/><path d="m142.197 33.2999c2.13 0 3.422-1.6938 3.422-4.4062s-1.303-4.3712-3.422-4.3712-3.428 1.6646-3.428 4.377c0 2.7182 1.298 4.4004 3.428 4.4004zm0-1.4086c-1.036 0-1.642-1.0652-1.642-2.9918 0-1.9091.617-2.9685 1.642-2.9685 1.03 0 1.635 1.0536 1.635 2.9685 0 1.9266-.599 2.9918-1.635 2.9918z"/><path d="m147.452 33.1127h4.651c.454 0 .728-.2852.728-.6985 0-.4249-.274-.6985-.728-.6985h-3.166v-.0349l1.816-1.7462c1.373-1.2979 1.874-1.9382 1.874-2.9626 0-1.4435-1.199-2.4447-2.98-2.4447-1.589 0-2.643.8673-2.928 1.7986-.041.1222-.064.2445-.064.3783 0 .4366.279.716.751.716.378 0 .582-.163.78-.5122.303-.6752.768-1.0128 1.443-1.0128.751 0 1.287.4947 1.287 1.1874 0 .6053-.268 1.0128-1.304 2.0081l-2.503 2.3922c-.355.326-.483.5472-.483.8789 0 .4424.274.7509.826.7509z"/><path d="m156.946 33.2989c1.95 0 3.271-1.0127 3.271-2.5377 0-1.1583-.809-1.8917-2.06-2.0081v-.0349c.989-.2038 1.752-.9022 1.752-1.9674 0-1.3446-1.199-2.2235-2.975-2.2235-1.484 0-2.438.6869-2.811 1.5076-.087.1979-.128.3667-.128.5646 0 .4249.25.7101.739.7101.396 0 .6-.1455.792-.5413.273-.5937.704-.8906 1.414-.8906.85 0 1.304.4482 1.304 1.1234 0 .6868-.57 1.1641-1.449 1.1641h-.344c-.425 0-.669.2561-.669.6228 0 .3783.244.6286.669.6286h.367c1.019 0 1.618.454 1.612 1.2689 0 .6985-.593 1.199-1.455 1.199-.873 0-1.327-.3492-1.624-.9371-.174-.3201-.396-.4598-.745-.4598-.483 0-.774.2852-.774.7392 0 .1746.041.3609.134.553.396.8265 1.379 1.5191 2.98 1.5191z"/></g><path d="m6.54374 75.4967h4.63896c.3551 0 .5763-.2212.5763-.5472 0-.3317-.2212-.5529-.5763-.5529h-3.48649v-.0291l2.00227-2.0081c1.41442-1.4144 1.86262-2.0896 1.86262-3.0442 0-1.3853-1.135-2.3748-2.74152-2.3748-1.6705 0-2.64254 1.0303-2.82298 1.915-.02328.0873-.03492.1746-.03492.2736 0 .3259.20954.5529.57624.5529.32013 0 .47146-.1571.58787-.4191.29103-.8207.86145-1.2456 1.68797-1.2456.84398 0 1.46094.5821 1.46094 1.3795 0 .6694-.2677 1.1001-1.36199 2.2176l-2.62508 2.6542c-.2852.2852-.36087.4249-.36087.681 0 .326.22118.5472.61698.5472z" fill="#fff"/><path d="m15.9141 75.6538c2.0197 0 3.2071-1.6938 3.2071-4.3712 0-2.66-1.199-4.3422-3.2071-4.3422s-3.2188 1.688-3.2188 4.348c0 2.6775 1.1932 4.3654 3.2188 4.3654zm0-1.0942c-1.2165 0-1.8975-1.2398-1.8975-3.2712 0-2.0023.6984-3.2537 1.8975-3.2537 1.199 0 1.8917 1.2456 1.8917 3.2537 0 2.0372-.681 3.2712-1.8917 3.2712z" fill="#fff"/><path d="m20.7801 75.4967h4.639c.355 0 .5762-.2212.5762-.5472 0-.3317-.2212-.5529-.5762-.5529h-3.4866v-.0291l2.0023-2.0081c1.4144-1.4144 1.8626-2.0896 1.8626-3.0442 0-1.3853-1.135-2.3748-2.7415-2.3748-1.6705 0-2.6425 1.0303-2.823 1.915-.0232.0873-.0349.1746-.0349.2736 0 .3259.2095.5529.5762.5529.3202 0 .4715-.1571.5879-.4191.2911-.8207.8615-1.2456 1.688-1.2456.844 0 1.4609.5821 1.4609 1.3795 0 .6694-.2677 1.1001-1.362 2.2176l-2.625 2.6542c-.2852.2852-.3609.4249-.3609.681 0 .326.2212.5472.617.5472z" fill="#fff"/><path d="m30.0243 75.6538c1.752 0 3.0441-1.0069 3.0441-2.4854 0-1.1757-.8265-1.9266-2.0605-2.0372v-.0291c1.0303-.2153 1.7695-.9254 1.7695-1.9731 0-1.2515-1.0535-2.1886-2.7648-2.1886-1.2805 0-2.1943.5588-2.6134 1.3911-.1106.2154-.1572.4075-.1572.6345 0 .3492.1979.5588.5646.5588.3085 0 .4482-.1223.5879-.4599.291-.6984.7683-1.0535 1.6181-1.0535.9953 0 1.4959.518 1.4959 1.298s-.6519 1.3504-1.6123 1.3504h-.5238c-.3318 0-.5413.2037-.5413.5064 0 .3026.2095.5064.5413.5064h.5587c1.1234 0 1.8161.5354 1.8102 1.4958-.0058.8149-.6926 1.397-1.7112 1.397-.9604 0-1.5075-.4016-1.7927-1.071-.1339-.3027-.2969-.4307-.5763-.4307-.3667 0-.5879.227-.5879.5762 0 .2095.0524.4133.1688.6286.4657.8498 1.4028 1.3853 2.7823 1.3853z" fill="#fff"/><path d="m71.7476 71.2938c0-.1979-.0756-.3667-.227-.5181l-4.54-4.441c-.1281-.1281-.2852-.1921-.4715-.1921-.3783 0-.681.291-.681.6693 0 .1863.0757.3551.2037.489l4.0977 3.9929-4.0977 3.9929c-.1222.128-.2037.2968-.2037.4831 0 .3842.3027.6752.681.6752.1863 0 .3434-.064.4715-.1921l4.54-4.4411c.1572-.1513.227-.3201.227-.518z" fill="#fff"/><path d="m329.192 9.0428c0 .1979.076.3667.233.51803l4.54 4.44107c.122.1281.285.1921.472.1921.378 0 .675-.291.675-.6752 0-.1862-.076-.355-.204-.4831l-4.092-3.9929 4.092-3.99291c.128-.13387.204-.30267.204-.48892 0-.37834-.297-.66937-.675-.66937-.187 0-.35.06403-.472.19208l-4.54 4.44109c-.157.15134-.227.32013-.233.51803z" fill="#ff462d"/><path d="m340.135 13.3848c1.635 0 2.613-.9662 2.613-2.6309v-5.32578c0-.41909-.25-.67519-.652-.67519-.407 0-.652.2561-.652.67519v5.31998c0 .9546-.465 1.4726-1.321 1.4726-.635 0-1.083-.3609-1.263-1.0128-.105-.3841-.303-.5529-.635-.5529-.372 0-.611.2444-.611.6402 0 .2329.047.4017.122.6112.344.9138 1.252 1.4784 2.399 1.4784z" fill="#ff462d"/><path d="m346.282 13.3552c.937 0 1.559-.4133 1.897-1.1467h.029v.5122c0 .3842.245.6345.606.6345.36 0 .599-.2503.599-.6403v-5.03479c0-.41908-.256-.66937-.629-.66937-.366 0-.628.25029-.628.66937v3.00919c0 .9546-.547 1.5832-1.455 1.5832-.868 0-1.31-.5005-1.31-1.4318v-3.16059c0-.41908-.262-.66937-.629-.66937-.372 0-.628.25029-.628.66937v3.40499c0 1.4028.815 2.2701 2.148 2.2701z" fill="#ff462d"/><path d="m351.328 13.3556c.367 0 .628-.2503.628-.6635v-7.2932c0-.41326-.261-.66355-.628-.66355s-.629.25029-.629.66355v7.2932c0 .4132.262.6635.629.6635z" fill="#ff462d"/><path d="m354.006 15.5262c1.135 0 1.711-.5005 2.253-1.9731l2.124-5.61689c.041-.12223.064-.25028.064-.34923 0-.33759-.25-.57624-.611-.57624-.32 0-.495.1397-.6.48311l-1.565 4.60985h-.018l-1.56-4.60985c-.11-.34923-.291-.48311-.605-.48311-.367 0-.64.23865-.64.58206 0 .09895.023.227.07.35505l2.048 5.36075-.116.355c-.227.6287-.582.8207-.931.8207-.146 0-.192-.0058-.326-.0058-.303 0-.489.1746-.489.4424 0 .39.32.6053.902.6053z" fill="#ff462d"/><path d="m246.73 33.2519c1.798 0 2.869-1.0128 2.869-2.7997v-4.9359c0-.582-.326-.9196-.879-.9196s-.879.3376-.879.9196v4.9242c0 .844-.396 1.298-1.129 1.298-.559 0-.949-.3143-1.106-.8789-.14-.4773-.396-.6868-.838-.6868-.495 0-.815.3201-.815.8265 0 .2561.047.4656.146.7101.395.9662 1.367 1.5425 2.631 1.5425z" fill="#ff462d"/><path d="m253.132 33.2292c.943 0 1.56-.454 1.869-1.2398h.035v.3842c0 .5646.332.8614.821.8614.488 0 .82-.2968.82-.8614v-4.7379c0-.5821-.349-.8906-.85-.8906-.494 0-.849.3085-.849.8906v2.8113c0 .8265-.472 1.3678-1.229 1.3678-.75 0-1.164-.4423-1.164-1.2747v-2.9044c0-.5821-.349-.8906-.849-.8906-.495 0-.85.3085-.85.8906v3.2595c0 1.4551.896 2.334 2.246 2.334z" fill="#ff462d"/><path d="m258.674 33.2353c.501 0 .85-.3027.85-.8847v-6.8741c0-.5821-.349-.8906-.85-.8906-.495 0-.85.3085-.85.8906v6.8741c0 .582.355.8847.85.8847z" fill="#ff462d"/><path d="m261.729 35.4236c1.368 0 2.089-.5937 2.672-2.206l1.914-5.2036c.059-.163.094-.3609.094-.5006 0-.4482-.338-.7683-.827-.7683-.436 0-.681.2037-.821.6752l-1.356 4.3305h-.029l-1.356-4.3189c-.14-.4947-.373-.6868-.821-.6868-.5 0-.879.3318-.879.7916 0 .1397.035.326.099.5006l1.991 5.2501-.087.2212c-.204.4366-.524.5646-.821.5646-.117 0-.181-.0058-.297-.0058-.384 0-.623.2154-.623.5588 0 .5122.402.7974 1.147.7974z" fill="#ff462d"/><path d="m359.854 33.2353c.518 0 .867-.3492.867-.8789v-6.7868c0-.6053-.373-.9837-.996-.9837-.36 0-.64.0524-1.047.3318l-1.665 1.1525c-.273.1921-.378.39-.378.6577 0 .3725.262.6286.617.6286.18 0 .302-.0407.465-.1571l1.229-.8557h.034v6.0127c0 .5297.356.8789.874.8789z" fill="#ff462d"/><path d="m364.208 33.2352c.378 0 .594-.1397.786-.5122l3.114-6.0127c.227-.4423.332-.7217.332-1.036 0-.5996-.437-.9604-1.048-.9604h-4.348c-.419 0-.728.2735-.728.6926 0 .4249.309.7043.728.7043h3.62v.0349l-3.108 5.8206c-.105.1921-.151.3492-.151.5529 0 .4075.308.716.803.716z" fill="#ff462d"/><path clip-rule="evenodd" d="m109.934 145.695h72.847v18.543h-72.847z" fill="#ff462d" fill-rule="evenodd"/><path clip-rule="evenodd" d="m218.543 98.0137h72.848v18.5433h-72.848z" fill="#ff462d" fill-rule="evenodd"/><path d="m116.673 159.08c1.635 0 2.613-.966 2.613-2.631v-5.326c0-.419-.25-.675-.652-.675-.407 0-.652.256-.652.675v5.32c0 .955-.465 1.473-1.321 1.473-.634 0-1.083-.361-1.263-1.013-.105-.384-.303-.553-.634-.553-.373 0-.612.245-.612.641 0 .232.047.401.123.611.343.914 1.251 1.478 2.398 1.478z" fill="#fff"/><path d="m122.819 159.05c.937 0 1.56-.413 1.897-1.146h.029v.512c0 .384.245.634.606.634s.599-.25.599-.64v-5.035c0-.419-.256-.669-.628-.669-.367 0-.629.25-.629.669v3.01c0 .954-.547 1.583-1.455 1.583-.867 0-1.31-.501-1.31-1.432v-3.161c0-.419-.262-.669-.628-.669-.373 0-.629.25-.629.669v3.405c0 1.403.815 2.27 2.148 2.27z" fill="#fff"/><path d="m127.866 159.051c.367 0 .629-.25.629-.664v-7.293c0-.413-.262-.663-.629-.663s-.629.25-.629.663v7.293c0 .414.262.664.629.664z" fill="#fff"/><path d="m130.542 161.222c1.135 0 1.711-.501 2.253-1.974l2.124-5.616c.041-.123.064-.251.064-.35 0-.337-.25-.576-.611-.576-.32 0-.495.14-.6.483l-1.565 4.61h-.018l-1.56-4.61c-.11-.349-.291-.483-.605-.483-.367 0-.64.239-.64.582 0 .099.023.227.07.355l2.048 5.361-.116.355c-.227.629-.582.821-.931.821-.146 0-.192-.006-.326-.006-.303 0-.489.174-.489.442 0 .39.32.606.902.606z" fill="#fff"/><path d="m225.927 111.369c.373 0 .635-.267.635-.663v-7.229c0-.454-.274-.728-.734-.728-.279 0-.471.052-.826.303l-1.746 1.239c-.245.169-.326.321-.326.536 0 .297.203.501.489.501.145 0 .262-.041.39-.134l1.449-1.013h.029v6.525c0 .396.262.663.64.663z" fill="#fff"/><path d="m229.92 111.369c.285 0 .448-.105.588-.378l3.382-6.578c.18-.355.262-.558.262-.803 0-.471-.309-.751-.798-.751h-4.453c-.337 0-.582.216-.582.548 0 .337.245.552.582.552h3.912v.03l-3.376 6.431c-.082.157-.117.268-.117.419 0 .309.239.53.6.53z" fill="#fff"/><path d="m111.714 40.3975h69.287" stroke="#747480" stroke-opacity=".18" stroke-width="1.3245"/><path d="m220.323 40.3975h69.287" stroke="#747480" stroke-opacity=".18" stroke-width="1.3245"/><path d="m328.932 40.3975h69.287" stroke="#747480" stroke-opacity=".18" stroke-width="1.3245"/><path d="m180.357 154.738c0-.198-.076-.367-.227-.518l-4.54-4.441c-.128-.128-.285-.192-.471-.192-.379 0-.681.291-.681.669 0 .187.075.355.203.489l4.098 3.993-4.098 3.993c-.122.128-.203.297-.203.483 0 .384.302.675.681.675.186 0 .343-.064.471-.192l4.54-4.441c.157-.151.227-.32.227-.518z" fill="#fff"/><path d="m288.966 107.056c0-.197-.075-.366-.227-.518l-4.54-4.441c-.128-.128-.285-.192-.471-.192-.378 0-.681.291-.681.67 0 .186.076.355.204.489l4.097 3.992-4.097 3.993c-.123.128-.204.297-.204.483 0 .385.303.676.681.676.186 0 .343-.064.471-.192l4.54-4.441c.158-.152.227-.321.227-.519z" fill="#fff"/></svg>