<svg fill="none" height="407" viewBox="0 0 204 407" width="204" xmlns="http://www.w3.org/2000/svg" xmlns:xlink="http://www.w3.org/1999/xlink"><mask id="a" fill="#fff"><path clip-rule="evenodd" d="m10.8682 318.182h184.8488v3.03h-184.8488z" fill="#fff" fill-rule="evenodd"/></mask><g stroke="#3a3a3c"><path clip-rule="evenodd" d="m41.9456 3.03027h119.8784c11.665 0 15.852 1.32163 20.105 3.59612 4.487 2.39941 8.008 5.92041 10.407 10.40701 2.274 4.2529 3.596 8.4401 3.596 20.1046v331.785c0 11.664-1.322 15.851-3.596 20.104-2.399 4.487-5.92 8.008-10.407 10.407-4.253 2.275-8.44 3.596-20.105 3.596h-119.8784c-11.6645 0-15.8517-1.321-20.1046-3.596-4.4865-2.399-8.0076-5.92-10.407-10.407-2.27449-4.253-3.59611-8.44-3.59611-20.104v-331.785c0-11.6645 1.32162-15.8517 3.59611-20.1046 2.3994-4.4866 5.9205-8.0076 10.407-10.40701 4.2529-2.27449 8.4401-3.59612 20.1046-3.59612z" fill="#ebebf5" fill-opacity=".6" fill-rule="evenodd" stroke-width="6.06061"/><path d="m41.2354 333.936.3525.713.7881.116 6.9189 1.005-5.0058 4.879-.5703.557.1337.785 1.1817 6.89-6.1875-3.253-.7051-.37-.7051.37-6.1894 3.254 1.1826-6.891.1348-.785-.5704-.557-5.0068-4.879 6.9189-1.005.7881-.116.3526-.713 3.0937-6.27z" fill="#b373d3" stroke-width="3.0303"/><path d="m120.901 166.417.353.714.789.114 42.763 6.214-30.944 30.164-.57.556.135.785 7.303 42.591-38.248-20.109-.705-.37-.705.37-38.2497 20.11 7.3047-42.592.1347-.785-.5703-.556-30.9443-30.164 42.7646-6.214.7881-.114.3525-.714 19.1237-38.751z" fill="#eddef4" opacity=".4" stroke-width="3.0303"/><path d="m91.1709 331.818v18.182h-18.1816v-18.182z" fill="#eddef4" opacity=".4" stroke-width="3.0303"/><path d="m166.929 328.788c6.694 0 12.121 5.427 12.121 12.121s-5.427 12.121-12.121 12.121c-6.695 0-12.121-5.427-12.121-12.121s5.426-12.121 12.121-12.121z" fill="#eddef4" opacity=".4" stroke-width="3.0303"/><path d="m54.8076 362.122v3.03h-30.3027v-3.03z" fill="#b373d3" stroke-width="3.0303"/><path d="m97.2324 362.122v3.03h-30.3027v-3.03z" fill="#eddef4" opacity=".4" stroke-width="3.0303"/><path d="m139.656 362.122v3.03h-30.302v-3.03z" fill="#eddef4" opacity=".4" stroke-width="3.0303"/><path d="m182.08 362.122v3.03h-30.303v-3.03z" fill="#eddef4" opacity=".4" stroke-width="3.0303"/></g><path clip-rule="evenodd" d="m10.8682 318.182h184.8488v3.03h-184.8488z" fill="#ab7bbc" fill-rule="evenodd"/><path d="m10.8682 318.182v-3.031h-3.03034v3.031zm184.8488 0h3.03v-3.031h-3.03zm0 3.03v3.03h3.03v-3.03zm-184.8488 0h-3.03034v3.03h3.03034zm0-3.03v3.03h184.8488v-3.03-3.031h-184.8488zm184.8488 0h-3.031v3.03h3.031 3.03v-3.03zm0 3.03v-3.03h-184.8488v3.03 3.03h184.8488zm-184.8488 0h3.0303v-3.03h-3.0303-3.03034v3.03z" fill="#3a3a3c" mask="url(#a)"/><path d="m136.923 350h-24.835l12.417-19.869z" fill="#eddef4" opacity=".4" stroke="#3a3a3c" stroke-width="3.0303"/><path clip-rule="evenodd" d="m194.063 41.3096c-2.593-.8598-5.183-1.2793-12.258-1.2793h-159.9342c-7.0752 0-9.6647.4195-12.25771 1.2793-2.46234.8164-4.3948 2.0144-5.71168 3.5409-1.38675 1.6076-2.06352 3.2129-2.06352 7.5992v68.5803 142 121.462c0 5.488.67676 7.496 2.06351 9.508 1.31687 1.909 3.24935 3.408 5.7117 4.43 2.593 1.075 5.1825 1.6 12.2577 1.6h159.9342c7.075 0 9.665-.525 12.258-1.6 2.462-1.022 4.394-2.521 5.711-4.43 1.387-2.012 2.064-4.02 2.064-9.508v-121.462-142-68.5803c0-4.3863-.677-5.9916-2.064-7.5992-1.316-1.5265-3.249-2.7245-5.711-3.5409z" fill="#fff" fill-rule="evenodd"/><path d="m194.063 41.3096.578-1.745zm-184.44991 0-.57854-1.745zm-5.71168 3.5409-1.39198-1.2008zm-.00001 349.1495-1.51347 1.043h.00001zm5.7117 4.43-.70438 1.698h.00001zm184.4499 0 .704 1.698zm5.711-4.43 1.514 1.043zm0-349.1495 1.392-1.2008zm-17.969-4.8202v1.8383c7.01 0 9.366.419 11.679 1.1859l.579-1.7449.578-1.745c-2.873-.9525-5.695-1.3727-12.836-1.3727zm-159.9342 0v1.8383h159.9342v-1.8383-1.8384h-159.9342zm-12.25771 1.2793.57851 1.7449c2.3132-.7669 4.6697-1.1859 11.6792-1.1859v-1.8383-1.8384c-7.1409 0-9.9635.4202-12.83625 1.3727zm-5.71168 3.5409 1.39199 1.2008c1.046-1.2125 2.66247-2.2555 4.8982-2.9968l-.57851-1.7449-.57854-1.745c-2.68892.8915-4.93737 2.2446-6.52512 4.0851zm-2.06352 7.5992h1.83836c0-2.1209.16663-3.4146.4353-4.3171.25123-.8438.61393-1.4229 1.18185-2.0813l-1.39199-1.2008-1.39198-1.2008c-.81884.9492-1.4879 1.9766-1.921742 3.4339-.416399 1.3986-.58815268 3.1007-.58815268 5.3661zm0 68.5803h1.83836v-68.5803h-1.83836-1.83835468v68.5803zm0 142h1.83836v-142h-1.83836-1.83835468v142zm0 121.462h1.83836v-121.462h-1.83836-1.83835468v121.462zm2.06351 9.508 1.51346-1.044c-.58776-.852-.99573-1.651-1.27683-2.832-.29392-1.235-.46178-2.944-.46178-5.632h-1.83836-1.83835468c0 2.8.17050968 4.839.56165668 6.483.403968 1.698 1.027758 2.909 1.826738 4.068zm5.7117 4.43.7044-1.698c-2.18526-.907-3.81545-2.199-4.90264-3.776l-1.51346 1.044-1.51346 1.043c1.54656 2.243 3.78133 3.948 6.52078 5.085zm12.2577 1.6v-1.838c-6.988 0-9.292-.522-11.5533-1.46l-.7044 1.698-.70437 1.698c2.92467 1.213 5.79957 1.741 12.96207 1.741zm159.9342 0v-1.838h-159.9342v1.838 1.839h159.9342zm12.258-1.6-.705-1.698c-2.261.938-4.565 1.46-11.553 1.46v1.838 1.839c7.162 0 10.037-.528 12.962-1.741zm5.711-4.43-1.513-1.044c-1.087 1.577-2.717 2.869-4.903 3.776l.705 1.698.704 1.698c2.74-1.137 4.974-2.842 6.521-5.085zm2.064-9.508h-1.838c0 2.688-.168 4.397-.462 5.632-.281 1.181-.689 1.98-1.277 2.832l1.513 1.044 1.514 1.043c.799-1.159 1.423-2.37 1.827-4.068.391-1.644.561-3.683.561-6.483zm0-121.462h-1.838v121.462h1.838 1.838v-121.462zm0-142h-1.838v142h1.838 1.838v-142zm0-68.5803h-1.838v68.5803h1.838 1.838v-68.5803zm-2.064-7.5992-1.392 1.2008c.568.6584.931 1.2375 1.182 2.0813.269.9025.436 2.1962.436 4.3171h1.838 1.838c0-2.2654-.171-3.9675-.588-5.3661-.434-1.4573-1.103-2.4847-1.922-3.4339zm-5.711-3.5409-.579 1.7449c2.236.7413 3.852 1.7843 4.898 2.9968l1.392-1.2008 1.392-1.2008c-1.587-1.8405-3.836-3.1936-6.525-4.0851z" fill="#3a3a3c"/><path d="m93.0215 181.78c-1.5117 0-2.8125-1.23-2.8125-2.707v-10.265l.2109-5.239-2.3554 2.496-5.3438 5.661c-.4922.562-1.2656.843-1.9336.843-1.4766 0-2.5312-1.019-2.5312-2.461 0-.773.3164-1.336.8437-1.863l11.8828-11.461c.7031-.703 1.3008-.914 2.0391-.914.7031 0 1.3008.211 2.0039.914l11.8826 11.461c.528.527.844 1.09.844 1.863 0 1.442-1.125 2.461-2.566 2.461-.668 0-1.407-.281-1.899-.843l-5.3436-5.661-2.3555-2.496.2109 5.239v10.265c0 1.477-1.2656 2.707-2.7773 2.707zm-20.1797 53.403c-7.3477 0-11.0391-3.621-11.0391-10.899v-34.347c0-7.278 3.6914-10.899 11.0391-10.899h16.6641v25.981c0 1.863 1.582 3.445 3.4804 3.445 1.8985 0 3.5157-1.582 3.5157-3.445v-25.981h16.664c7.348 0 11.039 3.656 11.039 10.899v34.347c0 7.242-3.691 10.899-11.039 10.899zm20.5312 16.277c-7.5585 0-11.039-3.762-11.039-11.109v-.352h31.359c10.055 0 15.293-5.203 15.293-15.187v-30.2h1.723c7.383 0 11.039 3.621 11.039 10.899v35.051c0 7.277-3.656 10.898-11.039 10.898z" fill="#ff462d"/><path d="m174.473 88.0041c8.64 0 15.731-7.1057 15.731-15.7458 0-8.6252-7.106-15.731-15.731-15.731-8.64 0-15.731 7.1058-15.731 15.731 0 8.6401 7.106 15.7458 15.731 15.7458zm-4.692-9.3402c-.954 0-1.699-.7598-1.699-1.7281 0-.432.179-.864.507-1.1768l3.471-3.4709-3.471-3.471c-.328-.3277-.507-.7448-.507-1.1768 0-.9832.745-1.7131 1.699-1.7131.521 0 .908.1638 1.251.4916l3.441 3.4411 3.471-3.4411c.358-.3576.745-.5065 1.251-.5065.954 0 1.699.7448 1.699 1.6982 0 .4469-.164.864-.507 1.1917l-3.471 3.4859 3.456 3.456c.343.3277.522.7448.522 1.1917 0 .9683-.745 1.7281-1.714 1.7281-.506 0-.938-.1788-1.266-.5065l-3.441-3.4412-3.426 3.4412c-.328.3277-.745.5065-1.266.5065z" fill="#787880" fill-opacity=".32"/></svg>