<svg fill="none" height="449" viewBox="0 0 450 449" width="450" xmlns="http://www.w3.org/2000/svg"><path clip-rule="evenodd" d="m129.776 157.896c5.734 0 7.792.649 9.883 1.767 2.205 1.18 3.936 2.91 5.115 5.116 1.119 2.09 1.768 4.149 1.768 9.883v163.093c0 5.733-.649 7.792-1.768 9.882-1.179 2.206-2.91 3.936-5.115 5.116-2.091 1.118-4.149 1.768-9.883 1.768h-58.9279c-5.7338 0-7.7921-.65-9.8827-1.768-2.2054-1.18-3.9362-2.91-5.1157-5.116-1.118-2.09-1.7677-4.149-1.7677-9.882v-163.093c0-5.734.6497-7.793 1.7677-9.883 1.1795-2.206 2.9103-3.936 5.1157-5.116 2.0906-1.118 4.1489-1.767 9.8827-1.767z" fill="#fff" fill-rule="evenodd" stroke="#3a3a3c" stroke-width="2.97917"/><path clip-rule="evenodd" d="m257.047 1.48926h58.928c5.734 0 7.792.64966 9.883 1.76771 2.205 1.17947 3.936 2.91028 5.116 5.11569 1.118 2.09054 1.767 4.14884 1.767 9.88264v163.0927c0 5.734-.649 7.792-1.767 9.883-1.18 2.205-2.911 3.936-5.116 5.116-2.091 1.118-4.149 1.767-9.883 1.767h-58.928c-5.733 0-7.792-.649-9.882-1.767-2.206-1.18-3.937-2.911-5.116-5.116-1.118-2.091-1.768-4.149-1.768-9.883v-163.0927c0-5.7338.65-7.7921 1.768-9.88264 1.179-2.20541 2.91-3.93622 5.116-5.11569 2.09-1.11805 4.149-1.76771 9.882-1.76771z" fill="#fff" fill-rule="evenodd" stroke="#3a3a3c" stroke-width="2.97917"/><path clip-rule="evenodd" d="m272.777 250.249c5.734 0 7.792.65 9.883 1.768 2.205 1.179 3.936 2.91 5.115 5.115 1.118 2.091 1.768 4.149 1.768 9.883v163.093c0 5.734-.65 7.792-1.768 9.883-1.179 2.205-2.91 3.936-5.115 5.115-2.091 1.119-4.149 1.768-9.883 1.768h-58.928c-5.734 0-7.792-.649-9.883-1.768-2.205-1.179-3.936-2.91-5.115-5.115-1.118-2.091-1.768-4.149-1.768-9.883v-163.093c0-5.734.65-7.792 1.768-9.883 1.179-2.205 2.91-3.936 5.115-5.115 2.091-1.118 4.149-1.768 9.883-1.768z" fill="#fff" fill-rule="evenodd" stroke="#3a3a3c" stroke-width="2.97917"/><path d="m66.7588 333.408c0 .321.1178.589.3862.851l4.9488 4.851c.2029.196.4386.294.7266.294.5761 0 1.0539-.464 1.0539-1.04 0-.295-.1244-.557-.3404-.773l-4.3138-4.189 4.3138-4.183c.216-.21.3404-.478.3404-.766 0-.57-.4778-1.041-1.0539-1.041-.288 0-.5237.098-.7266.295l-4.9488 4.85c-.2684.256-.3797.524-.3862.851z" fill="#ff462d"/><path d="m91.4498 333.408c0-.327-.1178-.595-.3862-.851l-4.9488-4.85c-.1964-.197-.4386-.295-.7266-.295-.5761 0-1.0474.471-1.0474 1.041 0 .288.1178.556.3339.766l4.3138 4.183-4.3138 4.189c-.2161.216-.3339.478-.3339.773 0 .576.4713 1.04 1.0474 1.04.288 0 .5302-.098.7266-.294l4.9488-4.851c.2749-.262.3862-.53.3862-.851z" fill="#ff462d"/><path d="m252.957 177.003c0 .321.118.589.386.851l4.949 4.851c.203.196.439.294.727.294.576 0 1.054-.465 1.054-1.041 0-.294-.125-.556-.341-.772l-4.314-4.19 4.314-4.182c.216-.21.341-.478.341-.766 0-.57-.478-1.041-1.054-1.041-.288 0-.524.098-.727.294l-4.949 4.851c-.268.255-.379.524-.386.851z" fill="#ff462d"/><path d="m277.648 177.003c0-.327-.118-.596-.386-.851l-4.949-4.851c-.196-.196-.439-.294-.727-.294-.576 0-1.047.471-1.047 1.041 0 .288.118.556.334.766l4.314 4.182-4.314 4.19c-.216.216-.334.478-.334.772 0 .576.471 1.041 1.047 1.041.288 0 .531-.098.727-.294l4.949-4.851c.275-.262.386-.53.386-.851z" fill="#ff462d"/><path d="m209.759 425.763c0 .321.118.589.386.851l4.949 4.85c.203.197.438.295.726.295.576 0 1.054-.465 1.054-1.041 0-.294-.124-.556-.34-.772l-4.314-4.19 4.314-4.183c.216-.209.34-.478.34-.766 0-.569-.478-1.04-1.054-1.04-.288 0-.523.098-.726.294l-4.949 4.851c-.268.255-.38.523-.386.851z" fill="#ff462d"/><path d="m234.45 425.763c0-.328-.118-.596-.386-.851l-4.949-4.851c-.197-.196-.439-.294-.727-.294-.576 0-1.047.471-1.047 1.04 0 .288.118.557.334.766l4.313 4.183-4.313 4.19c-.216.216-.334.478-.334.772 0 .576.471 1.041 1.047 1.041.288 0 .53-.098.727-.295l4.949-4.85c.275-.262.386-.53.386-.851z" fill="#ff462d"/><path d="m64.1133 196.861h5.8847c.0786 0 .1208.013.1387.021.0022.008.0069.025.0069.053-.0001.026-.0048.042-.0069.049-.0163.008-.0577.024-.1387.024h-2.7011v7.651c-.0001.184-.0499.237-.0528.24-.0034.004-.0123.012-.0361.021-.0258.01-.075.021-.1553.021-.0802 0-.1294-.011-.1552-.021-.0229-.009-.0316-.017-.0352-.021-.002-.002-.0527-.054-.0527-.24v-7.651h-2.6963c-.086 0-.129-.016-.1455-.025-.002-.007-.0059-.023-.0059-.048 0-.027.0038-.043.0059-.051.018-.008.0615-.023.1455-.023z" fill="#b373d3" stroke="#3a3a3c" stroke-width="1.48958"/><path d="m72.6953 196.717c.0705 0 .1113.01.1299.017.0092.004.0145.007.0166.008.0017.001.0023.002.0029.003.0003 0 .0095.009.0196.038.0106.031.0224.086.0224.17v3.586h.2256c-.1305.316-.1924.663-.1924 1.017v3.148c0 .09-.0135.145-.0244.175-.0099.027-.019.036-.0215.039-.0024.002-.0111.01-.0332.018-.0236.008-.0659.018-.1318.018-.1233 0-.1609-.034-.1641-.037-.0031-.003-.0122-.014-.0224-.041-.0109-.029-.0245-.084-.0245-.172v-7.751c.0001-.083.012-.136.0225-.166.0096-.027.018-.037.0195-.039.0007-.001.0057-.006.0235-.013.0199-.007.0615-.018.1318-.018zm3.1817 2.441c.6121 0 1.0095.193 1.2597.466.2582.282.4434.741.4434 1.421v3.659c0 .09-.0136.145-.0244.175-.0102.027-.0193.037-.0215.039-.0026.003-.0106.01-.0322.018-.0237.008-.0665.018-.1329.018-.121 0-.1588-.033-.163-.037-.0031-.003-.0132-.013-.0235-.041-.0108-.029-.0244-.084-.0244-.172v-3.253c0-.564-.1383-1.127-.5166-1.557-.3662-.417-.8732-.613-1.4268-.637.1908-.065.4109-.099.6622-.099z" fill="#b373d3" stroke="#3a3a3c" stroke-width="1.48958"/><path d="m80.5303 199.146c.067 0 .1078.01.1289.018.0194.008.0272.015.0312.02.0035.003.0508.053.0508.218v5.303c-.0001.165-.0466.212-.0478.213-.0033.003-.0113.01-.0313.018-.0217.008-.0633.019-.1318.019-.0711 0-.1141-.011-.1358-.019-.0198-.008-.027-.015-.0293-.017-.0028-.003-.0121-.015-.0224-.044-.0111-.032-.0234-.086-.0235-.17v-5.303c0-.169.0469-.218.0489-.22.0032-.004.0106-.01.0293-.017.0209-.008.0628-.019.1328-.019zm0-2.704c.0981 0 .1664.035.208.076.0408.039.0683.094.0683.168 0 .119-.0926.244-.2763.244-.1839 0-.2764-.125-.2764-.244 0-.074.0266-.129.0674-.168.0416-.041.1106-.076.209-.076z" fill="#b373d3" stroke="#3a3a3c" stroke-width="1.48958"/><path d="m83.2998 203.971c.0357 0 .1092-.004.2744.181v-.001c.1957.249.423.466.7041.63-.578-.189-.8803-.49-.9853-.742-.0081-.024-.0142-.044-.0176-.06-.0004-.002-.0007-.005-.001-.006.007-.001.0154-.002.0254-.002zm1.0488-4.627c-.3121.22-.5487.553-.6035.967l-.0117.185.0078.15c.0372.348.2043.658.4961.892.2904.233.6685.361 1.0596.445l1.1592.249h.0029c.7024.148 1.0739.33 1.2676.505.1535.139.248.32.248.678 0 .448-.1889.805-.5527 1.072-.1176.087-.2577.162-.417.23.3284-.255.5488-.634.5488-1.099 0-.385-.1408-.757-.4873-1.034-.2864-.229-.661-.346-1.0283-.427l-.0049-.001-1.1787-.249h-.001c-.6016-.129-.9688-.33-1.1787-.538-.1927-.191-.2978-.43-.2978-.768 0-.431.1745-.762.5058-1.008.1266-.094.2819-.179.4658-.249zm2.5635.048c.0602.026.1175.054.1709.084.3456.191.5021.407.5537.559-.0236-.003-.0461-.007-.0644-.014l-.0235-.01c-.1654-.209-.3697-.434-.6367-.619z" fill="#b373d3" stroke="#3a3a3c" stroke-width="1.48958"/><path d="m93.3027 199.146c.0671 0 .1079.01.1289.018.0195.008.0273.015.0313.02.0035.003.0508.053.0508.218v5.303c-.0001.165-.0466.212-.0479.213-.0032.003-.0113.01-.0312.018-.0217.008-.0634.019-.1319.019-.0711 0-.1141-.011-.1357-.019-.0198-.008-.0271-.015-.0293-.017-.0028-.003-.0121-.015-.0225-.044-.011-.032-.0234-.086-.0234-.17v-5.303c0-.169.0469-.218.0488-.22.0032-.004.0106-.01.0293-.017.0209-.008.0628-.019.1328-.019zm0-2.704c.0982 0 .1664.035.208.076.0409.039.0684.094.0684.168 0 .119-.0927.244-.2764.244-.1839 0-.2763-.125-.2763-.244 0-.074.0265-.129.0674-.168.0416-.041.1105-.076.2089-.076z" fill="#b373d3" stroke="#3a3a3c" stroke-width="1.48958"/><path d="m96.0713 203.971c.0357 0 .1092-.004.2744.181v-.001c.1957.249.423.466.7041.63-.578-.189-.8804-.49-.9853-.742-.0081-.024-.0143-.044-.0176-.06-.0004-.002-.0007-.005-.001-.006.007-.001.0154-.002.0254-.002zm1.0488-4.627c-.3121.22-.5487.553-.6035.967l-.0117.185.0078.15c.0371.348.2043.658.4961.892.2904.233.6685.361 1.0596.445l1.1591.249h.003c.7024.148 1.0735.33 1.2675.505.154.139.248.32.248.678 0 .448-.189.805-.553 1.072-.117.087-.2573.162-.4166.23.3286-.255.5486-.634.5486-1.099 0-.385-.141-.757-.4871-1.034-.2865-.229-.661-.346-1.0283-.427l-.0049-.001-1.1787-.249h-.001c-.6016-.129-.9688-.33-1.1787-.538-.1927-.191-.2979-.43-.2979-.768 0-.431.1746-.762.5059-1.008.1266-.094.2818-.179.4658-.249zm2.5635.048c.0602.026.1174.054.1709.084.3455.191.5025.407.5535.559-.023-.003-.046-.007-.064-.014l-.024-.01c-.165-.209-.3694-.434-.6364-.619z" fill="#b373d3" stroke="#3a3a3c" stroke-width="1.48958"/><path d="m106.372 202.414c-.26.276-.402.632-.402 1.027 0 .489.211.919.582 1.209.158.124.336.212.522.275-.957-.034-1.519-.629-1.519-1.379 0-.421.148-.701.419-.909.105-.081.237-.157.398-.223zm.841-3.167c-.058.025-.116.052-.173.083-.327.177-.587.437-.823.736-.081.092-.127.104-.203.104-.024 0-.04-.005-.052-.008.002-.026.008-.057.029-.104l.009-.019.008-.018c.074-.19.264-.408.65-.587.16-.075.346-.138.555-.187zm2.845 1.608c0-.512-.186-.989-.577-1.326-.176-.152-.377-.259-.589-.332.442.079.784.232 1.027.423.338.267.528.637.528 1.118v3.999c0 .084-.013.134-.022.159-.005.012-.009.019-.011.023-.002.003-.004.005-.005.006s-.007.007-.025.013c-.021.008-.06.017-.121.017-.097 0-.134-.02-.142-.025.002.002-.001 0-.008-.014-.006-.015-.017-.048-.022-.106v-1.066h-.184c.095-.225.151-.477.151-.754z" fill="#b373d3" stroke="#3a3a3c" stroke-width="1.48958"/><path d="m64.6432 222.086c.563 0 .9557-.341.9557-.995v-7.731c0-.655-.3927-1.002-.9557-1.002-.5564 0-.9557.347-.9557 1.002v7.731c0 .654.3993.995.9557.995z" fill="#ff462d"/><path d="m67.8776 214.059c.5761 0 1.0212-.439 1.0212-.989 0-.556-.4451-.988-1.0212-.988-.576 0-1.0212.432-1.0212.988 0 .55.4452.989 1.0212.989zm0 8.025c.5892 0 .9557-.373.9557-.995v-5.302c0-.622-.3665-1.001-.9557-1.001-.5957 0-.9557.379-.9557 1.001v5.302c0 .622.36.995.9557.995z" fill="#ff462d"/><path d="m71.0583 222.085c.5629 0 .9557-.34.9557-.995v-3.168c0-.91.5433-1.539 1.4008-1.539.8576 0 1.2896.524 1.2896 1.44v3.267c0 .655.3928.995.9557.995.5564 0 .9557-.34.9557-.995v-3.666c0-1.643-.8771-2.625-2.4351-2.625-1.0801 0-1.7871.478-2.1602 1.349h-.0393v-.393c0-.602-.3796-.969-.9557-.969-.576 0-.923.367-.923.962v5.342c0 .655.3993.995.9558.995z" fill="#ff462d"/><path d="m78.8288 222.086c.5629 0 .9557-.341.9557-.995v-1.421l.6088-.563 1.8001 2.383c.3011.452.5303.596.9361.596.5368 0 .9099-.354.9099-.864 0-.249-.0589-.419-.2684-.701l-1.9572-2.494 1.787-1.689c.275-.255.3601-.432.3601-.72 0-.471-.3601-.831-.851-.831-.2881 0-.5041.111-.7594.38l-2.5398 2.546h-.0262v-4.353c0-.655-.3928-1.002-.9557-1.002-.5564 0-.9558.347-.9558 1.002v7.731c0 .654.3994.995.9558.995z" fill="#ff462d"/><g stroke="#3a3a3c"><path d="m88.9473 214.152c0-.157.0429-.207.0478-.213.0031-.003.0106-.011.0303-.018.0212-.008.0631-.019.1328-.019.07 0 .1126.011.1338.019.0196.007.0271.015.0303.018.005.006.0468.056.0468.213v5.577c0 .308.0484.692.2989 1.007.2666.336.6384.445.9511.473v.001l.0186.002v-.001l.0478.005c-.103.034-.2627.066-.4921.066h-.0655c-.5243 0-.7879-.13-.9218-.261-.1305-.127-.2588-.371-.2588-.866z" fill="#b373d3" stroke-width="1.48958"/><path d="m95.0049 215.569c-.4619.126-.8579.406-1.1494.814-.3878.543-.5596 1.262-.5596 2.055 0 .796.1669 1.517.5547 2.061.2936.411.6925.687 1.1562.81-.612-.095-1.0848-.343-1.4238-.696-.4411-.459-.7344-1.174-.7344-2.181.0001-.985.2954-1.699.7412-2.161.3414-.355.8132-.605 1.4151-.702zm1.1445 0c.6047.096 1.078.345 1.4199.7.4453.461.7412 1.174.7412 2.163 0 1.01-.2938 1.725-.7343 2.183-.3392.353-.8128.599-1.4268.694.4632-.124.8617-.399 1.1543-.811.3863-.543.5527-1.264.5527-2.06 0-.791-.17-1.51-.5556-2.053-.2913-.41-.6878-.69-1.1514-.816z" fill="#b373d3" stroke-width="1.48958"/><path d="m103.943 214.152c0-.157.043-.207.048-.213.003-.003.011-.011.03-.018.022-.008.064-.019.133-.019.07 0 .113.011.134.019.02.007.027.015.03.018.005.006.047.056.047.213v5.577c0 .308.049.692.299 1.007.267.336.639.445.951.473v.001l.019.002v-.001l.048.005c-.103.034-.263.066-.493.066h-.065c-.524 0-.788-.13-.922-.261-.13-.127-.259-.371-.259-.866z" fill="#b373d3" stroke-width="1.48958"/><path d="m108.442 213.104c.071 0 .112.01.13.017.009.004.015.007.017.008s.002.002.003.003c0 0 .009.009.019.038.011.031.023.085.023.17v3.586h.225c-.13.316-.192.662-.192 1.016v3.149c0 .09-.014.145-.024.175-.01.027-.019.036-.022.039-.002.002-.011.009-.033.017-.024.009-.066.019-.132.019-.123 0-.161-.034-.164-.037s-.012-.014-.022-.041c-.011-.029-.025-.084-.025-.172v-7.751c0-.083.012-.136.023-.166.009-.028.018-.038.019-.039s.006-.006.024-.013c.019-.007.061-.018.131-.018zm3.182 2.441c.612 0 1.01.193 1.26.466.258.281.443.74.443 1.421v3.659c0 .09-.013.145-.024.175-.01.027-.02.037-.022.039s-.01.009-.032.017c-.024.009-.066.019-.133.019-.121 0-.159-.033-.163-.037-.003-.003-.013-.014-.023-.041-.011-.03-.025-.084-.025-.172v-3.253c0-.564-.138-1.127-.516-1.558-.367-.416-.874-.612-1.427-.636.191-.066.411-.099.662-.099z" fill="#b373d3" stroke-width="1.48958"/><path d="m117.436 215.681c-.719.358-1.183 1.097-1.247 1.97l-.057.799h.036v.512c0 .669.204 1.294.634 1.758.195.211.427.372.681.489-.415-.126-.743-.329-.992-.588-.43-.449-.712-1.152-.712-2.149 0-.987.286-1.716.721-2.19.243-.265.555-.471.936-.601zm3.333 4.687-.001.002c-.174.322-.523.614-1.038.794.008-.004.016-.006.023-.01.372-.188.681-.465.968-.797.029-.03.048-.046.058-.053.004-.001.009-.001.016-.001-.006.016-.012.039-.026.065zm-1.228-4.64c.303.121.561.292.769.499.428.425.696 1.045.696 1.819 0 .035-.007.06-.01.077-.017.003-.042.009-.077.009h-.244l-.02-.458c-.026-.611-.24-1.173-.644-1.588-.14-.144-.299-.263-.47-.358z" fill="#b373d3" stroke-width="1.48958"/><path d="m64.1855 236.742c.0358 0 .1093-.004.2745.182v-.001c.1957.249.4229.465.7041.63-.5781-.19-.8804-.491-.9854-.742-.0081-.024-.0142-.045-.0176-.061-.0004-.002-.0006-.004-.0009-.006.007-.001.0153-.002.0253-.002zm1.0489-4.627c-.3122.22-.5487.553-.6035.967l-.0118.186.0079.15c.0371.348.2042.658.496.892.2905.232.6685.361 1.0596.445l1.1592.249h.0029c.7024.148 1.0739.33 1.2676.505.1536.139.248.32.2481.678 0 .447-.189.804-.5528 1.072-.1175.086-.2576.162-.417.229.3284-.254.5489-.633.5489-1.098-.0001-.385-.1409-.758-.4874-1.035-.2864-.228-.661-.346-1.0283-.426l-.0049-.001-1.1787-.249h-.0009c-.6017-.13-.9688-.33-1.1788-.538-.1927-.191-.2978-.431-.2978-.769 0-.431.1746-.762.5059-1.008.1266-.094.2818-.179.4658-.249zm2.5635.048c.0602.027.1174.054.1709.084.3456.192.502.408.5537.56-.0237-.003-.0461-.008-.0645-.015l-.0234-.01c-.1655-.209-.3697-.434-.6367-.619z" fill="#b373d3" stroke-width="1.48958"/><path d="m72.6943 232.067c-.7184.359-1.1823 1.098-1.2461 1.971l-.0576.799h.0362v.512c0 .669.2038 1.293.6337 1.757.1955.211.4272.372.6817.49-.4157-.127-.7438-.329-.9922-.588-.4306-.45-.7118-1.152-.7119-2.15 0-.986.2856-1.715.7207-2.189.2434-.265.5552-.471.9355-.602zm3.333 4.688-.0009.002c-.1733.322-.5222.613-1.0371.794.0073-.004.0151-.006.0224-.01.3721-.188.6806-.465.9678-.797.0292-.03.0484-.046.0586-.054.0039 0 .009 0 .0156-.001-.006.017-.0122.04-.0264.066zm-1.2275-4.641c.3032.122.5607.293.7686.499.4281.426.6962 1.046.6962 1.82 0 .035-.0067.06-.0097.077-.0173.003-.0422.009-.0772.009h-.2441l-.0195-.458c-.0262-.611-.2402-1.173-.6446-1.588-.1402-.144-.2989-.263-.4697-.359z" fill="#b373d3" stroke-width="1.48958"/><path d="m81.1797 231.911c1.2067 0 2.0273.579 2.2627 1.196l.0049.011c.019.048.0323.094.041.132.0042.019.0073.034.0088.046.0003.003-.0002.006 0 .008-.0151.004-.0381.01-.0723.01-.0461 0-.0692-.004-.0771-.006-.006-.002-.0038-.001.0009.002.0053.003.001.001-.0127-.014l-.0683-.101c-.2119-.375-.4779-.705-.833-.936-.3641-.238-.7695-.339-1.1963-.339-.7152 0-1.332.308-1.7461.874-.3942.539-.5634 1.251-.5635 2.024 0 .785.1681 1.501.5606 2.04.413.568 1.0281.872 1.7363.872.4631 0 .8758-.116 1.2305-.344.3395-.219.5856-.516.7714-.824.1066-.167.1566-.208.1661-.214.0075-.002.0306-.005.0771-.005.0292 0 .048.004.0586.008.0003.003.0019.007.0019.012 0 .014-.002.065-.0595.194l-.002.005c-.2666.608-1.1371 1.177-2.2773 1.177-.8892 0-1.5455-.287-1.9815-.746-.4397-.463-.7295-1.178-.7295-2.168.0001-.976.2883-1.694.7286-2.161.4356-.462 1.0886-.753 1.9697-.753z" fill="#b373d3" stroke-width="1.48958"/><path d="m87.9424 231.956c-.4619.126-.8579.406-1.1494.814-.3878.542-.5596 1.262-.5596 2.055 0 .795.1669 1.517.5547 2.061.2936.411.6925.686 1.1562.809-.612-.095-1.0848-.342-1.4238-.695-.4411-.459-.7344-1.175-.7344-2.182.0001-.985.2954-1.698.7412-2.161.3414-.354.8132-.604 1.4151-.701zm1.1445 0c.6047.096 1.078.345 1.4199.699.4453.462.7412 1.175.7412 2.163 0 1.011-.2938 1.726-.7343 2.184-.3392.352-.8128.599-1.4268.693.4632-.123.8617-.399 1.1543-.81.3863-.543.5527-1.265.5527-2.06 0-.792-.17-1.511-.5556-2.054-.2913-.41-.6878-.69-1.1514-.815z" fill="#b373d3" stroke-width="1.48958"/><path d="m93.8975 231.917c.1253 0 .1628.036.167.04.0022.002.0439.042.0439.184v1.137h.2363c-.1366.317-.2031.668-.2031 1.03v3.168c0 .089-.0135.145-.0244.174-.0099.027-.0189.037-.0215.039-.0024.003-.0111.01-.0332.018-.0236.009-.0659.019-.1318.019-.1243 0-.1614-.035-.1641-.038-.0031-.003-.0122-.013-.0225-.041-.0108-.029-.0244-.083-.0244-.171v-5.342c.0001-.077.0108-.127.0205-.155.0093-.026.018-.034.0186-.035.0005 0 .0041-.005.0185-.01.0171-.007.0549-.017.1202-.017zm3.1552.013c.6174 0 1.009.189 1.253.455.2523.275.4374.73.4375 1.425v3.666c0 .088-.0136.142-.0244.171-.0102.028-.0194.038-.0225.041-.0012.002-.0369.038-.1641.038-.0663 0-.1092-.01-.1328-.019-.0218-.008-.0298-.015-.0322-.018-.0023-.002-.0114-.011-.0215-.039-.0109-.029-.0244-.085-.0244-.174v-3.267c0-.563-.1316-1.126-.5078-1.555-.369-.421-.8804-.606-1.4287-.626.1789-.061.3981-.098.6679-.098z" fill="#b373d3" stroke-width="1.48958"/><path d="m106.452 229.488c.129 0 .163.037.163.037.004.004.013.015.024.043.011.031.024.088.024.177v7.757c0 .082-.012.131-.021.156-.009.022-.016.029-.018.031s-.01.01-.033.018c-.024.009-.067.019-.132.019-.129 0-.171-.037-.176-.041-.003-.003-.011-.011-.019-.033-.009-.023-.023-.07-.023-.15v-1.15h-.295c.211-.449.309-.973.309-1.528 0-.567-.103-1.103-.324-1.559h.31v-3.52c0-.167.046-.215.05-.219.003-.002.038-.038.161-.038zm-3.135 2.461c.161 0 .311.019.449.052-.635.05-1.176.351-1.549.855-.392.529-.561 1.224-.561 1.968 0 .747.169 1.442.562 1.97.38.511.932.805 1.575.848-.147.036-.31.057-.489.057-.661 0-1.157-.251-1.504-.691-.363-.459-.611-1.187-.612-2.196 0-.998.25-1.718.614-2.173.349-.437.848-.69 1.515-.69z" fill="#b373d3" stroke-width="1.48958"/><path d="m112.279 231.917c.061 0 .101.01.122.018.02.007.028.014.031.016.002.003.011.012.021.039.011.029.025.083.025.17v1.125h.338c-.217.452-.319.982-.319 1.539 0 .579.11 1.125.342 1.586h-.335v3.429c0 .09-.014.145-.025.175-.009.027-.019.036-.021.039-.002.002-.011.009-.033.017-.024.009-.066.019-.132.019-.123 0-.161-.034-.164-.037s-.012-.014-.023-.041c-.01-.029-.024-.084-.024-.172v-7.686c0-.084.012-.136.022-.164.01-.026.019-.035.022-.038s.011-.009.031-.016c.022-.008.061-.018.122-.018zm3.156.032c.683 0 1.179.251 1.522.681.359.45.606 1.172.606 2.194 0 1.02-.246 1.744-.602 2.197-.34.431-.828.679-1.493.679-.182 0-.349-.021-.501-.058.637-.047 1.183-.348 1.56-.852.395-.527.569-1.221.569-1.966 0-.742-.175-1.435-.568-1.964-.374-.503-.916-.81-1.553-.859.141-.034.295-.052.46-.052z" fill="#b373d3" stroke-width="1.48958"/><path d="m120.577 235.186c-.259.275-.402.631-.402 1.027 0 .488.211.919.582 1.209.158.124.336.212.522.274-.957-.033-1.519-.629-1.519-1.379 0-.42.148-.701.419-.909.105-.081.237-.156.398-.222zm.841-3.167c-.058.024-.116.052-.173.083-.327.177-.587.437-.823.736-.081.091-.127.103-.203.103-.023 0-.04-.005-.052-.007.002-.027.008-.058.029-.105l.009-.018.008-.019c.074-.189.264-.408.65-.587.16-.074.346-.138.555-.186zm2.845 1.608c0-.513-.186-.989-.576-1.326-.177-.152-.378-.259-.59-.332.442.078.784.231 1.027.423.338.266.528.637.528 1.118v3.999c0 .083-.013.133-.022.158-.005.012-.009.02-.011.023-.002.004-.004.006-.005.006-.001.001-.007.007-.025.014-.021.007-.06.017-.121.017-.097 0-.134-.021-.142-.026.002.002-.001 0-.008-.013-.006-.015-.017-.048-.022-.107v-1.065h-.184c.095-.226.151-.477.151-.754z" fill="#b373d3" stroke-width="1.48958"/><path d="m132.395 231.917c.065 0 .108.009.133.018.023.007.031.015.033.016 0 .001.007.007.015.029.009.025.023.075.023.161v5.918c0 .718-.252 1.226-.67 1.569-.386.316-.982.543-1.815.589.517-.054.99-.231 1.361-.56.465-.413.689-.99.689-1.612v-1.864h-.267c.195-.428.287-.923.287-1.448 0-.527-.094-1.027-.288-1.462h.281v-1.13c0-.084.013-.132.022-.155.008-.021.016-.028.018-.03.004-.004.047-.039.178-.039zm-4.95 7.279c.042 0 .055.005.06.007.004.002.014.007.03.018l.07.056c.51.481 1.069.831 1.769.93-1.041-.091-1.68-.514-1.924-.907-.016-.028-.025-.051-.03-.071-.002-.009-.002-.019-.004-.03.008-.001.018-.003.029-.003zm1.807-7.247c.06 0 .119.003.177.008-.518.102-.962.385-1.282.814-.39.525-.562 1.215-.562 1.956 0 .743.169 1.43.565 1.95.297.388.693.642 1.148.758-.026 0-.052.002-.078.003-.668 0-1.163-.246-1.504-.663-.355-.432-.599-1.118-.599-2.068 0-.988.242-1.676.593-2.103.335-.407.833-.655 1.542-.655z" fill="#b373d3" stroke-width="1.48958"/><path d="m136.727 232.067c-.719.359-1.183 1.098-1.247 1.971l-.057.799h.036v.512c0 .669.204 1.293.634 1.757.195.211.427.372.681.49-.415-.127-.743-.329-.992-.588-.43-.45-.712-1.152-.712-2.15 0-.986.286-1.715.721-2.189.243-.265.555-.471.936-.602zm3.333 4.688-.001.002c-.174.322-.523.613-1.038.794.008-.004.016-.006.023-.01.372-.188.681-.465.968-.797.029-.03.048-.046.058-.054.004 0 .009 0 .016-.001-.006.017-.012.04-.026.066zm-1.228-4.641c.303.122.561.293.769.499.428.426.696 1.046.696 1.82 0 .035-.007.06-.01.077-.017.003-.042.009-.077.009h-.244l-.02-.458c-.026-.611-.24-1.173-.644-1.588-.14-.144-.299-.263-.47-.359z" fill="#b373d3" stroke-width="1.48958"/><path d="m64.9297 251.57c-.2596.276-.4023.632-.4024 1.028 0 .488.2115.919.5821 1.209.1582.123.3359.212.5224.274-.9569-.033-1.5195-.629-1.5195-1.379.0001-.421.1485-.701.4189-.909.1055-.081.2378-.156.3985-.223zm.8408-3.167c-.0579.025-.1156.052-.1728.083-.3273.178-.5869.437-.8233.737-.0812.091-.1271.103-.2031.103-.0232 0-.0398-.005-.0518-.008.0021-.026.0078-.057.0293-.104l.0088-.019.0078-.018c.0741-.19.2642-.408.6504-.587.1601-.074.3459-.138.5547-.187zm2.8447 1.609c-.0001-.513-.1859-.989-.5761-1.326-.1762-.153-.3772-.26-.5899-.332.4422.078.7847.231 1.0274.422.3377.267.5283.638.5283 1.119v3.999c0 .083-.0132.133-.0225.158-.0046.012-.0084.02-.0107.023-.0023.004-.0042.005-.0049.006-.001.001-.0072.007-.0254.014-.0211.007-.06.016-.1211.016-.0966 0-.1341-.02-.1416-.025.002.002-.0016 0-.0078-.014-.0066-.014-.0172-.048-.0225-.106v-1.066h-.1836c.0945-.225.1504-.476.1504-.754z" fill="#b373d3" stroke-width="1.48958"/><path d="m71.9023 248.303c.1254 0 .1629.036.167.04.0023.002.044.041.044.183v1.138h.2363c-.1366.317-.2031.668-.2031 1.029v3.168c0 .09-.0136.146-.0244.175-.0099.027-.0189.037-.0215.039-.0025.003-.0111.01-.0332.018-.0236.008-.0659.018-.1319.018-.1242 0-.1613-.034-.164-.037-.0031-.003-.0122-.013-.0225-.041-.0108-.029-.0244-.083-.0244-.172v-5.341c0-.078.0108-.127.0205-.155.0093-.026.018-.034.0186-.035.0004 0 .004-.005.0185-.011.0171-.006.0549-.016.1201-.016zm3.1553.012c.6173 0 1.0089.19 1.2529.456.2524.274.4375.729.4375 1.424v3.666c0 .089-.0135.143-.0244.172-.0102.028-.0193.038-.0224.041-.0012.001-.0369.037-.1641.037-.0664 0-.1092-.01-.1328-.018-.0218-.008-.0298-.015-.0322-.018-.0023-.002-.0114-.012-.0215-.039-.0109-.029-.0244-.085-.0244-.175v-3.266c-.0001-.563-.1316-1.126-.5078-1.555-.369-.421-.8804-.606-1.4288-.626.179-.062.3981-.099.668-.099z" fill="#b373d3" stroke-width="1.48958"/><path d="m84.458 245.873c.1285 0 .1628.037.1631.037.0034.004.0131.015.0234.043.0113.031.0244.087.0244.177v7.757c0 .082-.0121.131-.0214.156-.0082.021-.0154.029-.0176.031-.002.002-.0105.01-.0332.018-.0241.008-.0666.018-.1319.018-.129 0-.1713-.037-.1757-.041-.0032-.003-.0111-.01-.0196-.032-.009-.023-.0224-.07-.0224-.15v-1.151h-.295c.2109-.448.3086-.972.3086-1.527 0-.567-.1026-1.103-.3242-1.56h.3106v-3.519c0-.167.0461-.215.0498-.219.0025-.002.0381-.038.1611-.038zm-3.1348 2.461c.1606 0 .3102.019.4483.052-.6344.049-1.1755.351-1.5488.855-.3914.529-.5606 1.224-.5606 1.968 0 .747.1684 1.442.5615 1.97.3806.511.9327.805 1.5752.847-.1473.037-.3102.058-.4892.058-.661 0-1.1565-.252-1.5039-.691-.3626-.459-.6113-1.188-.6114-2.197 0-.997.2497-1.717.6133-2.173.3491-.436.8487-.689 1.5156-.689z" fill="#b373d3" stroke-width="1.48958"/><path d="m90.6289 251.57c-.2596.276-.4023.632-.4023 1.028 0 .488.2114.919.582 1.209.1583.123.3359.212.5225.274-.9569-.033-1.5196-.629-1.5196-1.379.0001-.421.1485-.701.419-.909.1055-.081.2377-.156.3984-.223zm.8408-3.167c-.0578.025-.1156.052-.1728.083-.3272.178-.5869.437-.8233.737-.0812.091-.1271.103-.2031.103-.0232 0-.0398-.005-.0517-.008.002-.026.0078-.057.0292-.104l.0088-.019.0078-.018c.0741-.19.2642-.408.6504-.587.1601-.074.3459-.138.5547-.187zm2.8448 1.609c-.0001-.513-.186-.989-.5762-1.326-.1761-.153-.3772-.26-.5899-.332.4422.078.7847.231 1.0274.422.3377.267.5283.638.5283 1.119v3.999c0 .083-.0132.133-.0225.158-.0045.012-.0084.02-.0107.023-.0023.004-.0042.005-.0049.006-.001.001-.0072.007-.0254.014-.021.007-.06.016-.1211.016-.0966 0-.1341-.02-.1416-.025.0021.002-.0015 0-.0078-.014-.0066-.014-.0172-.048-.0224-.106v-1.066h-.1836c.0945-.225.1503-.476.1504-.754z" fill="#b373d3" stroke-width="1.48958"/><path d="m97.6025 248.303c.1254 0 .1629.036.167.04.0023.002.044.041.044.183v1.138h.2363c-.1366.317-.2031.668-.2031 1.029v3.168c0 .09-.0136.146-.0244.175-.0099.027-.0189.037-.0215.039-.0025.003-.0112.01-.0332.018-.0236.008-.0659.018-.1319.018-.1242 0-.1613-.034-.164-.037-.0031-.003-.0122-.013-.0225-.041-.0108-.029-.0244-.083-.0244-.172v-5.341c0-.078.0108-.127.0205-.155.0093-.026.018-.034.0186-.035.0004 0 .004-.005.0185-.011.0171-.006.0549-.016.1201-.016zm3.1555.012c.617 0 1.009.19 1.253.456.252.274.437.729.437 1.424v3.666c0 .089-.013.143-.024.172-.01.028-.019.038-.023.041-.001.001-.036.037-.164.037-.066 0-.109-.01-.133-.018-.021-.008-.029-.015-.032-.018-.002-.002-.011-.012-.021-.039-.011-.029-.025-.085-.025-.175v-3.266c0-.563-.131-1.126-.507-1.555-.369-.421-.881-.606-1.429-.626.179-.062.398-.099.668-.099z" fill="#b373d3" stroke-width="1.48958"/><path d="m107.05 248.341c-.462.125-.858.405-1.15.813-.387.543-.559 1.263-.559 2.056 0 .795.167 1.517.555 2.061.293.411.692.686 1.156.809-.612-.095-1.085-.343-1.424-.695-.441-.459-.734-1.175-.734-2.182 0-.985.295-1.698.741-2.161.341-.354.813-.604 1.415-.701zm1.144 0c.605.096 1.078.345 1.42.699.446.462.741 1.174.741 2.163 0 1.011-.293 1.726-.734 2.184-.339.352-.813.599-1.427.693.464-.123.862-.399 1.155-.81.386-.544.552-1.265.552-2.06 0-.792-.17-1.511-.555-2.054-.292-.41-.688-.69-1.152-.815z" fill="#b373d3" stroke-width="1.48958"/><path d="m113.338 246.922c0-.158.043-.208.048-.213.003-.003.01-.011.03-.019.021-.008.063-.018.133-.018s.112.01.134.018c.019.008.027.016.03.019.005.005.047.055.047.213v5.577c0 .308.048.691.299 1.007.266.336.638.445.951.473l.018.002v-.001l.048.005c-.103.034-.263.067-.492.067h-.065c-.525 0-.788-.13-.922-.261-.131-.127-.259-.372-.259-.866z" fill="#b373d3" stroke-width="1.48958"/><path d="m117.836 245.873c.07 0 .111.011.13.018.009.003.014.006.016.007.002.002.003.003.003.003.001.001.01.01.02.038.01.031.022.086.022.17v3.586h.226c-.131.316-.192.663-.192 1.017v3.148c0 .09-.014.146-.025.175-.01.027-.019.037-.021.039-.003.003-.011.01-.034.018s-.065.018-.131.018c-.124 0-.161-.034-.164-.037-.004-.003-.013-.013-.023-.041-.011-.029-.024-.083-.024-.172v-7.751c0-.082.012-.136.022-.166.01-.027.018-.037.02-.039 0 0 .005-.006.023-.012.02-.008.062-.019.132-.019zm3.182 2.441c.612 0 1.009.193 1.259.466.259.282.444.741.444 1.421v3.659c0 .09-.014.146-.025.175-.01.028-.019.037-.021.039-.003.003-.011.01-.032.018-.024.008-.067.018-.133.018-.121 0-.159-.033-.163-.037-.003-.003-.014-.013-.024-.041-.011-.029-.024-.083-.024-.172v-3.253c0-.563-.138-1.127-.517-1.557-.366-.417-.873-.613-1.427-.637.191-.065.411-.099.663-.099z" fill="#b373d3" stroke-width="1.48958"/><path d="m126.829 248.452c-.718.358-1.182 1.098-1.246 1.971l-.058.799h.037v.511c0 .67.203 1.294.633 1.758.196.211.427.372.682.489-.416-.126-.744-.328-.992-.587-.431-.45-.712-1.153-.712-2.15 0-.987.285-1.715.721-2.189.243-.265.555-.471.935-.602zm3.333 4.688-.001.002c-.173.322-.522.613-1.037.794.007-.004.015-.007.022-.01.373-.189.681-.465.968-.797.029-.03.049-.046.059-.054.004 0 .009-.001.015-.001-.006.017-.012.039-.026.066zm-1.227-4.641c.303.122.56.293.768.499.428.425.696 1.046.696 1.819 0 .036-.006.06-.009.078-.018.003-.042.008-.078.008h-.244l-.019-.458c-.026-.611-.24-1.173-.645-1.588-.14-.143-.299-.262-.469-.358z" fill="#b373d3" stroke-width="1.48958"/><path d="m133.049 248.303c.052 0 .084.008.098.013.014.006.018.011.019.012.002.002.01.012.02.037.009.028.022.077.022.155v1.203h.266c-.139.329-.181.688-.181 1.022v3.116c0 .087-.013.141-.024.172-.011.029-.02.04-.023.042-.002.003-.009.01-.03.018-.023.008-.065.018-.134.018-.067 0-.109-.01-.132-.018-.021-.008-.029-.015-.032-.019-.003-.003-.047-.05-.047-.213v-5.341c0-.077.011-.125.021-.151.009-.025.018-.034.02-.036s.009-.008.026-.015c.018-.007.053-.015.111-.015zm2.402.032c.054 0 .091.005.113.01.006.023.013.064.013.129 0 .075-.012.111-.015.121l-.001.001c-.01.007-.095.064-.359.069-.107.002-.212.012-.315.025.161-.266.38-.355.564-.355z" fill="#b373d3" stroke-width="1.48958"/></g><path d="m64.6432 271.242c.563 0 .9557-.34.9557-.995v-7.731c0-.654-.3927-1.001-.9557-1.001-.5564 0-.9557.347-.9557 1.001v7.731c0 .655.3993.995.9557.995z" fill="#ff462d"/><path d="m67.8776 263.216c.5761 0 1.0212-.438 1.0212-.988 0-.557-.4451-.989-1.0212-.989-.576 0-1.0212.432-1.0212.989 0 .55.4452.988 1.0212.988zm0 8.026c.5892 0 .9557-.374.9557-.995v-5.303c0-.622-.3665-1.001-.9557-1.001-.5957 0-.9557.379-.9557 1.001v5.303c0 .621.36.995.9557.995z" fill="#ff462d"/><path d="m71.0583 271.241c.5629 0 .9557-.34.9557-.995v-3.168c0-.91.5433-1.538 1.4008-1.538.8576 0 1.2896.523 1.2896 1.44v3.266c0 .655.3928.995.9557.995.5564 0 .9557-.34.9557-.995v-3.666c0-1.643-.8771-2.625-2.4351-2.625-1.0801 0-1.7871.478-2.1602 1.349h-.0393v-.393c0-.602-.3796-.969-.9557-.969-.576 0-.923.367-.923.963v5.341c0 .655.3993.995.9558.995z" fill="#ff462d"/><path d="m78.8288 271.242c.5629 0 .9557-.34.9557-.995v-1.42l.6088-.563 1.8001 2.382c.3011.452.5303.596.9361.596.5368 0 .9099-.353.9099-.864 0-.249-.0589-.419-.2684-.7l-1.9572-2.494 1.787-1.689c.275-.256.3601-.432.3601-.72 0-.472-.3601-.832-.851-.832-.2881 0-.5041.112-.7594.38l-2.5398 2.546h-.0262v-4.353c0-.654-.3928-1.001-.9557-1.001-.5564 0-.9558.347-.9558 1.001v7.731c0 .655.3994.995.9558.995z" fill="#ff462d"/><path d="m88.9473 263.309c0-.158.0429-.208.0478-.213.0031-.004.0106-.011.0303-.019.0212-.008.0631-.018.1328-.018.07 0 .1126.01.1338.018.0196.008.0271.015.0303.019.005.005.0468.055.0468.213v5.577c0 .308.0484.691.2989 1.007.2666.336.6384.444.9511.472v.001l.0186.002v-.001l.0478.005c-.103.034-.2627.066-.4921.066h-.0655c-.5243 0-.7879-.13-.9218-.26-.1305-.128-.2588-.372-.2588-.866z" fill="#b373d3" stroke="#3a3a3c" stroke-width="1.48958"/><path d="m95.0049 264.726c-.4619.125-.8579.405-1.1494.813-.3878.543-.5596 1.262-.5596 2.056 0 .795.1669 1.517.5547 2.06.2936.412.6925.687 1.1562.81-.612-.095-1.0848-.343-1.4238-.695-.4411-.459-.7344-1.175-.7344-2.182.0001-.985.2954-1.699.7412-2.161.3414-.355.8132-.605 1.4151-.701zm1.1445 0c.6047.096 1.078.344 1.4199.699.4453.461.7412 1.174.7412 2.163 0 1.011-.2938 1.726-.7343 2.183-.3392.353-.8128.599-1.4268.694.4632-.123.8617-.399 1.1543-.811.3863-.543.5527-1.264.5527-2.059 0-.792-.17-1.511-.5556-2.054-.2913-.41-.6878-.69-1.1514-.815z" fill="#b373d3" stroke="#3a3a3c" stroke-width="1.48958"/><path d="m103.943 263.309c0-.158.043-.208.048-.213.003-.004.011-.011.03-.019.022-.008.064-.018.133-.018.07 0 .113.01.134.018.02.008.027.015.03.019.005.005.047.055.047.213v5.577c0 .308.049.691.299 1.007.267.336.639.444.951.472v.001l.019.002v-.001l.048.005c-.103.034-.263.066-.493.066h-.065c-.524 0-.788-.13-.922-.26-.13-.128-.259-.372-.259-.866z" fill="#b373d3" stroke="#3a3a3c" stroke-width="1.48958"/><path d="m108.442 262.26c.071 0 .112.01.13.017.009.004.015.007.017.008s.002.002.003.003c0 0 .009.009.019.038.011.031.023.086.023.17v3.586h.225c-.13.316-.192.663-.192 1.017v3.148c0 .09-.014.145-.024.175-.01.027-.019.036-.022.039-.002.002-.011.009-.033.018-.024.008-.066.018-.132.018-.123 0-.161-.034-.164-.037s-.012-.014-.022-.041c-.011-.029-.025-.084-.025-.172v-7.751c0-.083.012-.136.023-.166.009-.027.018-.037.019-.039.001-.001.006-.006.024-.013.019-.007.061-.018.131-.018zm3.182 2.441c.612 0 1.01.193 1.26.466.258.282.443.741.443 1.421v3.659c0 .09-.013.145-.024.175-.01.027-.02.037-.022.039s-.01.01-.032.018c-.024.008-.066.018-.133.018-.121 0-.159-.033-.163-.037-.003-.003-.013-.013-.023-.041-.011-.029-.025-.084-.025-.172v-3.253c0-.564-.138-1.127-.516-1.557-.367-.417-.874-.613-1.427-.637.191-.065.411-.099.662-.099z" fill="#b373d3" stroke="#3a3a3c" stroke-width="1.48958"/><path d="m117.436 264.837c-.719.358-1.183 1.097-1.247 1.971l-.057.798h.036v.512c0 .669.204 1.294.634 1.758.195.211.427.372.681.489-.415-.126-.743-.328-.992-.588-.43-.449-.712-1.152-.712-2.149 0-.987.286-1.716.721-2.19.243-.265.555-.47.936-.601zm3.333 4.687-.001.002c-.174.322-.523.614-1.038.794.008-.003.016-.006.023-.009.372-.189.681-.465.968-.797.029-.031.048-.046.058-.054.004 0 .009-.001.016-.001-.006.017-.012.039-.026.065zm-1.228-4.64c.303.122.561.292.769.499.428.425.696 1.045.696 1.819 0 .035-.007.06-.01.077-.017.003-.042.009-.077.009h-.244l-.02-.458c-.026-.611-.24-1.173-.644-1.588-.14-.144-.299-.262-.47-.358z" fill="#b373d3" stroke="#3a3a3c" stroke-width="1.48958"/><path d="m64.8965 279.693c0-.157.0429-.207.0478-.213.0032-.003.0107-.011.0303-.018.0212-.008.0631-.019.1328-.019.07 0 .1126.011.1338.019.0197.007.0272.015.0303.018.005.006.0469.056.0469.213v5.578c0 .307.0484.691.2988 1.006.2666.336.6385.445.9512.473v.001l.0185.002v-.001l.0479.005c-.1031.034-.2628.066-.4922.066h-.0655c-.5243 0-.7878-.13-.9218-.261-.1305-.127-.2588-.371-.2588-.866z" fill="#b373d3" stroke="#3a3a3c" stroke-width="1.48958"/><path d="m69.3955 278.645c.0705 0 .1113.01.1299.017.0092.004.0145.007.0166.008.0017.001.0023.002.0029.003.0003 0 .0095.009.0196.038.0106.031.0224.085.0224.17v3.586h.2256c-.1305.316-.1924.662-.1924 1.016v3.149c0 .09-.0135.145-.0244.175-.0099.027-.019.036-.0215.039-.0024.002-.0111.009-.0332.017-.0236.009-.0659.019-.1318.019-.1233 0-.1609-.034-.1641-.037-.0031-.003-.0122-.014-.0224-.041-.0109-.029-.0245-.084-.0245-.172v-7.751c.0001-.083.012-.136.0225-.166.0096-.028.018-.038.0195-.039.0007-.001.0057-.006.0235-.013.0198-.007.0614-.018.1318-.018zm3.1816 2.441c.6122 0 1.0096.193 1.2598.466.2582.281.4434.74.4434 1.421v3.659c0 .09-.0136.145-.0244.175-.0102.027-.0193.037-.0215.039-.0026.002-.0106.009-.0323.017-.0236.009-.0664.019-.1328.019-.121 0-.1588-.033-.1631-.037-.003-.003-.0131-.014-.0234-.041-.0108-.029-.0244-.084-.0244-.172v-3.253c0-.564-.1383-1.127-.5166-1.558-.3662-.416-.8732-.612-1.4268-.636.1908-.066.4109-.099.6621-.099z" fill="#b373d3" stroke="#3a3a3c" stroke-width="1.48958"/><path d="m77.2314 281.073c.0671 0 .1079.011.129.019.0194.007.0272.015.0312.019.0035.004.0508.053.0508.219v5.303c-.0001.165-.0466.211-.0479.213-.0032.003-.0113.01-.0312.017-.0217.008-.0634.02-.1319.02-.0711 0-.1141-.012-.1357-.02-.0198-.007-.0271-.014-.0293-.016-.0028-.003-.0121-.015-.0225-.044-.011-.032-.0233-.086-.0234-.17v-5.303c0-.169.0469-.219.0488-.221.0032-.003.0107-.009.0293-.016.0209-.008.0628-.02.1328-.02zm0-2.703c.0982 0 .1664.035.2081.075.0408.04.0683.095.0683.168 0 .12-.0927.244-.2764.244-.1839 0-.2763-.124-.2763-.244 0-.073.0265-.128.0674-.168.0416-.04.1106-.075.2089-.075z" fill="#b373d3" stroke="#3a3a3c" stroke-width="1.48958"/><path d="m80.3799 281.073c.0525 0 .0841.008.0986.014.0131.005.0171.01.0186.012.002.002.0104.011.0195.037.0099.027.0224.076.0225.154v1.203h.2656c-.1385.33-.1806.688-.1807 1.023v3.116c0 .086-.0134.141-.0244.172-.0103.028-.0199.039-.0225.042-.0023.002-.0095.01-.0302.017-.0224.009-.065.019-.1338.019-.0669 0-.1094-.01-.1319-.019-.0207-.008-.0289-.015-.0322-.018-.0032-.003-.0469-.051-.0469-.213v-5.342c.0001-.076.011-.124.0206-.15.0091-.025.0183-.034.0205-.036.0023-.003.0087-.009.0254-.015.0183-.007.0538-.016.1113-.016zm2.4023.032c.054 0 .0908.006.1133.01.0054.024.0127.065.0127.129 0 .076-.0117.111-.0156.121l-.001.001c-.01.008-.0943.065-.3584.07-.1068.001-.212.011-.3154.025.1608-.266.3805-.355.5644-.356z" fill="#b373d3" stroke="#3a3a3c" stroke-width="1.48958"/><path d="m89.8584 278.645c.1285 0 .1628.036.1631.037.0034.003.013.014.0234.043.0113.03.0244.087.0244.176v7.757c0 .082-.0121.132-.0214.156-.0082.022-.0155.03-.0176.032-.002.002-.0105.009-.0332.017-.0241.009-.0666.019-.1319.019-.129 0-.1713-.037-.1757-.041-.0032-.003-.0112-.011-.0196-.032-.009-.024-.0224-.071-.0224-.151v-1.15h-.295c.2109-.449.3086-.973.3086-1.528 0-.566-.1026-1.103-.3242-1.559h.3106v-3.52c0-.167.0461-.215.0498-.218.0025-.003.0381-.038.1611-.038zm-3.1348 2.46c.1606 0 .3102.019.4483.052-.6344.05-1.1755.351-1.5489.856-.3913.529-.5605 1.223-.5605 1.967 0 .747.1684 1.442.5615 1.97.3805.511.9327.806 1.5752.848-.1473.036-.3102.057-.4892.057-.661 0-1.1565-.251-1.5039-.691-.3626-.459-.6113-1.187-.6114-2.196 0-.997.2497-1.718.6133-2.173.3491-.437.8486-.69 1.5156-.69z" fill="#b373d3" stroke="#3a3a3c" stroke-width="1.48958"/><path d="m95.6846 281.073c.0611 0 .1005.01.122.018.0201.007.0277.014.0303.016.0025.003.0115.012.0215.039.0107.029.0244.083.0244.17v1.125h.3389c-.2171.453-.3193.982-.3194 1.539 0 .579.1096 1.125.3418 1.586h-.3349v3.429c0 .09-.0136.145-.0244.175-.01.027-.0191.037-.0215.039-.0025.002-.0112.01-.0332.018-.0236.008-.0659.018-.1319.018-.1231 0-.1607-.034-.164-.037-.0031-.003-.0123-.014-.0225-.041-.0108-.029-.0244-.084-.0244-.172v-7.685c.0001-.085.0122-.137.0225-.164.0097-.027.019-.036.0214-.039.0029-.002.011-.009.0313-.016.0219-.008.0611-.018.1221-.018zm3.1552.032c.6832 0 1.1802.251 1.5222.681.359.45.607 1.172.607 2.194 0 1.02-.246 1.745-.603 2.197-.34.431-.8281.679-1.493.679-.1813 0-.3486-.02-.5009-.058.6374-.047 1.1834-.348 1.5605-.852.3944-.527.5684-1.221.5684-1.966 0-.742-.175-1.435-.5674-1.963-.3739-.503-.9161-.811-1.5537-.86.1416-.033.295-.052.4599-.052z" fill="#b373d3" stroke="#3a3a3c" stroke-width="1.48958"/><path d="m103.982 284.342c-.259.275-.402.631-.402 1.027 0 .488.211.919.582 1.209.158.124.336.212.523.275-.957-.034-1.52-.629-1.52-1.379 0-.421.149-.701.419-.91.105-.081.238-.156.398-.222zm.841-3.167c-.058.024-.115.052-.173.083-.327.177-.586.437-.823.736-.081.092-.127.104-.203.104-.023 0-.04-.005-.052-.008.002-.027.008-.057.03-.105l.008-.018.008-.019c.074-.189.264-.407.651-.587.16-.074.345-.138.554-.186zm2.845 1.608c0-.512-.186-.989-.576-1.326-.176-.152-.377-.259-.59-.332.442.078.785.231 1.027.423.338.267.529.637.529 1.118v3.999c0 .084-.014.133-.023.158-.004.013-.008.02-.011.024-.002.003-.004.005-.004.006-.001 0-.008.007-.026.013-.021.008-.06.017-.121.017-.097 0-.134-.021-.142-.026.002.002-.001.001-.007-.013-.007-.015-.018-.048-.023-.107v-1.065h-.183c.094-.226.15-.477.15-.754z" fill="#b373d3" stroke="#3a3a3c" stroke-width="1.48958"/><path d="m115.801 281.073c.065 0 .109.009.134.018.022.008.03.015.032.016 0 .001.007.007.015.03.01.024.023.074.023.16v5.918c0 .718-.252 1.226-.67 1.569-.386.316-.982.544-1.814.589.516-.053.989-.231 1.36-.56.465-.412.689-.99.689-1.612v-1.864h-.266c.194-.428.286-.923.286-1.447 0-.527-.094-1.028-.288-1.462h.281v-1.131c0-.083.013-.131.022-.154.009-.022.016-.029.018-.031.004-.004.047-.039.178-.039zm-4.949 7.28c.041 0 .054.004.059.006.004.002.014.007.03.018l.071.057c.509.48 1.069.831 1.768.929-1.04-.09-1.679-.513-1.924-.907-.016-.028-.025-.051-.03-.07-.002-.009-.002-.02-.004-.031.009 0 .018-.002.03-.002zm1.806-7.248c.061 0 .12.003.177.008-.518.102-.961.385-1.281.815-.391.524-.563 1.214-.563 1.955 0 .744.169 1.431.566 1.95.296.388.692.643 1.147.758-.026.001-.052.003-.078.003-.668 0-1.162-.246-1.504-.662-.355-.433-.599-1.119-.599-2.069 0-.988.242-1.676.593-2.102.335-.408.833-.655 1.542-.656z" fill="#b373d3" stroke="#3a3a3c" stroke-width="1.48958"/><path d="m120.133 281.224c-.719.358-1.183 1.097-1.246 1.97l-.058.799h.036v.512c0 .669.204 1.294.634 1.758.196.211.427.372.682.489-.416-.126-.744-.329-.993-.588-.43-.449-.711-1.152-.711-2.149 0-.987.285-1.716.72-2.19.244-.265.556-.471.936-.601zm3.333 4.687-.001.002c-.173.322-.522.613-1.037.794.007-.004.015-.006.022-.01.372-.188.681-.465.968-.797.029-.03.048-.046.059-.053.003-.001.009-.001.015-.001-.006.016-.012.039-.026.065zm-1.228-4.64c.303.121.561.292.769.499.428.425.696 1.045.696 1.819 0 .035-.007.06-.01.077-.017.003-.042.009-.077.009h-.244l-.019-.458c-.027-.611-.241-1.173-.645-1.588-.14-.144-.299-.263-.47-.358z" fill="#b373d3" stroke="#3a3a3c" stroke-width="1.48958"/><path d="m63.0195 222.88h3.2469v1.988h-3.2469z" fill="#ff462d"/><path d="m66.2666 222.88h3.2141v1.988h-3.2141z" fill="#ff462d"/><path d="m69.4805 222.88h7.7243v1.988h-7.7243z" fill="#ff462d"/><path d="m77.2051 222.88h7.2137v1.988h-7.2137z" fill="#ff462d"/><path d="m63.0195 272.036h3.2469v1.989h-3.2469z" fill="#ff462d"/><path d="m66.2666 272.036h3.2141v1.989h-3.2141z" fill="#ff462d"/><path d="m69.4805 272.036h7.7243v1.989h-7.7243z" fill="#ff462d"/><path d="m77.2051 272.036h7.2137v1.989h-7.2137z" fill="#ff462d"/><path d="m250.312 35.9863h5.884c.079 0 .121.0126.139.0205.002.0082.007.0247.007.0528 0 .0266-.005.042-.007.0498-.016.0079-.058.0234-.139.0234h-2.701v7.6514c0 .1843-.05.2373-.053.2402-.003.0036-.012.0116-.036.0205-.026.0097-.075.0215-.155.0215s-.13-.0118-.155-.0215c-.023-.0086-.032-.0168-.035-.0205-.002-.002-.053-.0542-.053-.2402v-7.6514h-2.696c-.086 0-.129-.0162-.146-.0244-.002-.0079-.006-.0232-.006-.0488 0-.0261.004-.0422.006-.0508.018-.0083.062-.0224.146-.0225z" fill="#b373d3" stroke="#3a3a3c" stroke-width="1.48958"/><path d="m258.894 35.8418c.07 0 .111.0105.129.0176.01.0035.015.0064.017.0078.002.0011.002.0023.003.0029 0 .0003.009.0092.019.0381.011.0307.023.0854.023.1699v3.586h.226c-.131.3158-.193.6626-.193 1.0166v3.1484c0 .0897-.013.1453-.024.1748-.01.0269-.019.0366-.022.0391-.002.0024-.011.0095-.033.0175-.024.0086-.066.0186-.132.0186-.123 0-.161-.034-.164-.0371s-.012-.0136-.022-.041c-.011-.0292-.025-.0836-.025-.1719v-7.751c0-.0828.012-.1359.023-.166.009-.0275.018-.0375.019-.0391.001-.0006.006-.0058.024-.0126.02-.0076.061-.0186.132-.0186zm3.181 2.4414c.612 0 1.01.193 1.26.4658.258.2817.443.7406.443 1.4209v3.6592c0 .0897-.013.1453-.024.1748-.01.0274-.019.0369-.022.0391-.002.0025-.01.0097-.032.0175-.023.0086-.066.0186-.133.0186-.121 0-.158-.033-.163-.0371-.003-.0031-.013-.0135-.023-.041-.011-.0292-.025-.0836-.025-.1719v-3.2529c0-.5639-.138-1.1273-.516-1.5576-.366-.4166-.873-.6127-1.427-.6368.191-.0653.411-.0986.662-.0986z" fill="#b373d3" stroke="#3a3a3c" stroke-width="1.48958"/><path d="m266.729 38.2705c.068 0 .108.0105.129.0186.02.0075.028.0153.032.0195.003.0036.05.0531.05.2187v5.3028c0 .165-.046.2116-.047.2129-.004.0033-.012.0099-.032.0175-.021.0083-.063.0195-.132.0196-.071 0-.114-.0114-.135-.0196-.02-.0075-.027-.0142-.03-.0166-.002-.0029-.012-.0145-.022-.0439-.011-.0316-.023-.086-.023-.1699v-5.3028c0-.1692.046-.2186.048-.2207.004-.0033.011-.0094.03-.0166.021-.008.062-.0195.132-.0195zm0-2.7031c.099.0001.167.0349.209.0752.04.0396.068.0948.068.1679 0 .1196-.093.2441-.277.2442-.183 0-.276-.1246-.276-.2442 0-.0731.027-.1283.068-.1679.041-.0404.11-.0752.208-.0752z" fill="#b373d3" stroke="#3a3a3c" stroke-width="1.48958"/><path d="m269.498 43.0957c.036 0 .109-.0041.274.1816v-.0009c.196.2488.423.4653.705.6298-.578-.1897-.881-.4904-.986-.7421-.008-.0238-.014-.0443-.017-.0606-.001-.0019-.001-.0041-.001-.0058.007-.0009.015-.002.025-.002zm1.049-4.6269c-.312.2198-.549.553-.604.9667l-.011.1856.007.1504c.038.3476.205.6578.497.8916.29.2326.668.3612 1.059.4453l1.159.249h.003c.703.1479 1.074.3298 1.268.5049.153.1389.248.3202.248.6777 0 .4475-.189.8048-.553 1.0723-.117.0864-.258.1619-.417.2295.329-.2543.549-.6335.549-1.0986 0-.3848-.141-.7574-.487-1.0342-.287-.2289-.661-.3463-1.029-.4268l-.005-.001-1.178-.249h-.001c-.602-.1293-.969-.3301-1.179-.5381-.193-.1909-.298-.4304-.298-.7685 0-.4308.175-.7619.506-1.0078.127-.094.282-.1788.466-.249zm2.563.0478c.061.0268.118.0544.171.084.346.1915.502.4074.554.5596-.024-.003-.046-.0074-.064-.0147l-.024-.0098c-.165-.2088-.37-.4341-.637-.6191z" fill="#b373d3" stroke="#3a3a3c" stroke-width="1.48958"/><path d="m279.501 38.2705c.067 0 .108.0105.129.0186.019.0075.027.0153.031.0195.004.0036.051.0531.051.2187v5.3028c0 .165-.047.2116-.048.2129-.003.0033-.011.0099-.031.0175-.022.0083-.064.0195-.132.0196-.071 0-.114-.0114-.136-.0196-.02-.0075-.027-.0142-.029-.0166-.003-.0029-.012-.0145-.023-.0439-.011-.0316-.023-.086-.023-.1699v-5.3028c0-.1692.047-.2186.049-.2207.003-.0033.01-.0094.029-.0166.021-.008.063-.0195.133-.0195zm0-2.7031c.098.0001.166.0349.208.0752.041.0396.068.0948.068.1679 0 .1196-.092.2441-.276.2442-.184 0-.276-.1246-.276-.2442 0-.0731.026-.1283.067-.1679.042-.0404.111-.0752.209-.0752z" fill="#b373d3" stroke="#3a3a3c" stroke-width="1.48958"/><path d="m282.27 43.0957c.035 0 .109-.0041.274.1816v-.0009c.196.2488.423.4653.704.6298-.578-.1897-.88-.4904-.985-.7421-.008-.0238-.015-.0443-.018-.0606 0-.0019-.001-.0041-.001-.0058.007-.0009.016-.002.026-.002zm1.048-4.6269c-.312.2198-.548.553-.603.9667l-.012.1856.008.1504c.037.3476.204.6578.496.8916.29.2326.669.3612 1.06.4453l1.159.249h.003c.702.1479 1.074.3298 1.267.5049.154.1389.248.3202.248.6777 0 .4475-.189.8048-.552 1.0723-.118.0864-.258.1619-.417.2295.328-.2543.548-.6335.548-1.0986 0-.3848-.14-.7574-.487-1.0342-.286-.2289-.661-.3463-1.028-.4268l-.005-.001-1.179-.249h-.001c-.601-.1293-.969-.3301-1.178-.5381-.193-.1909-.298-.4304-.298-.7685 0-.4308.174-.7619.506-1.0078.126-.094.281-.1788.465-.249zm2.564.0478c.06.0268.117.0544.171.084.345.1915.502.4074.553.5596-.023-.003-.046-.0074-.064-.0147l-.023-.0098c-.166-.2088-.37-.4341-.637-.6191z" fill="#b373d3" stroke="#3a3a3c" stroke-width="1.48958"/><path d="m291.827 43.0957c.036 0 .109-.0041.275.1816v-.0009c.195.2488.423.4653.704.6298-.578-.1897-.881-.4904-.986-.7421-.008-.0238-.014-.0443-.017-.0606-.001-.0019-.001-.0041-.001-.0058.007-.0009.015-.002.025-.002zm1.049-4.6269c-.312.2198-.549.553-.604.9667l-.011.1856.008.1504c.037.3476.204.6578.496.8916.29.2326.668.3612 1.059.4453l1.159.249h.003c.703.1479 1.074.3298 1.268.5049.153.1389.248.3202.248.6777 0 .4475-.189.8048-.553 1.0723-.117.0864-.257.1619-.417.2295.329-.2543.549-.6335.549-1.0986 0-.3848-.141-.7574-.487-1.0342-.287-.2289-.661-.3463-1.029-.4268l-.004-.001-1.179-.249h-.001c-.602-.1293-.969-.3301-1.179-.5381-.193-.1909-.298-.4304-.298-.7685 0-.4308.175-.7619.506-1.0078.127-.094.282-.1788.466-.249zm2.563.0478c.061.0268.118.0544.171.084.346.1915.502.4074.554.5596-.024-.003-.046-.0074-.064-.0147l-.024-.0098c-.165-.2088-.37-.4341-.637-.6191z" fill="#b373d3" stroke="#3a3a3c" stroke-width="1.48958"/><path d="m300.835 38.3096c-.462.1256-.858.4055-1.149.8134-.388.5428-.56 1.2625-.56 2.0557 0 .7952.167 1.5169.555 2.0606.293.4113.692.6864 1.156.8095-.612-.095-1.085-.3426-1.424-.6953-.441-.459-.734-1.1747-.734-2.1816 0-.9851.295-1.6985.741-2.1612.341-.3542.813-.6043 1.415-.7011zm1.144 0c.605.0959 1.078.3448 1.42.6992.446.4615.742 1.1743.742 2.1631 0 1.0107-.294 1.7258-.735 2.1836-.339.3525-.813.599-1.427.6933.464-.1233.862-.399 1.155-.8105.386-.5432.553-1.2643.553-2.0596 0-.7917-.171-1.5108-.556-2.0537-.291-.41-.688-.6901-1.152-.8154z" fill="#b373d3" stroke="#3a3a3c" stroke-width="1.48958"/><path d="m306.791 38.2715c.06 0 .098.0087.116.0156.017.0063.022.0116.022.0117.001.0012.008.0099.017.0342.01.0282.024.0818.024.169v1.1835h.189c-.082.2419-.124.5011-.124.7666v3.378c0 .0869-.013.1412-.024.1709-.011.028-.021.0388-.024.042-.003.0029-.039.037-.163.0371-.067 0-.11-.0101-.134-.0186-.021-.0079-.028-.0152-.031-.0176-.002-.0023-.012-.0118-.022-.04-.011-.03-.024-.0853-.024-.1738v-5.3281c0-.0872.013-.1408.023-.169.009-.0264.018-.0341.018-.0342.001-.001.006-.006.022-.0117.019-.0069.055-.0156.115-.0156zm2.966.0127c.378 0 .645.0969.828.2314.179.1323.327.3375.407.6494l.145.5596h.192c-.069.2232-.104.4595-.104.7012v3.4043c0 .0954-.013.156-.025.1894-.005.0162-.01.0261-.013.0313-.002.0024-.004.0039-.004.0049-.001.0009-.001.0019-.001.0019h-.001c-.001.0006-.005.0029-.013.0059-.017.0062-.055.0166-.122.0166-.065 0-.101-.0099-.116-.0156l-.014-.0069c-.001-.001-.001-.0031-.003-.0058-.003-.0053-.008-.0157-.014-.0323-.011-.0338-.025-.0942-.025-.1894v-3.5147c0-.5137-.146-1.0164-.505-1.3945-.312-.3293-.722-.4972-1.157-.5381.163-.064.346-.0986.545-.0986zm4.176 0c.511 0 .886.1721 1.131.4238.248.2533.421.6462.421 1.1885v3.9336c0 .0872-.012.1416-.023.1709-.01.0275-.02.0379-.024.041-.004.0043-.043.038-.169.0381-.065 0-.106-.0095-.128-.0176-.021-.0076-.028-.0151-.031-.0176-.002-.0028-.012-.0134-.022-.041-.011-.0304-.025-.0857-.025-.1738v-3.4561c0-.5208-.129-1.0401-.489-1.4345-.331-.363-.773-.5305-1.237-.5616.178-.0605.378-.0937.596-.0937z" fill="#b373d3" stroke="#3a3a3c" stroke-width="1.48958"/><path d="m319.588 38.4209c-.719.3582-1.182 1.0974-1.246 1.9707l-.058.7988h.036v.5117c0 .6693.204 1.2938.634 1.7579.196.211.427.372.682.4892-.416-.1264-.744-.3286-.992-.5879-.431-.4494-.712-1.1521-.712-2.1494 0-.9868.285-1.7156.72-2.1894.244-.2651.556-.4709.936-.6016zm3.333 4.6875-.001.002c-.173.322-.522.6133-1.037.7939.007-.0036.015-.0061.022-.0098.372-.1883.681-.4648.968-.7968.029-.0302.048-.0461.059-.0538.004-.0003.009-.0007.015-.0009-.006.0167-.012.0392-.026.0654zm-1.228-4.6406c.304.1219.561.2926.769.499.428.4252.696 1.0455.696 1.8193 0 .0352-.007.0599-.01.0772-.017.003-.042.0088-.077.0088h-.244l-.019-.458c-.027-.611-.241-1.1731-.645-1.5879-.14-.1438-.299-.2626-.47-.3584z" fill="#b373d3" stroke="#3a3a3c" stroke-width="1.48958"/><path d="m252.486 54.6943c-.462.1257-.858.4056-1.149.8135-.388.5427-.56 1.2624-.56 2.0557 0 .7952.167 1.5169.555 2.0605.294.4114.693.6865 1.156.8096-.612-.095-1.085-.3426-1.424-.6953-.441-.459-.734-1.1747-.734-2.1817 0-.985.295-1.6984.741-2.1611.342-.3543.813-.6043 1.415-.7012zm1.145 0c.605.096 1.078.3448 1.42.6993.445.4614.741 1.1743.741 2.163 0 1.0107-.294 1.7258-.734 2.1836-.34.3525-.813.599-1.427.6934.463-.1233.861-.3991 1.154-.8106.386-.5432.553-1.2643.553-2.0595 0-.7918-.17-1.5108-.556-2.0537-.291-.4101-.688-.6902-1.151-.8155z" fill="#b373d3" stroke="#3a3a3c" stroke-width="1.48958"/><path d="m258.773 53.2773c0-.1575.043-.2075.048-.2128.003-.0033.011-.011.031-.0186.021-.0081.063-.0185.132-.0186.07 0 .113.0104.134.0186.02.0076.027.0153.03.0186.005.0054.047.0555.047.2128v5.5772c0 .3079.049.6911.299 1.0068.267.3361.639.4448.951.4727v.001l.019.0019v-.001l.048.0049c-.103.0339-.263.0664-.492.0664h-.066c-.524 0-.788-.1301-.922-.2607-.13-.1273-.259-.3718-.259-.8662z" fill="#b373d3" stroke="#3a3a3c" stroke-width="1.48958"/><path d="m263.272 52.2285c.071 0 .112.0105.13.0176.01.0035.015.0064.017.0078.002.0011.002.0023.003.0029 0 .0003.009.0092.019.0381.011.0308.023.0854.023.1699v3.586h.225c-.13.3158-.192.6626-.192 1.0166v3.1484c0 .0897-.013.1453-.024.1748-.01.0269-.019.0366-.022.0391-.002.0024-.011.0095-.033.0176-.024.0085-.066.0185-.132.0185-.123 0-.161-.0339-.164-.0371-.003-.003-.012-.0136-.022-.041-.011-.0292-.025-.0835-.025-.1719v-7.751c0-.0828.012-.1359.023-.166.009-.0275.018-.0374.019-.039.001-.0007.006-.0059.024-.0127.02-.0076.061-.0186.131-.0186zm3.182 2.4414c.612 0 1.01.193 1.26.4658.258.2817.443.7406.443 1.4209v3.6592c0 .0897-.013.1453-.024.1748-.01.0274-.019.0369-.022.0391-.002.0025-.01.0097-.032.0176-.024.0085-.066.0185-.133.0185-.121 0-.159-.033-.163-.0371-.003-.003-.013-.0134-.023-.041-.011-.0292-.025-.0836-.025-.1719v-3.2529c0-.5639-.138-1.1272-.516-1.5576-.366-.4165-.873-.6126-1.427-.6367.191-.0653.411-.0987.662-.0987z" fill="#b373d3" stroke="#3a3a3c" stroke-width="1.48958"/><path d="m272.267 54.8057c-.719.3582-1.183 1.0973-1.246 1.9707l-.058.7988h.036v.5117c0 .6693.204 1.2938.634 1.7578.195.211.427.3721.681.4893-.415-.1264-.743-.3286-.992-.5879-.43-.4495-.712-1.1521-.712-2.1494 0-.9868.286-1.7156.721-2.1895.243-.265.555-.4709.936-.6015zm3.333 4.6875-.001.0019c-.174.3221-.523.6134-1.037.794.007-.0036.015-.0061.022-.0098.372-.1883.681-.4648.968-.7969.029-.0302.048-.046.058-.0537.004-.0003.009-.0008.016-.001-.006.0167-.012.0393-.026.0655zm-1.228-4.6407c.303.122.561.2927.769.4991.428.4252.696 1.0454.696 1.8193 0 .0351-.007.0599-.01.0771-.017.0031-.042.0088-.077.0088h-.244l-.02-.458c-.026-.6109-.24-1.173-.644-1.5879-.14-.1438-.299-.2625-.47-.3584z" fill="#b373d3" stroke="#3a3a3c" stroke-width="1.48958"/><path d="m278.485 54.6562c.053 0 .084.0081.099.0137.013.0052.017.0102.019.0117.002.0022.01.0118.019.0372.01.0275.022.0767.023.1542v1.2032h.265c-.138.3297-.18.6883-.181 1.0224v3.1162c0 .0863-.013.1411-.024.1719-.01.0288-.02.0394-.022.042-.003.0024-.01.0099-.031.0176-.022.0083-.065.0185-.133.0185-.067 0-.11-.0101-.132-.0185-.021-.0078-.029-.0153-.033-.0186-.003-.0032-.046-.0505-.046-.2129v-5.3418c0-.0762.011-.1242.02-.1503.009-.025.018-.034.021-.0362.002-.0023.008-.0083.025-.0146.018-.007.054-.0156.111-.0157zm2.403.0323c.054 0 .091.0052.113.0097.005.0235.013.0645.013.1289 0 .0754-.012.1112-.016.1211l-.001.001c-.01.0075-.094.0647-.358.0694-.107.0016-.212.0115-.316.0253.161-.2661.381-.3554.565-.3554z" fill="#b373d3" stroke="#3a3a3c" stroke-width="1.48958"/><path d="m286.033 54.6562c.061 0 .101.0097.122.0176.02.0074.028.014.031.0166.002.0025.011.0121.021.0391.011.0289.024.0828.024.1699v1.125h.339c-.217.4524-.319.9817-.319 1.5391 0 .5787.109 1.1247.342 1.5859h-.335v3.4287c0 .0897-.014.1453-.025.1748-.01.027-.019.0366-.021.0391-.003.0024-.011.0096-.033.0176-.024.0085-.066.0185-.132.0185-.123 0-.161-.0338-.164-.0371-.003-.003-.012-.0136-.023-.041-.011-.0292-.024-.0836-.024-.1719v-7.6855c0-.0844.012-.1364.022-.1641.01-.0261.019-.0356.022-.0381.003-.0028.011-.0091.031-.0166.022-.008.061-.0175.122-.0176zm3.155.0323c.684 0 1.18.2508 1.523.6806.359.4504.606 1.1722.606 2.1944 0 1.0196-.246 1.7441-.602 2.1963-.34.4311-.828.6796-1.493.6797-.182 0-.349-.021-.501-.0586.637-.0467 1.183-.3476 1.56-.8516.394-.5271.569-1.221.569-1.9658 0-.7423-.175-1.4357-.568-1.9639-.374-.503-.916-.8101-1.553-.8594.141-.0336.295-.0517.459-.0517z" fill="#b373d3" stroke="#3a3a3c" stroke-width="1.48958"/><path d="m294.332 57.9238c-.26.2757-.402.6316-.402 1.0274 0 .4883.211.9189.582 1.209.158.1238.336.212.522.2744-.957-.0336-1.519-.6288-1.519-1.3789 0-.4207.148-.701.419-.9092.105-.0812.237-.1565.398-.2227zm.841-3.167c-.058.0246-.116.052-.173.083-.327.1774-.587.4372-.823.7364-.081.0914-.127.1035-.203.1035-.024 0-.04-.0051-.052-.0078.002-.0265.008-.0572.029-.1045l.009-.0186.008-.0185c.074-.1895.264-.4076.65-.5869.16-.0744.346-.1379.555-.1866zm2.845 1.6084c-.001-.5126-.186-.9889-.577-1.3261-.176-.1522-.377-.2592-.589-.3321.442.0785.784.2314 1.027.4229.338.2668.528.6373.528 1.1181v3.9991c0 .0835-.013.1333-.022.1582-.005.0123-.009.0198-.011.0234s-.004.0052-.005.0059c-.001.0009-.007.0071-.025.0136-.021.0076-.06.0166-.121.0166-.097 0-.134-.0204-.142-.0253.002.0018-.002.0002-.008-.0137-.006-.0147-.017-.0478-.022-.1065v-1.0654h-.184c.095-.2256.151-.4768.151-.7539z" fill="#b373d3" stroke="#3a3a3c" stroke-width="1.48958"/><path d="m306.149 54.6562c.066.0001.109.009.134.0176.023.0079.031.0153.032.0166.001.0005.008.0069.016.0293.009.0244.023.0744.023.1602v5.918c-.001.7184-.252 1.2266-.67 1.5693-.387.316-.982.5434-1.815.5889.517-.0536.99-.2307 1.36-.5596.465-.4129.69-.9907.69-1.6123v-1.8643h-.267c.195-.428.286-.9224.286-1.4472 0-.5271-.093-1.0275-.288-1.462h.282v-1.1308c0-.0832.013-.1313.022-.1543.008-.0212.016-.0283.018-.0303.004-.0038.047-.0391.177-.0391zm-4.949 7.2793c.042 0 .055.0049.06.0069.004.0017.014.0067.03.0176l.07.0566c.51.4808 1.069.8309 1.769.9297-1.041-.0907-1.68-.5137-1.924-.9072-.016-.0277-.025-.0507-.03-.0703-.003-.0091-.003-.0193-.004-.0303.008-.0008.018-.0029.029-.003zm1.807-7.247c.06 0 .119.0028.177.0078-.519.102-.962.3846-1.282.8144-.39.5245-.562 1.2143-.562 1.9551 0 .7439.169 1.4308.565 1.9502.297.3885.693.6428 1.148.7578-.026.0009-.052.003-.078.003-.668 0-1.163-.2458-1.504-.6622-.355-.4326-.599-1.1181-.599-2.0683 0-.9882.242-1.6759.593-2.1025.335-.4075.832-.6552 1.542-.6553z" fill="#b373d3" stroke="#3a3a3c" stroke-width="1.48958"/><path d="m310.482 54.8057c-.718.3582-1.182 1.0973-1.246 1.9707l-.057.7988h.036v.5117c0 .6693.204 1.2938.634 1.7578.195.211.427.3721.681.4893-.415-.1264-.743-.3286-.992-.5879-.43-.4495-.712-1.1521-.712-2.1494 0-.9868.286-1.7156.721-2.1895.243-.265.555-.4709.935-.6015zm3.333 4.6875-.001.0019c-.173.3221-.522.6134-1.037.794.008-.0036.016-.0061.023-.0098.372-.1883.68-.4648.968-.7969.029-.0302.048-.046.058-.0537.004-.0003.009-.0008.016-.001-.006.0167-.012.0393-.027.0655zm-1.227-4.6407c.303.122.561.2927.768.4991.429.4252.697 1.0454.697 1.8193 0 .0351-.007.0599-.01.0771-.017.0031-.042.0088-.077.0088h-.244l-.02-.458c-.026-.6109-.24-1.173-.644-1.5879-.141-.1438-.299-.2625-.47-.3584z" fill="#b373d3" stroke="#3a3a3c" stroke-width="1.48958"/><path d="m250.391 71.042c.044 0 .067.0062.074.0088.006.0021.007.0039.01.0058.005.0053.051.0523.084.2071l.003.0117 1.041 4.5361.132.5781h.97l-.005.0176-.004.0157c-.059.2513-.133.3305-.164.3554-.027.0219-.105.0723-.335.0723-.211 0-.275-.0463-.298-.0654-.036-.0309-.117-.1239-.198-.4004l-1.413-4.8877c-.066-.2269-.075-.3041-.075-.3819 0-.0091 0-.0152.001-.0185.001-.0032.002-.0054.002-.0059 0-.0008.002-.0025.006-.0058.009-.0085.057-.043.169-.043zm8.274 0c.11 0 .15.0331.153.0361.001.0009.001.0018.001.002.001.0006.002.0023.002.0058.001.0041.002.0115.002.0225 0 .035-.002.0717-.012.1279l-.063.2481-1.414 4.8965-.001.0039c-.076.2668-.157.3609-.197.3945-.03.0244-.101.0713-.311.0713-.247-.0001-.326-.0526-.348-.0713-.027-.0217-.102-.0987-.163-.3643l-.002-.0117-.003-.0107-.001-.003h1.019l.133-.5771 1.047-4.5498.004-.0176c.03-.1454.074-.1876.077-.1904.001-.0014.003-.0031.008-.0049.006-.0024.027-.0078.069-.0078zm-4.131 0c.148 0 .206.0368.228.0547.023.0193.077.0765.112.2363l.004.0176.098.4014h-.896l.098-.4024.002-.0078.002-.0088c.034-.1588.088-.2143.111-.2334.022-.0178.083-.0576.241-.0576z" fill="#b373d3" stroke="#3a3a3c" stroke-width="1.48958"/><path d="m261.421 71.042c.067 0 .108.0105.129.0185.019.0076.027.0154.031.0196.004.0036.051.0531.051.2187v5.3028c0 .165-.047.2116-.048.2129-.003.0033-.011.0099-.031.0175-.022.0082-.064.0195-.132.0196-.071 0-.114-.0114-.136-.0196-.02-.0075-.027-.0143-.029-.0166-.003-.0029-.012-.0145-.023-.0439-.011-.0316-.023-.086-.023-.1699v-5.3028c0-.1692.047-.2187.049-.2207.003-.0033.01-.0094.029-.0166.021-.008.063-.0195.133-.0195zm0-2.7031c.098 0 .166.0349.208.0752.041.0395.068.0948.068.1679 0 .1196-.092.244-.276.2442-.184 0-.276-.1246-.276-.2442 0-.0731.026-.1284.067-.1679.042-.0404.111-.0752.209-.0752z" fill="#b373d3" stroke="#3a3a3c" stroke-width="1.48958"/><path d="m264.9 69.6621c0-.1575.043-.2075.048-.2129.003-.0032.011-.011.031-.0185.021-.0082.063-.0185.132-.0186.07 0 .113.0104.134.0186.02.0075.027.0153.03.0185.005.0055.047.0555.047.2129v5.5772c0 .3079.049.691.299 1.0068.267.336.639.4448.951.4727v.0009l.019.002v-.001l.048.0049c-.103.0339-.263.0664-.493.0664h-.065c-.524 0-.788-.1302-.922-.2608-.13-.1272-.259-.3718-.259-.8662z" fill="#b373d3" stroke="#3a3a3c" stroke-width="1.48958"/><path d="m269.399 68.6133c.071 0 .112.0105.13.0176.01.0035.015.0064.017.0078.002.0011.002.0022.003.0029 0 .0003.009.0092.019.0381.011.0307.023.0854.023.1699v3.5859h.225c-.13.3159-.192.6627-.192 1.0166v3.1485c0 .0897-.014.1453-.024.1748-.01.0269-.019.0366-.022.0391-.002.0024-.011.0095-.033.0175-.024.0086-.066.0186-.132.0186-.123 0-.161-.034-.164-.0371s-.012-.0136-.022-.041c-.011-.0292-.025-.0836-.025-.1719v-7.751c0-.0828.012-.1359.023-.166.009-.0275.018-.0375.019-.0391.001-.0007.006-.0059.024-.0127.019-.0075.061-.0185.131-.0185zm3.182 2.4414c.612 0 1.01.193 1.26.4658.258.2817.443.7406.443 1.4209v3.6592c0 .0897-.013.1453-.024.1748-.01.0274-.02.0369-.022.0391-.002.0025-.01.0097-.032.0175-.024.0086-.066.0186-.133.0186-.121-.0001-.159-.033-.163-.0371-.003-.0031-.013-.0135-.023-.041-.011-.0292-.025-.0836-.025-.1719v-3.2529c0-.5639-.138-1.1273-.516-1.5577-.366-.4165-.874-.6126-1.427-.6367.191-.0653.411-.0986.662-.0986z" fill="#b373d3" stroke="#3a3a3c" stroke-width="1.48958"/><path d="m280.973 77.5702c.877 0 1.754-.4386 2.147-1.1848h.039v.36c.04.563.4.851.917.851.543 0 .929-.3273.929-.9623v-3.9996c0-1.4139-1.171-2.3435-2.971-2.3435-1.454 0-2.58.5172-2.907 1.355-.065.1441-.098.2815-.098.4321 0 .432.334.7331.799.7331.307 0 .549-.1178.759-.3534.425-.5499.779-.7398 1.361-.7398.72 0 1.179.3797 1.179 1.0343v.4648l-1.768.1047c-1.754.1048-2.736.8445-2.736 2.1209 0 1.2634 1.015 2.1275 2.35 2.1275zm.628-1.3812c-.641 0-1.073-.3273-1.073-.851 0-.4975.406-.8183 1.119-.8706l1.48-.0917v.5106c0 .7594-.688 1.3027-1.526 1.3027z" fill="#ff462d"/><path d="m289.888 77.5956c.563 0 .956-.3404.956-.995v-7.7309c0-.6546-.393-1.0015-.956-1.0015-.556 0-.955.3469-.955 1.0015v7.7309c0 .6546.399.995.955.995z" fill="#ff462d"/><path d="m293.123 69.5706c.576 0 1.021-.4385 1.021-.9884 0-.5564-.445-.9884-1.021-.9884s-1.021.432-1.021.9884c0 .5499.445.9884 1.021.9884zm0 8.0255c.589 0 .955-.3731.955-.995v-5.3023c0-.6219-.366-1.0015-.955-1.0015-.596 0-.956.3796-.956 1.0015v5.3023c0 .6219.36.995.956.995z" fill="#ff462d"/><path d="m296.304 77.5957c.563 0 .956-.3404.956-.995v-3.1683c0-.9099.543-1.5383 1.401-1.5383.857 0 1.289.5237 1.289 1.4401v3.2665c0 .6546.393.995.956.995.557 0 .956-.3404.956-.995v-3.6658c0-1.643-.877-2.6249-2.435-2.6249-1.08 0-1.787.4778-2.16 1.3484h-.04v-.3927c0-.6022-.379-.9688-.955-.9688s-.923.3666-.923.9622v5.3416c0 .6546.399.995.955.995z" fill="#ff462d"/><path d="m304.074 77.5956c.563 0 .956-.3404.956-.995v-1.4205l.608-.563 1.801 2.3828c.301.4516.53.5957.936.5957.536 0 .91-.3535.91-.8641 0-.2488-.059-.419-.269-.7004l-1.957-2.4941 1.787-1.6889c.275-.2552.36-.432.36-.72 0-.4713-.36-.8314-.851-.8314-.288 0-.504.1113-.759.3797l-2.54 2.5464h-.026v-4.3531c0-.6546-.393-1.0015-.956-1.0015-.557 0-.956.3469-.956 1.0015v7.7309c0 .6546.399.995.956.995z" fill="#ff462d"/><path d="m251.095 86.0469c0-.1575.043-.2075.048-.2129.003-.0033.01-.011.03-.0186.021-.0081.063-.0185.133-.0185s.112.0104.133.0185c.02.0076.028.0153.031.0186.005.0054.047.0555.047.2129v5.5771c0 .3079.048.6911.298 1.0069.267.336.639.4447.952.4726v.001l.018.0019v-.0009l.048.0049c-.103.0339-.263.0663-.492.0664h-.066c-.524 0-.788-.1302-.921-.2608-.131-.1272-.259-.3718-.259-.8662z" fill="#b373d3" stroke="#3a3a3c" stroke-width="1.48958"/><path d="m257.153 87.4658c-.462.1257-.858.4055-1.149.8135-.388.5427-.56 1.2624-.56 2.0557 0 .7951.167 1.5169.555 2.0605.294.4114.693.6865 1.156.8096-.612-.095-1.085-.3426-1.424-.6953-.441-.459-.734-1.1747-.734-2.1817 0-.985.295-1.6984.741-2.1611.342-.3543.813-.6043 1.415-.7012zm1.145 0c.605.096 1.078.3448 1.42.6992.445.4615.741 1.1743.741 2.1631 0 1.0107-.294 1.7258-.734 2.1836-.34.3525-.813.599-1.427.6934.463-.1234.861-.3991 1.154-.8106.386-.5432.553-1.2643.553-2.0595 0-.7918-.17-1.5108-.556-2.0538-.291-.41-.688-.6901-1.151-.8154z" fill="#b373d3" stroke="#3a3a3c" stroke-width="1.48958"/><path d="m266.093 86.0469c0-.1575.043-.2075.048-.2129.003-.0033.01-.011.03-.0186.021-.0081.063-.0185.133-.0185s.112.0104.134.0185c.019.0076.027.0153.03.0186.005.0054.047.0555.047.2129v5.5771c0 .3079.048.6911.298 1.0069.267.336.639.4447.952.4726v.001l.018.0019v-.0009l.048.0049c-.103.0339-.263.0663-.492.0664h-.066c-.524 0-.787-.1302-.921-.2608-.131-.1272-.259-.3718-.259-.8662z" fill="#b373d3" stroke="#3a3a3c" stroke-width="1.48958"/><path d="m270.591 84.998c.07 0 .111.0106.13.0176.009.0035.014.0065.016.0078.002.0011.003.0023.003.003 0 .0002.01.0091.02.0381.01.0307.022.0854.022.1699v3.5859h.226c-.131.3159-.193.6626-.193 1.0166v3.1485c0 .0897-.013.1452-.024.1748-.01.0268-.019.0365-.021.039-.003.0024-.012.0096-.034.0176-.023.0085-.066.0185-.132.0186-.123 0-.16-.034-.164-.0372-.003-.003-.012-.0135-.022-.041-.011-.0292-.024-.0835-.024-.1718v-7.751c0-.0829.012-.136.022-.166.01-.0275.018-.0375.02-.0391 0-.0007.005-.0059.023-.0127.02-.0075.061-.0185.132-.0186zm3.181 2.4415c.613 0 1.01.193 1.26.4658.258.2816.444.7406.444 1.4209v3.6592c0 .0897-.014.1452-.025.1748-.01.0274-.019.0369-.021.039-.003.0026-.011.0097-.033.0176-.023.0086-.066.0186-.132.0186-.121-.0001-.159-.0331-.163-.0372-.004-.003-.014-.0134-.024-.041-.011-.0292-.024-.0836-.024-.1718v-3.253c0-.5638-.139-1.1272-.517-1.5576-.366-.4165-.873-.6126-1.427-.6367.191-.0653.411-.0986.662-.0986z" fill="#b373d3" stroke="#3a3a3c" stroke-width="1.48958"/><path d="m279.584 87.5771c-.718.3583-1.182 1.0974-1.246 1.9708l-.058.7988h.036v.5117c0 .6693.204 1.2937.634 1.7578.196.211.427.3721.682.4893-.416-.1264-.744-.3287-.992-.5879-.431-.4495-.712-1.1521-.712-2.1494 0-.9868.285-1.7156.72-2.1895.244-.2651.556-.4709.936-.6016zm3.333 4.6875-.001.002c-.173.3221-.522.6134-1.037.7939.007-.0036.015-.006.022-.0097.372-.1883.681-.4648.968-.7969.029-.0302.049-.046.059-.0537.004-.0003.009-.0008.015-.001-.006.0167-.012.0393-.026.0654zm-1.228-4.6406c.304.122.561.2926.769.499.428.4253.696 1.0455.696 1.8194 0 .0351-.006.0599-.009.0771-.018.0031-.043.0088-.078.0088h-.244l-.019-.458c-.026-.6109-.24-1.173-.645-1.5879-.14-.1438-.299-.2625-.47-.3584z" fill="#b373d3" stroke="#3a3a3c" stroke-width="1.48958"/><path d="m251.095 102.434c0-.158.043-.208.048-.213.003-.004.01-.011.03-.019.021-.008.063-.018.133-.018s.112.01.133.018c.02.008.028.015.031.019.005.005.047.055.047.213v5.577c0 .308.048.691.298 1.007.267.336.639.444.952.472v.001l.018.002v-.001l.048.005c-.103.034-.263.066-.492.066h-.066c-.524 0-.788-.13-.921-.26-.131-.128-.259-.372-.259-.866z" fill="#b373d3" stroke="#3a3a3c" stroke-width="1.48958"/><path d="m255.595 101.385c.07 0 .111.01.13.017.009.004.014.007.016.008s.002.002.003.003c0 0 .01.009.02.038.01.031.022.086.022.17v3.586h.226c-.131.316-.193.663-.193 1.017v3.148c0 .09-.013.145-.024.175-.01.027-.019.036-.022.039-.002.002-.011.009-.033.018-.023.008-.066.018-.132.018-.123 0-.16-.034-.164-.037-.003-.003-.012-.014-.022-.041-.011-.029-.025-.084-.025-.172v-7.751c.001-.083.012-.136.023-.166.01-.027.018-.037.019-.039.001-.001.006-.006.024-.013.02-.007.061-.018.132-.018zm3.181 2.441c.612 0 1.01.193 1.26.466.258.282.443.741.443 1.421v3.659c0 .09-.013.145-.024.175-.01.027-.019.037-.021.039-.003.002-.011.01-.033.018-.023.008-.066.018-.132.018-.122 0-.159-.033-.164-.037-.003-.003-.013-.013-.023-.041-.011-.029-.024-.084-.024-.172v-3.253c0-.564-.139-1.127-.517-1.557-.366-.417-.873-.613-1.427-.637.191-.065.411-.099.662-.099z" fill="#b373d3" stroke="#3a3a3c" stroke-width="1.48958"/><path d="m263.43 103.812c.067.001.108.011.129.019.019.008.027.015.031.02.003.003.051.053.051.218v5.303c0 .165-.047.212-.048.213-.003.003-.012.01-.031.018-.022.008-.064.019-.132.019-.071 0-.114-.011-.136-.019-.02-.008-.027-.015-.029-.017-.003-.003-.012-.015-.023-.044-.011-.032-.023-.086-.023-.17v-5.303c0-.169.047-.218.049-.22.003-.004.01-.01.029-.017.021-.008.063-.02.133-.02zm0-2.703c.098 0 .166.035.208.076.041.039.068.094.068.168 0 .119-.093.244-.276.244-.184 0-.277-.125-.277-.244 0-.074.027-.129.068-.168.041-.041.11-.076.209-.076z" fill="#b373d3" stroke="#3a3a3c" stroke-width="1.48958"/><path d="m266.579 103.812c.053 0 .084.009.099.014.013.005.017.01.018.012.002.002.011.012.02.037.01.028.022.077.022.154v1.203h.266c-.139.33-.181.689-.181 1.023v3.116c0 .086-.013.141-.024.172-.01.029-.02.039-.023.042-.002.002-.009.01-.03.018-.022.008-.065.018-.134.018-.067 0-.109-.01-.132-.018-.02-.008-.029-.016-.032-.019s-.047-.051-.047-.213v-5.342c0-.076.011-.124.021-.15.009-.025.018-.034.02-.036.003-.003.009-.009.026-.015.018-.007.054-.015.111-.016zm2.402.033c.054 0 .091.005.114.009.005.024.012.065.012.129 0 .076-.011.112-.015.121l-.001.001c-.01.008-.094.065-.359.07-.106.001-.212.011-.315.025.161-.266.381-.355.564-.355z" fill="#b373d3" stroke="#3a3a3c" stroke-width="1.48958"/><path d="m276.058 101.385c.128 0 .162.037.163.037.003.003.013.014.023.043.011.031.025.087.025.177v7.756c0 .083-.013.132-.022.157-.008.021-.015.029-.018.031-.001.002-.01.009-.033.018-.024.008-.066.018-.132.018-.129 0-.171-.037-.175-.041-.003-.003-.011-.011-.02-.032-.009-.023-.022-.07-.022-.151v-1.15h-.295c.211-.448.308-.973.308-1.527 0-.567-.102-1.103-.324-1.56h.311v-3.519c0-.168.046-.216.049-.219s.039-.038.162-.038zm-3.135 2.461c.16 0 .31.018.448.051-.634.05-1.175.351-1.549.856-.391.529-.56 1.224-.56 1.968 0 .746.168 1.442.561 1.969.381.511.933.806 1.575.848-.147.036-.31.058-.489.058-.661 0-1.156-.252-1.504-.692-.362-.459-.611-1.187-.611-2.196 0-.997.25-1.718.613-2.173.349-.437.849-.689 1.516-.689z" fill="#b373d3" stroke="#3a3a3c" stroke-width="1.48958"/><path d="m281.883 103.812c.061 0 .1.01.122.018.02.007.028.014.03.017.003.002.012.012.022.039.01.029.024.083.024.17v1.125h.339c-.217.452-.319.981-.319 1.539 0 .578.109 1.124.341 1.586h-.335v3.428c0 .09-.013.146-.024.175-.01.027-.019.037-.021.039-.003.003-.012.01-.034.018-.023.008-.066.018-.132.018-.123 0-.16-.033-.164-.037-.003-.003-.012-.013-.022-.041-.011-.029-.024-.083-.024-.172v-7.685c0-.085.012-.137.022-.164.01-.026.019-.036.021-.038.003-.003.011-.009.032-.017.022-.008.061-.017.122-.018zm3.155.033c.683 0 1.18.251 1.523.68.359.451.606 1.173.606 2.195 0 1.019-.246 1.744-.603 2.196-.34.431-.828.68-1.493.68-.181 0-.348-.021-.501-.059.638-.047 1.184-.347 1.561-.851.394-.528.568-1.221.568-1.966 0-.743-.175-1.436-.567-1.964-.374-.503-.916-.81-1.554-.86.142-.033.295-.051.46-.051z" fill="#b373d3" stroke="#3a3a3c" stroke-width="1.48958"/><path d="m290.181 107.08c-.26.276-.403.632-.403 1.027 0 .489.212.919.582 1.209.159.124.336.212.523.275-.957-.034-1.52-.629-1.52-1.379 0-.421.149-.701.419-.909.106-.081.238-.157.399-.223zm.84-3.167c-.057.025-.115.052-.172.083-.328.177-.587.437-.824.736-.081.092-.127.104-.203.104-.023 0-.04-.005-.051-.008.002-.026.007-.057.029-.104l.009-.019.007-.018c.074-.19.265-.408.651-.587.16-.075.346-.138.554-.187zm2.845 1.608c0-.512-.186-.988-.576-1.326-.176-.152-.377-.259-.59-.332.442.079.785.232 1.028.423.337.267.528.637.528 1.118v3.999c0 .084-.013.134-.023.159-.004.012-.008.019-.01.023-.003.004-.005.005-.005.006-.001.001-.007.007-.026.013-.021.008-.06.017-.121.017-.096 0-.134-.02-.141-.025.002.002-.002 0-.008-.014-.007-.015-.017-.048-.023-.106v-1.066h-.183c.094-.225.15-.477.15-.754z" fill="#b373d3" stroke="#3a3a3c" stroke-width="1.48958"/><path d="m302 103.812c.066.001.109.009.134.018.022.008.031.015.032.017 0 0 .007.007.016.029.009.024.022.074.022.16v5.918c0 .719-.251 1.227-.67 1.569-.386.316-.981.544-1.814.589.517-.053.989-.23 1.36-.559.465-.413.69-.991.69-1.613v-1.864h-.267c.194-.428.286-.922.286-1.447 0-.527-.093-1.028-.288-1.462h.281v-1.131c0-.083.014-.131.023-.154.008-.021.015-.028.017-.03.005-.004.048-.04.178-.04zm-4.949 7.28c.041 0 .055.005.059.007.005.001.014.006.031.017l.07.057c.509.481 1.069.831 1.768.93-1.04-.091-1.679-.514-1.923-.908-.016-.027-.026-.05-.031-.07-.002-.009-.002-.019-.004-.03.009-.001.019-.003.03-.003zm1.806-7.247c.061 0 .12.003.177.008-.518.102-.961.384-1.281.814-.39.524-.563 1.214-.563 1.955 0 .744.17 1.431.566 1.95.296.389.693.643 1.147.758-.025.001-.051.003-.078.003-.668 0-1.162-.246-1.504-.662-.355-.433-.598-1.118-.598-2.068 0-.989.241-1.676.592-2.103.336-.407.833-.655 1.542-.655z" fill="#b373d3" stroke="#3a3a3c" stroke-width="1.48958"/><path d="m306.331 103.962c-.718.358-1.182 1.097-1.246 1.971l-.058.798h.036v.512c0 .669.204 1.294.634 1.758.196.211.427.372.682.489-.416-.126-.744-.328-.992-.588-.431-.449-.712-1.152-.712-2.149 0-.987.285-1.716.721-2.19.243-.265.555-.47.935-.601zm3.333 4.687-.001.002c-.173.322-.522.614-1.037.794.007-.003.015-.006.022-.009.373-.189.681-.465.968-.797.029-.031.049-.046.059-.054.004 0 .009-.001.015-.001-.006.017-.012.039-.026.065zm-1.227-4.64c.303.122.56.292.768.499.428.425.696 1.045.696 1.819 0 .035-.006.06-.009.077-.018.003-.043.009-.078.009h-.244l-.019-.458c-.026-.611-.24-1.173-.645-1.588-.14-.144-.299-.262-.469-.358z" fill="#b373d3" stroke="#3a3a3c" stroke-width="1.48958"/><path d="m278.276 78.3906h7.338v1.9886h-7.338z" fill="#ff462d"/><path d="m285.613 78.3906h2.651v1.9886h-2.651z" fill="#ff462d"/><path d="m288.265 78.3906h3.246v1.9886h-3.246z" fill="#ff462d"/><path d="m291.513 78.3906h3.214v1.9886h-3.214z" fill="#ff462d"/><path d="m294.726 78.3906h7.724v1.9886h-7.724z" fill="#ff462d"/><path d="m302.45 78.3906h7.214v1.9886h-7.214z" fill="#ff462d"/><path d="m207.113 284.746h5.885c.079 0 .121.013.139.021.002.008.007.024.007.052 0 .027-.005.042-.007.05-.017.008-.058.024-.139.024h-2.701v7.651c0 .184-.05.237-.053.24-.003.004-.012.012-.036.021-.026.009-.075.021-.155.021-.081 0-.13-.012-.156-.021-.022-.009-.031-.017-.035-.021-.002-.002-.052-.054-.052-.24v-7.651h-2.697c-.086 0-.129-.017-.145-.025-.002-.008-.006-.023-.006-.049s.004-.042.006-.05c.018-.009.061-.023.145-.023z" fill="#b373d3" stroke="#3a3a3c" stroke-width="1.48958"/><path d="m215.695 284.603c.071 0 .112.01.13.017.009.004.015.007.017.008.001.001.002.002.003.003 0 0 .009.009.019.038.011.031.023.085.023.17v3.586h.225c-.13.316-.192.662-.192 1.016v3.149c0 .09-.014.145-.024.175-.01.027-.02.036-.022.039-.002.002-.011.009-.033.017-.024.009-.066.019-.132.019-.123 0-.161-.034-.164-.037s-.012-.014-.023-.041c-.01-.029-.024-.084-.024-.172v-7.751c0-.083.012-.136.023-.166.009-.028.018-.038.019-.039s.006-.006.023-.013c.02-.007.062-.018.132-.018zm3.182 2.441c.612 0 1.009.193 1.26.466.258.281.443.74.443 1.421v3.659c0 .09-.013.145-.024.175-.01.027-.02.037-.022.039s-.01.009-.032.017c-.024.009-.066.019-.133.019-.121 0-.159-.033-.163-.037-.003-.003-.013-.014-.023-.041-.011-.029-.025-.084-.025-.172v-3.253c0-.564-.138-1.127-.516-1.558-.367-.416-.874-.612-1.427-.636.191-.066.411-.099.662-.099z" fill="#b373d3" stroke="#3a3a3c" stroke-width="1.48958"/><path d="m223.531 287.031c.067 0 .108.011.129.019.02.007.027.015.031.019s.051.053.051.219v5.303c0 .165-.046.211-.048.213-.003.003-.011.01-.031.017-.022.009-.063.02-.132.02-.071 0-.114-.012-.135-.02-.02-.007-.028-.014-.03-.016-.003-.003-.012-.015-.022-.044-.011-.032-.024-.086-.024-.17v-5.303c0-.169.047-.219.049-.221.003-.003.011-.009.029-.016.021-.008.063-.02.133-.02zm0-2.703c.098 0 .167.035.208.075s.069.095.069.168c0 .12-.093.244-.277.244s-.276-.124-.276-.244c0-.073.026-.128.067-.168.042-.04.111-.075.209-.075z" fill="#b373d3" stroke="#3a3a3c" stroke-width="1.48958"/><path d="m226.3 291.855c.036 0 .109-.004.274.182v-.001c.196.249.423.466.704.63-.578-.19-.88-.49-.985-.742-.008-.024-.014-.044-.018-.061 0-.002 0-.004-.001-.006.007 0 .016-.002.026-.002zm1.049-4.626c-.313.219-.549.553-.604.966l-.012.186.008.15c.037.348.204.658.496.892.291.232.669.361 1.06.445l1.159.249h.003c.702.148 1.074.33 1.268.505.153.139.248.32.248.678 0 .447-.189.805-.553 1.072-.118.086-.258.162-.417.23.328-.255.549-.634.549-1.099 0-.385-.141-.757-.488-1.034-.286-.229-.661-.347-1.028-.427l-.005-.001-1.179-.249c-.602-.129-.969-.33-1.179-.538-.193-.191-.298-.431-.298-.769 0-.43.175-.762.506-1.007.126-.094.282-.179.466-.249zm2.563.047c.06.027.118.055.171.084.346.192.502.408.554.56-.024-.003-.046-.007-.065-.015l-.023-.009c-.166-.209-.37-.435-.637-.62z" fill="#b373d3" stroke="#3a3a3c" stroke-width="1.48958"/><path d="m236.316 284.603c.129 0 .162.036.163.037.003.003.012.014.023.043.011.03.025.087.025.176v7.731c0 .09-.013.145-.024.175-.01.027-.019.036-.022.039-.002.002-.011.009-.033.017-.023.009-.066.019-.132.019-.123 0-.16-.034-.164-.037-.003-.003-.012-.014-.022-.041-.011-.029-.025-.084-.025-.172v-7.731c0-.173.05-.218.05-.218.004-.004.04-.038.161-.038z" fill="#b373d3" stroke="#3a3a3c" stroke-width="1.48958"/><path d="m239.55 287.031c.067 0 .108.011.129.019.019.007.027.015.031.019.003.004.051.053.051.219v5.303c0 .165-.047.211-.048.213-.003.003-.011.01-.031.017-.022.009-.064.02-.132.02-.071 0-.114-.012-.136-.02-.02-.007-.027-.014-.029-.016-.003-.003-.012-.015-.023-.044-.011-.032-.023-.086-.023-.17v-5.303c0-.169.047-.219.049-.221.003-.003.01-.009.029-.016.021-.008.063-.02.133-.02zm0-2.703c.098 0 .166.035.208.075.041.04.068.095.068.168 0 .12-.092.244-.276.244s-.277-.124-.277-.244c0-.073.027-.128.068-.168s.11-.075.209-.075z" fill="#b373d3" stroke="#3a3a3c" stroke-width="1.48958"/><path d="m242.698 287.031c.126 0 .163.036.167.04.002.003.044.042.044.184v1.138h.237c-.137.317-.204.668-.204 1.029v3.168c0 .09-.013.145-.024.175-.01.026-.019.036-.022.039-.002.002-.011.009-.033.017-.023.009-.066.019-.132.019-.124 0-.161-.035-.164-.037-.003-.003-.012-.014-.022-.041-.011-.029-.024-.084-.024-.172v-5.342c0-.077.01-.127.02-.154.009-.027.018-.035.019-.035 0-.001.004-.006.018-.011.017-.007.055-.017.12-.017zm3.156.013c.617 0 1.008.19 1.252.455.253.275.438.73.438 1.425v3.666c0 .088-.014.143-.024.172-.011.027-.02.038-.023.041-.001.001-.037.037-.164.037-.066 0-.109-.01-.133-.019-.022-.008-.03-.015-.032-.017-.002-.003-.011-.012-.022-.039-.01-.03-.024-.085-.024-.175v-3.267c0-.563-.132-1.125-.508-1.554-.369-.421-.88-.607-1.428-.626.178-.062.398-.099.668-.099z" fill="#b373d3" stroke="#3a3a3c" stroke-width="1.48958"/><path d="m250.501 284.603c.128 0 .162.036.162.037.003.003.013.014.024.043.011.03.025.087.025.176v5.098h.958l-.11.103-.609.562-.239.222v1.746c0 .09-.014.145-.024.175-.01.027-.02.036-.022.039-.002.002-.011.009-.033.017-.024.009-.066.019-.132.019-.123 0-.161-.034-.164-.037s-.012-.014-.023-.041c-.01-.029-.024-.084-.024-.172v-7.731c0-.173.049-.218.05-.218.004-.004.04-.038.161-.038zm4.281 2.428c.059 0 .081.019.087.025.006.005.019.021.019.061 0 .024-.002.038-.003.045-.009.013-.037.053-.119.13l-.005.004-1.787 1.689-.494.466.419.535 1.95 2.484c.081.109.103.158.109.175.002.005.009.017.009.076 0 .036-.007.057-.011.066-.003.008-.007.013-.011.017s-.04.036-.143.036c-.058 0-.086-.005-.097-.008-.007-.002-.008-.003-.012-.005-.015-.01-.078-.057-.208-.251l-.012-.018-.013-.018-1.801-2.383-.461-.609 2.352-2.357.012-.012c.094-.098.144-.13.163-.139.007-.004.012-.005.016-.006.005-.001.018-.003.041-.003z" fill="#b373d3" stroke="#3a3a3c" stroke-width="1.48958"/><path d="m257.125 291.855c.036 0 .109-.004.274.182v-.001c.196.249.423.466.705.63-.579-.19-.881-.49-.986-.742-.008-.024-.014-.044-.017-.061-.001-.002-.001-.004-.001-.006.007 0 .015-.002.025-.002zm1.049-4.626c-.312.219-.549.553-.604.966l-.011.186.007.15c.038.348.205.658.496.892.291.232.669.361 1.06.445l1.159.249h.003c.703.148 1.074.33 1.268.505.153.139.248.32.248.678 0 .447-.189.805-.553 1.072-.117.086-.258.162-.417.23.328-.255.549-.634.549-1.099 0-.385-.141-.757-.487-1.034-.287-.229-.661-.347-1.029-.427l-.005-.001-1.178-.249h-.001c-.602-.129-.969-.33-1.179-.538-.193-.191-.298-.431-.298-.769 0-.43.175-.762.506-1.007.127-.094.282-.179.466-.249zm2.563.047c.061.027.118.055.171.084.346.192.502.408.554.56-.024-.003-.046-.007-.065-.015l-.023-.009c-.165-.209-.37-.435-.637-.62z" fill="#b373d3" stroke="#3a3a3c" stroke-width="1.48958"/><path d="m207.644 300.988c.128 0 .161.037.162.037.003.004.013.015.023.043.011.031.025.088.025.177v3.533h.322c-.222.453-.328.984-.328 1.546 0 .57.108 1.105.334 1.56h-.354v1.118c0 .082-.013.131-.022.156-.009.022-.016.03-.018.031-.002.002-.01.01-.032.018-.024.009-.067.019-.132.019-.064 0-.105-.01-.127-.018-.018-.006-.025-.011-.026-.013-.001 0-.003-.003-.005-.007-.003-.003-.006-.011-.011-.023-.009-.026-.022-.077-.022-.163v-7.757c0-.173.049-.218.049-.219.004-.003.041-.038.162-.038zm3.161 2.461c.678 0 1.169.249 1.508.678.356.45.601 1.173.601 2.197 0 1.022-.244 1.745-.599 2.197-.337.429-.826.678-1.503.678-.181 0-.347-.02-.499-.057.642-.043 1.191-.342 1.57-.851.391-.527.563-1.221.563-1.967 0-.743-.172-1.437-.561-1.965-.37-.501-.908-.807-1.539-.858.142-.034.295-.052.459-.052z" fill="#b373d3" stroke="#3a3a3c" stroke-width="1.48958"/><path d="m215.936 306.685c-.26.275-.403.631-.403 1.027 0 .488.212.919.582 1.209.158.124.336.212.523.274-.957-.033-1.52-.629-1.52-1.379 0-.42.149-.701.419-.909.106-.081.238-.156.399-.222zm.84-3.167c-.057.024-.115.052-.172.083-.328.177-.587.437-.824.736-.081.091-.127.103-.203.103-.023 0-.04-.005-.052-.007.002-.027.008-.058.03-.105l.008-.018.008-.019c.074-.189.264-.408.651-.587.16-.074.346-.138.554-.186zm2.845 1.608c0-.513-.186-.989-.576-1.326-.176-.152-.377-.259-.59-.332.442.078.785.231 1.027.423.338.266.529.637.529 1.118v3.999c0 .083-.013.133-.023.158-.004.012-.008.02-.01.023-.003.004-.005.006-.005.006-.001.001-.008.007-.026.014-.021.008-.06.017-.121.017-.096 0-.134-.021-.141-.026.002.002-.002 0-.008-.013-.007-.015-.017-.048-.023-.107v-1.065h-.183c.094-.226.15-.477.15-.754z" fill="#b373d3" stroke="#3a3a3c" stroke-width="1.48958"/><path d="m225.174 303.41c1.206 0 2.027.579 2.263 1.196l.004.011c.019.048.033.094.041.132.005.019.008.034.009.046.001.003 0 .006 0 .008-.015.004-.038.01-.072.01-.046 0-.069-.004-.077-.006-.006-.002-.004-.001.001.002s.001.001-.013-.014l-.068-.101c-.212-.375-.478-.704-.833-.936-.364-.238-.77-.339-1.197-.339-.715 0-1.332.308-1.746.874-.394.539-.563 1.251-.563 2.024 0 .785.168 1.501.56 2.04.413.568 1.028.872 1.737.872.463 0 .876-.116 1.23-.344.34-.219.586-.516.772-.824.106-.167.156-.208.166-.214.007-.002.03-.005.077-.005.029 0 .048.004.058.008.001.003.002.007.002.012 0 .014-.002.065-.059.194l-.002.006c-.267.608-1.137 1.176-2.277 1.176-.89 0-1.546-.287-1.982-.746-.44-.463-.729-1.178-.729-2.168 0-.976.288-1.694.728-2.161.436-.462 1.089-.753 1.97-.753z" fill="#b373d3" stroke="#3a3a3c" stroke-width="1.48958"/><path d="m230.294 300.988c.128 0 .162.037.162.037.003.004.013.015.023.043.012.031.026.088.026.177v5.098h.958l-.11.102-.609.563-.239.221v1.747c0 .089-.014.145-.025.174-.009.027-.019.037-.021.039-.002.003-.011.01-.033.018-.024.009-.066.019-.132.019-.123 0-.161-.034-.164-.038-.003-.003-.012-.013-.023-.041-.01-.029-.024-.083-.024-.171v-7.731c0-.173.049-.218.05-.219.004-.003.04-.038.161-.038zm4.281 2.429c.059 0 .081.019.087.024.006.006.019.022.019.062 0 .023-.002.037-.003.045-.009.013-.037.053-.119.13l-.005.004-1.787 1.689-.494.466.419.535 1.95 2.483c.081.11.103.158.109.175.002.006.009.018.009.076 0 .037-.007.058-.011.067-.003.008-.007.013-.011.016-.004.005-.04.037-.143.037-.058 0-.086-.006-.097-.008-.007-.002-.008-.003-.012-.005-.015-.01-.078-.057-.208-.251l-.012-.019-.013-.017-1.801-2.383-.461-.609 2.352-2.357.012-.013c.094-.098.144-.129.163-.138.007-.004.012-.005.016-.006.005-.001.018-.003.041-.003z" fill="#b373d3" stroke="#3a3a3c" stroke-width="1.48958"/><path d="m240.411 302.037c0-.157.043-.207.048-.213.003-.003.011-.011.03-.018.021-.008.063-.019.133-.019s.113.011.134.019c.02.007.027.015.03.018.005.006.047.056.047.213v5.577c0 .308.048.691.299 1.007.266.336.638.445.951.473v.001l.019.002v-.001l.047.005c-.103.033-.262.066-.492.066h-.065c-.525 0-.788-.13-.922-.261-.131-.127-.259-.372-.259-.866z" fill="#b373d3" stroke="#3a3a3c" stroke-width="1.48958"/><path d="m246.47 303.455c-.462.126-.858.406-1.15.814-.387.542-.559 1.262-.559 2.055 0 .795.167 1.517.554 2.061.294.411.693.686 1.157.809-.612-.095-1.085-.342-1.424-.695-.441-.459-.735-1.175-.735-2.182.001-.985.296-1.698.742-2.161.341-.354.813-.604 1.415-.701zm1.144 0c.605.096 1.078.345 1.42.699.445.462.741 1.175.741 2.163 0 1.011-.294 1.726-.734 2.184-.339.352-.813.599-1.427.693.463-.123.862-.399 1.155-.81.386-.543.552-1.265.552-2.06 0-.792-.17-1.511-.555-2.053-.292-.411-.688-.691-1.152-.816z" fill="#b373d3" stroke="#3a3a3c" stroke-width="1.48958"/><path d="m255.408 302.037c0-.157.043-.207.048-.213.003-.003.011-.011.03-.018.022-.008.063-.019.133-.019s.113.011.134.019c.02.007.027.015.03.018.005.006.047.056.047.213v5.577c0 .308.048.691.299 1.007.267.336.638.445.951.473v.001l.019.002v-.001l.047.005c-.103.033-.262.066-.492.066h-.065c-.524 0-.788-.13-.922-.261-.13-.127-.259-.372-.259-.866z" fill="#b373d3" stroke="#3a3a3c" stroke-width="1.48958"/><path d="m259.906 300.988c.071 0 .112.011.13.018.009.003.015.006.017.008l.003.003s.009.009.019.038c.011.03.023.085.023.17v3.586h.225c-.13.315-.192.662-.192 1.016v3.149c0 .089-.014.145-.025.174-.009.027-.019.037-.021.039-.002.003-.011.01-.033.018-.024.009-.066.019-.132.019-.123 0-.161-.034-.164-.038-.003-.003-.012-.013-.023-.041-.01-.029-.024-.083-.024-.171v-7.751c0-.083.012-.136.022-.166.01-.028.018-.038.02-.039.001-.001.006-.006.023-.013.02-.008.062-.019.132-.019zm3.182 2.442c.612 0 1.009.193 1.26.466.258.281.443.74.443 1.42v3.66c0 .089-.014.145-.024.174-.011.028-.02.037-.022.039-.002.003-.01.01-.032.018-.024.009-.067.019-.133.019-.121 0-.159-.033-.163-.038-.003-.003-.013-.013-.023-.041-.011-.029-.025-.083-.025-.171v-3.253c0-.564-.138-1.128-.516-1.558-.367-.416-.874-.613-1.427-.637.191-.065.411-.098.662-.098z" fill="#b373d3" stroke="#3a3a3c" stroke-width="1.48958"/><path d="m268.901 303.566c-.718.359-1.182 1.098-1.246 1.971l-.057.799h.036v.512c0 .669.204 1.293.634 1.757.195.211.427.373.681.49-.415-.127-.744-.329-.992-.588-.431-.45-.712-1.152-.712-2.15 0-.986.286-1.715.721-2.189.243-.265.555-.471.935-.602zm3.333 4.688-.001.002c-.173.322-.522.613-1.037.794.008-.004.015-.006.023-.01.372-.188.68-.465.968-.797.029-.03.048-.046.058-.054.004 0 .009 0 .016-.001-.006.017-.012.04-.027.066zm-1.227-4.641c.303.122.561.293.768.499.429.426.697 1.046.697 1.82 0 .035-.007.06-.01.077-.017.003-.042.009-.077.009h-.244l-.02-.458c-.026-.611-.24-1.173-.644-1.588-.141-.144-.299-.263-.47-.359z" fill="#b373d3" stroke="#3a3a3c" stroke-width="1.48958"/><path d="m208.109 326.356c.563 0 .955-.334.955-.995v-4.72h.76c.399 0 .7-.255.7-.707 0-.445-.301-.7-.7-.7h-.805v-.445c0-.517.235-.753.824-.773.144-.006.262-.026.367-.052.255-.079.386-.236.386-.504 0-.452-.425-.772-1.44-.772-1.322.013-2.003.628-2.003 2.016v.53h-.367c-.399 0-.7.255-.7.7 0 .452.301.707.7.707h.367v4.72c0 .661.386.995.956.995z" fill="#ff462d"/><path d="m212.402 318.33c.576 0 1.021-.438 1.021-.988 0-.556-.445-.988-1.021-.988s-1.021.432-1.021.988c0 .55.445.988 1.021.988zm0 8.026c.589 0 .956-.373.956-.995v-5.302c0-.622-.367-1.002-.956-1.002-.596 0-.956.38-.956 1.002v5.302c0 .622.36.995.956.995z" fill="#ff462d"/><path d="m215.585 326.356c.582 0 .955-.36.955-.995v-3.115c0-.832.308-1.323 1.179-1.336.373-.006.648-.092.831-.249s.275-.386.275-.687c0-.327-.092-.563-.275-.707-.137-.118-.34-.177-.596-.177-.7 0-1.276.517-1.459 1.388h-.04v-.458c0-.609-.366-.962-.903-.962-.55 0-.923.353-.923.962v5.341c0 .635.38.995.956.995z" fill="#ff462d"/><path d="m222.366 326.369c1.853 0 3.103-.903 3.103-2.297 0-1.048-.615-1.598-2.108-1.912l-1.159-.249c-.7-.15-.975-.392-.975-.759 0-.452.452-.759 1.1-.759.687 0 1.067.327 1.401.753.17.202.445.294.694.294.49 0 .733-.268.733-.655 0-.091-.02-.183-.046-.281-.229-.792-1.296-1.453-2.749-1.453-1.82 0-2.979.864-2.979 2.206 0 1.041.694 1.741 2.069 2.036l1.178.248c.687.151.929.354.929.734 0 .464-.451.752-1.145.752-.727 0-1.159-.222-1.532-.713-.262-.295-.524-.432-.831-.432-.445 0-.773.294-.773.733 0 .105.027.229.072.353.334.825 1.408 1.401 3.018 1.401z" fill="#ff462d"/><path d="m226.922 324.424c0 1.238.648 1.873 1.924 1.873h.066c.805 0 1.355-.288 1.355-.851 0-.445-.256-.642-.727-.694l-.124-.013c-.413-.033-.583-.243-.583-.74v-3.358h.674c.452 0 .734-.282.734-.72 0-.439-.282-.72-.734-.72h-.674v-.779c0-.616-.36-.995-.956-.995-.595 0-.955.379-.955.995v.779h-.367c-.452 0-.74.275-.74.72s.288.72.74.72h.367z" fill="#ff462d"/><path d="m234.783 328.72c.563 0 .956-.341.956-.995v-2.684h.039c.373.792 1.159 1.289 2.18 1.289 1.754 0 2.841-1.361 2.841-3.62 0-2.265-1.094-3.62-2.874-3.62-1.015 0-1.794.511-2.173 1.336h-.04v-.38c0-.648-.392-.988-.942-.988s-.943.34-.943.982v7.685c0 .654.399.995.956.995zm2.5-3.928c-.936 0-1.551-.812-1.551-2.082 0-1.257.615-2.088 1.551-2.088.956 0 1.558.818 1.558 2.088 0 1.277-.602 2.082-1.558 2.082z" fill="#ff462d"/><path d="m243.857 326.33c.877 0 1.754-.439 2.147-1.185h.039v.36c.04.563.4.851.917.851.543 0 .929-.327.929-.962v-4c0-1.414-1.172-2.343-2.972-2.343-1.453 0-2.579.517-2.906 1.355-.066.144-.098.281-.098.432 0 .432.334.733.798.733.308 0 .55-.118.76-.353.425-.55.779-.74 1.361-.74.72 0 1.179.379 1.179 1.034v.465l-1.768.105c-1.754.104-2.736.844-2.736 2.121 0 1.263 1.014 2.127 2.35 2.127zm.628-1.381c-.641 0-1.073-.328-1.073-.851 0-.498.406-.818 1.119-.871l1.48-.091v.51c0 .759-.688 1.303-1.526 1.303z" fill="#ff462d"/><path d="m252.255 328.857c2.258.013 3.581-1.087 3.581-2.913v-5.918c0-.648-.4-.968-.949-.968-.55 0-.963.32-.963.968v.387h-.039c-.367-.792-1.132-1.323-2.14-1.323-1.807 0-2.881 1.303-2.881 3.502 0 2.141 1.1 3.476 2.848 3.476 1.014 0 1.833-.504 2.16-1.256h.039v1.119c0 .877-.615 1.453-1.662 1.447-.635-.007-1.133-.275-1.65-.766-.216-.197-.412-.275-.661-.275-.478 0-.779.301-.779.7 0 .177.039.354.144.53.452.74 1.519 1.283 2.952 1.29zm.105-4.209c-.949 0-1.538-.753-1.538-2.036 0-1.27.595-2.068 1.538-2.068.956 0 1.571.811 1.571 2.075 0 1.27-.615 2.029-1.571 2.029z" fill="#ff462d"/><path d="m260.3 326.369c1.355 0 2.442-.51 2.906-1.374.085-.158.131-.315.131-.465 0-.439-.334-.701-.746-.701-.249 0-.419.072-.622.282-.517.609-.975.844-1.676.844-.968 0-1.597-.68-1.597-1.721v-.085h4.006c.53 0 .832-.302.832-.832 0-1.905-1.336-3.266-3.326-3.266-2.075 0-3.391 1.433-3.391 3.692 0 2.271 1.29 3.626 3.483 3.626zm-1.584-4.392c.065-.897.674-1.512 1.512-1.512s1.427.595 1.466 1.512z" fill="#ff462d"/><path d="m206.02 327.151h4.772v1.989h-4.772z" fill="#ff462d"/><path d="m210.793 327.151h3.214v1.989h-3.214z" fill="#ff462d"/><path d="m214.006 327.151h4.877v1.989h-4.877z" fill="#ff462d"/><path d="m218.883 327.151h6.906v1.989h-6.906z" fill="#ff462d"/><path d="m225.789 327.151h4.766v1.989h-4.766z" fill="#ff462d"/><path d="m230.555 327.151h2.651v1.989h-2.651z" fill="#ff462d"/><path d="m237.183 327.151h1.988v1.989h-1.988z" fill="#ff462d"/><path d="m239.171 327.151h1.988v1.989h-1.988z" fill="#ff462d"/><path d="m241.158 327.151h7.338v1.989h-7.338z" fill="#ff462d"/><path d="m256.45 327.151h7.083v1.989h-7.083z" fill="#ff462d"/><path d="m217.993 31.8204 1.749-5.7103 10.859 10.3321-14.781 2.4876 1.737-5.6841-.771-.2202c-32.934-9.3288-61.944-12.3057-85.249-9.4772-20.95 2.5427-36.2917 9.747-43.6677 19.782-3.9354 5.2837-6.4173 10.8884-7.5788 16.507l-.0999.5025.7764-.2172c12.911-3.5266 26.554-3.0982 37.148 1.1153l.686.2801c13.945 5.8366 19.424 17.14 12.806 30.1189-8.876 17.4081-27.006 18.0471-41.0276 4.5268-9.2202-8.8907-13.7496-21.0063-12.289-33.3123l.0487-.3875-.1441.0468c-1.929.6337-3.8335 1.3602-5.6998 2.1802l-.7974.3572c-17.9636 8.1996-30.5606 23.996-34.6496 46.4439-4.8836 26.811 2.4029 61.879 23.6605 104.912l-1.3355.66c-21.3879-43.297-28.7386-78.674-23.7905-105.838 4.1775-22.9349 17.0955-39.1337 35.4966-47.533 2.401-1.096 4.8678-2.0388 7.372-2.8299l.135-.0422.0484-.2784c1.0726-5.9665 3.5696-11.9332 7.6385-17.5552l.3987-.543c16.7791-22.8274 66.9991-29.0031 131.3211-10.6239zm-137.3056 29.9266-.7753.2254-.0161.1124c-1.7318 11.9826 2.4653 23.8424 11.2999 32.5984l.4175.4082c13.3636 12.8856 30.2946 12.2886 38.6666-4.1311 6.19-12.1396 1.147-22.5428-12.054-28.0682-10.554-4.4174-24.4634-4.8668-37.5386-1.1451z" fill="#ebebf5" fill-opacity=".6" opacity=".5"/><path d="m323.817 302.699-14.867-1.907 10.445-10.749 1.956 5.597.566-.225c42.94-17.149 79.364-50.437 88.734-86.519 11.834-45.571-17.899-92.295-96.326-135.2539l.715-1.3064c78.963 43.2523 109.087 90.5913 97.052 136.9353-9.552 36.784-46.638 70.542-90.249 87.776z" fill="#ebebf5" fill-opacity=".6" opacity=".5"/><path d="m29.2142 299.169-4.3438-4.112 14.0836-5.13-4.3466 14.345-4.3095-4.077-.1792.2c-22.66123 25.664-31.105821 49.326-26.022 68.524 4.69978 17.748 20.9276 30.749 44.6566 36.307 24.2053 5.669 54.1427 3.137 83.9447-7.701 33.062-12.025 64.315-33.509 90.292-63.491l1.126.976c-26.143 30.173-57.608 51.804-90.909 63.915-30.062 10.933-60.2927 13.489-84.7934 7.751-24.222-5.673-40.90008-19.034-45.75684-37.375-5.24583-19.81 3.43747-44.036 26.55744-70.132z" fill="#ebebf5" fill-opacity=".6" opacity=".5"/><path d="m240.999 227.617 5.915-1.511-3.17 14.65-9.817-11.326 5.588-1.431-.087-.17c-17.494-32.564-98.145-16.693-153.97 30.438l-.9609-1.138c56.7159-47.883 138.9199-63.889 156.5019-29.512z" fill="#ebebf5" fill-opacity=".6" opacity=".5"/></svg>