<svg fill="none" height="26" viewBox="0 0 26 26" width="26" xmlns="http://www.w3.org/2000/svg"><path d="m8.3667 21.2334c-.20215 0-.38558-.0786-.55029-.2358l-7.558109-7.5694c-.1722007-.1647-.258301-.3519-.258301-.5615 0-.2171.0861003-.4043.258301-.5615l7.501949-7.51321c.10482-.1123.2059-.18717.30323-.22461.09733-.04492.1984-.06738.30322-.06738.20963 0 .38558.07113.52783.21338.14225.13476.21338.30322.21338.50537 0 .10482-.01872.20589-.05615.30322-.02995.08985-.07862.16846-.146.23584l-3.38037 3.41407-3.97559 3.69482 3.97559 3.6948 3.38037 3.4141c.06738.0599.11605.1385.146.2358.03743.0974.05615.1984.05615.3032 0 .2022-.07113.3707-.21338.5054-.14225.1423-.3182.2134-.52783.2134zm-3.5376-7.6143-3.30176-.1572c-.1722 0-.31819-.0561-.43798-.1684-.112309-.1123-.168462-.2546-.168462-.4268 0-.1797.056153-.3219.168462-.4268.1123-.1123.25455-.1684.42675-.1684l3.31299-.1572h15.2847c.2171 0 .393.0711.5278.2133.1423.1423.2134.322.2134.5391s-.0711.3968-.2134.5391c-.1348.1422-.3107.2133-.5278.2133z" fill="#fff"/></svg>