<svg fill="none" height="26" viewBox="0 0 26 26" width="26" xmlns="http://www.w3.org/2000/svg"><path d="m17.4883 21.2334c-.2097 0-.3856-.0711-.5279-.2134-.1347-.1347-.2021-.3032-.2021-.5054 0-.1048.015-.2058.0449-.3032.03-.0973.0786-.1759.146-.2358l3.3804-3.4141 3.9756-3.6948-3.9756-3.69482-3.3804-3.41407c-.0674-.06738-.116-.14599-.146-.23584-.0299-.09733-.0449-.1984-.0449-.30322 0-.20215.0674-.37061.2021-.50537.1423-.14225.3182-.21338.5279-.21338.1048 0 .2059.02246.3032.06738.0973.03744.1984.11231.3032.22461l7.5132 7.51321c.1647.1572.2471.3444.2471.5615 0 .2096-.0824.3968-.2471.5615l-7.5693 7.5694c-.1647.1572-.3482.2358-.5503.2358zm-11.74709-7.6143c-.21712 0-.39681-.0711-.53906-.2133-.13477-.1423-.20215-.322-.20215-.5391s.06738-.3968.20215-.5391c.14225-.1422.32194-.2133.53906-.2133h15.28469l3.313.1572c.1722.0075.3144.0636.4267.1684.1123.1049.1685.2471.1685.4268 0 .1722-.0562.3107-.1685.4155s-.2583.1647-.438.1797l-3.3017.1572z" fill="#fff"/></svg>