<svg fill="none" height="26" viewBox="0 0 26 26" width="26" xmlns="http://www.w3.org/2000/svg"><path d="m6.30176 23.3271c-1.0931 0-1.91667-.277-2.47071-.831-.55403-.5466-.83105-1.3589-.83105-2.437v-13.7798c0-1.08562.27702-1.9017.83105-2.44825.55404-.55403 1.37761-.83105 2.47071-.83105h13.71244c1.1005 0 1.9279.28076 2.4819.84229.554.55403.831 1.36637.831 2.43701v13.7798c0 1.0781-.277 1.8904-.831 2.437-.554.554-1.3814.831-2.4819.831zm12.62304-10.1748c0-.0898-.0187-.1759-.0561-.2583-.03-.0823-.0899-.1684-.1797-.2583l-3.7286-3.81832c-.0673-.06738-.1385-.11605-.2133-.14599-.0749-.03744-.1573-.05616-.2471-.05616-.1797 0-.3294.06364-.4492.19092-.1198.11979-.1797.26953-.1797.44922 0 .20215.0711.36686.2134.49414l2.0439 1.96529.8086.7862-1.6621-.0562h-7.08642c-.18718 0-.34815.0712-.48291.2134-.13477.1348-.20215.2995-.20215.4941 0 .1947.06738.3594.20215.4942.13476.1347.29573.2021.48291.2021h7.08642l1.6733-.0449-.8198.7974-2.0439 1.9653c-.1423.1273-.2134.292-.2134.4941 0 .1797.0599.3295.1797.4493s.2695.1797.4492.1797c.0898 0 .1722-.015.2471-.045.0748-.0374.146-.0898.2133-.1572l3.7286-3.8184c.0898-.0898.1497-.1759.1797-.2583.0374-.0823.0561-.1684.0561-.2583z" fill="#fff"/></svg>