<svg preserveAspectRatio="none" width="100%" height="100%" overflow="visible" style="display: block;" viewBox="0 0 14.5078 11.8438" fill="none" xmlns="http://www.w3.org/2000/svg">
<path id="&#244;&#128;&#132;&#171;" d="M8.57031 11.8438C8.3776 11.8438 8.21615 11.7786 8.08594 11.6484C7.95573 11.5234 7.89062 11.3646 7.89062 11.1719C7.89062 11.0781 7.90625 10.9896 7.9375 10.9062C7.96875 10.8177 8.01562 10.7422 8.07812 10.6797L9.82812 8.89844L13.0859 5.92188L9.82812 2.94531L8.07812 1.16406C8.01562 1.10156 7.96875 1.02865 7.9375 0.945312C7.90625 0.856771 7.89062 0.765625 7.89062 0.671875C7.89062 0.479167 7.95573 0.320312 8.08594 0.195312C8.21615 0.0651042 8.3776 0 8.57031 0C8.66406 0 8.7526 0.0182292 8.83594 0.0546875C8.92448 0.0911458 9.01042 0.151042 9.09375 0.234375L14.2734 5.39844C14.4297 5.54948 14.5078 5.72396 14.5078 5.92188C14.5078 6.11979 14.4297 6.29427 14.2734 6.44531L9.07812 11.625C8.92708 11.7708 8.75781 11.8438 8.57031 11.8438ZM0.6875 6.61719C0.484375 6.61719 0.317708 6.55208 0.1875 6.42188C0.0625 6.29167 0 6.125 0 5.92188C0 5.71875 0.0625 5.55208 0.1875 5.42188C0.317708 5.29167 0.484375 5.22656 0.6875 5.22656H10.5703L13.0859 5.38281C13.2474 5.39323 13.3776 5.44531 13.4766 5.53906C13.5755 5.63281 13.625 5.76042 13.625 5.92188C13.625 6.07812 13.5755 6.20312 13.4766 6.29688C13.3776 6.39062 13.2474 6.44531 13.0859 6.46094L10.5703 6.61719H0.6875Z" fill="var(--fill-0, #FF453A)"/>
</svg>
