<svg fill="none" height="26" viewBox="0 0 26 26" width="26" xmlns="http://www.w3.org/2000/svg"><path d="m6.30176 23.3271c-1.0931 0-1.91667-.277-2.47071-.831-.55403-.5466-.83105-1.3589-.83105-2.437v-13.7798c0-1.08562.27702-1.9017.83105-2.44825.55404-.55403 1.37761-.83105 2.47071-.83105h13.71244c1.1005 0 1.9279.28076 2.4819.84229.554.55403.831 1.36637.831 2.43701v13.7798c0 1.0781-.277 1.8904-.831 2.437-.554.554-1.3814.831-2.4819.831zm1.20166-10.1748c0 .0899.01497.176.04492.2583.03743.0824.10107.1685.19092.2583l3.72854 3.8184c.0674.0674.1385.1198.2134.1572.0748.03.1609.045.2583.045.1722 0 .3181-.0599.4379-.1797s.1797-.2696.1797-.4493c0-.2021-.0711-.3668-.2133-.4941l-2.044-1.9653-.81982-.7974 1.67332.0449h7.0864c.1872 0 .3482-.0674.483-.2021.1347-.1348.2021-.2995.2021-.4942 0-.1946-.0674-.3593-.2021-.4941-.1348-.1422-.2958-.2134-.483-.2134h-7.0864l-1.67332.0562.81982-.7862 2.044-1.96529c.1422-.12728.2133-.29199.2133-.49414 0-.17969-.0599-.32943-.1797-.44922-.1198-.12728-.2657-.19092-.4379-.19092-.0974 0-.1835.01872-.2583.05616-.0749.02994-.146.07861-.2134.14599l-3.72854 3.81832c-.08985.0899-.15349.176-.19092.2583-.02995.0824-.04492.1685-.04492.2583z" fill="#fff"/></svg>