<svg fill="none" height="17" viewBox="0 0 14 17" width="14" xmlns="http://www.w3.org/2000/svg"><path d="m3.26562 16.7031c-1.04687 0-1.85416-.2838-2.42187-.8515-.5625-.5625-.84375-1.3672-.84375-2.4141v-6.01562c0-1.04688.28125-1.85157.84375-2.41407.56771-.56771 1.375-.85156 2.42187-.85156h1.57813v1.25781h-1.57813c-.64062 0-1.13541.17448-1.48437.52344s-.52344.84375-.52344 1.48438v6.01562c0 .6406.17448 1.1354.52344 1.4844.34896.3489.84375.5234 1.48437.5234h7.32818c.6458 0 1.1432-.1745 1.4921-.5234.349-.349.5235-.8438.5235-1.4844v-6.01562c0-.64063-.1745-1.13542-.5235-1.48438-.3489-.34896-.8463-.52344-1.4921-.52344h-1.57818v-1.25781h1.57818c1.052 0 1.8593.28385 2.4218.85156.5677.5625.8516 1.36719.8516 2.41407v6.01562c0 1.0469-.2839 1.8516-.8516 2.4141-.5625.5677-1.3698.8515-2.4218.8515zm3.67188-16.7031c.16667 0 .3099.0598958.42969.179688.125.119791.1875.260416.1875.421874v7.953128l-.09375 2.10151c-.01042.1459-.06511.2709-.16406.375-.09896.099-.21876.1485-.35938.1485-.14583 0-.26823-.0495-.36719-.1485-.09896-.1041-.15364-.2291-.16406-.375l-.09375-2.10151v-7.953128c0-.161458.0599-.302083.17969-.421874.125-.1197922.27343-.179688.44531-.179688zm-2.65625 7.78125c.17708 0 .32031.0625.42969.1875l1.21094 1.28906 1.01562 1.07809 1.00781-1.07809 1.21094-1.28906c.10417-.125.24479-.1875.42187-.1875.16146 0 .29688.05208.40626.15625.10942.10417.16402.23438.16402.39062 0 .15105-.0625.28907-.18746.41407l-2.57813 2.48441c-.07812.0781-.15364.1328-.22656.164-.06771.0313-.14063.0469-.21875.0469-.08333 0-.16146-.0156-.23438-.0469-.0677-.0312-.14062-.0859-.21874-.164l-2.57813-2.48441c-.125-.125-.1875-.26302-.1875-.41407 0-.15624.05208-.28645.15625-.39062.10938-.10417.24479-.15625.40625-.15625z" fill="#ff453a"/></svg>
