<svg fill="none" height="23" viewBox="0 0 25 23" width="25" xmlns="http://www.w3.org/2000/svg"><path d="m12.4988 0c-6.68547 0-12.105978 5.27898-12.105978 11.7914 0 5.2095 3.468738 9.6285 8.279788 11.1884.60575.1079.82649-.2562.82649-.5689 0-.2794-.01041-1.0214-.01635-2.0051-3.36766.7123-4.0782-1.5808-4.0782-1.5808-.55075-1.3616-1.34454-1.7249-1.34454-1.7249-1.09926-.7311.08324-.7166.08324-.7166 1.21521.0832 1.85441 1.2153 1.85441 1.2153 1.07994 1.8016 2.834 1.2812 3.52374.9801.11-.7622.42216-1.282.7685-1.5766-2.68831-.2975-5.51489-1.3094-5.51489-5.8276 0-1.28701.47197-2.33948 1.24643-3.16393-.12486-.29823-.54034-1.49691.11818-3.12049 0 0 1.01676-.31704 3.32975 1.20882.96543-.26203 2.00153-.39233 3.03093-.39667 1.0279.00434 2.064.13464 3.031.39667 2.3115-1.52586 3.326-1.20882 3.326-1.20882.6608 1.62358.2453 2.82226.1204 3.12049.776.82445 1.245 1.87692 1.245 3.16393 0 4.5298-2.831 5.5265-5.5283 5.8182.4348.3641.822 1.0836.822 2.1839 0 1.5758-.0148 2.8476-.0148 3.2341 0 .3156.2177.6826.8324.5675 4.8073-1.5628 8.2731-5.979 8.2731-11.187 0-6.51242-5.4212-11.7914-12.1083-11.7914z" fill="#fff"/></svg>