<svg fill="none" height="22" viewBox="0 0 23 22" width="23" xmlns="http://www.w3.org/2000/svg"><path clip-rule="evenodd" d="m11.4997-.00079346c-3.01427 0-3.39244.01237956-4.57622.06602426-1.1817.0536452-1.98801.2393382-2.69439.5110002-.72998.281291-1.34893.657489-1.9658 1.268909-.61687.61141-.99643 1.22488-1.280235 1.9484-.274087.69944-.462133 1.4993-.515562 2.67054-.054124 1.17331-.066614 1.54813-.066614 4.53572 0 2.9876.01249 3.3624.066614 4.5357.054123 1.1713.241475 1.9705.515562 2.6706.283805.7235.663365 1.337 1.280235 1.9484s1.23582.9876 1.9658 1.2689c.70569.2717 1.51269.458 2.69439.511 1.18378.0536 1.56195.066 4.57622.066 3.0143 0 3.3924-.0124 4.5762-.066 1.1817-.0536 1.988-.2393 2.6944-.511.73-.2813 1.3489-.6575 1.9658-1.2689s.9964-1.2249 1.2803-1.9484c.274-.6995.4621-1.4993.5155-2.6706.0541-1.1733.0666-1.5481.0666-4.5357 0-2.98759-.0125-3.36241-.0666-4.53572-.0541-1.17124-.2415-1.97041-.5155-2.67054-.2839-.72352-.6634-1.33699-1.2803-1.9484-.6169-.61142-1.2358-.987618-1.9658-1.268909-.7057-.271662-1.5127-.458043-2.6944-.5110002-1.1838-.0536447-1.5619-.06602426-4.5762-.06602426zm7.2568 5.12857346c0 .72902-.596 1.3198-1.3315 1.3198-.7356 0-1.3316-.59078-1.3316-1.3198s.596-1.3198 1.3316-1.3198c.7355 0 1.3315.59078 1.3315 1.3198zm-7.2567.22281c-3.14751 0-5.69965 2.52886-5.69965 5.64921 0 3.1196 2.55144 5.6492 5.69965 5.6492 3.1475 0 5.6996-2.5289 5.6996-5.6492 0-3.11966-2.5514-5.64921-5.6996-5.64921zm-.0001 9.31561c-2.0435 0-3.69983-1.6416-3.69983-3.6671 0-2.0254 1.65633-3.66707 3.69983-3.66707s3.6999 1.64167 3.6999 3.66707c0 2.0255-1.6564 3.6671-3.6999 3.6671z" fill="#fff" fill-rule="evenodd"/></svg>