<svg fill="none" height="21" viewBox="0 0 22 21" width="22" xmlns="http://www.w3.org/2000/svg"><path clip-rule="evenodd" d="m1.97327 0h18.05753c.864 0 1.5673.677833 1.5673 1.51433v17.97017c0 .8365-.7033 1.5155-1.5673 1.5155h-18.05753c-.86224 0-1.562625-.679-1.562625-1.5155v-17.97017c0-.836497.700385-1.51433 1.562625-1.51433zm13.35023 17.8943h3.1423v-5.4962c0-2.69904-.588-4.77395-3.7703-4.77395-1.5285 0-2.5538.83066-2.9728 1.61875h-.0436v-1.37025h-3.01222v10.02165h3.13882v-4.9566c0-1.3078.2495-2.5742 1.8851-2.5742 1.6127 0 1.6327 1.4951 1.6327 2.6571zm-10.19972-11.39073c-1.00938 0-1.82336-.80908-1.82336-1.80658 0-.99692.81398-1.806 1.82336-1.806 1.00525 0 1.821.80908 1.821 1.806 0 .9975-.81575 1.80658-1.821 1.80658zm1.57201 11.39073h-3.14584v-10.02162h3.14584z" fill="#fff" fill-rule="evenodd"/></svg>