<svg fill="none" height="26" viewBox="0 0 26 26" width="26" xmlns="http://www.w3.org/2000/svg"><path d="m12.9989 1c-6.62636 0-11.9989 5.27898-11.9989 11.7914 0 5.2095 3.43804 9.6285 8.20651 11.1884.60039.1079.81919-.2562.81919-.5689 0-.2794-.0103-1.0214-.0162-2.0051-3.33787.7123-4.04213-1.5808-4.04213-1.5808-.54587-1.3616-1.33264-1.7249-1.33264-1.7249-1.08953-.7311.08251-.7166.08251-.7166 1.20446.0832 1.83799 1.2153 1.83799 1.2153 1.07039 1.8016 2.80893 1.2812 3.49257.9801.109-.7622.4184-1.282.7617-1.5766-2.66453-.2975-5.46609-1.3094-5.46609-5.8276 0-1.287.46779-2.33948 1.2354-3.16393-.12376-.29823-.53556-1.49691.11713-3.12049 0 0 1.00776-.31704 3.30028 1.20882.95698-.26203 1.98388-.39233 3.00418-.39667 1.0188.00434 2.0457.13464 3.0041.39667 2.2911-1.52586 3.2966-1.20882 3.2966-1.20882.6549 1.62358.2431 2.82226.1194 3.12049.769.82445 1.2339 1.87693 1.2339 3.16393 0 4.5298-2.806 5.5265-5.4794 5.8182.431.3641.8148 1.0836.8148 2.1839 0 1.5758-.0148 2.8476-.0148 3.2341 0 .3156.2159.6826.8251.5675 4.7648-1.5628 8.1999-5.979 8.1999-11.187 0-6.51242-5.3733-11.7914-12.0011-11.7914" fill="#fff"/></svg>