<svg fill="none" height="26" viewBox="0 0 26 26" width="26" xmlns="http://www.w3.org/2000/svg"><path d="m13.001 2c2.9871 0 3.362.01277 4.5351.06641 1.1713.05295 1.9715.23908 2.6709.51074.7234.28126 1.3369.65726 1.9483 1.26855.6113.61129.9873 1.22493 1.2685 1.94825.2717.70012.4581 1.49966.5117 2.67089.0537 1.17331.0655 1.54856.0655 4.53616 0 2.987-.0118 3.362-.0655 4.5351-.0529 1.1713-.24 1.9715-.5117 2.6709-.2813.7234-.6572 1.3369-1.2685 1.9483-.6114.6113-1.2249.9872-1.9483 1.2685-.7001.2717-1.4996.4581-2.6709.5117-1.1731.0537-1.5481.0655-4.5351.0655-2.9876 0-3.36285-.0118-4.53616-.0655-1.17123-.0529-1.97145-.24-2.67089-.5117-.72332-.2812-1.33696-.6572-1.94825-1.2685-.61129-.6114-.98729-1.2249-1.26855-1.9483-.27166-.7001-.4571-1.4996-.51074-2.6709-.05364-1.1731-.06641-1.548-.06641-4.5351 0-2.9876.01276-3.36285.06641-4.53616.05296-1.17121.23908-1.97146.51074-2.67089.28127-.72336.65725-1.33694 1.26855-1.94825.61131-.6113 1.22489-.98728 1.94825-1.26855.70012-.27166 1.49968-.4571 2.67089-.51074 1.17331-.05365 1.54856-.06641 4.53616-.06641zm0 5.35156c-3.11967 0-5.64944 2.52908-5.64944 5.64944.0002 3.1195 2.52921 5.6484 5.64944 5.6484 3.1193-.0002 5.6482-2.5284 5.6484-5.6484 0-3.11955-2.5283-5.64924-5.6484-5.64944zm0 1.98145c2.0252.0002 3.667 1.64169 3.667 3.66699-.0001 2.0253-1.6418 3.6668-3.667 3.667-2.0254 0-3.66697-1.6416-3.66702-3.667 0-2.0254 1.64152-3.66699 3.66702-3.66699zm5.872-3.52442c-.7288.00015-1.3193.59139-1.3193 1.32032.0002.72877.5906 1.31918 1.3193 1.31933.729 0 1.3202-.59047 1.3204-1.31933 0-.72902-.5913-1.32032-1.3204-1.32032z" fill="#fff"/></svg>