<svg width="51" height="17" viewBox="0 0 51 17" fill="none" xmlns="http://www.w3.org/2000/svg">
<path d="M1.31037 0.00668755L5.7508 0.735203C6.02316 0.779918 6.2074 1.03708 6.16291 1.30942C6.11817 1.58192 5.86119 1.76725 5.58869 1.72251L2.36408 1.19223C9.1902 10.1753 17.982 14.6553 26.5106 15.1883C35.3471 15.7406 43.9399 12.0609 49.8387 4.68735L50.6199 5.31235C44.5188 12.9388 35.6115 16.7591 26.4481 16.1864C17.5846 15.6324 8.51919 10.9719 1.5301 1.74888L0.993967 5.02134C0.949252 5.29369 0.69209 5.47793 0.419748 5.43345C0.147254 5.38871 -0.0380755 5.13172 0.00666231 4.85923L0.736154 0.418797C0.780932 0.146349 1.03791 -0.0380457 1.31037 0.00668755Z" fill="#FF453A"/>
</svg>
