<svg fill="none" height="20" viewBox="0 0 25 20" width="25" xmlns="http://www.w3.org/2000/svg"><path d="m7.99913 20c9.13707 0 14.13737-7.6972 14.13737-14.36049 0-.21676 0-.43275-.0098-.6495.9693-.70869 1.8122-1.60415 2.4804-2.61799-.8914.40354-1.8509.66949-2.8588.79708 1.0268-.62029 1.8123-1.61414 2.1899-2.795541-.9595.581091-2.0249.993851-3.1585 1.220601-.911-.984629-2.1997-1.59416-3.6238-1.59416-2.7423 0-4.9707 2.26364-4.9707 5.04919 0 .39355.0484.77787.1256 1.15142-4.12779-.20676-7.7902-2.22444-10.2419-5.275937-.42602.747887-.66891 1.614147-.66891 2.539587 0 1.75173.88155 3.29746 2.20955 4.20292-.81421-.02921-1.57923-.25596-2.24815-.63029v.06918c0 2.4412 1.71543 4.48813 3.9825 4.95083-.41694.1183-.8528.1768-1.30833.1768-.32008 0-.62957-.0292-.92998-.0884.62957 2.0077 2.47061 3.4642 4.64157 3.5042-1.70559 1.3582-3.84704 2.1653-6.17237 2.1653-.39726 0-.794529-.02-1.181958-.0692 2.189878 1.4174 4.805778 2.2536 7.606308 2.2536" fill="#fff"/></svg>