<svg width="32" height="32" viewBox="0 0 32 32" xmlns="http://www.w3.org/2000/svg" class="icon-social-instagram"><g fill="#F3504B"><path d="M16 2.887c4.271 0 4.777.016 6.463.093 1.559.071 2.406.332 2.97.551.747.29 1.279.637 1.839 1.197s.906 1.093 1.196 1.839c.219.564.48 1.411.551 2.97.077 1.687.093 2.193.093 6.463 0 4.271-.016 4.777-.093 6.463-.071 1.559-.332 2.406-.551 2.97-.29.747-.637 1.279-1.196 1.839-.56.56-1.093.906-1.839 1.196-.564.219-1.411.48-2.97.551-1.686.077-2.192.093-6.463.093s-4.777-.016-6.463-.093c-1.559-.071-2.406-.332-2.97-.551-.747-.29-1.279-.637-1.839-1.196-.56-.56-.906-1.093-1.196-1.839-.219-.564-.48-1.411-.551-2.97-.077-1.687-.093-2.193-.093-6.463 0-4.271.016-4.777.093-6.463.071-1.559.332-2.406.551-2.97.29-.747.637-1.279 1.196-1.839.56-.56 1.093-.906 1.839-1.197.564-.219 1.411-.48 2.97-.551 1.687-.077 2.193-.093 6.463-.093m0-2.882c-4.344 0-4.889.018-6.595.096-1.703.078-2.865.348-3.883.743-1.052.409-1.944.956-2.833 1.845-.889.889-1.436 1.781-1.845 2.833-.395 1.017-.666 2.18-.743 3.883-.078 1.706-.096 2.251-.096 6.595 0 4.344.018 4.889.096 6.595.078 1.703.348 2.865.743 3.883.409 1.052.956 1.944 1.845 2.833.889.889 1.781 1.436 2.833 1.845 1.017.395 2.18.666 3.883.743 1.706.078 2.251.096 6.595.096 4.344 0 4.889-.018 6.595-.096 1.703-.078 2.865-.348 3.883-.743 1.052-.409 1.944-.956 2.833-1.845.889-.889 1.436-1.781 1.845-2.833.395-1.017.666-2.18.743-3.883.078-1.706.096-2.251.096-6.595 0-4.344-.018-4.889-.096-6.595-.078-1.703-.348-2.865-.743-3.883-.409-1.052-.956-1.944-1.845-2.833-.889-.889-1.781-1.436-2.833-1.845-1.017-.395-2.18-.666-3.883-.743-1.706-.078-2.251-.096-6.595-.096"/><path d="M16 7.786c-4.536 0-8.214 3.677-8.214 8.214 0 4.536 3.677 8.214 8.214 8.214 4.536 0 8.214-3.677 8.214-8.214 0-4.536-3.677-8.214-8.214-8.214zm0 13.545c-2.945 0-5.332-2.387-5.332-5.332s2.387-5.332 5.332-5.332 5.332 2.387 5.332 5.332-2.387 5.332-5.332 5.332z"/><path d="M26.458 7.462c0 1.06-.859 1.919-1.919 1.919s-1.919-.859-1.919-1.919.859-1.919 1.919-1.919 1.919.859 1.919 1.919"/></g></svg>
