<svg preserveAspectRatio="none" width="100%" height="100%" overflow="visible" style="display: block;" viewBox="0 0 100 44" fill="none" xmlns="http://www.w3.org/2000/svg">
<path id="Vector" fill-rule="evenodd" clip-rule="evenodd" d="M0 44H100V0H0V44ZM27.7379 30.0595C23.531 30.0595 20.1096 27.3649 18.9954 23.5739H18.0431V29.7718H14.2385V12.8983H20.6569C21.6575 12.8983 22.5374 13.0375 23.2967 13.3164C24.0556 13.5941 24.6903 13.974 25.1989 14.4549C25.7082 14.9353 26.0878 15.4969 26.3374 16.1368C26.5875 16.7776 26.7131 17.4615 26.7131 18.1856C26.7131 19.282 26.4674 20.2393 25.9751 21.0575C25.4838 21.8756 24.7894 22.4545 23.8918 22.9443C23.6033 23.1143 23.2758 23.2688 22.8193 23.3881C23.6976 25.2404 25.4718 26.4611 27.7379 26.4611V30.0595ZM47.0314 29.7853H34.9871V12.9037H46.4771V16.2447H38.7926V19.5351H44.5783V22.774H38.7926V26.4191H47.0314V29.7853ZM58.3324 17.1744C58.3324 17.7502 58.6411 18.2158 59.2564 18.5724C59.8718 18.9285 60.7181 19.2256 61.795 19.4623C62.4276 19.6154 63.0475 19.8223 63.654 20.0849C64.2615 20.3483 64.8039 20.691 65.2833 21.115C65.7613 21.5384 66.1458 22.0604 66.4378 22.6789C66.7275 23.2969 66.8729 24.0467 66.8729 24.9274C66.8729 25.69 66.7017 26.3943 66.3597 27.038C66.0174 27.6829 65.5528 28.241 64.9624 28.716C64.3726 29.1909 63.6799 29.5599 62.8849 29.8223C62.0897 30.0844 61.2311 30.2155 60.3076 30.2155C59.4525 30.2155 58.6753 30.1348 57.974 29.9739C57.2733 29.813 56.6406 29.6019 56.0762 29.3384C55.5124 29.0765 55.0038 28.7754 54.5507 28.4361C54.0971 28.098 53.7085 27.7502 53.3829 27.3947L55.8713 24.7242C56.0931 24.9625 56.3547 25.2042 56.6529 25.4498C56.9518 25.695 57.2851 25.9193 57.6533 26.1224C58.0213 26.327 58.4228 26.4913 58.8589 26.618C59.2942 26.7458 59.7606 26.8097 60.2565 26.8097C60.5468 26.8097 60.8376 26.7671 61.1285 26.6819C61.4188 26.5978 61.6843 26.475 61.9235 26.3135C62.1626 26.152 62.3557 25.958 62.5013 25.7286C62.6456 25.5004 62.7185 25.2419 62.7185 24.954C62.7185 24.3271 62.4118 23.8397 61.795 23.4921C61.179 23.1445 60.2054 22.8017 58.8714 22.4626C58.2211 22.3094 57.6197 22.0891 57.0633 21.8013C56.5079 21.5132 56.0296 21.1654 55.6276 20.7584C55.2256 20.3517 54.9135 19.8862 54.6915 19.3602C54.4693 18.8359 54.3576 18.251 54.3576 17.6061C54.3576 16.895 54.4863 16.2259 54.7426 15.598C54.9988 14.9709 55.3879 14.4163 55.909 13.9324C56.4307 13.45 57.0807 13.0687 57.8579 12.7894C58.6367 12.509 59.5547 12.3693 60.6158 12.3693C61.4878 12.3693 62.2569 12.4586 62.9231 12.6368C63.59 12.8152 64.1588 13.0265 64.6288 13.2717C65.0992 13.5175 65.4832 13.7725 65.7831 14.035C66.0818 14.2973 66.3086 14.5054 66.4629 14.6569L64.2317 17.098C64.0425 16.9455 63.8253 16.7806 63.5776 16.6022C63.33 16.4244 63.0521 16.2595 62.7439 16.1065C62.4372 15.954 62.0986 15.8266 61.7319 15.7252C61.3631 15.6237 60.9742 15.5726 60.5642 15.5726C60.2907 15.5726 60.0211 15.6147 59.7563 15.7C59.4907 15.7846 59.2514 15.8995 59.0381 16.0426C58.8247 16.1873 58.6535 16.3572 58.5254 16.5518C58.3969 16.7469 58.3324 16.9539 58.3324 17.1744ZM88.0478 12.9037L82.0574 22.6987V29.7853H78.14V22.7236L72.1494 12.9037H76.5271L80.2399 19.282L83.8489 12.9037H88.0478ZM20.5428 20.6385C21.2674 20.6385 21.8371 20.4275 22.251 20.0061C22.665 19.5847 22.8718 19.0532 22.8718 18.4125C22.8718 17.7206 22.665 17.1723 22.251 16.7672C21.8371 16.3626 21.2674 16.1605 20.5428 16.1605H18.2097V20.6385H20.5428Z" fill="var(--fill-0, white)"/>
</svg>
